<svg xmlns="http://www.w3.org/2000/svg" viewBox="0 0 57.67 57.69"><defs><style>.cls-1{fill:#c8c8c8;}</style></defs><title>DATA</title><g id="Calque_2" data-name="Calque 2"><g id="Calque_1-2" data-name="Calque 1"><path class="cls-1" d="M14.25,11.64a3.28,3.28,0,1,0,3.32,3.28,3.3,3.3,0,0,0-3.32-3.28m0,5.1a1.82,1.82,0,1,1,1.84-1.82,1.83,1.83,0,0,1-1.84,1.82"/><path class="cls-1" d="M43.31,13.1a.73.73,0,1,1-.73.73.73.73,0,0,1,.73-.73"/><path class="cls-1" d="M40.37,13.1a.73.73,0,1,1,0,1.45.73.73,0,1,1,0-1.45"/><path class="cls-1" d="M44.78,15.28a.73.73,0,1,1-.73.73.74.74,0,0,1,.73-.73"/><path class="cls-1" d="M41.84,15.28a.73.73,0,1,1,0,1.46.73.73,0,0,1,0-1.46"/><path class="cls-1" d="M37.43,13.1a.73.73,0,1,1-.74.73.73.73,0,0,1,.74-.73"/><path class="cls-1" d="M38.9,15.28a.73.73,0,1,1-.74.73.74.74,0,0,1,.74-.73"/><path class="cls-1" d="M34.49,13.1a.73.73,0,1,1-.74.73.73.73,0,0,1,.74-.73"/><path class="cls-1" d="M36,15.28a.73.73,0,1,1-.74.73.73.73,0,0,1,.74-.73"/><path class="cls-1" d="M31.54,13.1a.73.73,0,1,1-.73.73.73.73,0,0,1,.73-.73"/><path class="cls-1" d="M33,15.28a.73.73,0,1,1-.73.73.74.74,0,0,1,.73-.73"/><path class="cls-1" d="M50.67,19.21V10.63a3.37,3.37,0,0,0-3.39-3.35H9.92a3.37,3.37,0,0,0-3.39,3.35V19.2a3.32,3.32,0,0,0,1.31,2.63,3.34,3.34,0,0,0-1.31,2.63V33a3.34,3.34,0,0,0,1.31,2.63,3.32,3.32,0,0,0-1.31,2.62v8.58a3.37,3.37,0,0,0,3.39,3.35H47.28a3.37,3.37,0,0,0,3.39-3.35V38.28a3.32,3.32,0,0,0-1.31-2.62A3.34,3.34,0,0,0,50.67,33V24.46a3.34,3.34,0,0,0-1.31-2.63,3.32,3.32,0,0,0,1.31-2.62M49.2,38.28v8.58a1.91,1.91,0,0,1-1.92,1.9H9.92A1.91,1.91,0,0,1,8,46.86V38.28a1.91,1.91,0,0,1,1.92-1.89H47.28a1.91,1.91,0,0,1,1.92,1.89m0-13.82V33a1.91,1.91,0,0,1-1.92,1.9H9.92A1.91,1.91,0,0,1,8,33V24.46a1.91,1.91,0,0,1,1.92-1.9H47.28a1.91,1.91,0,0,1,1.92,1.9M9.92,21.1A1.91,1.91,0,0,1,8,19.21V10.63a1.91,1.91,0,0,1,1.92-1.9H47.28a1.91,1.91,0,0,1,1.92,1.9V19.2a1.91,1.91,0,0,1-1.92,1.9Z"/><path class="cls-1" d="M14.25,32a3.28,3.28,0,1,0-3.31-3.27A3.3,3.3,0,0,0,14.25,32m0-5.09a1.82,1.82,0,1,1-1.83,1.82,1.82,1.82,0,0,1,1.83-1.82"/><path class="cls-1" d="M43.31,26.93a.73.73,0,1,1-.73.72.73.73,0,0,1,.73-.72"/><path class="cls-1" d="M40.37,26.93a.73.73,0,1,1-.73.72.72.72,0,0,1,.73-.72"/><path class="cls-1" d="M44.78,29.11a.73.73,0,1,1-.73.73.73.73,0,0,1,.73-.73"/><path class="cls-1" d="M41.84,29.11a.73.73,0,1,1,0,1.45.73.73,0,1,1,0-1.45"/><path class="cls-1" d="M37.43,26.93a.73.73,0,1,1-.74.72.73.73,0,0,1,.74-.72"/><path class="cls-1" d="M38.9,29.11a.73.73,0,1,1-.74.73.73.73,0,0,1,.74-.73"/><path class="cls-1" d="M34.49,26.93a.73.73,0,1,1-.74.72.73.73,0,0,1,.74-.72"/><path class="cls-1" d="M36,29.11a.73.73,0,1,1-.74.73.73.73,0,0,1,.74-.73"/><path class="cls-1" d="M31.54,26.93a.73.73,0,1,1-.73.72.73.73,0,0,1,.73-.72"/><path class="cls-1" d="M33,29.11a.73.73,0,1,1-.73.73.73.73,0,0,1,.73-.73"/><path class="cls-1" d="M14.25,45.85a3.28,3.28,0,1,0-3.31-3.28,3.3,3.3,0,0,0,3.31,3.28m0-5.1a1.82,1.82,0,1,1-1.83,1.82,1.83,1.83,0,0,1,1.83-1.82"/><path class="cls-1" d="M43.31,40.75a.73.73,0,1,1-.73.73.74.74,0,0,1,.73-.73"/><path class="cls-1" d="M40.37,40.75a.73.73,0,1,1,0,1.46.73.73,0,0,1,0-1.46"/><path class="cls-1" d="M44.78,42.94a.73.73,0,1,1-.73.72.73.73,0,0,1,.73-.72"/><path class="cls-1" d="M41.84,42.94a.73.73,0,1,1-.73.72.72.72,0,0,1,.73-.72"/><path class="cls-1" d="M37.43,40.75a.73.73,0,1,1-.74.73.73.73,0,0,1,.74-.73"/><path class="cls-1" d="M38.9,42.94a.73.73,0,1,1-.74.72.73.73,0,0,1,.74-.72"/><path class="cls-1" d="M34.49,40.75a.73.73,0,1,1-.74.73.73.73,0,0,1,.74-.73"/><path class="cls-1" d="M36,42.94a.73.73,0,1,1-.74.72.73.73,0,0,1,.74-.72"/><path class="cls-1" d="M31.54,40.75a.73.73,0,1,1-.73.73.74.74,0,0,1,.73-.73"/><path class="cls-1" d="M33,42.94a.73.73,0,1,1-.73.72.73.73,0,0,1,.73-.72"/><path class="cls-1" d="M1.15,28.84q0,10.85,0,21.69a7,7,0,0,0,.07,1.12A5.85,5.85,0,0,0,7,56.54H50.66a5.86,5.86,0,0,0,5.86-6V7a5.88,5.88,0,0,0-6-5.82H7.09c-.23,0-.46,0-.69,0A5.73,5.73,0,0,0,2.33,3.48,5.63,5.63,0,0,0,1.15,7V28.84M28.84,57.68H7.19a7.07,7.07,0,0,1-3-.59A6.9,6.9,0,0,1,.07,51.63a7.34,7.34,0,0,1-.06-1Q0,28.84,0,7.1A7.09,7.09,0,0,1,4.24.57,7.17,7.17,0,0,1,7.06,0H36.82c4.61,0,9.23,0,13.85,0A6.77,6.77,0,0,1,57,4.13a6.79,6.79,0,0,1,.62,3V35c0,5.23,0,10.45,0,15.68a6.8,6.8,0,0,1-3.33,5.95,6.61,6.61,0,0,1-3.49,1h-22"/></g></g></svg>