<svg xmlns="http://www.w3.org/2000/svg" viewBox="0 0 57.67 57.69"><defs><style>.cls-1{fill:#c8c8c8;}</style></defs><title>DISPATCH</title><g id="Calque_2" data-name="Calque 2"><g id="Calque_1-2" data-name="Calque 1"><path class="cls-1" d="M130.15,94.84l-11.24,5.42V87l2.68-1.29a.38.38,0,0,0,.18-.52.38.38,0,0,0-.51-.18l-2.73,1.32-1.08-.52a.4.4,0,0,0-.52.18.39.39,0,0,0,.18.52l1,.49v13.22l-11.23-5.42V81.62l8.55,4.13a.33.33,0,0,0,.17,0,.39.39,0,0,0,.17-.74l-8.39-4,3.85-1.85,11.63,5.61h0v4.65a.4.4,0,0,0,.18.33.39.39,0,0,0,.21.06.35.35,0,0,0,.17,0l2.89-1.4a.37.37,0,0,0,.22-.35V83.35l3.58-1.73ZM125.8,83.72v4.06l-2.12,1v-4Zm-11.36-6.09L125.54,83l-2.27,1.09-11.1-5.35Zm4.09-2L129.64,81l-3.22,1.56-.07,0-11-5.33Zm12.17,5-12-5.8a.38.38,0,0,0-.33,0l-12,5.8a.39.39,0,0,0-.22.34V95.08a.39.39,0,0,0,.22.35l12,5.8a.36.36,0,0,0,.33,0l12-5.8a.37.37,0,0,0,.22-.35V81a.37.37,0,0,0-.22-.34" transform="translate(-89.76 -58.82)"/><path class="cls-1" d="M110.1,93.34l-1.76-.85a.38.38,0,1,0-.34.69l1.77.86a.45.45,0,0,0,.16,0,.38.38,0,0,0,.35-.21.38.38,0,0,0-.18-.52" transform="translate(-89.76 -58.82)"/><path class="cls-1" d="M111.72,92.28l-3.38-1.63a.4.4,0,0,0-.52.18.39.39,0,0,0,.19.52L111.39,93a.32.32,0,0,0,.16,0,.37.37,0,0,0,.35-.22.38.38,0,0,0-.18-.52" transform="translate(-89.76 -58.82)"/><path class="cls-1" d="M141.74,87.74l-2.29-2.29a.45.45,0,0,0-.64.64l1.51,1.51h-5.94a.46.46,0,1,0,0,.91h5.94L138.81,90a.46.46,0,0,0,0,.65.45.45,0,0,0,.32.13.44.44,0,0,0,.32-.13l2.29-2.26a.45.45,0,0,0,0-.64" transform="translate(-89.76 -58.82)"/><path class="cls-1" d="M95.31,88.35l2.29,2.29a.45.45,0,0,0,.64,0,.46.46,0,0,0,0-.65l-1.51-1.5h5.94a.46.46,0,1,0,0-.91H96.73l1.51-1.49a.45.45,0,0,0,0-.64.46.46,0,0,0-.64,0l-2.29,2.26a.45.45,0,0,0,0,.64" transform="translate(-89.76 -58.82)"/><path class="cls-1" d="M118.83,111.26l2.29-2.29a.45.45,0,0,0-.64-.64L119,109.84V103.9a.46.46,0,1,0-.91,0v5.94l-1.48-1.51a.46.46,0,0,0-.65,0,.46.46,0,0,0,0,.64l2.26,2.29a.45.45,0,0,0,.64,0" transform="translate(-89.76 -58.82)"/><path class="cls-1" d="M118.22,64.82l-2.29,2.3a.45.45,0,0,0,0,.64.46.46,0,0,0,.65,0l1.5-1.51v5.94a.46.46,0,0,0,.91,0V66.25l1.49,1.51a.45.45,0,0,0,.64,0,.45.45,0,0,0,.13-.32.42.42,0,0,0-.13-.32l-2.26-2.3a.47.47,0,0,0-.64,0" transform="translate(-89.76 -58.82)"/><path class="cls-1" d="M130.06,98.93a.46.46,0,0,0-.65.65l2.33,2.33a.46.46,0,1,0,.65-.65Z" transform="translate(-89.76 -58.82)"/><path class="cls-1" d="M105.31,74.18a.46.46,0,0,0-.65,0,.48.48,0,0,0,0,.65L107,77.15a.46.46,0,0,0,.65,0,.47.47,0,0,0,0-.64Z" transform="translate(-89.76 -58.82)"/><path class="cls-1" d="M107.64,99.58a.46.46,0,1,0-.65-.65l-2.33,2.33a.46.46,0,1,0,.65.65Z" transform="translate(-89.76 -58.82)"/><path class="cls-1" d="M132.39,74.83a.46.46,0,1,0-.65-.65l-2.32,2.33a.45.45,0,0,0,.64.64Z" transform="translate(-89.76 -58.82)"/><path class="cls-1" d="M90.91,87.67v21.68a7,7,0,0,0,.08,1.12,5.84,5.84,0,0,0,5.76,4.9h43.67a5.81,5.81,0,0,0,.72-.05,5.72,5.72,0,0,0,4-2.33,5.8,5.8,0,0,0,1.15-3.6V66a1.08,1.08,0,0,0,0-.18,5.88,5.88,0,0,0-6-5.82H96.85c-.23,0-.46,0-.69,0a5.71,5.71,0,0,0-4.07,2.3,5.58,5.58,0,0,0-1.18,3.5V87.67m27.69,28.84q-10.81,0-21.64,0a7.08,7.08,0,0,1-3-.59,6.87,6.87,0,0,1-4.11-5.47,7.17,7.17,0,0,1-.06-1q0-21.73,0-43.48a7,7,0,0,1,7.06-7.1h29.76c4.62,0,9.23,0,13.85,0A6.76,6.76,0,0,1,146.8,63a6.62,6.62,0,0,1,.62,3V93.85c0,5.23,0,10.46,0,15.68a6.77,6.77,0,0,1-3.33,6,6.49,6.49,0,0,1-3.48,1h-22Z" transform="translate(-89.76 -58.82)"/></g></g></svg>