<svg xmlns="http://www.w3.org/2000/svg" viewBox="0 0 57.67 57.69"><defs><style>.cls-1{fill:#c8c8c8;}</style></defs><title>END-CONTRACT</title><g id="Calque_2" data-name="Calque 2"><g id="Calque_1-2" data-name="Calque 1"><path class="cls-1" d="M39.37,40.92a13.24,13.24,0,0,0-1.64,2l-.46-1.15a1.46,1.46,0,0,0-1.24-.9,1.44,1.44,0,0,0-1.36.7l-.26.44-.25-2.91a1.45,1.45,0,0,0-2.83-.34l-1.79,5.37a.73.73,0,0,0,.46.92.79.79,0,0,0,.22.06.73.73,0,0,0,.69-.5l1.79-5.37.25,3a1.45,1.45,0,0,0,1.12,1.29,1.43,1.43,0,0,0,1.58-.67l.27-.44.45,1.14a1.46,1.46,0,0,0,1.14.9,1.45,1.45,0,0,0,1.36-.53,12.65,12.65,0,0,0,1.69-2.15c.1-.23.11-.85-.09-1s-.88,0-1.1.17"/><path class="cls-1" d="M44.13,48.76a.73.73,0,0,1-.73.73H14.27a.73.73,0,0,1-.73-.73V9.44a.73.73,0,0,1,.73-.73H24.62L22.68,13,27.24,22l-3.4,13H25.1l6.61-13.4L29.17,13l1.94-4.28H43.4a.73.73,0,0,1,.73.73Zm-14.65-40-1.86,4.11,2.49,8.79L26.94,29l1.9-7.23L24.33,13l2-4.33.5-1.46H14.27a2.18,2.18,0,0,0-2.18,2.19V48.76a2.17,2.17,0,0,0,2.18,2.18H43.4a2.18,2.18,0,0,0,2.18-2.18V9.43h0A2.18,2.18,0,0,0,43.4,7.25H30.05Z"/><path class="cls-1" d="M16.78,15.8c0,.61.49.74,1.1.74h6.59l-.75-1.48H17.88c-.61,0-1.1.14-1.1.74"/><path class="cls-1" d="M39.58,16.54c.61,0,1.1-.13,1.1-.74s-.49-.74-1.1-.74h-9.8l.44,1.48Z"/><path class="cls-1" d="M35.2,20.92c.61,0,1.1-.13,1.1-.74s-.49-.74-1.1-.74H31.08l.43,1.48Z"/><path class="cls-1" d="M17.88,19.44c-.61,0-1.1.14-1.1.74s.49.74,1.1.74H26.7L26,19.44Z"/><path class="cls-1" d="M17.88,23.82c-.61,0-1.1.14-1.1.74s.49.74,1.1.74h8.59l.34-1.48Z"/><path class="cls-1" d="M35.2,25.3c.61,0,1.1-.13,1.1-.74s-.49-.74-1.1-.74H30.57l-.76,1.48Z"/><path class="cls-1" d="M35.2,29.68c.61,0,1.1-.13,1.1-.74s-.49-.74-1.1-.74H28.34l-.76,1.48Z"/><path class="cls-1" d="M17.88,28.2c-.61,0-1.1.14-1.1.74s.49.74,1.1.74h7.59l.33-1.48Z"/><path class="cls-1" d="M1.15,28.84q0,10.85,0,21.69a7,7,0,0,0,.07,1.12A5.85,5.85,0,0,0,7,56.54H50.66a5.86,5.86,0,0,0,5.86-6V7a5.88,5.88,0,0,0-6-5.82H7.09c-.23,0-.46,0-.69,0A5.73,5.73,0,0,0,2.33,3.48,5.63,5.63,0,0,0,1.15,7V28.84M28.84,57.68H7.19a7.07,7.07,0,0,1-3-.59A6.9,6.9,0,0,1,.07,51.63a7.34,7.34,0,0,1-.06-1Q0,28.84,0,7.1A7.09,7.09,0,0,1,4.24.57,7.17,7.17,0,0,1,7.06,0H36.82c4.61,0,9.23,0,13.85,0A6.77,6.77,0,0,1,57,4.13a6.79,6.79,0,0,1,.62,3V35c0,5.23,0,10.45,0,15.68a6.8,6.8,0,0,1-3.33,5.95,6.61,6.61,0,0,1-3.49,1h-22Z"/></g></g></svg>