<svg xmlns="http://www.w3.org/2000/svg" viewBox="0 0 57.67 57.69"><defs><style>.cls-1{fill:#c8c8c8;}</style></defs><title>FINE-TUNING</title><g id="Calque_2" data-name="Calque 2"><g id="Calque_1-2" data-name="Calque 1"><path class="cls-1" d="M48.66,49.46a2.78,2.78,0,0,1-5.41-.13,7.73,7.73,0,0,1-.06-1.81,8.63,8.63,0,0,0,5.5,0c0,.05.05.06.05.08a6.32,6.32,0,0,1-.08,1.84m.18-3.21a7.29,7.29,0,0,1-4.25.46A9,9,0,0,1,42.44,46l-.38-.16A1.62,1.62,0,0,0,42,46c0,1,0,2,0,2.92a3,3,0,0,0,.08.66,3.92,3.92,0,0,0,7.76-.71c0-.94,0-1.87,0-2.81,0-.07,0-.14,0-.24l-1,.45"/><path class="cls-1" d="M43.87,7.45a2.77,2.77,0,0,1,4.84,1.37,3.29,3.29,0,0,1,0,.54V30.64c0,.1,0,.2,0,.35A8.83,8.83,0,0,0,46,30.53a8.7,8.7,0,0,0-2.75.45c0-.08,0-.14,0-.2a1.47,1.47,0,0,1,0-.21q0-10.58,0-21.15a2.78,2.78,0,0,1,.7-2M43,32.31a7.4,7.4,0,0,1,4.33-.51,8.65,8.65,0,0,1,2.18.75l.4.17V9.47a5.51,5.51,0,0,0,0-.81,3.92,3.92,0,0,0-7.8.57V32.47c0,.07,0,.14,0,.25l.92-.41"/><path class="cls-1" d="M29.74,51.47A2.8,2.8,0,0,1,26.41,49c0-.2,0-.41,0-.61V29.52c0-.14,0-.28,0-.48a9.35,9.35,0,0,0,2.78.46,9.65,9.65,0,0,0,2.75-.45c0,.14,0,.23,0,.32,0,6.45,0,12.89,0,19.33a2.84,2.84,0,0,1-2.23,2.77M33.1,27.75c0-.14,0-.27,0-.43l-.33.13-.69.31a7.28,7.28,0,0,1-4,.5,8.14,8.14,0,0,1-2.15-.67l-.64-.29c0,.15,0,.25,0,.35v21a4.43,4.43,0,0,0,.07.81,3.9,3.9,0,0,0,4.31,3.22,3.85,3.85,0,0,0,3.32-2.76,4.28,4.28,0,0,0,.16-1.38V27.75"/><path class="cls-1" d="M12.51,6.48A2.77,2.77,0,0,1,15.15,9a5.63,5.63,0,0,1,0,.58V27.15c0,.14,0,.28,0,.48a9,9,0,0,0-2.78-.45,8.81,8.81,0,0,0-2.76.45c0-.14,0-.23,0-.33q0-9,0-18a2.81,2.81,0,0,1,2.91-2.8m-4,22.88.66-.29a7.39,7.39,0,0,1,6.49,0l.69.32v-20a5.12,5.12,0,0,0-.06-.78,3.93,3.93,0,0,0-5-3.12A4,4,0,0,0,8.46,9.36c0,6.56,0,13.12,0,19.68,0,.09,0,.18,0,.32"/><path class="cls-1" d="M12.38,40.11a4.22,4.22,0,1,1,4.23-4.19,4.2,4.2,0,0,1-4.23,4.19m0-9.58a5.37,5.37,0,1,0,5.36,5.36,5.35,5.35,0,0,0-5.36-5.36"/><path class="cls-1" d="M29.17,25a4.22,4.22,0,1,1,4.23-4.22A4.24,4.24,0,0,1,29.17,25m0-9.59a5.37,5.37,0,1,0,5.35,5.4,5.37,5.37,0,0,0-5.35-5.4"/><path class="cls-1" d="M46,35a4.23,4.23,0,1,1-4.23,4.22A4.23,4.23,0,0,1,46,35m0,9.59a5.37,5.37,0,1,0-5.34-5.39A5.38,5.38,0,0,0,46,44.62"/><path class="cls-1" d="M15.18,48.64a2.79,2.79,0,1,1-5.57.16c0-1.45,0-2.9,0-4.35,0-.08,0-.16,0-.29a8.62,8.62,0,0,0,5.52,0c0,.16,0,.26,0,.36v4.12m.21-5.81a7.35,7.35,0,0,1-3.27.64,7.74,7.74,0,0,1-3-.76l-.63-.28c0,.16,0,.26,0,.37,0,2,0,3.9,0,5.85a4.15,4.15,0,0,0,0,.61,3.93,3.93,0,0,0,7.83-.47c0-2,0-4.07,0-6.11,0-.07,0-.14,0-.25l-.9.4"/><path class="cls-1" d="M26.39,9.34A2.79,2.79,0,0,1,32,9.19c0,1,0,2,0,3,0,.07,0,.15,0,.27a9.93,9.93,0,0,0-2.74-.44,9.24,9.24,0,0,0-2.78.45,2.48,2.48,0,0,1,0-.33c0-.95,0-1.9,0-2.84m-.89,4.8.71-.31a7.28,7.28,0,0,1,4.22-.52,9.19,9.19,0,0,1,2.32.78l.34.14c0-.12,0-.2,0-.29,0-1.53,0-3.07,0-4.61A4.65,4.65,0,0,0,33,8.5a3.93,3.93,0,0,0-7.79.79V14c0,.08,0,.16,0,.27l.24-.09"/><path class="cls-1" d="M1.15,28.84q0,10.85,0,21.69a7,7,0,0,0,.07,1.12A5.85,5.85,0,0,0,7,56.54H50.66a5.86,5.86,0,0,0,5.86-6V7a5.88,5.88,0,0,0-6-5.82H7.09c-.23,0-.46,0-.69,0A5.73,5.73,0,0,0,2.33,3.48,5.63,5.63,0,0,0,1.15,7V28.84M28.84,57.68H7.19a7.07,7.07,0,0,1-3-.59A6.9,6.9,0,0,1,.07,51.63a7.34,7.34,0,0,1-.06-1Q0,28.84,0,7.1A7.09,7.09,0,0,1,4.24.57,7.17,7.17,0,0,1,7.06,0H36.82c4.61,0,9.23,0,13.85,0A6.77,6.77,0,0,1,57,4.13a6.79,6.79,0,0,1,.62,3V35c0,5.23,0,10.45,0,15.68a6.8,6.8,0,0,1-3.33,5.95,6.61,6.61,0,0,1-3.49,1h-22"/></g></g></svg>