<svg xmlns="http://www.w3.org/2000/svg" viewBox="0 0 57.67 57.69"><defs><style>.cls-1{fill:#c8c8c8;}</style></defs><title>GEOREF</title><g id="Calque_2" data-name="Calque 2"><g id="Calque_1-2" data-name="Calque 1"><path class="cls-1" d="M28.83,27.29c4,0,7.28-3,7.28-6.68s-3.26-6.68-7.28-6.68-7.28,3-7.28,6.68,3.27,6.68,7.28,6.68m0-12a5.61,5.61,0,0,1,5.83,5.34A5.61,5.61,0,0,1,28.83,26,5.6,5.6,0,0,1,23,20.61a5.6,5.6,0,0,1,5.82-5.34"/><path class="cls-1" d="M17.39,25.64l10.82,16a.77.77,0,0,0,.62.31.76.76,0,0,0,.62-.31l10.83-16a10.38,10.38,0,0,0,1.45-3.46,9.85,9.85,0,0,0,.21-2,10.27,10.27,0,0,0-1-4.5A11.54,11.54,0,0,0,38.08,12a13.19,13.19,0,0,0-4.16-2.47,14.82,14.82,0,0,0-10.17,0A13.35,13.35,0,0,0,19.58,12a11.83,11.83,0,0,0-2.82,3.67,10.4,10.4,0,0,0-1,4.5,10.59,10.59,0,0,0,.2,2,10.68,10.68,0,0,0,1.46,3.48m.71-9.47a10.17,10.17,0,0,1,2.49-3.24,12,12,0,0,1,3.7-2.2,13.13,13.13,0,0,1,9.08,0,11.92,11.92,0,0,1,3.71,2.2,10.46,10.46,0,0,1,2.49,3.24,9.14,9.14,0,0,1,.91,4,9,9,0,0,1-.18,1.79,9.09,9.09,0,0,1-1.27,3L28.83,40.05,18.64,25a9.18,9.18,0,0,1-1.28-3,9.2,9.2,0,0,1,.74-5.75"/><path class="cls-1" d="M50.58,47.67l-7.28-12a.73.73,0,0,0-.64-.35H35a.67.67,0,1,0,0,1.34h7.22l6.48,10.69H9l6.47-10.69h7.23a.67.67,0,1,0,0-1.34H15a.74.74,0,0,0-.64.35l-7.27,12a.61.61,0,0,0,0,.66.74.74,0,0,0,.63.33H49.94a.73.73,0,0,0,.63-.33.63.63,0,0,0,0-.66"/><path class="cls-1" d="M1.15,28.84V50.53a7,7,0,0,0,.07,1.12A5.85,5.85,0,0,0,7,56.54H50.66a5.86,5.86,0,0,0,5.86-6V7a5.88,5.88,0,0,0-6-5.82H7.09c-.23,0-.46,0-.69,0A5.73,5.73,0,0,0,2.33,3.48,5.63,5.63,0,0,0,1.15,7V28.84M28.84,57.68H7.19a7.07,7.07,0,0,1-3-.59A6.9,6.9,0,0,1,.07,51.63a7.34,7.34,0,0,1-.06-1Q0,28.84,0,7.1A7.09,7.09,0,0,1,4.24.57,7.17,7.17,0,0,1,7.06,0H36.82c4.61,0,9.23,0,13.85,0A6.8,6.8,0,0,1,57,4.13a6.79,6.79,0,0,1,.62,3V35c0,5.23,0,10.45,0,15.68a6.8,6.8,0,0,1-3.33,5.95,6.61,6.61,0,0,1-3.49,1h-22Z"/></g></g></svg>