<svg xmlns="http://www.w3.org/2000/svg" viewBox="0 0 57.67 57.69"><defs><style>.cls-1{fill:#c8c8c8;}</style></defs><title>KPI</title><g id="Calque_2" data-name="Calque 2"><g id="Calque_1-2" data-name="Calque 1"><rect class="cls-1" x="8.35" y="48.55" width="40.64" height="1.35"/><path class="cls-1" d="M17.86,39.77H13.12a.68.68,0,0,0-.67.68v6.08a.67.67,0,0,0,.67.67h4.74a.67.67,0,0,0,.68-.67V40.45a.68.68,0,0,0-.68-.68m-.67,6.08H13.8V41.12h3.39Z"/><path class="cls-1" d="M26.3,36.4H21.56a.67.67,0,0,0-.68.67v9.46a.67.67,0,0,0,.68.67H26.3a.68.68,0,0,0,.68-.67V37.07a.68.68,0,0,0-.68-.67m-.68,9.45H22.24v-8.1h3.38Z"/><path class="cls-1" d="M34.73,31.67H30a.67.67,0,0,0-.67.67V46.53a.67.67,0,0,0,.67.67h4.74a.67.67,0,0,0,.68-.67V32.34a.67.67,0,0,0-.68-.67m-.67,14.18H30.67V33h3.39Z"/><path class="cls-1" d="M43.25,22.21H38.5a.68.68,0,0,0-.67.68V46.53a.67.67,0,0,0,.67.67h4.75a.67.67,0,0,0,.67-.67V22.89a.68.68,0,0,0-.67-.68m-.68,23.64H39.18V23.57h3.39Z"/><path class="cls-1" d="M44.32,14.34a.86.86,0,0,0,0-.16.44.44,0,0,0-.06-.16l0-.07h0a.58.58,0,0,0-.18-.17.67.67,0,0,0-.23-.1L40,13a.64.64,0,0,0-.22,1.26l2.23.4L12,35A.64.64,0,1,0,12.73,36L42.79,15.69,42.39,18a.65.65,0,0,0,.51.75.65.65,0,0,0,.75-.52l.67-3.78v-.09"/><rect class="cls-1" x="8.35" y="9.27" width="1.35" height="40.64"/><path class="cls-1" d="M1.15,28.84q0,10.85,0,21.69a7,7,0,0,0,.07,1.12A5.85,5.85,0,0,0,7,56.54H50.66a5.86,5.86,0,0,0,5.86-6V7a5.88,5.88,0,0,0-6-5.82H7.09c-.23,0-.46,0-.69,0A5.73,5.73,0,0,0,2.33,3.48,5.63,5.63,0,0,0,1.15,7V28.84M28.84,57.68H7.19a7.07,7.07,0,0,1-3-.59A6.9,6.9,0,0,1,.07,51.63a7.34,7.34,0,0,1-.06-1Q0,28.84,0,7.1A7.09,7.09,0,0,1,4.24.57,7.17,7.17,0,0,1,7.06,0H36.82c4.61,0,9.23,0,13.85,0A6.77,6.77,0,0,1,57,4.13a6.79,6.79,0,0,1,.62,3V35c0,5.23,0,10.45,0,15.68a6.8,6.8,0,0,1-3.33,5.95,6.61,6.61,0,0,1-3.49,1h-22Z"/></g></g></svg>