<svg xmlns="http://www.w3.org/2000/svg" viewBox="0 0 53.42 53.44"><defs><style>.cls-1{fill:#c8c8c8;}</style></defs><g id="Calque_2" data-name="Calque 2"><g id="Calque_1-2" data-name="Calque 1"><path class="cls-1" d="M36.56,6.49H16.86A1.83,1.83,0,0,0,15,8.31V45.13A1.83,1.83,0,0,0,16.86,47h19.7a1.83,1.83,0,0,0,1.82-1.82V8.31A1.83,1.83,0,0,0,36.56,6.49ZM16.15,8.31a.71.71,0,0,1,.71-.71h19.7a.71.71,0,0,1,.71.71V11H16.15Zm21.12,3.75V39.92H16.15V12.06Zm0,33.07a.71.71,0,0,1-.71.71H16.86a.71.71,0,0,1-.71-.71V41H37.27Z"/><path class="cls-1" d="M28.21,8.72h-3a.56.56,0,0,0,0,1.11h3a.56.56,0,0,0,0-1.11Z"/><path class="cls-1" d="M32.33,8.72h-1a.56.56,0,0,0,0,1.11h1a.56.56,0,1,0,0-1.11Z"/><path class="cls-1" d="M24.06,44.94h5.3a1.18,1.18,0,0,0,1.18-1.19v-.63a1.18,1.18,0,0,0-1.18-1.19h-5.3a1.18,1.18,0,0,0-1.18,1.19v.63A1.18,1.18,0,0,0,24.06,44.94ZM24,43.12a.08.08,0,0,1,.08-.08h5.3a.08.08,0,0,1,.08.08v.63a.08.08,0,0,1-.08.08h-5.3a.08.08,0,0,1-.08-.08Z"/><path class="cls-1" d="M34.71,35.51A1.49,1.49,0,1,0,36,37.18,1.49,1.49,0,0,0,34.71,35.51Zm-.32,2.36a.89.89,0,1,1,1-.77A.89.89,0,0,1,34.39,37.87Z"/><path class="cls-1" d="M20,14.57a1.48,1.48,0,1,0,1.27,1.66A1.48,1.48,0,0,0,20,14.57Zm-.31,2.36a.9.9,0,1,1,1-.77A.9.9,0,0,1,19.71,16.93Z"/><path class="cls-1" d="M23.19,29.12a.49.49,0,0,1,.49-.49h5a1.21,1.21,0,0,0,1.21-1.2l.06-3.29a1.21,1.21,0,0,0-1.21-1.2H20.79a.49.49,0,0,1-.48-.49V17.4h-.72v5.05a1.21,1.21,0,0,0,1.2,1.21H28.7a.48.48,0,0,1,.48.48l-.05,3.29a.49.49,0,0,1-.49.48h-5a1.21,1.21,0,0,0-1.21,1.21l0,7.08a1.21,1.21,0,0,0,1.2,1.21h9.86v-.79l-9.86.07a.49.49,0,0,1-.48-.49Z"/><path class="cls-1" d="M28.52,17.41a2,2,0,0,0-1.95,2c0,1.61,1.76,3.18,1.84,3.24a.16.16,0,0,0,.11.05.17.17,0,0,0,.12-.05c.08-.06,1.84-1.63,1.84-3.24A2,2,0,0,0,28.52,17.41Zm0,4.82a4.89,4.89,0,0,1-1.59-2.86,1.6,1.6,0,1,1,3.19,0A4.84,4.84,0,0,1,28.52,22.23Z"/><path class="cls-1" d="M28.52,18.46a.91.91,0,1,0,.91.91A.91.91,0,0,0,28.52,18.46Zm0,1.46a.55.55,0,1,1,.55-.55A.55.55,0,0,1,28.52,19.92Z"/><path id="Contour_Fine_tuning" data-name="Contour Fine tuning" class="cls-1" d="M26.72,53.44H6.66a6.36,6.36,0,0,1-2.79-.55,6.51,6.51,0,0,1-3.86-6Q0,26.73,0,6.58a6.56,6.56,0,0,1,3.93-6A6.65,6.65,0,0,1,6.54,0H34.11c4.27,0,8.55,0,12.83,0a6.28,6.28,0,0,1,5.9,3.81,6.22,6.22,0,0,1,.58,2.76q0,12.93,0,25.86c0,4.84,0,9.69,0,14.53a6.31,6.31,0,0,1-3.09,5.51,6,6,0,0,1-3.23.94H26.72ZM1.06,26.72V46.81a7.27,7.27,0,0,0,.07,1,5.42,5.42,0,0,0,5.34,4.53H46.93a5.12,5.12,0,0,0,.67,0,5.3,5.3,0,0,0,3.69-2.16,5.39,5.39,0,0,0,1.07-3.33V6.46a5.46,5.46,0,0,0-5.53-5.4H6.57c-.22,0-.43,0-.64,0A5.31,5.31,0,0,0,2.16,3.23a5.2,5.2,0,0,0-1.1,3.24Z"/></g></g></svg>