<svg xmlns="http://www.w3.org/2000/svg" viewBox="0 0 57.67 57.69"><defs><style>.cls-1{fill:#c8c8c8;}</style></defs><title>NEW-CLIENT</title><g id="Calque_2" data-name="Calque 2"><g id="Calque_1-2" data-name="Calque 1"><path class="cls-1" d="M37.75,30.68l-6.52-4a.82.82,0,0,0-.26-.1l-2-.36L26.12,27.3,22,29.17a1.54,1.54,0,1,1-1.28-2.81l6.59-3,7.84.68h.06a.69.69,0,0,0,.46-.17l.67-.59,9.39,9.26-1.84,1.93-3.48-2.14Zm1.92,2.83,5.2,3.19a1.55,1.55,0,0,1,.5,2.13,1.53,1.53,0,0,1-2.12.51l-5.57-3.42a.7.7,0,0,0-1,.23.71.71,0,0,0,.23,1l4.29,2.63a1.55,1.55,0,0,1-1.62,2.64L35.72,40A.7.7,0,1,0,35,41.2l2.61,1.6A1.55,1.55,0,0,1,36,45.44L33.66,44a.69.69,0,0,0-.9.26.7.7,0,0,0,.23,1l1,.6A1.55,1.55,0,0,1,34.47,48a1.56,1.56,0,0,1-2.13.51L32,48.25l.33-.54a3.06,3.06,0,0,0,.36-2.31,2.92,2.92,0,0,0-1.34-1.83,3,3,0,0,0-1.69-.4,3.2,3.2,0,0,0,0-1.41,2.9,2.9,0,0,0-1.35-1.83,3,3,0,0,0-1.69-.4,2.93,2.93,0,0,0-3-3.64,2.94,2.94,0,0,0-5.37-2.24l-2.89,4.69-3-1.65,4.38-11.2,2.38.42a3,3,0,0,0,3.53,4.54l4.11-1.87,2-1,1.92.34L37,31.88ZM31.08,47l-1.55,2.51a1.54,1.54,0,1,1-2.63-1.62l1.58-2.56a1.56,1.56,0,0,1,2.1-.52,1.6,1.6,0,0,1,.5,2.19m-5.38.15a1.54,1.54,0,0,1-2.12.5,1.56,1.56,0,0,1-.51-2.13l2.36-3.83a1.57,1.57,0,0,1,2.11-.52,1.61,1.61,0,0,1,.5,2.19Zm-3.83-2.36a1.54,1.54,0,0,1-2.12.5,1.56,1.56,0,0,1-.51-2.13L22.39,38a1.57,1.57,0,0,1,2.11-.52,1.61,1.61,0,0,1,.5,2.19ZM18,42.39a1.54,1.54,0,1,1-2.63-1.62l3.94-6.38a1.54,1.54,0,0,1,2.1-.52A1.6,1.6,0,0,1,22,36.05ZM52.6,30.91a.7.7,0,0,0-1,0l-2.86,2.67L35.69,20.65,49.35,7.83a.7.7,0,1,0-1-1L34.2,20.12a.72.72,0,0,0,0,1l1.16,1.14L35,22.6l-7.72-.66a.68.68,0,0,0-.35.06l-6.12,2.79-.06,0-3.52-.62.29-.73a.71.71,0,0,0-.4-.91L5.84,18a.71.71,0,0,0-.91.4.69.69,0,0,0,.39.91l10.6,4.24-6.25,16L5.81,38.16a.7.7,0,0,0-.46,1.33l4.5,1.59a.71.71,0,0,0,.89-.4l1-2.67,2.74,1.53-.31.49a3,3,0,0,0,3.43,4.36,2.95,2.95,0,0,0,3.83,2.36,2.93,2.93,0,0,0,1.37,2.07,3,3,0,0,0,2.46.3,2.93,2.93,0,0,0,1.37,2.06,3,3,0,0,0,3.44-.24,2.82,2.82,0,0,0,.62-.72l.48-.78.4.25a3,3,0,0,0,3.44-.26,3,3,0,0,0,.62-.71A2.92,2.92,0,0,0,36.1,47a2.59,2.59,0,0,0,.68.09,3,3,0,0,0,3-3.14,2.59,2.59,0,0,0,.68.09,3,3,0,0,0,2.52-1.41,2.94,2.94,0,0,0,.43-1.73,2.59,2.59,0,0,0,.68.09,3,3,0,0,0,1.55-5.47l-.48-.3,1.62-1.69L48.25,35a.7.7,0,0,0,1,0l3.35-3.13a.71.71,0,0,0,0-1"/><path class="cls-1" d="M1.15,28.84q0,10.85,0,21.69a7,7,0,0,0,.07,1.12A5.85,5.85,0,0,0,7,56.54H50.66a5.86,5.86,0,0,0,5.86-6V7a5.88,5.88,0,0,0-6-5.82H7.09c-.23,0-.46,0-.69,0A5.73,5.73,0,0,0,2.33,3.48,5.63,5.63,0,0,0,1.15,7V28.84M28.84,57.68H7.19a7.07,7.07,0,0,1-3-.59A6.9,6.9,0,0,1,.07,51.63a7.34,7.34,0,0,1-.06-1Q0,28.84,0,7.1A7.09,7.09,0,0,1,4.24.57,7.17,7.17,0,0,1,7.06,0H36.82c4.61,0,9.23,0,13.85,0A6.77,6.77,0,0,1,57,4.13a6.79,6.79,0,0,1,.62,3V35c0,5.23,0,10.45,0,15.68a6.8,6.8,0,0,1-3.33,5.95,6.61,6.61,0,0,1-3.49,1h-22"/></g></g></svg>