<svg xmlns="http://www.w3.org/2000/svg" viewBox="0 0 57.67 57.69"><defs><style>.cls-1{fill:#c8c8c8;}</style></defs><title>PARAMS</title><g id="Calque_2" data-name="Calque 2"><g id="Calque_1-2" data-name="Calque 1"><path class="cls-1" d="M-4,621.37H-6a9.09,9.09,0,0,0-.65-1.55l1.44-1.43a.73.73,0,0,0,.22-.52.72.72,0,0,0-.22-.51l-3-3a.75.75,0,0,0-1,0l-1.43,1.43a10.14,10.14,0,0,0-1.57-.64v-2a.73.73,0,0,0-.73-.73H-17.3a.74.74,0,0,0-.74.73v2a9.65,9.65,0,0,0-1.56.64L-21,614.36a.74.74,0,0,0-.52-.21.78.78,0,0,0-.52.21l-3,3a.75.75,0,0,0-.21.51.76.76,0,0,0,.21.52l1.44,1.43a10,10,0,0,0-.65,1.55h-2a.73.73,0,0,0-.73.74v4.23a.73.73,0,0,0,.73.73h2a9.22,9.22,0,0,0,.65,1.55l-1.44,1.43a.74.74,0,0,0,0,1l3,3a.73.73,0,0,0,.52.21.7.7,0,0,0,.52-.21l1.44-1.43a9.69,9.69,0,0,0,1.56.65v2a.74.74,0,0,0,.74.74H-13a.74.74,0,0,0,.73-.74v-2a10.19,10.19,0,0,0,1.57-.65l1.43,1.43a.73.73,0,0,0,.52.21.72.72,0,0,0,.52-.21l3-3a.74.74,0,0,0,.22-.52.74.74,0,0,0-.22-.52l-1.44-1.43A8.46,8.46,0,0,0-6,627.07h2a.74.74,0,0,0,.74-.73v-4.23a.74.74,0,0,0-.74-.74m-.73,4.24H-6.6a.74.74,0,0,0-.72.55,7.66,7.66,0,0,1-.92,2.21.74.74,0,0,0,.11.9l1.31,1.3-2,2-1.31-1.3a.73.73,0,0,0-.9-.11,8.12,8.12,0,0,1-2.22.91.74.74,0,0,0-.56.71v1.85h-2.79v-1.85a.74.74,0,0,0-.56-.71,8.12,8.12,0,0,1-2.22-.91.73.73,0,0,0-.9.11l-1.31,1.3-2-2,1.31-1.3a.74.74,0,0,0,.11-.9,7.66,7.66,0,0,1-.92-2.21.73.73,0,0,0-.71-.55H-25.6v-2.78h1.86a.73.73,0,0,0,.71-.55,7.78,7.78,0,0,1,.92-2.21.72.72,0,0,0-.11-.89l-1.31-1.31,2-2,1.31,1.31a.76.76,0,0,0,.9.11,7.84,7.84,0,0,1,2.22-.92.73.73,0,0,0,.56-.71v-1.84h2.79v1.84a.73.73,0,0,0,.56.71,7.84,7.84,0,0,1,2.22.92.76.76,0,0,0,.9-.11l1.31-1.31,2,2-1.31,1.31a.72.72,0,0,0-.11.89,7.78,7.78,0,0,1,.92,2.21.73.73,0,0,0,.72.55h1.85Z" transform="translate(55.78 -584.22)"/><path class="cls-1" d="M-15.27,617.92a6.33,6.33,0,0,0-6.34,6.3,6.33,6.33,0,0,0,6.34,6.3,6.32,6.32,0,0,0,6.33-6.3,6.32,6.32,0,0,0-6.33-6.3m0,11.14a4.86,4.86,0,0,1-4.87-4.84,4.86,4.86,0,0,1,4.87-4.84,4.85,4.85,0,0,1,4.86,4.84,4.85,4.85,0,0,1-4.86,4.84" transform="translate(55.78 -584.22)"/><path class="cls-1" d="M-11.4,605.61h-3.91a15.53,15.53,0,0,0-1.38-3.32l2.77-2.75a.74.74,0,0,0,.21-.51.76.76,0,0,0-.21-.52l-5.21-5.18a.75.75,0,0,0-1,0l-2.77,2.75a15.74,15.74,0,0,0-3.34-1.37v-3.89a.73.73,0,0,0-.73-.73h-7.37a.73.73,0,0,0-.73.73v3.89a15.74,15.74,0,0,0-3.34,1.37l-2.77-2.75a.76.76,0,0,0-.52-.21.78.78,0,0,0-.52.21l-5.2,5.18a.72.72,0,0,0,0,1l2.76,2.75a15.53,15.53,0,0,0-1.38,3.32H-50a.74.74,0,0,0-.74.73v7.33a.74.74,0,0,0,.74.73h3.91a15.32,15.32,0,0,0,1.38,3.32l-2.76,2.75a.72.72,0,0,0,0,1l5.2,5.18a.74.74,0,0,0,.52.22.73.73,0,0,0,.52-.22l2.77-2.75a16.32,16.32,0,0,0,3.34,1.38v3.89a.73.73,0,0,0,.73.73h5.81a.72.72,0,0,0,.6-.32.73.73,0,0,0,.09-.67,13.33,13.33,0,0,1-.86-4.72,13.49,13.49,0,0,1,.81-4.59.74.74,0,0,0-.14-.74.74.74,0,0,0-.72-.22,9.09,9.09,0,0,1-2.08.24,8.94,8.94,0,0,1-9-8.9,9,9,0,0,1,9-8.91,9,9,0,0,1,9,8.91,8.86,8.86,0,0,1-.09,1.25.71.71,0,0,0,.29.69A.72.72,0,0,0-21,612a13.52,13.52,0,0,1,5.79-1.28,13.9,13.9,0,0,1,3.58.47.73.73,0,0,0,.64-.12.73.73,0,0,0,.29-.58v-4.17a.74.74,0,0,0-.74-.73m-.73,4a15.51,15.51,0,0,0-3-.3,15,15,0,0,0-5.28.94,1.48,1.48,0,0,0,0-.21,10.41,10.41,0,0,0-10.43-10.37A10.41,10.41,0,0,0-41.3,610a10.41,10.41,0,0,0,10.43,10.36,9.5,9.5,0,0,0,1.19-.07,14.76,14.76,0,0,0-.52,3.92,14.86,14.86,0,0,0,.61,4.25h-4.05v-3.73a.72.72,0,0,0-.56-.7,14.38,14.38,0,0,1-4-1.65.74.74,0,0,0-.9.11l-2.65,2.63L-45.91,621l2.65-2.64a.72.72,0,0,0,.11-.89,14.16,14.16,0,0,1-1.66-4,.73.73,0,0,0-.71-.55h-3.74v-5.87h3.74a.72.72,0,0,0,.71-.55,14.28,14.28,0,0,1,1.66-4,.73.73,0,0,0-.11-.89L-45.91,599l4.17-4.15,2.65,2.63a.74.74,0,0,0,.9.11,14.23,14.23,0,0,1,4-1.64.74.74,0,0,0,.56-.71v-3.72h5.89v3.72a.74.74,0,0,0,.56.71,14.23,14.23,0,0,1,4,1.64.74.74,0,0,0,.9-.11l2.65-2.63,4.17,4.15-2.65,2.63a.73.73,0,0,0-.11.89,14.28,14.28,0,0,1,1.66,4,.72.72,0,0,0,.71.55h3.74Z" transform="translate(55.78 -584.22)"/><path class="cls-1" d="M-24.23,606.42a.73.73,0,0,0-1-.3.73.73,0,0,0-.3,1,6,6,0,0,1,.73,2.89,6.08,6.08,0,0,1-6.1,6.06A6.09,6.09,0,0,1-37,610a6.09,6.09,0,0,1,6.1-6.07,6.1,6.1,0,0,1,3.77,1.29.73.73,0,0,0,1-.12.73.73,0,0,0-.12-1,7.53,7.53,0,0,0-4.68-1.6A7.55,7.55,0,0,0-38.46,610a7.55,7.55,0,0,0,7.57,7.52A7.55,7.55,0,0,0-23.32,610a7.44,7.44,0,0,0-.91-3.58" transform="translate(55.78 -584.22)"/><path class="cls-1" d="M-15.27,620.74a3.5,3.5,0,0,0-3.51,3.48,3.5,3.5,0,0,0,3.51,3.48,3.49,3.49,0,0,0,3.5-3.48,3.49,3.49,0,0,0-3.5-3.48m0,5.5a2,2,0,0,1-2-2,2,2,0,0,1,2-2,2,2,0,0,1,2,2,2,2,0,0,1-2,2" transform="translate(55.78 -584.22)"/><path class="cls-1" d="M-54.63,613.07v21.68a7,7,0,0,0,.08,1.12,5.84,5.84,0,0,0,5.76,4.9H-5.12a5.81,5.81,0,0,0,.72,0,5.72,5.72,0,0,0,4-2.33,5.8,5.8,0,0,0,1.15-3.6V591.37a1.08,1.08,0,0,0,0-.18,5.76,5.76,0,0,0-2-4.34,5.77,5.77,0,0,0-4-1.48H-48.69c-.23,0-.46,0-.69,0a5.71,5.71,0,0,0-4.07,2.3,5.58,5.58,0,0,0-1.18,3.5v21.86m27.69,28.84H-48.58a7.08,7.08,0,0,1-3-.59,6.87,6.87,0,0,1-4.11-5.47,7.17,7.17,0,0,1-.06-1q0-21.73,0-43.48a7.07,7.07,0,0,1,4.24-6.53,7,7,0,0,1,2.82-.57H-19c4.62,0,9.23,0,13.85,0a6.76,6.76,0,0,1,6.37,4.11,6.61,6.61,0,0,1,.62,3v27.92c0,5.23,0,10.46,0,15.68a6.78,6.78,0,0,1-3.33,6,6.49,6.49,0,0,1-3.48,1h-22Z" transform="translate(55.78 -584.22)"/></g></g></svg>