<svg xmlns="http://www.w3.org/2000/svg" viewBox="0 0 57.67 57.69"><defs><style>.cls-1{fill:#c8c8c8;}.cls-2{fill:#fff;}</style></defs><title>TOURS</title><g id="Calque_2" data-name="Calque 2"><g id="Calque_1-2" data-name="Calque 1"><path class="cls-1" d="M38.77,18.25a3.75,3.75,0,0,1,0,7.5h-12a4.9,4.9,0,1,0,0,9.79h12a3.75,3.75,0,0,1,0,7.5H16a.58.58,0,0,0,0,1.15H38.77a4.9,4.9,0,0,0,0-9.79h-12a3.76,3.76,0,0,1,0-7.51h12a4.9,4.9,0,0,0,0-9.79h-7.7a.58.58,0,0,0,0,1.15Z"/><path class="cls-1" d="M28.18,17.69c-.67-.65-2.76-2.84-2.76-4.94a2.76,2.76,0,0,1,5.52,0c0,2.1-2.09,4.29-2.76,4.94m0-8.33a3.39,3.39,0,0,0-3.38,3.39c0,2.78,3,5.49,3.17,5.61a.34.34,0,0,0,.21.08.32.32,0,0,0,.21-.08c.13-.12,3.17-2.83,3.17-5.61a3.38,3.38,0,0,0-3.38-3.39"/><path class="cls-1" d="M28.18,13.7a1,1,0,1,1,.94-.95.95.95,0,0,1-.94.95m0-2.53a1.58,1.58,0,1,0,1.57,1.58,1.57,1.57,0,0,0-1.57-1.58"/><path class="cls-1" d="M12.78,43.23c-1.42-1.37-6.42-6.59-6.42-11a6.93,6.93,0,0,1,6.42-6.42,6.92,6.92,0,0,1,6.41,6.42c0,4.41-5,9.63-6.41,11m0-18.11a7.11,7.11,0,0,0-7.1,7.11c0,5.83,6.39,11.53,6.66,11.77a.66.66,0,0,0,.44.16.64.64,0,0,0,.43-.16c.27-.24,6.67-5.94,6.67-11.77a7.12,7.12,0,0,0-7.1-7.11"/><path class="cls-1" d="M17.11,35.43l-4.19,2V32.52l1-.48a.15.15,0,0,0,.07-.19.13.13,0,0,0-.19-.07l-1,.49-.4-.19a.15.15,0,0,0-.2.06.16.16,0,0,0,.07.2l.38.18v4.93l-4.19-2V30.5L11.63,32h.07a.16.16,0,0,0,.13-.08.15.15,0,0,0-.07-.19L8.63,30.27l1.44-.69,4.34,2.09h0v1.74a.13.13,0,0,0,.07.12l.07,0h.07L15.7,33a.16.16,0,0,0,.08-.13V31.14l1.33-.64Zm-1.62-4.15V32.8l-.79.38V31.66ZM11.25,29l4.14,2-.85.41-4.13-2Zm1.53-.74,4.14,2-1.2.58,0,0-4.12-2Zm4.54,1.87L12.84,28a.15.15,0,0,0-.13,0L8.24,30.14a.13.13,0,0,0-.08.13v5.25a.16.16,0,0,0,.08.13l4.47,2.16h.13l4.48-2.16a.16.16,0,0,0,.08-.13V30.27a.13.13,0,0,0-.08-.13"/><path class="cls-1" d="M9.64,34.87,9,34.55a.15.15,0,0,0-.19.07.14.14,0,0,0,.06.19l.66.32h.06a.14.14,0,0,0,.07-.27"/><path class="cls-1" d="M10.24,34.47,9,33.87a.14.14,0,0,0-.19.06.14.14,0,0,0,.07.2l1.26.6.06,0a.16.16,0,0,0,.13-.08.16.16,0,0,0-.07-.2"/><path class="cls-2" d="M39.08,45.47a8.24,8.24,0,1,0-8.41-8.24,8.32,8.32,0,0,0,8.41,8.24"/><path class="cls-1" d="M43.76,36.91a.42.42,0,0,0-.42.42.42.42,0,0,0,.84,0,.42.42,0,0,0-.42-.42"/><path class="cls-1" d="M51.8,47.49l-5.64-5.57a8.14,8.14,0,0,0,1.4-4.59,8.4,8.4,0,1,0-3.79,7l1.56,1.54h0l4.08,4a1.66,1.66,0,0,0,1.19.49,1.69,1.69,0,0,0,1.2-.49,1.65,1.65,0,0,0,0-2.35M43.57,43.4h0a7.48,7.48,0,1,1,3.15-6.07,7.37,7.37,0,0,1-1.45,4.4,7.7,7.7,0,0,1-1.7,1.67m.89.38a8.84,8.84,0,0,0,1.19-1.18l1.2,1.18A9.48,9.48,0,0,1,45.66,45Zm6.74,5.47a.84.84,0,0,1-.6.25.86.86,0,0,1-.6-.25l-3.75-3.7a10.28,10.28,0,0,0,1.2-1.18l3.75,3.7a.83.83,0,0,1,.25.59.8.8,0,0,1-.25.59"/><path class="cls-1" d="M39.12,30.66a6.67,6.67,0,1,0,6.75,6.67,6.72,6.72,0,0,0-6.75-6.67m0,12.5A5.84,5.84,0,1,1,45,37.33a5.89,5.89,0,0,1-5.91,5.83"/><path class="cls-1" d="M43.85,35.54A5,5,0,0,0,42,33.23a5.12,5.12,0,0,0-2.91-.91.42.42,0,0,0,0,.84,4.24,4.24,0,0,1,4,2.68.41.41,0,0,0,.39.26l.15,0a.43.43,0,0,0,.25-.54"/><path class="cls-1" d="M1.15,28.84V50.53a7,7,0,0,0,.07,1.12A5.85,5.85,0,0,0,7,56.54H50.66a5.86,5.86,0,0,0,5.86-6V7a5.88,5.88,0,0,0-6-5.82H7.09c-.23,0-.46,0-.69,0A5.73,5.73,0,0,0,2.33,3.48,5.63,5.63,0,0,0,1.15,7V28.84M28.84,57.68H7.19a7.07,7.07,0,0,1-3-.59A6.9,6.9,0,0,1,.07,51.63a7.34,7.34,0,0,1-.06-1Q0,28.84,0,7.1A7.09,7.09,0,0,1,4.24.57,7.17,7.17,0,0,1,7.06,0H36.82c4.61,0,9.23,0,13.85,0A6.77,6.77,0,0,1,57,4.13a6.79,6.79,0,0,1,.62,3V35c0,5.23,0,10.45,0,15.68a6.8,6.8,0,0,1-3.33,5.95,6.61,6.61,0,0,1-3.49,1h-22"/></g></g></svg>