<svg xmlns="http://www.w3.org/2000/svg" viewBox="0 0 57.67 57.69"><defs><style>.cls-1{fill:#c8c8c8;}.cls-2{fill:#fff;}</style></defs><title>VEHICLE</title><g id="Calque_2" data-name="Calque 2"><g id="Calque_1-2" data-name="Calque 1"><path class="cls-1" d="M49.41,40.21a4,4,0,0,0-3.84-3.36,3.63,3.63,0,0,0-1.28.23v-11h3.86a1.83,1.83,0,0,1,1.66,1.32H45.53a.66.66,0,0,0-.65.67v5.39a2,2,0,0,0,1.8,2l.16,0h4.53v.66h-.63a.67.67,0,0,0,0,1.34h.63v2.67Zm-3.84,3.36a2.69,2.69,0,1,1,2.59-2.69,2.65,2.65,0,0,1-2.59,2.69m-16.91,0a2.69,2.69,0,1,1,2.6-2.69,2.65,2.65,0,0,1-2.6,2.69m-6.49,0a2.69,2.69,0,1,1,2.59-2.69,2.65,2.65,0,0,1-2.59,2.69M17,23.43H43V37.87a4,4,0,0,0-1.26,2.34H32.5a3.94,3.94,0,0,0-3.84-3.36,3.87,3.87,0,0,0-3.25,1.81,3.84,3.84,0,0,0-3.24-1.81,4,4,0,0,0-3.85,3.36H17ZM51.21,34.19H46.84a.67.67,0,0,1-.66-.69V28.78h3.91Zm1.44.53-1.54-7.44a3.14,3.14,0,0,0-3-2.52H44.29V23.43A1.33,1.33,0,0,0,43,22.08H17a1.33,1.33,0,0,0-1.3,1.35V40.21A1.32,1.32,0,0,0,17,41.55h1.35a4,4,0,0,0,3.85,3.36,3.86,3.86,0,0,0,3.24-1.8,3.89,3.89,0,0,0,3.25,1.8,3.93,3.93,0,0,0,3.84-3.36h9.23a3.87,3.87,0,0,0,7.68,0H52a.66.66,0,0,0,.65-.67v-6a.77.77,0,0,0,0-.15"/><path class="cls-1" d="M18.92,26.11H41a.67.67,0,0,0,0-1.34H18.92a.67.67,0,0,0,0,1.34"/><path class="cls-2" d="M28.14,20.17h-2.3A9.62,9.62,0,0,0,25,18.24l1.62-1.61a.41.41,0,0,0,0-.6l-3.06-3A.43.43,0,0,0,23,13l-1.63,1.6a9.07,9.07,0,0,0-2-.8V11.54a.42.42,0,0,0-.43-.42H14.63a.42.42,0,0,0-.43.42v2.27a8.87,8.87,0,0,0-2,.8L10.61,13a.44.44,0,0,0-.31-.13A.43.43,0,0,0,10,13L6.94,16a.42.42,0,0,0,0,.6l1.62,1.61a9.62,9.62,0,0,0-.81,1.93H5.45A.43.43,0,0,0,5,20.6v4.27a.43.43,0,0,0,.43.43h2.3a10,10,0,0,0,.81,1.94l-1.62,1.6a.42.42,0,0,0,0,.6l3.06,3a.43.43,0,0,0,.3.13.44.44,0,0,0,.31-.13l1.63-1.6a9.07,9.07,0,0,0,2,.8v2.27a.43.43,0,0,0,.43.43H18a.42.42,0,0,0,.36-.19.42.42,0,0,0,.05-.39l0-9.94,4.09.07,5.51,0a.43.43,0,0,0,.38-.07.42.42,0,0,0,.17-.34V20.6a.43.43,0,0,0-.43-.43"/><path class="cls-2" d="M21.31,20.27a5.52,5.52,0,0,0-1.38-1.62,5.18,5.18,0,1,0,1.38,1.62"/><path class="cls-1" d="M17.44,33.51H15.06V31.33a.42.42,0,0,0-.33-.41,8.13,8.13,0,0,1-2.34-1,.44.44,0,0,0-.53.07L10.3,31.56,7.85,29.14l1.56-1.53a.42.42,0,0,0,.06-.52,8.45,8.45,0,0,1-1-2.32.43.43,0,0,0-.42-.32H5.88V21h2.2a.44.44,0,0,0,.42-.33,8.26,8.26,0,0,1,1-2.31.42.42,0,0,0-.06-.52L7.85,16.33l2.45-2.42,1.56,1.54a.44.44,0,0,0,.53.06,8.74,8.74,0,0,1,2.34-1,.42.42,0,0,0,.33-.41V12h3.47v2.17a.43.43,0,0,0,.32.41,8.94,8.94,0,0,1,2.35,1,.44.44,0,0,0,.53-.06l1.55-1.54,2.46,2.42-1.56,1.54a.41.41,0,0,0-.06.52,8.39,8.39,0,0,1,1,2.31.43.43,0,0,0,.42.33h2.2v1.89l-4.89-.06v-.12a6.13,6.13,0,1,0-6.13,6,5.48,5.48,0,0,0,.7,0Zm10.7-13.34h-2.3A9.11,9.11,0,0,0,25,18.24l1.63-1.61a.41.41,0,0,0,0-.6l-3.06-3A.43.43,0,0,0,23,13l-1.63,1.6a9.6,9.6,0,0,0-2-.8V11.54a.42.42,0,0,0-.43-.42H14.63a.42.42,0,0,0-.43.42v2.27a9.69,9.69,0,0,0-2,.8L10.61,13a.44.44,0,0,0-.31-.13A.43.43,0,0,0,10,13L6.94,16a.42.42,0,0,0,0,.6l1.62,1.61a9.62,9.62,0,0,0-.81,1.93H5.45A.43.43,0,0,0,5,20.6v4.27a.43.43,0,0,0,.43.43h2.3a10,10,0,0,0,.81,1.94l-1.62,1.6a.42.42,0,0,0,0,.6l3.06,3a.43.43,0,0,0,.3.13.44.44,0,0,0,.31-.13l1.62-1.6a9.15,9.15,0,0,0,2,.8v2.27a.43.43,0,0,0,.43.43H18a.44.44,0,0,0,.36-.19.42.42,0,0,0,.05-.39l0-5.43a.45.45,0,0,0-.08-.43.43.43,0,0,0-.43-.13,5.57,5.57,0,0,1-1.22.14A5.2,5.2,0,1,1,22,22.74a4.59,4.59,0,0,1-.06.73.41.41,0,0,0,.17.4c.12.08.23.05.44,0l5.51,0a.43.43,0,0,0,.38-.07.42.42,0,0,0,.17-.34V20.6a.43.43,0,0,0-.43-.43"/><path class="cls-1" d="M20.6,20.64a.45.45,0,0,0-.59-.17.42.42,0,0,0-.17.58,3.5,3.5,0,0,1,.43,1.68A3.57,3.57,0,1,1,18.9,20a.43.43,0,0,0,.6-.08.41.41,0,0,0-.07-.59,4.38,4.38,0,1,0,1.7,3.45,4.36,4.36,0,0,0-.53-2.09"/><path class="cls-1" d="M1.15,28.84V50.53a7,7,0,0,0,.07,1.12A5.87,5.87,0,0,0,7,56.55H50.66a5.86,5.86,0,0,0,5.86-6V7a5.88,5.88,0,0,0-6-5.82H7.09c-.23,0-.46,0-.69,0A5.73,5.73,0,0,0,2.33,3.48,5.63,5.63,0,0,0,1.15,7V28.84M28.84,57.68H7.19a7.07,7.07,0,0,1-3-.59A6.9,6.9,0,0,1,.07,51.63a7.34,7.34,0,0,1-.06-1Q0,28.84,0,7.1A7.09,7.09,0,0,1,4.24.57,7.17,7.17,0,0,1,7.06,0H36.82c4.61,0,9.23,0,13.85,0A6.77,6.77,0,0,1,57,4.13a6.79,6.79,0,0,1,.62,3V35c0,5.23,0,10.45,0,15.68a6.8,6.8,0,0,1-3.33,5.95,6.61,6.61,0,0,1-3.49,1h-22Z"/></g></g></svg>