<svg xmlns="http://www.w3.org/2000/svg" xmlns:xlink="http://www.w3.org/1999/xlink" viewBox="0 0 55.52 40.45"><defs><style>.cls-1{fill:none;}.cls-2{fill:#fff;}.cls-3{clip-path:url(#clip-path);}</style><clipPath id="clip-path" transform="translate(0)"><rect class="cls-1" width="24.67" height="25.86"/></clipPath></defs><title>addVehicle</title><g id="Calque_2" data-name="Calque 2"><g id="Calque_1-2" data-name="Calque 1"><path class="cls-2" d="M7.25,24.24v10A1.74,1.74,0,0,0,8.94,36h1.77a5.18,5.18,0,0,0,5,4.46A5,5,0,0,0,20,38.05a5,5,0,0,0,4.24,2.4,5.16,5.16,0,0,0,5-4.46h12a5,5,0,0,0,10,0h3.41a.86.86,0,0,0,.84-.89v-8a1.15,1.15,0,0,0,0-.19l-2-9.89a4.1,4.1,0,0,0-3.86-3.34h-5V11.91a1.74,1.74,0,0,0-1.7-1.78H23.12c-.1.43.55,1.36.28,1.78H42.89V31.09a5.43,5.43,0,0,0-1.64,3.12h-12a5.18,5.18,0,0,0-5-4.46A5,5,0,0,0,20,32.15a5,5,0,0,0-4.23-2.4,5.18,5.18,0,0,0-5,4.46H8.94v-10m6.79,14.44a3.57,3.57,0,0,1,0-7.14,3.57,3.57,0,0,1,0,7.14Zm8.47,0a3.57,3.57,0,1,1,3.39-3.57A3.49,3.49,0,0,1,24.2,38.67ZM52.17,19l1.46,7.19H47.92a.88.88,0,0,1-.86-.91V19ZM46.26,38.67a3.57,3.57,0,1,1,3.39-3.57A3.49,3.49,0,0,1,46.26,38.67Zm7.57-9.79H53a.89.89,0,0,0,0,1.78h.82v3.55H51.27a5.16,5.16,0,0,0-5-4.46,4.89,4.89,0,0,0-1.67.3V15.47h5a2.41,2.41,0,0,1,2.17,1.76H46.21a.87.87,0,0,0-.85.89v7.17A2.64,2.64,0,0,0,47.71,28a.76.76,0,0,0,.21,0h5.91Z" transform="translate(0)"/><path class="cls-2" d="M24.13,15.47H40.29a.89.89,0,0,0,0-1.78H23.67C24.23,14.32,23.42,15.32,24.13,15.47Z" transform="translate(0)"/><g class="cls-3"><path class="cls-2" d="M12.34,24.36a11.19,11.19,0,0,1-11-11.43c0-5.69,3.56-11.43,11-11.43,5.39,0,11,4,11,11.43,0,5.69-4,11.43-11,11.43M12.34,0C5.52,0,0,5.79,0,12.93S5.52,25.86,12.34,25.86s12.33-5.79,12.33-12.93S19.15,0,12.34,0" transform="translate(0)"/></g><path class="cls-2" d="M20.88,12.93a1.43,1.43,0,0,0-1.43-1.43H13.77V5.82a1.44,1.44,0,1,0-2.87,0V11.5H5.22a1.44,1.44,0,0,0,0,2.87h5.69V20a1.44,1.44,0,0,0,1.43,1.44,1.41,1.41,0,0,0,1-.42,1.44,1.44,0,0,0,.42-1V14.36h5.68a1.35,1.35,0,0,0,1-.41,1.44,1.44,0,0,0,.42-1" transform="translate(0)"/></g></g></svg>