<svg xmlns="http://www.w3.org/2000/svg" viewBox="0 0 28.82 28.81"><defs><style>.cls-1{fill:#fff;}</style></defs><title>analyse</title><g id="Calque_2" data-name="Calque 2"><g id="Calque_1-2" data-name="Calque 1"><path class="cls-1" d="M12,1.92A10.08,10.08,0,1,0,22.09,12,10.08,10.08,0,0,0,12,1.92Zm0,1a9.09,9.09,0,0,1,7.45,3.88L18.26,8a2,2,0,0,0-1-.28A1.92,1.92,0,0,0,15.37,9.6a1.85,1.85,0,0,0,.28,1L12.5,13.72a1.83,1.83,0,0,0-1.94,0L8.38,11.53a1.84,1.84,0,0,0,.27-1,1.91,1.91,0,0,0-3.77-.48H3.1A9.15,9.15,0,0,1,12,2.88ZM18.25,9.6a1,1,0,1,1-1-1A1,1,0,0,1,18.25,9.6Zm-5.76,5.76a1,1,0,1,1-1-1A1,1,0,0,1,12.49,15.36Zm-4.8-4.8a1,1,0,1,1-1-1A1,1,0,0,1,7.69,10.56ZM16.44,20A9.13,9.13,0,0,1,2.89,12c0-.33,0-.65,0-1H4.88a1.91,1.91,0,0,0,1.85,1.44,1.84,1.84,0,0,0,1-.27l2.18,2.18a2,2,0,0,0-.27,1,1.92,1.92,0,0,0,3.84,0,1.87,1.87,0,0,0-.27-1l3.14-3.14a1.87,1.87,0,0,0,1,.27A1.92,1.92,0,0,0,19.21,9.6a1.87,1.87,0,0,0-.27-1l1-1A9.11,9.11,0,0,1,16.44,20Z"/><path class="cls-1" d="M24,4.8a1.92,1.92,0,0,0,1.86-1.44h2.95v-1H25.87a1.92,1.92,0,0,0-3.78.48,2,2,0,0,0,.28,1l-.85.84a12,12,0,1,0-3,17.39L20,23.53l.67.67,3.87,3.87a2.52,2.52,0,0,0,3.56-3.56l-3.87-3.87L23.53,20l-1.44-1.45a12,12,0,0,0,0-13l1-1A1.81,1.81,0,0,0,24,4.8Zm0-2.88a1,1,0,1,1-1,1A1,1,0,0,1,24,1.92ZM27.4,25.19a1.56,1.56,0,1,1-2.18,2.22l0,0-3.87-3.86,2.2-2.21Zm-4.54-4.55-2.21,2.21-1.32-1.33.19-.16.22-.18.31-.27.15-.15a7.66,7.66,0,0,0,.57-.57l.15-.15.27-.31.18-.22.16-.19ZM21,18.41a7.21,7.21,0,0,1-.47.62l-.15.17c-.14.17-.3.34-.45.5l-.21.21c-.16.16-.33.31-.5.45l-.17.15a7.21,7.21,0,0,1-.62.47A11.05,11.05,0,1,1,21,18.41Z"/></g></g></svg>