<svg xmlns="http://www.w3.org/2000/svg" viewBox="0 0 36.23 47.51"><defs><style>.cls-1{fill:#fff;}</style></defs><title>delete</title><g id="Calque_2" data-name="Calque 2"><g id="Calque_1-2" data-name="Calque 1"><path class="cls-1" d="M10.41,4.32a2.43,2.43,0,0,1,2.52-2.45H23.3a2.43,2.43,0,0,1,2.52,2.45V7h1.87V4.32A4.31,4.31,0,0,0,23.3,0H12.93A4.31,4.31,0,0,0,8.54,4.32V7h1.87Z"/><path class="cls-1" d="M10.3,18.93a.93.93,0,0,1,1.86,0V41a.93.93,0,1,1-1.86,0Zm6.88,0a.94.94,0,0,1,1.87,0V41a.94.94,0,1,1-1.87,0Zm6.89,0a.94.94,0,0,1,1.87,0V41a.94.94,0,1,1-1.87,0Zm-17,28.58H29.16a4,4,0,0,0,3.78-4.2V14.47H3.29V43.31a4,4,0,0,0,3.78,4.2"/><path class="cls-1" d="M2.33,12.61H33.89a2.34,2.34,0,1,0,0-4.67H2.33a2.34,2.34,0,0,0,0,4.67"/></g></g></svg>