<svg xmlns="http://www.w3.org/2000/svg" viewBox="0 0 30.69 30.53"><defs><style>.cls-1{fill:#fff;}</style></defs><title>edit</title><g id="Calque_2" data-name="Calque 2"><g id="Calque_1-2" data-name="Calque 1"><path class="cls-1" d="M28.32,19.16a.76.76,0,0,0-.76.76v6.79A2.3,2.3,0,0,1,25.26,29H3.82a2.28,2.28,0,0,1-2.29-2.29V6.8A2.29,2.29,0,0,1,3.82,4.5h6.79a.76.76,0,0,0,.76-.76A.77.77,0,0,0,10.61,3H3.82A3.83,3.83,0,0,0,0,6.8V26.71a3.82,3.82,0,0,0,3.82,3.82H25.26a3.83,3.83,0,0,0,3.83-3.82V19.92a.77.77,0,0,0-.77-.76"/><path class="cls-1" d="M28.6,5.69l-.81.81-3.6-3.6L25,2.09a1.9,1.9,0,0,1,2.7,0l.9.9a1.92,1.92,0,0,1,0,2.7M11.23,16.58l2.88,2.88-4,1.1ZM12,15.14,23.11,4l3.6,3.6L15.55,18.74ZM28.78,1a3.42,3.42,0,0,0-4.86,0L10.29,14.64a.66.66,0,0,0-.2.34L8.3,21.45a.74.74,0,0,0,.19.74.77.77,0,0,0,.75.2l6.47-1.79a.79.79,0,0,0,.33-.2L29.68,6.77a3.45,3.45,0,0,0,0-4.87Z"/></g></g></svg>