<svg xmlns="http://www.w3.org/2000/svg" viewBox="0 0 30.27 27.38"><defs><style>.cls-1,.cls-2{fill:#fff;}.cls-1{stroke:#fff;stroke-miterlimit:10;}</style></defs><title>export</title><g id="Calque_2" data-name="Calque 2"><g id="Calque_1-2" data-name="Calque 1"><path class="cls-1" d="M20.11,11.94a.45.45,0,0,0,.44-.45V6.86A1.09,1.09,0,0,0,20.31,6L20,5.69,15.46,1.1,15.12.75A.83.83,0,0,0,14.53.5H1.6A1.17,1.17,0,0,0,.5,1.83V26a1,1,0,0,0,.82.86l.07,0a.76.76,0,0,0,.21,0H19.45a.78.78,0,0,0,.22,0l.06,0a1,1,0,0,0,.82-.86V20.65a.45.45,0,1,0-.89,0v5.11a.2.2,0,0,1-.12.18.24.24,0,0,1-.09,0H1.6l-.09,0a.2.2,0,0,1-.12-.18V1.83c0-.1,0-.42.21-.42H14.34a.57.57,0,0,0,0,.18V6.87h5.18a.51.51,0,0,0,.17,0v4.65A.45.45,0,0,0,20.11,11.94ZM15.2,6V2.12L19,6Z"/><path class="cls-2" d="M23.48,10.61a1.31,1.31,0,0,0,0,1.85l2.34,2.34H13.3a1.31,1.31,0,0,0,0,2.61H25.82l-2.34,2.34a1.3,1.3,0,1,0,1.84,1.85L29.89,17a1.32,1.32,0,0,0,0-1.85l-4.57-4.57a1.3,1.3,0,0,0-1.84,0"/></g></g></svg>