<svg xmlns="http://www.w3.org/2000/svg" viewBox="0 0 29.78 29.78"><defs><style>.cls-1{fill:#fff;}</style></defs><title>language</title><g id="Calque_2" data-name="Calque 2"><g id="Calque_1-2" data-name="Calque 1"><path class="cls-1" d="M29.74,28.8l-2-6.15a15.11,15.11,0,0,0,2.09-7.76A14.89,14.89,0,1,0,14.89,29.78a14.39,14.39,0,0,0,7.54-2.16l6.37,2.12a.66.66,0,0,0,.23,0,.75.75,0,0,0,.53-.22A.74.74,0,0,0,29.74,28.8Zm-7.16-2.7a.79.79,0,0,0-.65.07,12.88,12.88,0,0,1-7,2.12,13.4,13.4,0,1,1,13.4-13.4,13.26,13.26,0,0,1-3.52,9.17.74.74,0,1,0,1.08,1,10.92,10.92,0,0,0,.78-.9l1.23,3.68Z"/><path class="cls-1" d="M14.89,3.9a11,11,0,0,0-10.1,6.67l-.13,0,0,.16A11,11,0,1,0,14.89,3.9Zm8.62,16.53L23,19.87V18.55a.32.32,0,0,0,0-.16l-1.43-2.85V14.16a.37.37,0,0,0-.16-.31l-1.1-.73a.34.34,0,0,0-.29,0l-1.35.34-2.26-1L16,10.26l.86-.86h1.85l.63.93a.34.34,0,0,0,.24.16l2.2.37a.32.32,0,0,0,.17,0l2-.67A10.24,10.24,0,0,1,23.51,20.43ZM22,7.51l-.59.4-1.66-.33-1.08-.36a.38.38,0,0,0-.21,0l-1.36.34-.59-.2L17,6.47h1.24a.47.47,0,0,0,.16,0l1.27-.64A10.62,10.62,0,0,1,22,7.51ZM10.88,5.45l.88.59a.35.35,0,0,0,.14.06l1.78.29-.18.52-.92.31a.39.39,0,0,0-.2.16L11.33,9.13l-1.69,1-2.49.36a.37.37,0,0,0-.32.36V12a.36.36,0,0,0,.11.26l.63.62v.63L6,12.46,5.49,10.8A10.36,10.36,0,0,1,10.88,5.45Zm-1,12-1.66-.33L7.57,15.9V15l1.36-1.36.51,1a.36.36,0,0,0,.32.2h2.36l1,1.65a.38.38,0,0,0,.32.18h1L14.19,18,12.8,19.39a.36.36,0,0,0-.11.26v.92l-1.32,1a.37.37,0,0,0-.14.3v1.32L10.77,23l-.64-1.61V17.82A.37.37,0,0,0,9.84,17.46Zm-1.1,5.63A10.24,10.24,0,0,1,5.08,11.9l.31.91a.33.33,0,0,0,.14.19l1.83,1.21-.42.42a.36.36,0,0,0-.11.26V16a.42.42,0,0,0,0,.16l.73,1.47a.38.38,0,0,0,.26.19l1.54.31v3.36a.68.68,0,0,0,0,.14l.74,1.83a.35.35,0,0,0,.22.21l1.1.37.11,0a.37.37,0,0,0,.37-.37V22l1.32-1a.38.38,0,0,0,.15-.29V19.8l1.35-1.36a.32.32,0,0,0,.1-.18l.37-1.83A.36.36,0,0,0,15,16H13.63l-1-1.66a.36.36,0,0,0-.31-.17H10l-.63-1.27a.36.36,0,0,0-.27-.19.38.38,0,0,0-.32.1l-.47.47v-.58a.38.38,0,0,0-.11-.26l-.62-.62v-.63l2.25-.32.13,0,1.83-1.1a.33.33,0,0,0,.13-.13l1-1.71,1-.32a.39.39,0,0,0,.23-.24l.37-1.09a.38.38,0,0,0-.24-.47h0L12.1,5.39l-.37-.25a10.21,10.21,0,0,1,7,.26l-.67.33H16.72a.36.36,0,0,0-.33.21L15.66,7.4a.36.36,0,0,0,.16.49l0,0,1.1.37a.46.46,0,0,0,.2,0L18.54,8l1,.33h0l1.83.37a.33.33,0,0,0,.27-.06l.84-.55a9.88,9.88,0,0,1,1.1,1.47l-1.8.6-1.95-.33-.65-1a.38.38,0,0,0-.3-.17h-2.2a.36.36,0,0,0-.26.11l-1.1,1.1a.36.36,0,0,0-.1.31l.37,2.56a.37.37,0,0,0,.22.29l2.56,1.1a.37.37,0,0,0,.23,0L20,13.82l.8.53v1.27a.35.35,0,0,0,0,.17l1.43,2.85V20a.37.37,0,0,0,.1.26l.77.76A10.25,10.25,0,0,1,8.74,23.09Z"/></g></g></svg>