<svg xmlns="http://www.w3.org/2000/svg" xmlns:xlink="http://www.w3.org/1999/xlink" viewBox="0 0 55.52 40.45"><defs><style>.cls-1,.cls-4{fill:none;}.cls-2{fill:#fff;}.cls-3{clip-path:url(#clip-path);}.cls-4{stroke:#fff;stroke-linejoin:round;stroke-width:0.25px;}</style><clipPath id="clip-path" transform="translate(0)"><rect class="cls-1" width="24.67" height="25.86"/></clipPath></defs><title>manageVehicle</title><g id="Calque_2" data-name="Calque 2"><g id="Calque_1-2" data-name="Calque 1"><path class="cls-2" d="M7.25,24.24v10A1.74,1.74,0,0,0,8.94,36h1.77a5.18,5.18,0,0,0,5,4.46A5,5,0,0,0,20,38.05a5,5,0,0,0,4.24,2.4,5.16,5.16,0,0,0,5-4.46h12a5,5,0,0,0,10,0h3.41a.86.86,0,0,0,.84-.89v-8a1.15,1.15,0,0,0,0-.19l-2-9.89a4.1,4.1,0,0,0-3.86-3.34h-5V11.91a1.74,1.74,0,0,0-1.7-1.78H23.12c-.1.43.55,1.36.28,1.78H42.89V31.09a5.43,5.43,0,0,0-1.64,3.12h-12a5.18,5.18,0,0,0-5-4.46A5,5,0,0,0,20,32.15a5,5,0,0,0-4.23-2.4,5.18,5.18,0,0,0-5,4.46H8.94v-10m6.79,14.44a3.57,3.57,0,0,1,0-7.14,3.57,3.57,0,0,1,0,7.14Zm8.47,0a3.57,3.57,0,1,1,3.39-3.57A3.49,3.49,0,0,1,24.2,38.67ZM52.17,19l1.46,7.19H47.92a.88.88,0,0,1-.86-.91V19ZM46.26,38.67a3.57,3.57,0,1,1,3.39-3.57A3.49,3.49,0,0,1,46.26,38.67Zm7.57-9.79H53a.89.89,0,0,0,0,1.78h.82v3.55H51.27a5.16,5.16,0,0,0-5-4.46,4.89,4.89,0,0,0-1.67.3V15.47h5a2.41,2.41,0,0,1,2.17,1.76H46.21a.87.87,0,0,0-.85.89v7.17A2.64,2.64,0,0,0,47.71,28a.76.76,0,0,0,.21,0h5.91Z" transform="translate(0)"/><path class="cls-2" d="M24.13,15.47H40.29a.89.89,0,0,0,0-1.78H23.67C24.23,14.32,23.42,15.32,24.13,15.47Z" transform="translate(0)"/><g class="cls-3"><path class="cls-2" d="M12.34,24.36a11.19,11.19,0,0,1-11-11.43c0-5.69,3.56-11.43,11-11.43,5.39,0,11,4,11,11.43,0,5.69-4,11.43-11,11.43M12.34,0C5.52,0,0,5.79,0,12.93S5.52,25.86,12.34,25.86s12.33-5.79,12.33-12.93S19.15,0,12.34,0" transform="translate(0)"/><path class="cls-2" d="M20.37,10.87H18.91a6.43,6.43,0,0,0-.46-1.12l1-1a.51.51,0,0,0,.15-.37A.54.54,0,0,0,19.48,8L17.32,5.82a.51.51,0,0,0-.74,0l-1,1a6.82,6.82,0,0,0-1.12-.47V4.92a.52.52,0,0,0-.53-.52h-3a.52.52,0,0,0-.53.52V6.38a6.47,6.47,0,0,0-1.12.47l-1-1a.51.51,0,0,0-.37-.16.52.52,0,0,0-.37.16L5.3,8a.55.55,0,0,0-.16.38.52.52,0,0,0,.16.37l1,1a7.32,7.32,0,0,0-.46,1.12H4.41a.53.53,0,0,0-.53.53v3a.52.52,0,0,0,.53.52H5.86a6.92,6.92,0,0,0,.46,1.12l-1,1a.53.53,0,0,0,0,.75L7.45,20a.56.56,0,0,0,.37.15A.54.54,0,0,0,8.19,20l1-1a7.32,7.32,0,0,0,1.12.46v1.46a.52.52,0,0,0,.53.52h3a.52.52,0,0,0,.53-.52V19.46A7.76,7.76,0,0,0,15.56,19l1,1a.56.56,0,0,0,.37.15.58.58,0,0,0,.38-.15l2.15-2.16a.51.51,0,0,0,.15-.37.54.54,0,0,0-.15-.38l-1-1A7.36,7.36,0,0,0,18.92,15h1.45a.52.52,0,0,0,.52-.52v-3a.52.52,0,0,0-.52-.53m-.53,3.05H18.52a.51.51,0,0,0-.51.4,5.69,5.69,0,0,1-.66,1.59.53.53,0,0,0,.08.65l.93.94L17,18.91,16,18a.54.54,0,0,0-.65-.08,5.57,5.57,0,0,1-1.59.66.53.53,0,0,0-.39.51v1.33h-2V19.06a.52.52,0,0,0-.4-.51,5.82,5.82,0,0,1-1.59-.66.53.53,0,0,0-.64.08l-.94.94L6.41,17.5l.94-.94a.54.54,0,0,0,.08-.65,5.69,5.69,0,0,1-.66-1.59.52.52,0,0,0-.51-.4H4.93v-2H6.26a.52.52,0,0,0,.51-.4,5.69,5.69,0,0,1,.66-1.59.55.55,0,0,0-.08-.65l-.94-.93L7.82,6.93l.94.94A.53.53,0,0,0,9.4,8,5.69,5.69,0,0,1,11,7.29a.52.52,0,0,0,.4-.51V5.45h2V6.78a.53.53,0,0,0,.39.51A5.57,5.57,0,0,1,15.37,8,.54.54,0,0,0,16,7.87L17,6.93l1.41,1.42-.93.93a.53.53,0,0,0-.08.65A5.69,5.69,0,0,1,18,11.52a.51.51,0,0,0,.51.4h1.32Z" transform="translate(0)"/><path class="cls-4" d="M20.37,10.87H18.91a6.43,6.43,0,0,0-.46-1.12l1-1a.51.51,0,0,0,.15-.37A.54.54,0,0,0,19.48,8L17.32,5.82a.51.51,0,0,0-.74,0l-1,1a6.82,6.82,0,0,0-1.12-.47V4.92a.52.52,0,0,0-.53-.52h-3a.52.52,0,0,0-.53.52V6.38a6.47,6.47,0,0,0-1.12.47l-1-1a.51.51,0,0,0-.37-.16.52.52,0,0,0-.37.16L5.3,8a.55.55,0,0,0-.16.38.52.52,0,0,0,.16.37l1,1a7.32,7.32,0,0,0-.46,1.12H4.41a.53.53,0,0,0-.53.53v3a.52.52,0,0,0,.53.52H5.86a6.92,6.92,0,0,0,.46,1.12l-1,1a.53.53,0,0,0,0,.75L7.45,20a.56.56,0,0,0,.37.15A.54.54,0,0,0,8.19,20l1-1a7.32,7.32,0,0,0,1.12.46v1.46a.52.52,0,0,0,.53.52h3a.52.52,0,0,0,.53-.52V19.46A7.76,7.76,0,0,0,15.56,19l1,1a.56.56,0,0,0,.37.15.58.58,0,0,0,.38-.15l2.15-2.16a.51.51,0,0,0,.15-.37.54.54,0,0,0-.15-.38l-1-1A7.36,7.36,0,0,0,18.92,15h1.45a.52.52,0,0,0,.52-.52v-3a.52.52,0,0,0-.52-.53m-.53,3.05H18.52a.51.51,0,0,0-.51.4,5.69,5.69,0,0,1-.66,1.59.53.53,0,0,0,.08.65l.93.94L17,18.91,16,18a.54.54,0,0,0-.65-.08,5.57,5.57,0,0,1-1.59.66.53.53,0,0,0-.39.51v1.33h-2V19.06a.52.52,0,0,0-.4-.51,5.82,5.82,0,0,1-1.59-.66.53.53,0,0,0-.64.08l-.94.94L6.41,17.5l.94-.94a.54.54,0,0,0,.08-.65,5.69,5.69,0,0,1-.66-1.59.52.52,0,0,0-.51-.4H4.93v-2H6.26a.52.52,0,0,0,.51-.4,5.69,5.69,0,0,1,.66-1.59.55.55,0,0,0-.08-.65l-.94-.93L7.82,6.93l.94.94A.53.53,0,0,0,9.4,8,5.69,5.69,0,0,1,11,7.29a.52.52,0,0,0,.4-.51V5.45h2V6.78a.53.53,0,0,0,.39.51A5.57,5.57,0,0,1,15.37,8,.54.54,0,0,0,16,7.87L17,6.93l1.41,1.42-.93.93a.53.53,0,0,0-.08.65A5.69,5.69,0,0,1,18,11.52a.51.51,0,0,0,.51.4h1.32Z" transform="translate(0)"/></g></g></g></svg>