<svg xmlns="http://www.w3.org/2000/svg" xmlns:xlink="http://www.w3.org/1999/xlink" viewBox="0 0 37.22 39"><defs><style>.cls-1,.cls-4{fill:none;}.cls-2{clip-path:url(#clip-path);}.cls-3{fill:#fff;}.cls-4{stroke:#fff;stroke-linejoin:round;stroke-width:0.25px;}</style><clipPath id="clip-path" transform="translate(0)"><rect class="cls-1" width="37.22" height="39"/></clipPath></defs><title>manage</title><g id="Calque_2" data-name="Calque 2"><g id="Calque_1-2" data-name="Calque 1"><g class="cls-2"><path class="cls-3" d="M18.61,36.74A16.88,16.88,0,0,1,2.08,19.5c0-8.57,5.36-17.24,16.53-17.24,8.13,0,16.53,6,16.53,17.24,0,8.58-6,17.24-16.53,17.24M18.61,0C8.33,0,0,8.73,0,19.5S8.33,39,18.61,39s18.61-8.73,18.61-19.5S28.89,0,18.61,0" transform="translate(0)"/><path class="cls-3" d="M30.72,16.39H28.53a10.38,10.38,0,0,0-.7-1.69l1.55-1.55a.8.8,0,0,0,0-1.12L26.13,8.77a.79.79,0,0,0-1.12,0l-1.55,1.55a10.92,10.92,0,0,0-1.69-.7V7.43a.79.79,0,0,0-.79-.8H16.39a.79.79,0,0,0-.79.8V9.62a10.92,10.92,0,0,0-1.69.7L12.36,8.77a.8.8,0,0,0-1.12,0L8,12a.8.8,0,0,0,0,1.12L9.54,14.7a10.38,10.38,0,0,0-.7,1.69H6.65a.79.79,0,0,0-.79.8v4.6a.79.79,0,0,0,.79.79H8.84a10,10,0,0,0,.7,1.69L8,25.83A.79.79,0,0,0,8,27l3.25,3.25a.77.77,0,0,0,1.12,0l1.55-1.55a9.26,9.26,0,0,0,1.69.7v2.2a.79.79,0,0,0,.79.79H21a.79.79,0,0,0,.79-.79v-2.2a9.26,9.26,0,0,0,1.69-.7L25,30.2a.77.77,0,0,0,1.12,0L29.38,27a.8.8,0,0,0,0-1.12l-1.55-1.56a10,10,0,0,0,.7-1.69h2.19a.79.79,0,0,0,.79-.79v-4.6a.79.79,0,0,0-.79-.8M29.93,21h-2a.78.78,0,0,0-.77.6,8.69,8.69,0,0,1-1,2.4.79.79,0,0,0,.12,1l1.41,1.42-2.13,2.13L24.16,27.1a.8.8,0,0,0-1-.11,8.69,8.69,0,0,1-2.4,1,.8.8,0,0,0-.6.77v2h-3v-2a.8.8,0,0,0-.6-.77,8.57,8.57,0,0,1-2.4-1,.8.8,0,0,0-1,.11L11.8,28.52,9.67,26.39,11.08,25a.79.79,0,0,0,.12-1,8.57,8.57,0,0,1-1-2.4.78.78,0,0,0-.77-.6h-2V18h2a.8.8,0,0,0,.77-.6,8.57,8.57,0,0,1,1-2.4.8.8,0,0,0-.12-1L9.67,12.59l2.13-2.13,1.41,1.41a.79.79,0,0,0,1,.12,8.57,8.57,0,0,1,2.4-1,.8.8,0,0,0,.6-.77v-2h3v2a.8.8,0,0,0,.6.77,8.69,8.69,0,0,1,2.4,1,.79.79,0,0,0,1-.12l1.41-1.41,2.13,2.13L26.29,14a.79.79,0,0,0-.12,1,8.75,8.75,0,0,1,1,2.41.79.79,0,0,0,.77.6h2Z" transform="translate(0)"/><path class="cls-4" d="M30.72,16.39H28.53a10.38,10.38,0,0,0-.7-1.69l1.55-1.55a.8.8,0,0,0,0-1.12L26.13,8.77a.79.79,0,0,0-1.12,0l-1.55,1.55a10.92,10.92,0,0,0-1.69-.7V7.43a.79.79,0,0,0-.79-.8H16.39a.79.79,0,0,0-.79.8V9.62a10.92,10.92,0,0,0-1.69.7L12.36,8.77a.8.8,0,0,0-1.12,0L8,12a.8.8,0,0,0,0,1.12L9.54,14.7a10.38,10.38,0,0,0-.7,1.69H6.65a.79.79,0,0,0-.79.8v4.6a.79.79,0,0,0,.79.79H8.84a10,10,0,0,0,.7,1.69L8,25.83A.79.79,0,0,0,8,27l3.25,3.25a.77.77,0,0,0,1.12,0l1.55-1.55a9.26,9.26,0,0,0,1.69.7v2.2a.79.79,0,0,0,.79.79H21a.79.79,0,0,0,.79-.79v-2.2a9.26,9.26,0,0,0,1.69-.7L25,30.2a.77.77,0,0,0,1.12,0L29.38,27a.8.8,0,0,0,0-1.12l-1.55-1.56a10,10,0,0,0,.7-1.69h2.19a.79.79,0,0,0,.79-.79v-4.6a.79.79,0,0,0-.79-.8M29.93,21h-2a.78.78,0,0,0-.77.6,8.69,8.69,0,0,1-1,2.4.79.79,0,0,0,.12,1l1.41,1.42-2.13,2.13L24.16,27.1a.8.8,0,0,0-1-.11,8.69,8.69,0,0,1-2.4,1,.8.8,0,0,0-.6.77v2h-3v-2a.8.8,0,0,0-.6-.77,8.57,8.57,0,0,1-2.4-1,.8.8,0,0,0-1,.11L11.8,28.52,9.67,26.39,11.08,25a.79.79,0,0,0,.12-1,8.57,8.57,0,0,1-1-2.4.78.78,0,0,0-.77-.6h-2V18h2a.8.8,0,0,0,.77-.6,8.57,8.57,0,0,1,1-2.4.8.8,0,0,0-.12-1L9.67,12.59l2.13-2.13,1.41,1.41a.79.79,0,0,0,1,.12,8.57,8.57,0,0,1,2.4-1,.8.8,0,0,0,.6-.77v-2h3v2a.8.8,0,0,0,.6.77,8.69,8.69,0,0,1,2.4,1,.79.79,0,0,0,1-.12l1.41-1.41,2.13,2.13L26.29,14a.79.79,0,0,0-.12,1,8.75,8.75,0,0,1,1,2.41.79.79,0,0,0,.77.6h2Z" transform="translate(0)"/></g></g></g></svg>