<svg xmlns="http://www.w3.org/2000/svg" viewBox="0 0 61.64 61.64"><defs><style>.cls-1,.cls-2{fill:#fff;}.cls-2{stroke:#fff;stroke-miterlimit:10;stroke-width:0.5px;}</style></defs><g id="Calque_2" data-name="Calque 2"><g id="Calque_1-2" data-name="Calque 1"><path class="cls-1" d="M45.34,43l5.22,16.45H26.7l-2.5-1.54ZM59.48,33V59.48H52.56c-2-6.14-3.91-12.34-5.58-17.62ZM15.9,26.75,36.83,46.69,22.43,56.85l-8-4.91a1,1,0,0,0-1,0c-3.79,2.19-7.57,4.6-11.32,6.82V46Zm7.15-10L26,18.29a.87.87,0,0,0,.44.11h5.89a44.88,44.88,0,0,0,4.62,8.3,80.23,80.23,0,0,0,5.9,7.61.94.94,0,0,0,1.42,0,80.23,80.23,0,0,0,5.9-7.61,44.6,44.6,0,0,0,4.63-8.3h4.69V30.7L38.42,45.57,17,25.18ZM14,11.94l7.38,3.9L2.16,42.69V18ZM43.55,9.22a3.28,3.28,0,1,1-3.28,3.27,3.26,3.26,0,0,1,3.28-3.27m0-1.91a5.19,5.19,0,1,0,5.19,5.18,5.2,5.2,0,0,0-5.19-5.18m0-5.15A10.48,10.48,0,0,1,54.24,12.44c0,3.78-2.76,9-5.66,13.19a81.45,81.45,0,0,1-5,6.58,76,76,0,0,1-5-6.58C37.43,24,32.86,17.4,32.86,12.44A10.48,10.48,0,0,1,43.55,2.16M31,12.44a14,14,0,0,0,.68,4h-5L14.41,10a1,1,0,0,0-.89,0L.77,16.6a.94.94,0,0,0-.52.84v43a1,1,0,0,0,1.43.84c4.1-2.38,8.22-5,12.27-7.39l12,7.37a.9.9,0,0,0,.5.14h34a1,1,0,0,0,1-1v-43a1,1,0,0,0-1-1h-5a14,14,0,0,0,.68-4,12.61,12.61,0,0,0-25.2,0"/><path class="cls-2" d="M45.34,43l5.22,16.45H26.7l-2.5-1.54ZM59.48,33V59.48H52.56c-2-6.14-3.91-12.34-5.58-17.62ZM15.9,26.75,36.83,46.69,22.43,56.85l-8-4.91a1,1,0,0,0-1,0c-3.79,2.19-7.57,4.6-11.32,6.82V46Zm7.15-10L26,18.29a.87.87,0,0,0,.44.11h5.89a44.88,44.88,0,0,0,4.62,8.3,80.23,80.23,0,0,0,5.9,7.61.94.94,0,0,0,1.42,0,80.23,80.23,0,0,0,5.9-7.61,44.6,44.6,0,0,0,4.63-8.3h4.69V30.7L38.42,45.57,17,25.18ZM14,11.94l7.38,3.9L2.16,42.69V18ZM43.55,9.22a3.28,3.28,0,1,1-3.28,3.27A3.26,3.26,0,0,1,43.55,9.22Zm0-1.91a5.19,5.19,0,1,0,5.19,5.18A5.2,5.2,0,0,0,43.55,7.31Zm0-5.15A10.48,10.48,0,0,1,54.24,12.44c0,3.78-2.76,9-5.66,13.19a81.45,81.45,0,0,1-5,6.58,76,76,0,0,1-5-6.58C37.43,24,32.86,17.4,32.86,12.44A10.48,10.48,0,0,1,43.55,2.16ZM31,12.44a14,14,0,0,0,.68,4h-5L14.41,10a1,1,0,0,0-.89,0L.77,16.6a.94.94,0,0,0-.52.84v43a1,1,0,0,0,1.43.84c4.1-2.38,8.22-5,12.27-7.39l12,7.37a.9.9,0,0,0,.5.14h34a1,1,0,0,0,1-1v-43a1,1,0,0,0-1-1h-5a14,14,0,0,0,.68-4,12.61,12.61,0,0,0-25.2,0Z"/></g></g></svg>