<svg xmlns="http://www.w3.org/2000/svg" viewBox="0 0 30.79 30.79"><defs><style>.cls-1{fill:#fff;stroke:#fff;stroke-miterlimit:10;}</style></defs><title>profile</title><g id="Calque_2" data-name="Calque 2"><g id="Calque_1-2" data-name="Calque 1"><path class="cls-1" d="M23.5,26.57l-.58.4-.27.17q-.39.24-.78.45l-.18.09a14.28,14.28,0,0,1-1.89.8l-.07,0a9.32,9.32,0,0,1-1,.3h0c-.35.09-.71.16-1.07.22h0c-.33,0-.67.09-1,.12h-.18c-.34,0-.68.05-1,.05s-.68,0-1-.05h-.18c-.34,0-.68-.07-1-.13h-.05a13.74,13.74,0,0,1-2.1-.53l-.07,0c-.34-.12-.68-.25-1-.39h0c-.32-.14-.62-.29-.93-.44l-.12-.06q-.41-.22-.81-.48L7.84,27c-.24-.16-.49-.33-.72-.51a.18.18,0,0,1-.07-.05l0,0L11.38,24a2.28,2.28,0,0,0,1.2-2v-2l-.13-.15a9.05,9.05,0,0,1-1.62-3.37l-.05-.21-.19-.12a.9.9,0,0,1-.42-.75V13.53a.88.88,0,0,1,.31-.66l.17-.16V9.62a3.27,3.27,0,0,1,.76-2.36c.78-.89,2.12-1.34,4-1.34a5.13,5.13,0,0,1,4,1.33,3.32,3.32,0,0,1,.77,2.37v3.09l.18.16a.87.87,0,0,1,.3.67v1.92a.91.91,0,0,1-.64.85l-.27.08-.08.27a10.38,10.38,0,0,1-1.35,2.73c-.15.2-.28.37-.4.51l-.14.15v2a2.27,2.27,0,0,0,1.27,2l4.59,2.3.08,0-.17.13M1.58,15.39a13.82,13.82,0,1,1,23,10.33,4.09,4.09,0,0,0-.48-.29l-4.59-2.29a1.2,1.2,0,0,1-.66-1.08V20.45c.1-.13.22-.27.33-.44a11.32,11.32,0,0,0,1.42-2.77,2,2,0,0,0,1.13-1.78V13.54a2,2,0,0,0-.48-1.29V9.73a4.45,4.45,0,0,0-1-3.18c-1-1.14-2.62-1.72-4.81-1.72s-3.8.58-4.8,1.72a4.34,4.34,0,0,0-1,3.17v2.53a2,2,0,0,0-.48,1.29v1.92A2,2,0,0,0,9.82,17a10.26,10.26,0,0,0,1.67,3.46V22a1.2,1.2,0,0,1-.63,1.06L6.58,25.41a3.1,3.1,0,0,0-.41.26A13.81,13.81,0,0,1,1.58,15.39m28.71,0a14.9,14.9,0,1,0-25,11h0l.48.41.1.07c.26.21.52.42.79.61l.27.19c.29.2.59.39.89.57l.2.11c.33.19.67.37,1,.53l.07,0a15.11,15.11,0,0,0,3.6,1.14l.1,0c.4.06.79.12,1.19.15h.15c.4,0,.81.06,1.21.06s.81,0,1.21-.05l.15,0a11.53,11.53,0,0,0,1.18-.15l.1,0a14.81,14.81,0,0,0,3.55-1.11l.13-.06c.33-.16.66-.33,1-.51l.23-.13c.3-.17.58-.35.86-.54l.3-.22c.24-.17.47-.34.7-.53l.15-.12.49-.41h0a14.86,14.86,0,0,0,4.88-11"/></g></g></svg>