<svg xmlns="http://www.w3.org/2000/svg" viewBox="0 0 42.65 42.1"><defs><style>.cls-1{fill:#fff;}</style></defs><title>search</title><g id="Calque_2" data-name="Calque 2"><g id="Calque_1-2" data-name="Calque 1"><path class="cls-1" d="M25.82,15.63a.82.82,0,1,0,0,1.64.82.82,0,1,0,0-1.64"/><path class="cls-1" d="M41.68,36.49l-11.13-11a16.07,16.07,0,0,0,2.77-9.06A16.57,16.57,0,0,0,16.66,0,16.57,16.57,0,0,0,0,16.45,16.69,16.69,0,0,0,25.84,30.16l3.08,3h0l8,7.94a3.38,3.38,0,0,0,4.72,0,3.27,3.27,0,0,0,0-4.65M25.45,28.43h0a15,15,0,0,1-23.78-12,14.9,14.9,0,0,1,15-14.8,14.91,14.91,0,0,1,15,14.8,14.54,14.54,0,0,1-2.86,8.68,14.78,14.78,0,0,1-3.35,3.3m1.75.75a17.32,17.32,0,0,0,2.36-2.33l2.36,2.33a20,20,0,0,1-2.36,2.33ZM40.5,40a1.69,1.69,0,0,1-1.18.48A1.67,1.67,0,0,1,38.14,40l-7.4-7.3a21.65,21.65,0,0,0,2.36-2.33l7.4,7.3a1.63,1.63,0,0,1,0,2.33"/><path class="cls-1" d="M16.66,3.29A13.26,13.26,0,0,0,3.33,16.45a13.33,13.33,0,0,0,26.66,0A13.26,13.26,0,0,0,16.66,3.29m0,24.67A11.6,11.6,0,0,1,5,16.45a11.66,11.66,0,0,1,23.32,0A11.6,11.6,0,0,1,16.66,28"/><path class="cls-1" d="M26,12.92a10,10,0,0,0-9.34-6.34.82.82,0,1,0,0,1.64,8.4,8.4,0,0,1,7.78,5.29.84.84,0,0,0,.78.52.79.79,0,0,0,.3,0A.82.82,0,0,0,26,12.92"/></g></g></svg>