<svg xmlns="http://www.w3.org/2000/svg" viewBox="0 0 36.28 33.46"><title>calendar</title><g id="Calque_2" data-name="Calque 2"><g id="Calque_1-2" data-name="Calque 1"><path d="M33,10.24H3.06a.61.61,0,0,0-.62.61V30.4a.61.61,0,0,0,.62.61H28.72a.61.61,0,0,0,.61-.61V26.12H33a.61.61,0,0,0,.61-.61V10.85A.61.61,0,0,0,33,10.24ZM6.72,29.79h-3V26.12H6.72Zm0-4.89h-3V21.23H6.72Zm0-4.89h-3V16.35H6.72Zm0-4.89h-3V11.46H6.72ZM11,29.79H7.94V26.12H11Zm0-4.89H7.94V21.23H11ZM11,20H7.94V16.35H11Zm0-4.89H7.94V11.46H11Zm4.28,14.67H12.22V26.12h3.06Zm0-4.89H12.22V21.23h3.06Zm0-4.89H12.22V16.35h3.06Zm0-4.89H12.22V11.46h3.06Zm4.27,14.67H16.5V26.12h3.05Zm0-4.89H16.5V21.23h3.05Zm0-4.89H16.5V16.35h3.05Zm0-4.89H16.5V11.46h3.05Zm4.28,14.67h-3V26.12h3Zm0-4.89h-3V21.23h3Zm0-4.89h-3V16.35h3Zm0-4.89h-3V11.46h3Zm4.28,14.67H25.05V26.12h3.06Zm0-4.89H25.05V21.23h3.06Zm0-4.89H25.05V16.35h3.06Zm0-4.89H25.05V11.46h3.06Zm4.28,9.78H29.33V21.23h3.06Zm0-4.89H29.33V16.35h3.06Zm0-4.89H29.33V11.46h3.06Z"/><path d="M34.45,2.44H31.78V1.83a1.84,1.84,0,0,0-3.67,0v.61H8.56V1.83a1.84,1.84,0,0,0-3.67,0v.61H1.83A1.84,1.84,0,0,0,0,4.28V31.62a1.83,1.83,0,0,0,1.83,1.84H34.45a1.83,1.83,0,0,0,1.83-1.84V4.28A1.84,1.84,0,0,0,34.45,2.44Zm-5.12-.61a.62.62,0,0,1,.61-.61.61.61,0,0,1,.61.61V5.89a.61.61,0,0,1-.61.61.62.62,0,0,1-.61-.61Zm-23.22,0a.61.61,0,0,1,1.22,0V5.89a.61.61,0,1,1-1.22,0Zm29,29.79a.61.61,0,0,1-.61.61H1.83a.61.61,0,0,1-.61-.61V4.28a.61.61,0,0,1,.61-.61H4.89V5.89a1.84,1.84,0,0,0,3.67,0V3.67H28.11V5.89a1.84,1.84,0,0,0,3.67,0V3.67h2.67a.61.61,0,0,1,.61.61Z"/></g></g></svg>