<svg xmlns="http://www.w3.org/2000/svg" viewBox="0 0 32.56 42.26"><title>carts</title><g id="Calque_2" data-name="Calque 2"><g id="Calque_1-2" data-name="Calque 1"><path d="M29.45,34.05H3.11A3.1,3.1,0,0,1,0,31V3.11A3.11,3.11,0,0,1,3.11,0H29.45a3.11,3.11,0,0,1,3.11,3.11V31A3.1,3.1,0,0,1,29.45,34.05ZM3.11.76A2.35,2.35,0,0,0,.76,3.11V31a2.35,2.35,0,0,0,2.35,2.34H29.45A2.35,2.35,0,0,0,31.8,31V3.11A2.35,2.35,0,0,0,29.45.76Z"/><path d="M5.72,42.26a3.19,3.19,0,1,1,3.19-3.19A3.19,3.19,0,0,1,5.72,42.26Zm0-5.62a2.43,2.43,0,1,0,2.43,2.43A2.43,2.43,0,0,0,5.72,36.64Z"/><path d="M5.72,41.11a2,2,0,1,1,2-2A2,2,0,0,1,5.72,41.11Zm0-3.32A1.28,1.28,0,1,0,7,39.07,1.28,1.28,0,0,0,5.72,37.79Z"/><path d="M8.83,36.64H2.61a.55.55,0,0,1-.55-.55V33.74h.76v2.14h5.8V33.74h.76v2.35A.54.54,0,0,1,8.83,36.64Z"/><path d="M26.48,42.23A3.23,3.23,0,1,1,29.71,39,3.23,3.23,0,0,1,26.48,42.23Zm0-5.61A2.38,2.38,0,1,0,28.86,39,2.38,2.38,0,0,0,26.48,36.62Z"/><path d="M26.48,41.08A2.08,2.08,0,1,1,28.56,39,2.08,2.08,0,0,1,26.48,41.08Zm0-3.31A1.23,1.23,0,1,0,27.71,39,1.24,1.24,0,0,0,26.48,37.77Z"/><path d="M29.59,36.62H23.37a.6.6,0,0,1-.6-.6V33.67h.85v2.1h5.71v-2.1h.85V36A.59.59,0,0,1,29.59,36.62Z"/><rect x="7.38" y="0.3" width="0.76" height="33.45"/><rect x="15.9" y="0.3" width="0.76" height="33.45"/><rect x="24.86" y="0.3" width="0.76" height="33.45"/><rect x="0.1" y="27.93" width="32.37" height="0.76"/><rect x="0.1" y="20.79" width="32.37" height="0.76"/><rect x="0.1" y="13.66" width="32.37" height="0.76"/><rect x="0.1" y="6.52" width="32.37" height="0.76"/></g></g></svg>