<svg xmlns="http://www.w3.org/2000/svg" viewBox="0 0 38.29 33.92"><title>client</title><g id="Calque_2" data-name="Calque 2"><g id="Calque_1-2" data-name="Calque 1"><path d="M11,13.29c0,.54,0,1.09,0,1.63a.68.68,0,0,0,.66.75.69.69,0,0,0,.65-.76V11.62a.66.66,0,1,0-1.31,0c0,.56,0,1.12,0,1.68"/><path d="M11,6.85c0,.54,0,1.08,0,1.63a.65.65,0,0,0,.66.74.66.66,0,0,0,.65-.75V5.19a.68.68,0,0,0-.65-.74.67.67,0,0,0-.66.72c0,.56,0,1.12,0,1.68"/><path d="M12.29,26.14V24.52a.65.65,0,0,0-.63-.74.65.65,0,0,0-.68.72c0,1.1,0,2.21,0,3.31a.66.66,0,1,0,1.31,0V26.14Z"/><path d="M11,19.73c0,.54,0,1.08,0,1.62a.67.67,0,0,0,.66.75.66.66,0,0,0,.65-.75V18.07a.67.67,0,0,0-.65-.74.66.66,0,0,0-.66.74c0,.55,0,1.1,0,1.66"/><path d="M6.2,13.27c0,.56,0,1.13,0,1.7a.66.66,0,0,0,.62.7A.65.65,0,0,0,7.49,15c0-1.16,0-2.31,0-3.47a.65.65,0,0,0-.67-.65.64.64,0,0,0-.62.7c0,.56,0,1.12,0,1.68"/><path d="M6.2,24.45V26.4l1.29-.26c0-.57,0-1.14,0-1.71"/><path d="M7.49,18A.65.65,0,1,0,6.2,18Z"/><path d="M15.8,29.23a.7.7,0,0,0-.34-.73.62.62,0,0,0-.68,0,1,1,0,0,0,0,1.45.65.65,0,0,0,1-.53v-.23"/><path d="M37.56,30.89H35.83V5.35c0-.55-.1-.69-.6-.88L23.49.08c-.63-.23-1,.05-1,.74V6.11H15.8V.82c0-.69-.4-1-1-.74L3,4.47c-.5.19-.6.33-.6.88V26.08l.41,0a5.19,5.19,0,0,1,.9.08V24.46a5.56,5.56,0,0,1,0-6.18V5.65l10.74-4V26.91a2.22,2.22,0,0,0,0,.45.63.63,0,0,0,.61.48.62.62,0,0,0,.63-.45,1.67,1.67,0,0,0,0-.39V7.51h6.66V27a1.26,1.26,0,0,0,0,.39.64.64,0,0,0,1.23,0,1.68,1.68,0,0,0,0-.45q0-12.43,0-24.87v-.4l10.74,4V30.87H10.59a6.46,6.46,0,0,1,0,1.39H37.34a1.77,1.77,0,0,0,.23,0,.68.68,0,0,0,.72-.69A.66.66,0,0,0,37.56,30.89Z"/><path d="M27.28,13.29v1.63a.67.67,0,1,1-1.32,0V11.62a.66.66,0,0,1,.65-.73.68.68,0,0,1,.67.72v1.68"/><path d="M27.28,6.85V8.48a.65.65,0,0,1-.66.74A.66.66,0,0,1,26,8.47V5.19a.66.66,0,1,1,1.32,0V6.85"/><path d="M26,26.14V24.52a.66.66,0,0,1,.64-.74.65.65,0,0,1,.68.72v3.31a.66.66,0,0,1-.65.73A.67.67,0,0,1,26,27.8V26.14Z"/><path d="M27.28,19.73v1.62a.67.67,0,0,1-.66.75.66.66,0,0,1-.66-.75V18.07a.68.68,0,0,1,.65-.74.67.67,0,0,1,.67.74v1.66"/><path d="M32.06,13.27V15a.66.66,0,0,1-.63.7.65.65,0,0,1-.66-.66c0-1.16,0-2.31,0-3.47a.64.64,0,0,1,.67-.65.65.65,0,0,1,.62.7v1.68"/><path d="M30.76,26.14V24.43a.66.66,0,0,1,.49-.64.64.64,0,0,1,.74.33.93.93,0,0,1,.07.33v3.41a.65.65,0,1,1-1.29,0c0-.59,0-1.17,0-1.76"/><path d="M32.06,19.71v1.71a.65.65,0,1,1-1.29,0c0-1.17,0-2.33,0-3.5a.63.63,0,0,1,.67-.64.64.64,0,0,1,.62.68v1.7"/><path d="M22.46,29.23a.7.7,0,0,1,.34-.73.62.62,0,0,1,.68,0,1,1,0,0,1,0,1.45.65.65,0,0,1-1-.53v-.23"/><path d="M.42,33.92H10.74a.44.44,0,0,0,.43-.44V28.85a3.35,3.35,0,0,0-.39-1.65c-.11-.19-.35-.55-.48-.72a3.3,3.3,0,0,0-2.47-1.26.53.53,0,0,0-.44.26,2.23,2.23,0,0,1-3.19.33,2.56,2.56,0,0,1-.39-.42.44.44,0,0,0-.35-.18A3.55,3.55,0,0,0,1,26.31c-.05.06-.11.11-.15.17a6.84,6.84,0,0,0-.47.72A3.37,3.37,0,0,0,0,28.85v4.63a.43.43,0,0,0,.42.44m2.86-7.83a3.06,3.06,0,0,0,4.39.33A2.34,2.34,0,0,0,8,26.1a2.76,2.76,0,0,1,2.34,2.75v4.2H.84v-4.2a2.77,2.77,0,0,1,2.44-2.76"/><path d="M8.79,22V20.52a3.25,3.25,0,0,0-3.22-3.27,3.25,3.25,0,0,0-3.19,3.27V22A3.24,3.24,0,0,0,5.6,25.21,3.25,3.25,0,0,0,8.79,22M3.22,22V20.52a2.36,2.36,0,1,1,4.72,0V22a2.39,2.39,0,0,1-2.37,2.4A2.4,2.4,0,0,1,3.22,22"/></g></g></svg>