<svg xmlns="http://www.w3.org/2000/svg" viewBox="0 0 66.7 61.79"><defs><style>.cls-1{stroke:#fff;stroke-miterlimit:10;stroke-width:0.25px;}</style></defs><title>clientETA</title><g id="Calque_2" data-name="Calque 2"><g id="Calque_1-2" data-name="Calque 1"><path class="cls-1" d="M50.46,7.28a.45.45,0,0,0,.45-.46V6.36a.45.45,0,1,0-.9,0v.46A.45.45,0,0,0,50.46,7.28Z"/><path class="cls-1" d="M60.4,16h-.46a.47.47,0,0,0,0,.93h.46a.47.47,0,0,0,0-.93Z"/><path d="M17.31,27.55a1,1,0,0,0-1,1.07c0,.84,0,1.67,0,2.5v2.42a1,1,0,1,0,2,0V28.64A1,1,0,0,0,17.31,27.55Z"/><path d="M17.31,18a1,1,0,0,0-1,1.07V24c0,.69.38,1.1,1,1.1s1-.42,1-1.11V19.07A1,1,0,0,0,17.31,18Z"/><path d="M17.32,37.13a1,1,0,0,0-1,1.1v4.88a1,1,0,0,0,1,1.11,1,1,0,0,0,1-1.12V38.22A1,1,0,0,0,17.32,37.13Z"/><path d="M10.14,27.55a1,1,0,0,0-.93,1v5a1,1,0,0,0,.94,1,1,1,0,0,0,1-1q0-2.58,0-5.16A1,1,0,0,0,10.14,27.55Z"/><path d="M23,53.74a.91.91,0,0,0-1,0A1.44,1.44,0,0,0,22,56a1,1,0,0,0,1.47-.79v-.34A1,1,0,0,0,23,53.74Z"/><path d="M66.7,16.54A16.21,16.21,0,0,0,35,11.5l-.06,0c-.94-.35-1.53.07-1.53,1.1v7.87H23.49V12.58c0-1-.59-1.45-1.53-1.1L4.5,18c-.74.28-.89.5-.89,1.31V41.18a5.38,5.38,0,0,0-.07.69V44a5.2,5.2,0,0,0,.07.69v4.47A5.22,5.22,0,0,0,1.5,50.48a2.85,2.85,0,0,0-.23.26c-.19.25-.54.79-.7,1.07A5.05,5.05,0,0,0,0,54.26v6.89a.63.63,0,0,0,.63.64H16a.63.63,0,0,0,.62-.64V59.33H29.37c8.7,0,17.46,0,26.15,0,.12,0,.23,0,.35,0a1,1,0,0,0,1.07-1,1,1,0,0,0-1.09-1H53.27V32.82A16.45,16.45,0,0,0,66.7,16.54ZM4.79,41.87A3.56,3.56,0,0,1,8.32,38.3a3.55,3.55,0,0,1,3.49,3.57V44a3.55,3.55,0,0,1-3.53,3.58A3.56,3.56,0,0,1,4.79,44Zm4.43,6.89c0,.54,0,1.09,0,1.64a3.31,3.31,0,0,1-3-.67,3.36,3.36,0,0,1-.57-.62A.54.54,0,0,0,5.55,49V47.94a4.64,4.64,0,0,0,2.77.91A5.28,5.28,0,0,0,9.22,48.76Zm6.13,11.75H1.25V54.26a4.12,4.12,0,0,1,3.63-4.1,4.56,4.56,0,0,0,6.53.49,5.07,5.07,0,0,0,.46-.47,4.09,4.09,0,0,1,3.48,4.08Zm36-3.24H16.6v-3a6.11,6.11,0,0,0-.06-.86.93.93,0,0,0,.75.4,1,1,0,0,0,1-1.11V50.23h0V47.82a1,1,0,1,0-2,0v4.69A4.09,4.09,0,0,0,16,51.8a12.39,12.39,0,0,0-.71-1.07,5,5,0,0,0-3.68-1.87.61.61,0,0,0-.5.22V47.87A4.88,4.88,0,0,0,13.06,44V41.87A4.82,4.82,0,0,0,8.28,37a4.73,4.73,0,0,0-2.73.91V19.77l16-6V51.38a2.43,2.43,0,0,0,.07.66,1,1,0,0,0,1.83.05,2.32,2.32,0,0,0,.06-.59v-29H33.4v29a1.94,1.94,0,0,0,.06.59.93.93,0,0,0,.93.67.94.94,0,0,0,.9-.72,2.42,2.42,0,0,0,.06-.66q0-14.39,0-28.78A16.26,16.26,0,0,0,38.78,28a1.25,1.25,0,0,0-.17.62v4.88a1,1,0,0,0,1,1.14,1,1,0,0,0,1-1.12c0-.8,0-1.61,0-2.42V29.64a16.34,16.34,0,0,0,5.19,2.73v1.31a1,1,0,0,0,1,1,1,1,0,0,0,.93-1v-.8a16.08,16.08,0,0,0,2.79.26c.29,0,.58,0,.87,0Zm-.87-25.46a15.14,15.14,0,0,1-15-15.27,15,15,0,1,1,30,0A15.14,15.14,0,0,1,50.46,31.81Z"/><path d="M39.55,46.71a1,1,0,0,0-.94,1.11v2.41h0v2.46a1,1,0,1,0,2,0q0-2.46,0-4.92A1,1,0,0,0,39.55,46.71Z"/><path d="M39.57,37.13a1,1,0,0,0-1,1.09V43.1a1,1,0,1,0,2,0c0-.81,0-1.61,0-2.42s0-1.64,0-2.46A1,1,0,0,0,39.57,37.13Z"/><path d="M47.57,47.23a.94.94,0,0,0-1.11-.49,1,1,0,0,0-.71.95c0,.85,0,1.69,0,2.54s0,1.74,0,2.61a1,1,0,1,0,1.92-.05q0-2.53,0-5.07A1.13,1.13,0,0,0,47.57,47.23Z"/><path d="M46.77,44.22a.94.94,0,0,0,.9-1c0-.85,0-1.69,0-2.54s0-1.69,0-2.53a1,1,0,1,0-1.92,0q0,2.59,0,5.19A1,1,0,0,0,46.77,44.22Z"/><path d="M34.91,53.79a.91.91,0,0,0-1,0,1,1,0,0,0-.5,1.08c0,.13,0,.24,0,.34a1,1,0,0,0,1.47.79A1.45,1.45,0,0,0,34.91,53.79Z"/><path class="cls-1" d="M50.46,29.42A12.78,12.78,0,0,1,37.81,16.54a12.65,12.65,0,1,1,25.3,0A12.79,12.79,0,0,1,50.46,29.42Zm0-26.68a13.69,13.69,0,0,0-13.55,13.8,13.55,13.55,0,1,0,27.1,0A13.69,13.69,0,0,0,50.46,2.74Z"/><path d="M50.46,17.41a.93.93,0,0,1,0-1.85.93.93,0,0,1,0,1.85M50,14.71A1.83,1.83,0,0,0,48.71,16v.92a1.81,1.81,0,1,0,2.2-2.23Z"/><path class="cls-1" d="M50.46,17.41a.93.93,0,0,1,0-1.85.93.93,0,0,1,0,1.85ZM50,14.71A1.83,1.83,0,0,0,48.71,16v.92a1.81,1.81,0,1,0,2.2-2.23Z"/><path d="M50.46,25.69a.45.45,0,0,0-.45.46v.46a.45.45,0,1,0,.9,0v-.46a.45.45,0,0,0-.45-.46"/><path class="cls-1" d="M41,16h-.45a.47.47,0,0,0,0,.93H41A.47.47,0,0,0,41,16Z"/><path d="M57.71,9.55a.2.2,0,0,0,0-.11.39.39,0,0,0-.06-.11l0-.05h0l-.15-.1-.18,0-2.75,0a.47.47,0,0,0-.45.48.46.46,0,0,0,.46.46l1.62,0-4.92,5a.47.47,0,0,0,0,.66.46.46,0,0,0,.65,0l5-5,0,1.69a.45.45,0,0,0,.46.46.46.46,0,0,0,.46-.47l0-2.8a.13.13,0,0,0,0-.06"/><path d="M50.46,2.74a13.69,13.69,0,0,0-13.55,13.8,13.55,13.55,0,1,0,27.1,0A13.69,13.69,0,0,0,50.46,2.74Zm0,26.68A12.78,12.78,0,0,1,37.81,16.54a12.65,12.65,0,1,1,25.3,0A12.79,12.79,0,0,1,50.46,29.42Z"/><path d="M50.46,7.28a.45.45,0,0,0,.45-.46V6.36a.45.45,0,1,0-.9,0v.46A.45.45,0,0,0,50.46,7.28Z"/><path d="M50.46,25.69a.45.45,0,0,0-.45.46v.46a.45.45,0,1,0,.9,0v-.46A.45.45,0,0,0,50.46,25.69Z"/><path d="M60.4,16h-.46a.47.47,0,0,0,0,.93h.46a.47.47,0,0,0,0-.93Z"/><path d="M41,16h-.45a.47.47,0,0,0,0,.93H41A.47.47,0,0,0,41,16Z"/><path d="M57.71,9.55a.2.2,0,0,0,0-.11.39.39,0,0,0-.06-.11l0-.05h0l-.15-.1-.18,0-2.75,0a.47.47,0,0,0-.45.48.46.46,0,0,0,.46.46l1.62,0-4.76,4.78a1.82,1.82,0,0,0-.92-.26,1.87,1.87,0,1,0,1.83,1.86,1.89,1.89,0,0,0-.26-.94l4.79-4.81,0,1.69a.45.45,0,0,0,.46.46.46.46,0,0,0,.46-.47l0-2.8A.13.13,0,0,0,57.71,9.55ZM50.46,17.4a.92.92,0,1,1,.9-.92A.91.91,0,0,1,50.46,17.4Z"/><path class="cls-1" d="M50.46,17.4a.92.92,0,1,1,.9-.92A.91.91,0,0,1,50.46,17.4Zm0-2.78a1.87,1.87,0,1,0,1.83,1.86A1.85,1.85,0,0,0,50.46,14.62Z"/></g></g></svg>