<svg xmlns="http://www.w3.org/2000/svg" viewBox="0 0 54.51 52.1"><defs><style>.cls-1{stroke:#fff;stroke-miterlimit:10;stroke-width:0.25px;}</style></defs><title>depositETA</title><g id="Calque_2" data-name="Calque 2"><g id="Calque_1-2" data-name="Calque 1"><path d="M38.26,0A16.07,16.07,0,0,0,26,5.75L23.83,4.47a.76.76,0,0,0-.77,0L.4,17.19a.81.81,0,0,0-.29.29.77.77,0,0,0-.08.19.76.76,0,0,0,0,.21V51.3a.79.79,0,0,0,.78.8H4.69a.79.79,0,0,0,.78-.8V21.11H22.66a17,17,0,0,0,1.59,3.77H9.92a.7.7,0,0,0-.69.71v8.54h0v8.54h0v8.55a.7.7,0,0,0,.69.71H35.09a.7.7,0,0,0,.7-.71V42.67h0V34.13a.7.7,0,0,0-.7-.71H27.4V28.83a16,16,0,0,0,10.86,4.25,16.33,16.33,0,0,0,3.15-.31V51.3a.79.79,0,0,0,.78.8H46.1a.78.78,0,0,0,.72-.49,1,1,0,0,0,.06-.31V30.55a16.61,16.61,0,0,0,7.63-14A16.4,16.4,0,0,0,38.26,0ZM17.61,50.5h-7V43.39h7Zm0-8.54h-7V34.84h7Zm0-8.54h-7V26.3h7Zm9.79,1.42h7V42h-7Zm0,8.55h7V50.5h-7ZM22.3,19.52H4.69a.81.81,0,0,0-.56.23A.76.76,0,0,0,4,20a.78.78,0,0,0-.06.31V50.5H1.56V18.35L23.43,6.07,25,7a16.68,16.68,0,0,0-3,9.53A16.27,16.27,0,0,0,22.3,19.52Zm3.7,31H19V43.39h7ZM26,42H19V34.84h7Zm0-8.54H19V26.3h6.17c.26.37.54.72.82,1.06ZM45.31,50.5H43V32.37a14.89,14.89,0,0,0,2.34-.95ZM38.26,31.81a15.13,15.13,0,0,1-15-15.27,15,15,0,1,1,30,0A15.13,15.13,0,0,1,38.26,31.81Z"/><path d="M38.26,29.42A12.79,12.79,0,0,1,25.61,16.54a12.65,12.65,0,1,1,25.3,0A12.78,12.78,0,0,1,38.26,29.42m0-26.68a13.69,13.69,0,0,0-13.55,13.8,13.56,13.56,0,1,0,27.11,0A13.69,13.69,0,0,0,38.26,2.74"/><path class="cls-1" d="M38.26,29.42A12.79,12.79,0,0,1,25.61,16.54a12.65,12.65,0,1,1,25.3,0A12.78,12.78,0,0,1,38.26,29.42Zm0-26.68a13.69,13.69,0,0,0-13.55,13.8,13.56,13.56,0,1,0,27.11,0A13.69,13.69,0,0,0,38.26,2.74Z"/><path d="M38.26,17.41a.93.93,0,1,1,.91-.93.92.92,0,0,1-.91.93m-.45-2.7A1.84,1.84,0,0,0,36.52,16v.92a1.81,1.81,0,0,0,1.74,1.39,1.84,1.84,0,0,0,.45-3.62Z"/><path class="cls-1" d="M38.26,17.41a.93.93,0,1,1,.91-.93A.92.92,0,0,1,38.26,17.41Zm-.45-2.7A1.84,1.84,0,0,0,36.52,16v.92a1.81,1.81,0,0,0,1.74,1.39,1.84,1.84,0,0,0,.45-3.62Z"/><path d="M38.26,7.28a.46.46,0,0,0,.46-.46V6.36a.47.47,0,0,0-.46-.46.46.46,0,0,0-.45.46v.46a.45.45,0,0,0,.45.46"/><path class="cls-1" d="M38.26,7.28a.46.46,0,0,0,.46-.46V6.36a.47.47,0,0,0-.46-.46.46.46,0,0,0-.45.46v.46A.45.45,0,0,0,38.26,7.28Z"/><path d="M38.26,25.69a.45.45,0,0,0-.45.46v.46a.46.46,0,0,0,.45.46.47.47,0,0,0,.46-.46v-.46a.46.46,0,0,0-.46-.46"/><path class="cls-1" d="M38.26,25.69a.45.45,0,0,0-.45.46v.46a.46.46,0,0,0,.45.46.47.47,0,0,0,.46-.46v-.46A.46.46,0,0,0,38.26,25.69Z"/><path d="M48.2,16h-.45a.47.47,0,0,0,0,.93h.45a.47.47,0,0,0,0-.93"/><path class="cls-1" d="M48.2,16h-.45a.47.47,0,0,0,0,.93h.45a.47.47,0,0,0,0-.93Z"/><path d="M28.78,16h-.45a.47.47,0,0,0,0,.93h.45a.47.47,0,0,0,0-.93"/><path class="cls-1" d="M28.78,16h-.45a.47.47,0,0,0,0,.93h.45a.47.47,0,0,0,0-.93Z"/><path d="M45.52,9.55l0-.11a.41.41,0,0,0-.07-.11s0,0,0-.05h0a.56.56,0,0,0-.15-.1.47.47,0,0,0-.17,0l-2.75,0a.48.48,0,0,0-.46.48.47.47,0,0,0,.47.46l1.62,0-4.93,5a.47.47,0,0,0,0,.66.46.46,0,0,0,.65,0l5-5,0,1.69a.46.46,0,1,0,.91,0l0-2.8s0,0,0-.06"/><path class="cls-1" d="M45.52,9.55l0-.11a.41.41,0,0,0-.07-.11s0,0,0-.05h0a.56.56,0,0,0-.15-.1.47.47,0,0,0-.17,0l-2.75,0a.48.48,0,0,0-.46.48.47.47,0,0,0,.47.46l1.62,0-4.93,5a.47.47,0,0,0,0,.66.46.46,0,0,0,.65,0l5-5,0,1.69a.46.46,0,1,0,.91,0l0-2.8S45.52,9.57,45.52,9.55Z"/><path d="M38.26,17.4a.92.92,0,1,1,.91-.92.91.91,0,0,1-.91.92m0-2.78a1.87,1.87,0,1,0,1.83,1.86,1.85,1.85,0,0,0-1.83-1.86"/><path class="cls-1" d="M38.26,17.4a.92.92,0,1,1,.91-.92A.91.91,0,0,1,38.26,17.4Zm0-2.78a1.87,1.87,0,1,0,1.83,1.86A1.85,1.85,0,0,0,38.26,14.62Z"/></g></g></svg>