<svg xmlns="http://www.w3.org/2000/svg" viewBox="0 0 38.48 38.48"><title>deposit</title><g id="Calque_2" data-name="Calque 2"><g id="Calque_1-2" data-name="Calque 1"><path d="M38.16,11,19.56.09a.62.62,0,0,0-.63,0L.33,10.34A.65.65,0,0,0,0,10.9V37.83a.65.65,0,0,0,.64.65H3.85a.65.65,0,0,0,.64-.65V13.5H34V37.83a.64.64,0,0,0,.64.65h3.2a.65.65,0,0,0,.65-.65V11.54A.62.62,0,0,0,38.16,11Zm-1,26.2H35.27V12.86a.64.64,0,0,0-.64-.64H3.85a.64.64,0,0,0-.64.64V37.19H1.28V11.28l18-9.9,18,10.53V37.19Z"/><path d="M7.57,30.88v6.89a.58.58,0,0,0,.58.57H15a.58.58,0,0,0,.58-.57V30.88a.57.57,0,0,0-.58-.57H8.15A.57.57,0,0,0,7.57,30.88Zm1.15.58h5.74v5.73H8.72Z"/><path d="M14.46,30.88v6.89a.57.57,0,0,0,.57.57h6.89a.58.58,0,0,0,.57-.57V30.88a.57.57,0,0,0-.57-.57H15A.56.56,0,0,0,14.46,30.88Zm1.15.58h5.73v5.73H15.61Z"/><path d="M7.57,24v6.88a.58.58,0,0,0,.58.58H15a.58.58,0,0,0,.58-.58V24a.58.58,0,0,0-.58-.58H8.15A.58.58,0,0,0,7.57,24Zm1.15.57h5.74v5.74H8.72Z"/><path d="M21.34,30.88v6.89a.58.58,0,0,0,.58.57H28.8a.58.58,0,0,0,.58-.57V30.88a.57.57,0,0,0-.58-.57H21.92A.57.57,0,0,0,21.34,30.88Zm1.15.58h5.74v5.73H22.49Z"/><path d="M14.46,24v6.88a.57.57,0,0,0,.57.58h6.89a.58.58,0,0,0,.57-.58V24a.58.58,0,0,0-.57-.58H15A.57.57,0,0,0,14.46,24Zm1.15.57h5.73v5.74H15.61Z"/><path d="M7.57,17.11V24a.58.58,0,0,0,.58.57H15a.58.58,0,0,0,.58-.57V17.11a.57.57,0,0,0-.58-.57H8.15A.57.57,0,0,0,7.57,17.11Zm1.15.58h5.74v5.73H8.72Z"/><path d="M21.34,24v6.88a.58.58,0,0,0,.58.58H28.8a.58.58,0,0,0,.58-.58V24a.58.58,0,0,0-.58-.58H21.92A.58.58,0,0,0,21.34,24Zm1.15.57h5.74v5.74H22.49Z"/><path d="M14.46,17.11V24a.57.57,0,0,0,.57.57h6.89a.58.58,0,0,0,.57-.57V17.11a.57.57,0,0,0-.57-.57H15A.56.56,0,0,0,14.46,17.11Zm1.15.58h5.73v5.73H15.61Z"/></g></g></svg>