<svg xmlns="http://www.w3.org/2000/svg" viewBox="0 0 51.59 36.14"><title>drivingDuration</title><g id="Calque_2" data-name="Calque 2"><g id="Calque_1-2" data-name="Calque 1"><path d="M290.34,7.81l-1.8-8.76a3.68,3.68,0,0,0-3.46-3h-4.52V-5.49a1.55,1.55,0,0,0-1.51-1.58H258.12c0,.21,0,.41,0,.62a7.52,7.52,0,0,1,0,1h20.95v17a4.77,4.77,0,0,0-1.48,2.76H266.8a4.62,4.62,0,0,0-4.49-3.95,4.48,4.48,0,0,0-3.79,2.13,4.51,4.51,0,0,0-3.8-2.13,4.63,4.63,0,0,0-4.49,3.95h-1.58V3.06a9.54,9.54,0,0,1-1.52-.14V14.27a1.55,1.55,0,0,0,1.52,1.58h1.58a4.63,4.63,0,0,0,4.49,4,4.52,4.52,0,0,0,3.8-2.12,4.49,4.49,0,0,0,3.79,2.12,4.62,4.62,0,0,0,4.49-4h10.77a4.53,4.53,0,0,0,9,0h3.05a.77.77,0,0,0,.76-.79V8A1,1,0,0,0,290.34,7.81ZM254.72,18.23a3.17,3.17,0,1,1,3-3.17A3.11,3.11,0,0,1,254.72,18.23Zm7.59,0a3.17,3.17,0,1,1,3-3.17A3.11,3.11,0,0,1,262.31,18.23Zm25-17.42,1.31,6.38h-5l-.15,0a.79.79,0,0,1-.78-.8V.81Zm-5.29,17.42a3.17,3.17,0,1,1,3-3.17A3.11,3.11,0,0,1,282.06,18.23Zm6.78-8.68h-.74a.79.79,0,0,0,0,1.58h.74v3.14h-2.29a4.62,4.62,0,0,0-4.49-3.95,4.42,4.42,0,0,0-1.5.26V-2.33h4.52A2.15,2.15,0,0,1,287-.77h-5a.77.77,0,0,0-.76.79V6.37a2.34,2.34,0,0,0,2.1,2.37.58.58,0,0,0,.19,0h5.29Z" transform="translate(-238.76 16.33)"/><path d="M248.65,2.78a9.24,9.24,0,0,1-9.23-9.23,9.24,9.24,0,0,1,9.23-9.22,9.23,9.23,0,0,1,9.22,9.22,9.23,9.23,0,0,1-9.22,9.23m0-19.11a9.9,9.9,0,0,0-9.89,9.88,9.91,9.91,0,0,0,9.89,9.89,9.9,9.9,0,0,0,9.88-9.89,9.89,9.89,0,0,0-9.88-9.88" transform="translate(-238.76 16.33)"/><path d="M248.65-5.83a.66.66,0,0,1-.66-.66.67.67,0,0,1,.66-.66.67.67,0,0,1,.66.66.66.66,0,0,1-.66.66M249-7.76V-11.1a.33.33,0,0,0-.33-.33.33.33,0,0,0-.33.33v3.34a1.32,1.32,0,0,0-.94.94H245a.32.32,0,0,0-.32.33.32.32,0,0,0,.32.33h2.36a1.32,1.32,0,0,0,1.27,1A1.32,1.32,0,0,0,250-6.49a1.32,1.32,0,0,0-1-1.27" transform="translate(-238.76 16.33)"/><path d="M248.65-13.08a.33.33,0,0,0,.33-.33v-.33a.33.33,0,0,0-.33-.33.33.33,0,0,0-.33.33v.33a.33.33,0,0,0,.33.33" transform="translate(-238.76 16.33)"/><path d="M248.65.1a.33.33,0,0,0-.33.33V.76a.33.33,0,1,0,.66,0V.43a.33.33,0,0,0-.33-.33" transform="translate(-238.76 16.33)"/><path d="M255.9-6.82h-.33a.33.33,0,0,0-.33.33.33.33,0,0,0,.33.33h.33a.33.33,0,0,0,.33-.33.33.33,0,0,0-.33-.33" transform="translate(-238.76 16.33)"/><path d="M241.73-6.82h-.33a.33.33,0,0,0-.33.33.33.33,0,0,0,.33.33h.33a.33.33,0,0,0,.33-.33.33.33,0,0,0-.33-.33" transform="translate(-238.76 16.33)"/><path d="M253.54-11.85l-.23.24a.32.32,0,0,0,0,.46.3.3,0,0,0,.23.1.29.29,0,0,0,.23-.1l.24-.23a.33.33,0,0,0,0-.47.34.34,0,0,0-.47,0" transform="translate(-238.76 16.33)"/><path d="M243.52-1.83l-.23.24a.32.32,0,0,0,0,.46.3.3,0,0,0,.23.1.33.33,0,0,0,.24-.1l.23-.23a.33.33,0,0,0,0-.47.33.33,0,0,0-.47,0" transform="translate(-238.76 16.33)"/><path d="M253.77-1.83a.32.32,0,0,0-.46,0,.33.33,0,0,0,0,.47l.23.23a.32.32,0,0,0,.23.1.33.33,0,0,0,.24-.1.32.32,0,0,0,0-.46Z" transform="translate(-238.76 16.33)"/><path d="M243.76-11.85a.33.33,0,0,0-.47,0,.33.33,0,0,0,0,.47l.23.23a.33.33,0,0,0,.24.1.3.3,0,0,0,.23-.1.32.32,0,0,0,0-.46Z" transform="translate(-238.76 16.33)"/></g></g></svg>