<svg xmlns="http://www.w3.org/2000/svg" viewBox="0 0 56.89 49.07"><title>durationGap</title><g id="Calque_2" data-name="Calque 2"><g id="Calque_1-2" data-name="Calque 1"><path d="M3.82,33.22l5.34,5.29a1.36,1.36,0,1,0,1.92-1.93l-3-3,10.57,0a1.36,1.36,0,1,0,0-2.72l-10.57,0,3.6-3.49a1.37,1.37,0,0,0,0-1.93,1.36,1.36,0,0,0-1.93,0L3.82,31.3A1.36,1.36,0,0,0,3.82,33.22Z"/><path d="M0,48a1.14,1.14,0,0,0,1.18,1.1A1.14,1.14,0,0,0,2.36,48V16a1.15,1.15,0,0,0-1.18-1.11A1.15,1.15,0,0,0,0,16Z"/><path d="M53.07,33.22l-5.33,5.29a1.36,1.36,0,0,1-1.93-1.93l3-3-10.57,0a1.36,1.36,0,0,1,0-2.72l10.57,0-3.6-3.49a1.37,1.37,0,0,1,1-2.33,1.32,1.32,0,0,1,1,.4l5.93,5.82A1.36,1.36,0,0,1,53.07,33.22Z"/><path d="M56.89,48a1.18,1.18,0,0,1-2.35,0V16a1.18,1.18,0,0,1,2.35,0Z"/><path d="M28.45,0A12.63,12.63,0,1,0,41.08,12.63,12.64,12.64,0,0,0,28.45,0Zm0,24.42A11.79,11.79,0,1,1,40.24,12.63,11.8,11.8,0,0,1,28.45,24.42Z"/><path d="M28.87,11V6.69a.42.42,0,0,0-.42-.43.42.42,0,0,0-.42.43V11a1.69,1.69,0,0,0-1.21,1.2h-3a.42.42,0,1,0,0,.84h3a1.68,1.68,0,1,0,2.05-2Zm-.42,2.46a.84.84,0,1,1,.84-.84A.85.85,0,0,1,28.45,13.42Z"/><path d="M28.45,4.16a.42.42,0,0,0,.42-.42V3.32a.42.42,0,0,0-.42-.42.41.41,0,0,0-.42.42v.42A.42.42,0,0,0,28.45,4.16Z"/><path d="M28.45,21a.42.42,0,0,0-.42.42v.42a.41.41,0,0,0,.42.42.42.42,0,0,0,.42-.42v-.42A.42.42,0,0,0,28.45,21Z"/><path d="M37.71,12.16h-.42a.42.42,0,1,0,0,.84h.42a.42.42,0,0,0,0-.84Z"/><path d="M19.6,12.16h-.42a.42.42,0,1,0,0,.84h.42a.42.42,0,1,0,0-.84Z"/><path d="M34.7,5.73l-.3.3a.43.43,0,0,0,0,.6.42.42,0,0,0,.3.12.44.44,0,0,0,.3-.12l.29-.3a.42.42,0,0,0,0-.6A.42.42,0,0,0,34.7,5.73Z"/><path d="M21.9,18.53l-.3.3a.42.42,0,0,0,0,.6.42.42,0,0,0,.3.12.42.42,0,0,0,.29-.12l.3-.3a.42.42,0,0,0,0-.6A.42.42,0,0,0,21.9,18.53Z"/><path d="M35,18.53a.42.42,0,0,0-.6.6l.3.3a.42.42,0,0,0,.3.12.42.42,0,0,0,.29-.72Z"/><path d="M22.19,5.73a.42.42,0,0,0-.59,0,.42.42,0,0,0,0,.6l.3.3a.42.42,0,0,0,.29.12.42.42,0,0,0,.3-.12.42.42,0,0,0,0-.6Z"/></g></g></svg>