<svg xmlns="http://www.w3.org/2000/svg" viewBox="0 0 29.79 36.11"><title>dutyTime</title><g id="Calque_2" data-name="Calque 2"><g id="Calque_1-2" data-name="Calque 1"><path d="M28.58,33.68H25.21V29.85c0-3.85-2.11-7.39-5.94-10a2.19,2.19,0,0,1-.79-1.83,2.16,2.16,0,0,1,.79-1.83c3.83-2.58,5.94-6.11,5.94-10V2.43h3.37a1.21,1.21,0,0,0,1.21-1.21A1.21,1.21,0,0,0,28.58,0H1.22a1.22,1.22,0,1,0,0,2.43H4.58V6.27c0,3.85,2.11,7.38,5.94,10a2.16,2.16,0,0,1,.79,1.83,2.19,2.19,0,0,1-.79,1.83c-3.83,2.57-5.94,6.11-5.94,10v3.83H1.22a1.22,1.22,0,1,0,0,2.43H28.58a1.22,1.22,0,0,0,0-2.43ZM7,33.68V29.85H7c0-4.07,3.05-6.72,4.87-7.94a4.57,4.57,0,0,0,1.86-3.85,4.54,4.54,0,0,0-1.86-3.85C10.06,13,7,10.33,7,6.27V2.43H22.78V6.27c0,4.06-3.05,6.72-4.87,7.94a4.57,4.57,0,0,0-1.86,3.85,4.59,4.59,0,0,0,1.86,3.85c1.82,1.22,4.87,3.87,4.87,7.94v3.83Z"/><path d="M14.9,21.91a.83.83,0,0,0,.58-1.42.83.83,0,0,0-1.17,0,.83.83,0,0,0,0,1.17A.82.82,0,0,0,14.9,21.91Z"/><path d="M14.9,17.61a1,1,0,0,0,1-1v-3a1,1,0,1,0-2,0v3A1,1,0,0,0,14.9,17.61Z"/><path d="M2.7,34.47c0,.67.27,1.22.61,1.22s.6-.55.6-1.22V1.64C3.91,1,3.64.43,3.31.43S2.7,1,2.7,1.64Z"/><path d="M26,34.47c0,.67.27,1.22.61,1.22s.61-.55.61-1.22V1.64C27.25,1,27,.43,26.64.43S26,1,26,1.64Z"/><path d="M21.7,31.7a4.49,4.49,0,0,0-.31-.89c-1.37-3.14-5.28-6.26-5.81-6.68a1.1,1.1,0,0,0-1.35,0c-.51.4-4.12,3.28-5.62,6.28a5.28,5.28,0,0,0-.5,1.29c-.06.36-.48,1.45-.12,1.45H21.8C22.16,33.15,21.76,32.06,21.7,31.7Z"/><path d="M8.09,8.76a4,4,0,0,0,.32.89c1.36,3.13,5.27,5,5.8,5.45,2.49,2-1.14,2,1.36,0,.5-.4,4.11-2.06,5.61-5.06a4.72,4.72,0,0,0,.5-1.28c.06-.36.49-1.45.12-1.45H8C7.63,7.31,8,8.4,8.09,8.76Z"/></g></g></svg>