<svg xmlns="http://www.w3.org/2000/svg" viewBox="0 0 48.74 42.81"><title>dutyDuration</title><g id="Calque_2" data-name="Calque 2"><g id="Calque_1-2" data-name="Calque 1"><path d="M10.3,3.39a.35.35,0,0,0,.35-.34V2.71a.35.35,0,0,0-.35-.35.35.35,0,0,0-.34.35v.34a.34.34,0,0,0,.34.34"/><path d="M3.09,9.92H2.75a.34.34,0,1,0,0,.68h.34a.34.34,0,1,0,0-.68"/><path d="M15.4,4.68l-.24.24a.34.34,0,0,0,.24.58.31.31,0,0,0,.24-.1l.25-.24a.34.34,0,0,0,0-.48.34.34,0,0,0-.49,0"/><path d="M15.42,30.12,12.6,28.76a.62.62,0,1,0-.54,1.12l2.82,1.36a.66.66,0,0,0,.27.06.63.63,0,0,0,.56-.35.62.62,0,0,0-.29-.83"/><path d="M18,28.43,12.6,25.82a.62.62,0,0,0-.83.29.63.63,0,0,0,.29.83l5.42,2.61a.58.58,0,0,0,.26.06A.62.62,0,0,0,18,28.43"/><path d="M48.39,9.82,29.17.55a.57.57,0,0,0-.54,0l-9.8,4.73a10,10,0,0,1,.58,1.13L22.36,5l17.77,8.57-3.64,1.76L19.71,7.21a11.29,11.29,0,0,1,.37,1.55L35.89,16.4h0v7.44a.64.64,0,0,0,.29.53.66.66,0,0,0,.33.09.63.63,0,0,0,.27-.06l4.64-2.24a.62.62,0,0,0,.35-.56V14.13l5.72-2.76V32.53l-18,8.67V20.05L33.81,18a.62.62,0,1,0-.54-1.12L28.9,19l-1.72-.83a.62.62,0,1,0-.54,1.12l1.64.79V41.2l-18-8.67V20.21a10.19,10.19,0,0,1-1.24-.09V32.91a.62.62,0,0,0,.35.56l19.22,9.28a.64.64,0,0,0,.54,0l19.22-9.28a.62.62,0,0,0,.35-.56V10.38A.63.63,0,0,0,48.39,9.82Zm-7.85,11.4-3.4,1.64V16.37l3.4-1.64Zm1-8.35a.6.6,0,0,0-.11-.06L23.76,4.28,28.9,1.79l17.79,8.59Z"/><path d="M24,18a.66.66,0,0,0,.27.06.63.63,0,0,0,.56-.35.62.62,0,0,0-.29-.83l-5.2-2.51a8.86,8.86,0,0,1-.58,1.1Z"/><path d="M10.3,19.92a9.62,9.62,0,1,1,9.62-9.62,9.63,9.63,0,0,1-9.62,9.62M10.3,0A10.31,10.31,0,1,0,20.6,10.3,10.31,10.31,0,0,0,10.3,0"/><path d="M10.3,11a.69.69,0,0,1,0-1.38.69.69,0,0,1,0,1.38m.35-2V5.45a.35.35,0,0,0-.35-.34.34.34,0,0,0-.34.34V8.94a1.35,1.35,0,0,0-1,1H6.52a.34.34,0,0,0,0,.68H9a1.37,1.37,0,1,0,1.67-1.66"/><path d="M10.3,17.13a.34.34,0,0,0-.34.34v.35a.34.34,0,0,0,.34.34.35.35,0,0,0,.35-.34v-.35a.35.35,0,0,0-.35-.34"/><path d="M17.86,9.92h-.35a.34.34,0,0,0,0,.68h.35a.34.34,0,0,0,0-.68"/><path d="M5,15.12l-.24.24a.34.34,0,0,0,0,.49.34.34,0,0,0,.48,0l.25-.25a.34.34,0,0,0,0-.48.34.34,0,0,0-.49,0"/><path d="M15.64,15.12a.34.34,0,0,0-.48.48l.24.25a.35.35,0,0,0,.49,0,.36.36,0,0,0,0-.49Z"/><path d="M5.2,4.68a.34.34,0,0,0-.48.48L5,5.4a.33.33,0,0,0,.24.1.34.34,0,0,0,.25-.58Z"/></g></g></svg>