<svg xmlns="http://www.w3.org/2000/svg" viewBox="0 0 54.91 47.56"><title>ETA</title><g id="Calque_2" data-name="Calque 2"><g id="Calque_1-2" data-name="Calque 1"><path d="M54.89,32.33,52.6,21.19a4.65,4.65,0,0,0-4.39-3.76H42.65c0-.4.07-.8.07-1.21a16.22,16.22,0,0,0-32.19-2.8H1.93a2,2,0,0,0-1.93,2v25.1a2,2,0,0,0,1.93,2h2a5.86,5.86,0,0,0,5.7,5,5.72,5.72,0,0,0,4.82-2.7,5.72,5.72,0,0,0,4.82,2.7,5.86,5.86,0,0,0,5.7-5H38.67a5.75,5.75,0,0,0,11.41,0H54a1,1,0,0,0,1-1v-9A.75.75,0,0,0,54.89,32.33Zm-3.8-8.9,1.67,8.1h-6.3l-.2,0a1,1,0,0,1-1-1V23.43ZM26.49,1.24a15,15,0,1,1-15,15A15,15,0,0,1,26.49,1.24ZM9.64,45.56a4,4,0,0,1,0-8,4,4,0,0,1,0,8Zm9.64,0a4,4,0,1,1,3.86-4A4,4,0,0,1,19.28,45.56Zm5.7-5a5.87,5.87,0,0,0-5.7-5,5.74,5.74,0,0,0-4.82,2.7,5.74,5.74,0,0,0-4.82-2.7,5.87,5.87,0,0,0-5.7,5h-2V15.43h8.38c0,.27,0,.53,0,.79,0,.41,0,.81.06,1.21H4.82a1,1,0,0,0,0,2h5.77a16.21,16.21,0,0,0,30,4.87V37a6,6,0,0,0-1.87,3.5Zm19.39,5a4,4,0,1,1,3.86-4A3.95,3.95,0,0,1,44.37,45.56Zm8.62-11h-.94a1,1,0,0,0,0,2H53v4H50.08a5.87,5.87,0,0,0-5.71-5,5.51,5.51,0,0,0-1.9.34V19.44h5.74a2.72,2.72,0,0,1,2.46,2H44.32a1,1,0,0,0-1,1v8.06a3,3,0,0,0,2.67,3,1,1,0,0,0,.24,0H53Z"/><path d="M26.49,2.69A13.54,13.54,0,1,0,40,16.22,13.55,13.55,0,0,0,26.49,2.69Zm0,26.17A12.64,12.64,0,1,1,39.13,16.22,12.65,12.65,0,0,1,26.49,28.86Z"/><path d="M26,14.43a1.81,1.81,0,0,0-1.29,1.29v.9a1.8,1.8,0,1,0,2.19-2.19Zm.45,2.64a.9.9,0,1,1,.9-.9A.9.9,0,0,1,26.49,17.07Z"/><path d="M26.49,7.14a.45.45,0,0,0,.45-.45V6.24a.45.45,0,1,0-.9,0v.45A.45.45,0,0,0,26.49,7.14Z"/><path d="M26.49,25.19a.45.45,0,0,0-.45.45v.46a.45.45,0,1,0,.9,0v-.46A.45.45,0,0,0,26.49,25.19Z"/><path d="M36.42,15.72H36a.45.45,0,1,0,0,.9h.45a.45.45,0,1,0,0-.9Z"/><path d="M17,15.72h-.45a.45.45,0,1,0,0,.9H17a.45.45,0,1,0,0-.9Z"/><path d="M33.73,9.37a.5.5,0,0,0,0-.12.61.61,0,0,0-.07-.1l0,0h0a.31.31,0,0,0-.15-.1.33.33,0,0,0-.17,0L30.54,9a.44.44,0,0,0-.45.46.45.45,0,0,0,.46.45l1.62,0-4.92,4.86a.45.45,0,0,0,0,.64.46.46,0,0,0,.65,0l5-4.88,0,1.66a.44.44,0,0,0,.46.45.45.45,0,0,0,.45-.46l0-2.75Z"/><path d="M26.49,14.34a1.83,1.83,0,1,0,1.83,1.83A1.83,1.83,0,0,0,26.49,14.34Zm0,2.73a.9.9,0,1,1,.9-.9A.9.9,0,0,1,26.49,17.07Z"/></g></g></svg>