<svg xmlns="http://www.w3.org/2000/svg" viewBox="0 0 51.12 35.32"><defs><style>.cls-1{fill:#e74054;}.cls-2{fill:#fff;}</style></defs><title>finish</title><g id="Calque_2" data-name="Calque 2"><g id="Calque_1-2" data-name="Calque 1"><path d="M38.28,32.31l-.3,0V33.7h-.92V32.17a4.48,4.48,0,0,1-1.6-.7l0,3a.82.82,0,0,0,.82.81h2.62a.82.82,0,0,0,.82-.81V32.12A5.24,5.24,0,0,1,38.28,32.31Z"/><path class="cls-1" d="M31.58,14.3a7.48,7.48,0,0,1,2.27-2.21c.27-.17.56-.29.84-.45a10.33,10.33,0,0,1,3.43-1.33,5,5,0,0,1,2.25-.08V1.32H1.13V14.73h30.2A2.3,2.3,0,0,1,31.58,14.3Z"/><path d="M1.62,13.11V2.42a.8.8,0,0,1,.8-.8H38.88a.8.8,0,0,1,.8.8V10.2a4.49,4.49,0,0,1,.64,0,5.21,5.21,0,0,1,1,.09V2.42A2.43,2.43,0,0,0,38.88,0H2.42A2.43,2.43,0,0,0,0,2.42V13.11a2.42,2.42,0,0,0,1.61,2.28V34.51a.81.81,0,0,0,.81.81H5.05a.81.81,0,0,0,.81-.81l-.09-19H30.71a5,5,0,0,1,.73-1.62h-29A.8.8,0,0,1,1.62,13.11Zm1.7,2.42h.92V33.7H3.32Z"/><path d="M39.8,10A11.32,11.32,0,1,0,51.12,21.36,11.33,11.33,0,0,0,39.8,10Zm0,21.88A10.56,10.56,0,1,1,50.36,21.36,10.58,10.58,0,0,1,39.8,31.92Z"/><path d="M39.76,11.81a9.55,9.55,0,1,0,9.55,9.55A9.57,9.57,0,0,0,39.76,11.81Zm0,18.46a8.91,8.91,0,1,1,8.92-8.91A8.92,8.92,0,0,1,39.76,30.27Z"/><path d="M44.58,21.36a.32.32,0,0,0-.32-.32H41a1.27,1.27,0,0,0-.91-.91V17.86a.32.32,0,0,0-.32-.32.32.32,0,0,0-.32.32v2.27a1.29,1.29,0,0,0-.95,1.23,1.27,1.27,0,0,0,2.5.32h3.23A.32.32,0,0,0,44.58,21.36ZM39.8,22a.64.64,0,0,1,0-1.28.64.64,0,0,1,0,1.28Z"/><path d="M46.81,21h-.32a.32.32,0,0,0-.32.32.32.32,0,0,0,.32.32h.32a.31.31,0,0,0,.31-.32A.32.32,0,0,0,46.81,21Z"/><path d="M33.12,21H32.8a.32.32,0,0,0-.32.32.32.32,0,0,0,.32.32h.32a.32.32,0,0,0,.32-.32A.33.33,0,0,0,33.12,21Z"/><path d="M39.8,27.73a.32.32,0,0,0-.32.32v.31a.32.32,0,0,0,.32.32.32.32,0,0,0,.32-.32v-.31A.32.32,0,0,0,39.8,27.73Z"/><path d="M39.8,15a.31.31,0,0,0,.32-.31v-.32A.32.32,0,0,0,39.8,14a.32.32,0,0,0-.32.32v.32A.32.32,0,0,0,39.8,15Z"/><path d="M34.85,16.86a.33.33,0,0,0,.45,0,.31.31,0,0,0,0-.45l-.22-.23a.33.33,0,0,0-.45,0,.32.32,0,0,0-.1.23.28.28,0,0,0,.1.22Z"/><path d="M34.85,25.86l-.22.23a.28.28,0,0,0-.1.22.3.3,0,0,0,.1.23.33.33,0,0,0,.45,0l.22-.23a.31.31,0,0,0,0-.45A.33.33,0,0,0,34.85,25.86Z"/><path d="M44.53,16.18l-.22.23a.28.28,0,0,0-.1.22.29.29,0,0,0,.1.23.33.33,0,0,0,.45,0l.22-.23a.31.31,0,0,0,0-.45A.33.33,0,0,0,44.53,16.18Z"/><path d="M44.76,25.86a.33.33,0,0,0-.45,0,.32.32,0,0,0-.1.23.28.28,0,0,0,.1.22l.22.23a.33.33,0,0,0,.45,0,.32.32,0,0,0,0-.45Z"/><path class="cls-2" d="M9.12,5.81h2a.65.65,0,0,0,0-1.3H8.47a.65.65,0,0,0-.65.65v5.2a.65.65,0,0,0,1.3,0V8.41h2a.65.65,0,1,0,0-1.3h-2V5.81Z"/><path class="cls-2" d="M13,5.16v5.2a.65.65,0,1,0,1.29,0V5.16a.65.65,0,1,0-1.29,0Z"/><path class="cls-2" d="M21.33,10.36a.65.65,0,0,0,1.3,0V5.16a.65.65,0,0,0-1.3,0Z"/><path class="cls-2" d="M16.09,4.53a.66.66,0,0,0-.48.63v5.2a.65.65,0,0,0,1.3,0V7.5l1.91,3.19a.66.66,0,0,0,.56.32.47.47,0,0,0,.17,0,.64.64,0,0,0,.48-.62V5.16a.65.65,0,1,0-1.3,0V8L16.82,4.82a.65.65,0,0,0-.73-.29Z"/><path class="cls-2" d="M25.88,5.81h.74a.65.65,0,0,0,0-1.3h-.74a1.95,1.95,0,1,0,0,3.9h.26a.65.65,0,0,1,0,1.3H25.2a.65.65,0,1,0,0,1.3h.94a2,2,0,0,0,0-3.9h-.26a.65.65,0,0,1,0-1.3Z"/><path class="cls-2" d="M30,4.51a.65.65,0,0,0-.65.65v5.2a.65.65,0,1,0,1.29,0V8.41h1.56v1.95a.65.65,0,0,0,1.3,0V5.16a.65.65,0,1,0-1.3,0v2H30.68V5.16A.65.65,0,0,0,30,4.51Z"/></g></g></svg>