<svg xmlns="http://www.w3.org/2000/svg" viewBox="0 0 60.29 63.81"><defs><style>.cls-1{fill:#1d1d1b;}</style></defs><title>lastSync</title><g id="Calque_2" data-name="Calque 2"><g id="Calque_1-2" data-name="Calque 1"><path class="cls-1" d="M57.2,84.07V92.3A30.74,30.74,0,0,0,14.46,93,29.17,29.17,0,0,0,6,113.56a2.33,2.33,0,0,0,4.66,0c0-13.82,11.48-25,25.63-25a26,26,0,0,1,18.9,8.13L44.81,100a2.26,2.26,0,0,0-1.47,2.88,2.32,2.32,0,0,0,2.94,1.44l14-4.54a2.3,2.3,0,0,0,1.6-2.17V84a2.31,2.31,0,0,0-2.14-2.27,2.34,2.34,0,0,0-2.52,2.35" transform="translate(-5.95 -81.72)"/><path class="cls-1" d="M63.91,111.41a2.3,2.3,0,0,0-2.33,2.27c0,13.82-11.48,25-25.63,25a25.93,25.93,0,0,1-18.9-8.13l10.33-3.36a2.26,2.26,0,0,0,1.47-2.88,2.33,2.33,0,0,0-2.94-1.44l-14,4.55a2.28,2.28,0,0,0-1.6,2.16v13.58a2.34,2.34,0,0,0,2.53,2.34A2.3,2.3,0,0,0,15,143.25v-8.31a30.75,30.75,0,0,0,42.74-.67,29.2,29.2,0,0,0,8.51-20.59,2.3,2.3,0,0,0-2.33-2.27" transform="translate(-5.95 -81.72)"/></g></g></svg>