<svg xmlns="http://www.w3.org/2000/svg" viewBox="0 0 27.64 47.92"><title>mobile</title><g id="Calque_2" data-name="Calque 2"><g id="Calque_1-2" data-name="Calque 1"><path d="M25.49,0H2.15A2.15,2.15,0,0,0,0,2.15V45.77a2.15,2.15,0,0,0,2.15,2.15H25.49a2.15,2.15,0,0,0,2.15-2.15V2.15A2.15,2.15,0,0,0,25.49,0ZM1.31,2.15a.85.85,0,0,1,.84-.84H25.49a.85.85,0,0,1,.84.84V5.28h-25Zm25,4.44v33h-25v-33Zm0,39.18a.85.85,0,0,1-.84.84H2.15a.85.85,0,0,1-.84-.84V40.91h25Z"/><path d="M15.6,2.64H12A.66.66,0,0,0,12,4H15.6a.66.66,0,0,0,0-1.31Z"/><path d="M20.48,2.64H19.23a.66.66,0,0,0,0,1.31h1.25a.66.66,0,1,0,0-1.31Z"/><path d="M10.69,45.54H17a1.4,1.4,0,0,0,1.4-1.4v-.76A1.4,1.4,0,0,0,17,42H10.69a1.41,1.41,0,0,0-1.41,1.4v.76A1.41,1.41,0,0,0,10.69,45.54Zm-.1-2.16a.09.09,0,0,1,.1-.09H17a.09.09,0,0,1,.09.09v.76a.09.09,0,0,1-.09.09H10.69a.09.09,0,0,1-.1-.09Z"/><path d="M23.29,34.37a1.77,1.77,0,1,0,1.51,2A1.77,1.77,0,0,0,23.29,34.37Zm-.37,2.8a1.06,1.06,0,1,1,1.18-.91A1.05,1.05,0,0,1,22.92,37.17Z"/><path d="M5.9,9.56a1.78,1.78,0,0,0-2,1.52,1.75,1.75,0,1,0,2-1.52Zm-.37,2.8a1.06,1.06,0,1,1,1.18-.91A1.05,1.05,0,0,1,5.53,12.36Z"/><path d="M9.66,26.8a.56.56,0,0,1,.57-.57h5.88a1.43,1.43,0,0,0,1.43-1.43l.07-3.89a1.43,1.43,0,0,0-1.43-1.43H6.81a.58.58,0,0,1-.57-.57v-6H5.38v6a1.44,1.44,0,0,0,1.43,1.43h9.37a.57.57,0,0,1,.57.57l-.07,3.89a.57.57,0,0,1-.57.57H10.23A1.43,1.43,0,0,0,8.8,26.8l0,8.39a1.43,1.43,0,0,0,1.43,1.43H21.92v-.93l-11.67.08a.57.57,0,0,1-.57-.58Z"/><path d="M16,12.93a2.32,2.32,0,0,0-2.32,2.32c0,1.91,2.09,3.77,2.18,3.85a.22.22,0,0,0,.28,0c.09-.08,2.18-1.94,2.18-3.85A2.32,2.32,0,0,0,16,12.93Zm0,5.71c-.46-.45-1.89-1.95-1.89-3.39a1.89,1.89,0,1,1,3.78,0C17.86,16.69,16.43,18.19,16,18.64Z"/><path d="M16,14.17A1.08,1.08,0,1,0,17,15.25,1.08,1.08,0,0,0,16,14.17Zm0,1.73a.65.65,0,1,1,.64-.65A.64.64,0,0,1,16,15.9Z"/></g></g></svg>