<svg xmlns="http://www.w3.org/2000/svg" viewBox="0 0 42.61 39.97"><defs><style>.cls-1{fill:#1d1d1b;}.cls-2{fill:none;stroke:#1d1d1b;stroke-width:0.5px;}</style></defs><title>noFilter</title><g id="Calque_2" data-name="Calque 2"><g id="Calque_1-2" data-name="Calque 1"><path class="cls-1" d="M28.71,9.26H30.1a.93.93,0,1,0,0-1.85H28.71a.93.93,0,0,0,0,1.85"/><path class="cls-1" d="M42.42,1a1.85,1.85,0,0,0-1.67-1H1.86A2,2,0,0,0,.19,1,1.84,1.84,0,0,0,.38,3L16.72,23.52V36.9a1.81,1.81,0,0,0,1,1.62,1.86,1.86,0,0,0,.88.23,1.79,1.79,0,0,0,1.06-.32l4.35-3a10.46,10.46,0,0,1-.9-1.64L18.58,36.9V23.15a.82.82,0,0,0-.38-.74L7.74,9.26H24.55a.93.93,0,0,0,0-1.85H6.31L1.86,1.85H40.75L24.27,22.59a1,1,0,0,0-.19.56v1a9.93,9.93,0,0,1,4-3.28L42.23,3A1.84,1.84,0,0,0,42.42,1Z"/><circle class="cls-2" cx="32.16" cy="29.82" r="9.9"/><path class="cls-1" d="M39.15,23a.57.57,0,0,0-.8,0L25.44,35.88a.56.56,0,0,0,.4,1,.59.59,0,0,0,.41-.16l12.9-12.91a.57.57,0,0,0,0-.8"/><path class="cls-1" d="M39.15,35.88,26.25,23a.58.58,0,0,0-.81,0,.57.57,0,0,0,0,.8L38.35,36.68a.55.55,0,0,0,.4.16.56.56,0,0,0,.4-1"/></g></g></svg>