<svg xmlns="http://www.w3.org/2000/svg" viewBox="0 0 68.78 37.95"><title>openHours</title><g id="Calque_2" data-name="Calque 2"><g id="Calque_1-2" data-name="Calque 1"><path d="M5.18,0A5.34,5.34,0,0,0,0,5.48v27A5.34,5.34,0,0,0,5.18,38H63.6a5.34,5.34,0,0,0,5.18-5.48v-27A5.34,5.34,0,0,0,63.6,0ZM63.6,3a2.38,2.38,0,0,1,2.31,2.44v27h0a2.39,2.39,0,0,1-2.31,2.44H5.18a2.38,2.38,0,0,1-2.3-2.44v-27A2.38,2.38,0,0,1,5.18,3Z"/><path d="M25.15,16.47a7.1,7.1,0,0,0-.52-1.14,6,6,0,0,0-.69-1,5.79,5.79,0,0,0-1.86-1.45,5.38,5.38,0,0,0-2.37-.52,5.47,5.47,0,0,0-2.36.51,5.59,5.59,0,0,0-1.87,1.46,6.73,6.73,0,0,0-1.22,2.11,7.56,7.56,0,0,0,0,5,6.88,6.88,0,0,0,1.22,2.13A5.63,5.63,0,0,0,17.36,25a5.46,5.46,0,0,0,2.35.52A5.4,5.4,0,0,0,22.07,25,5.87,5.87,0,0,0,24,23.58a6.32,6.32,0,0,0,1.2-2.1,7.25,7.25,0,0,0,.33-1.23,7.59,7.59,0,0,0,.1-1.29A7.21,7.21,0,0,0,25.15,16.47Zm-3.14,4a3.7,3.7,0,0,1-1,1.36,1.92,1.92,0,0,1-2.56,0,4,4,0,0,1-1-1.35A3.75,3.75,0,0,1,17,18.86a3.61,3.61,0,0,1,.36-1.54,3.11,3.11,0,0,1,1-1.21,2.15,2.15,0,0,1,1.33-.44,2.25,2.25,0,0,1,1.34.43,3.09,3.09,0,0,1,1,1.21,3.62,3.62,0,0,1,.36,1.55A3.91,3.91,0,0,1,22,20.43Z"/><path d="M30.43,12.7H27.56a.52.52,0,0,0-.51.53V24.71a.52.52,0,0,0,.51.53h2.11a.51.51,0,0,0,.5-.53V21h.55a4.43,4.43,0,0,0,2.1-.46,3.15,3.15,0,0,0,1.41-1.43,5,5,0,0,0,.46-2.26C34.69,14.93,34,12.7,30.43,12.7Zm.95,4.93a.56.56,0,0,1-.35.29,3.16,3.16,0,0,1-.86.11V15.62a2.09,2.09,0,0,1,1.1.24c.23.16.26.64.26.92A1.9,1.9,0,0,1,31.38,17.63Z"/><path d="M42.21,15.71a.51.51,0,0,0,.5-.53V13.23a.51.51,0,0,0-.5-.53H36.6a.51.51,0,0,0-.5.53V24.71a.51.51,0,0,0,.5.53h5.61a.51.51,0,0,0,.5-.53V22.77a.51.51,0,0,0-.5-.53h-3v-2h2.87a.51.51,0,0,0,.5-.53V17.71a.51.51,0,0,0-.5-.53H39.21V15.71Z"/><path d="M54.44,12.71H52.33a.51.51,0,0,0-.5.53V19.4L47,12.61a.52.52,0,0,0-.4-.21H45.06a.52.52,0,0,0-.5.53V24.71a.51.51,0,0,0,.5.53h2.12a.51.51,0,0,0,.5-.53V18.47l4.84,6.79a.46.46,0,0,0,.4.21h1.52a.51.51,0,0,0,.5-.53V13.24A.51.51,0,0,0,54.44,12.71Z"/></g></g></svg>