<svg xmlns="http://www.w3.org/2000/svg" viewBox="0 0 37.64 37.85"><defs><style>.cls-1{stroke:#000;stroke-miterlimit:10;stroke-width:0.75px;}</style></defs><title>pauseDuration</title><g id="Calque_2" data-name="Calque 2"><g id="Calque_1-2" data-name="Calque 1"><path d="M16.49,15.72V30.14a1.2,1.2,0,0,0,1.3,1.08,1.21,1.21,0,0,0,1.3-1.08V15.72a1.22,1.22,0,0,0-1.3-1.09,1.21,1.21,0,0,0-1.3,1.09"/><path d="M26.58,15.72V30.14a1.32,1.32,0,0,0,2.59,0V15.72a1.31,1.31,0,0,0-2.59,0"/><path class="cls-1" d="M37,10.94a3.29,3.29,0,0,0-3.08-2c-2.23,0-4.47,0-6.7,0H18c0,.1,0,.2,0,.3s0,.17,0,.26H33.83a2.77,2.77,0,0,1,1.93.73,3,3,0,0,1,1,2.15v21.6a2.93,2.93,0,0,1-.56,1.79,2.75,2.75,0,0,1-1.93,1.15,2.06,2.06,0,0,1-.35,0H12.77A2.86,2.86,0,0,1,10,34.48a5.12,5.12,0,0,1,0-.56V17.78l-.5,0H9.39q0,8.09,0,16.15a3,3,0,0,0,0,.52,3.4,3.4,0,0,0,2,2.71,3.32,3.32,0,0,0,1.46.29H34A3,3,0,0,0,35.65,37a3.34,3.34,0,0,0,1.61-3c0-2.58,0-5.18,0-7.77V12.41A3.37,3.37,0,0,0,37,10.94Z"/><path d="M9,17.3A8.35,8.35,0,1,1,17.3,9,8.36,8.36,0,0,1,9,17.3M9,0a9,9,0,1,0,9,9A9,9,0,0,0,9,0"/><path d="M9,9.51a.6.6,0,0,1-.6-.6.6.6,0,0,1,1.2,0,.6.6,0,0,1-.6.6m.3-1.75v-3a.3.3,0,0,0-.3-.3.29.29,0,0,0-.3.3v3a1.2,1.2,0,0,0-.85.85H5.67a.3.3,0,0,0-.3.3.29.29,0,0,0,.3.3H7.8A1.19,1.19,0,1,0,9.25,7.76"/><path d="M9,3a.31.31,0,0,0,.3-.3v-.3a.31.31,0,0,0-.3-.3.3.3,0,0,0-.3.3v.3A.3.3,0,0,0,9,3"/><path d="M9,14.88a.29.29,0,0,0-.3.3v.29a.29.29,0,0,0,.3.3.3.3,0,0,0,.3-.3v-.29a.3.3,0,0,0-.3-.3"/><path d="M15.51,8.61h-.3a.31.31,0,0,0-.3.3.3.3,0,0,0,.3.3h.3a.29.29,0,0,0,.3-.3.3.3,0,0,0-.3-.3"/><path d="M2.68,8.61H2.39a.3.3,0,0,0-.3.3.29.29,0,0,0,.3.3h.29a.29.29,0,0,0,.3-.3.3.3,0,0,0-.3-.3"/><path d="M13.38,4.06l-.21.21a.3.3,0,0,0,.21.51.3.3,0,0,0,.21-.09l.21-.21a.29.29,0,0,0,0-.42.3.3,0,0,0-.42,0"/><path d="M4.31,13.13l-.21.21a.3.3,0,0,0,.21.51.3.3,0,0,0,.21-.09l.21-.21a.3.3,0,1,0-.42-.42"/><path d="M13.59,13.13a.3.3,0,1,0-.42.42l.21.21a.29.29,0,0,0,.21.09.3.3,0,0,0,.21-.09.29.29,0,0,0,0-.42Z"/><path d="M4.52,4.06a.3.3,0,1,0-.42.42l.21.21a.3.3,0,0,0,.42-.42Z"/></g></g></svg>