<svg xmlns="http://www.w3.org/2000/svg" viewBox="0 0 27.35 36.67"><title>PDL</title><g id="Calque_2" data-name="Calque 2"><g id="Calque_1-2" data-name="Calque 1"><path d="M13.67,0A13.69,13.69,0,0,0,0,13.68C0,24.92,12.31,35.89,12.84,36.36a1.28,1.28,0,0,0,1.67,0c.53-.47,12.84-11.44,12.84-22.68A13.69,13.69,0,0,0,13.67,0Zm0,34.88C11,32.24,1.32,22.18,1.32,13.68c0-6.15,6.21-12.36,12.35-12.36S26,7.53,26,13.68C26,22.18,16.4,32.24,13.67,34.88Z"/><path d="M22.42,9.66,13.8,5.5a.28.28,0,0,0-.25,0L4.93,9.66a.3.3,0,0,0-.16.25V20a.28.28,0,0,0,.16.25l8.62,4.17.12,0,.13,0,8.62-4.17a.28.28,0,0,0,.16-.25V9.91A.3.3,0,0,0,22.42,9.66Zm-8.75-3.6,8,3.85L19.34,11l0,0L11.37,7.17ZM10.74,7.49l8,3.85-1.63.79-8-3.85Zm8.16,4.37v2.92l-1.53.73V12.6Zm3.12,8L14,23.74V14.25l1.93-.93a.28.28,0,1,0-.24-.5l-2,.95-.77-.37a.28.28,0,0,0-.37.13.28.28,0,0,0,.13.37l.74.35v9.49L5.33,19.85V10.36l6.14,3,.12,0a.26.26,0,0,0,.25-.16.27.27,0,0,0-.13-.37l-6-2.91L8.46,8.58l8.35,4h0V16a.28.28,0,0,0,.13.23.24.24,0,0,0,.14,0,.28.28,0,0,0,.13,0l2.08-1a.27.27,0,0,0,.15-.25V11.6L22,10.36v9.49Z"/><path d="M7.63,18.77l-1.27-.61a.28.28,0,1,0-.24.5l1.26.61a.28.28,0,0,0,.13,0,.28.28,0,0,0,.25-.16A.29.29,0,0,0,7.63,18.77Z"/><path d="M8.79,18,6.36,16.84a.28.28,0,1,0-.24.5l2.43,1.17a.27.27,0,0,0,.12,0,.28.28,0,0,0,.25-.16A.27.27,0,0,0,8.79,18Z"/></g></g></svg>