<svg xmlns="http://www.w3.org/2000/svg" viewBox="0 0 32.43 43.48"><title>position</title><g id="Calque_2" data-name="Calque 2"><g id="Calque_1-2" data-name="Calque 1"><path d="M16.21,0A16.23,16.23,0,0,0,0,16.22C0,29.55,14.6,42.56,15.22,43.11a1.52,1.52,0,0,0,2,0c.62-.55,15.22-13.56,15.22-26.89A16.24,16.24,0,0,0,16.21,0Zm0,39.92C13,36.79,3,26.3,3,16.22a13.22,13.22,0,1,1,26.43,0C29.43,26.3,19.44,36.79,16.21,39.92Z"/><path d="M16.21,8.66a7.56,7.56,0,1,0,7.51,7.56A7.53,7.53,0,0,0,16.21,8.66Zm0,12.11a4.55,4.55,0,1,1,4.51-4.55A4.53,4.53,0,0,1,16.21,20.77Z"/></g></g></svg>