<svg xmlns="http://www.w3.org/2000/svg" viewBox="0 0 40.31 40.31"><title>sequence</title><g id="Calque_2" data-name="Calque 2"><g id="Calque_1-2" data-name="Calque 1"><path d="M37.06,0H3.25A3.26,3.26,0,0,0,0,3.25V37.06a3.26,3.26,0,0,0,3.25,3.25H37.06a3.27,3.27,0,0,0,3.25-3.25V3.25A3.26,3.26,0,0,0,37.06,0ZM39,37.06A2,2,0,0,1,37.06,39H3.25A2,2,0,0,1,1.3,37.06V3.25a2,2,0,0,1,2-1.95H37.06a2,2,0,0,1,1.95,2Z"/><circle cx="9.45" cy="10.08" r="4.04"/><circle cx="30.86" cy="10.08" r="4.04"/><circle cx="9.45" cy="30.2" r="4.04"/><circle cx="30.86" cy="30.2" r="4.04"/><path d="M24.79,9.82l-1.9-1.89a.37.37,0,0,0-.53.53l1.25,1.25H15.78a.38.38,0,0,0,0,.75h7.83l-1.25,1.23a.37.37,0,0,0,0,.53.35.35,0,0,0,.27.11.34.34,0,0,0,.26-.11l1.9-1.87A.37.37,0,0,0,24.79,9.82Z"/><path d="M24.14,29.94l-1.89-1.89a.37.37,0,1,0-.53.53L23,29.83H15.14a.38.38,0,1,0,0,.75H23l-1.25,1.23a.37.37,0,0,0,0,.53.34.34,0,0,0,.26.11.35.35,0,0,0,.27-.11l1.89-1.87A.37.37,0,0,0,24.14,29.94Z"/><path d="M13.87,26.16h2.67a.38.38,0,1,0,0-.75H14.77L26.69,13.48a.37.37,0,0,0-.53-.53L14.24,24.87l0-1.75a.38.38,0,0,0-.38-.38.36.36,0,0,0-.26.11.37.37,0,0,0-.11.27l0,2.66A.38.38,0,0,0,13.87,26.16Z"/></g></g></svg>