<svg xmlns="http://www.w3.org/2000/svg" viewBox="0 0 50.59 34.96"><defs><style>.cls-1{fill:#42b284;}.cls-2{fill:#fff;}</style></defs><title>start</title><g id="Calque_2" data-name="Calque 2"><g id="Calque_1-2" data-name="Calque 1"><path class="cls-1" d="M32.5,13.1a4.39,4.39,0,0,1,3-1.7l.26-.07a4.65,4.65,0,0,1,3.32-1.25,5.7,5.7,0,0,1,1,.08V1.3H1.18V14.57h30A4.43,4.43,0,0,1,32.5,13.1Z"/><path d="M37.59,33.35h-.91V32a10.56,10.56,0,0,1-1.59-.52v2.68a.8.8,0,0,0,.8.8h2.6a.8.8,0,0,0,.81-.8V32.34a11.94,11.94,0,0,1-1.7-.16Z"/><path d="M27.23,13.76H2.4A.79.79,0,0,1,1.61,13V2.39a.78.78,0,0,1,.79-.78H38.48a.78.78,0,0,1,.79.78V10h.11a12.31,12.31,0,0,1,1.5.11V2.4A2.39,2.39,0,0,0,38.48,0H2.4A2.4,2.4,0,0,0,0,2.4V13a2.41,2.41,0,0,0,1.59,2.26V34.16a.8.8,0,0,0,.81.8H5a.8.8,0,0,0,.8-.8L5.71,15.37H29.8A10.84,10.84,0,0,1,31,13.76Zm-23,19.59h-.9v-18h.9Z"/><path d="M50.59,21.14a11.2,11.2,0,1,0-11.2,11.2A11.21,11.21,0,0,0,50.59,21.14Zm-21.65,0A10.46,10.46,0,1,1,39.39,31.59,10.46,10.46,0,0,1,28.94,21.14Z"/><path d="M48.81,21.14a9.46,9.46,0,1,0-9.45,9.45A9.46,9.46,0,0,0,48.81,21.14Zm-18.28,0A8.83,8.83,0,1,1,39.36,30,8.84,8.84,0,0,1,30.53,21.14Z"/><path d="M40.61,21.46H43.8a.32.32,0,1,0,0-.63H40.61a1.26,1.26,0,0,0-.9-.9V17.68a.32.32,0,1,0-.63,0v2.25a1.26,1.26,0,1,0,1.53,1.53Zm-1.85-.32a.63.63,0,0,1,.63-.63.63.63,0,0,1,0,1.26A.63.63,0,0,1,38.76,21.14Z"/><path d="M45.69,21.14a.32.32,0,0,0,.32.32h.31a.32.32,0,1,0,0-.63H46A.32.32,0,0,0,45.69,21.14Z"/><path d="M33.09,21.14a.31.31,0,0,0-.31-.31h-.32a.32.32,0,0,0,0,.63h.32A.31.31,0,0,0,33.09,21.14Z"/><path d="M39.71,28.07v-.31a.32.32,0,1,0-.63,0v.31a.32.32,0,1,0,.63,0Z"/><path d="M39.71,14.52v-.31a.32.32,0,1,0-.63,0v.31a.32.32,0,1,0,.63,0Z"/><path d="M34.94,16.24,34.71,16a.3.3,0,0,0-.44,0,.31.31,0,0,0,0,.44l.22.23a.32.32,0,1,0,.45-.45Z"/><path d="M34.94,26a.31.31,0,0,0,0-.44.31.31,0,0,0-.45,0l-.22.22a.31.31,0,0,0,0,.44.3.3,0,0,0,.44,0Z"/><path d="M44.52,16.46a.31.31,0,0,0,0-.44.31.31,0,0,0-.45,0l-.22.22a.31.31,0,0,0-.09.22.35.35,0,0,0,.09.23.31.31,0,0,0,.44,0Z"/><path d="M44.52,25.82l-.23-.22a.3.3,0,0,0-.44,0,.31.31,0,0,0,0,.44l.22.22a.31.31,0,0,0,.45,0A.31.31,0,0,0,44.52,25.82Z"/><path class="cls-2" d="M14.87,10.78a.65.65,0,0,0,.64-.65V5.6h.78a.65.65,0,0,0,0-1.3H13.44a.65.65,0,0,0,0,1.3h.78v4.53A.65.65,0,0,0,14.87,10.78Z"/><path class="cls-2" d="M31.46,10.78a.65.65,0,0,0,.65-.65V5.6h.77a.65.65,0,0,0,0-1.3H30a.65.65,0,1,0,0,1.3h.78v4.53A.65.65,0,0,0,31.46,10.78Z"/><path class="cls-2" d="M9.55,9.48H8.61a.65.65,0,0,0,0,1.3h.94a1.95,1.95,0,1,0,0-3.89H9.3a.65.65,0,1,1,0-1.29H10a.65.65,0,0,0,0-1.3H9.3a1.95,1.95,0,1,0,0,3.89h.25a.65.65,0,1,1,0,1.29Z"/><path class="cls-2" d="M23.11,9.87l-.4-.9h0L20.84,4.69a.63.63,0,0,0-.61-.39.65.65,0,0,0-.59.43L17.76,9.91a.64.64,0,0,0,.38.83.62.62,0,0,0,.23,0,.63.63,0,0,0,.6-.43l.18-.48h2.54l.23.52a.65.65,0,0,0,.85.34.66.66,0,0,0,.34-.86ZM19.62,8.58l.68-1.89.83,1.89Z"/><path class="cls-2" d="M28.09,6.24A1.94,1.94,0,0,0,26.15,4.3H24.59a.65.65,0,0,0-.65.65V7.54h0v2.59a.65.65,0,0,0,1.3,0v-1l1.47,1.47a.62.62,0,0,0,.46.19.61.61,0,0,0,.45-.19.63.63,0,0,0,0-.91L26.15,8.19A2,2,0,0,0,28.09,6.24Zm-1.94.65h-.91V5.6h.91a.65.65,0,0,1,0,1.29Z"/></g></g></svg>