<svg xmlns="http://www.w3.org/2000/svg" viewBox="0 0 34.87 45.82"><title>visited</title><g id="Calque_2" data-name="Calque 2"><g id="Calque_1-2" data-name="Calque 1"><path d="M4.66,39.3V20.58a1.07,1.07,0,0,0-1-1,.91.91,0,0,0-.93,1V39.39c.65,0,1.31-.07,2-.09"/><path d="M33.94,17.21,11.62,8.68A6.14,6.14,0,0,0,4.38.26,1,1,0,0,0,3.7,1.51a1,1,0,0,0,1.23.68,4.1,4.1,0,0,1,5.22,4A4.07,4.07,0,0,1,2.69,8.52,4.23,4.23,0,0,1,2.5,4.17,1,1,0,0,0,2.11,2.8a1,1,0,0,0-1.35.39,6.25,6.25,0,0,0,1.93,8.13v5.17a1,1,0,0,0,1,1,1,1,0,0,0,1-1v-4.4a6.11,6.11,0,0,0,3-.05v27.1l2,0V29.28l8.11-3.1a1,1,0,0,0,.58-1.3,1,1,0,0,0-1.27-.59L9.66,27.13v-16a6,6,0,0,0,.84-.76L32,18.61,20.79,22.87a1,1,0,0,0-.58,1.3,1,1,0,0,0,1.28.59L33.94,20a1.51,1.51,0,0,0,0-2.79"/><path d="M3.87,45.82h5a.88.88,0,0,0,.77-1V36.13h-2v7.29a.46.46,0,0,1-.4.5H5.05a.46.46,0,0,1-.39-.5V36.13h-2v8.22a1.35,1.35,0,0,0,1.18,1.47"/></g></g></svg>