<svg xmlns="http://www.w3.org/2000/svg" viewBox="0 0 68.55 34.92"><title>VL</title><g id="Calque_2" data-name="Calque 2"><g id="Calque_1-2" data-name="Calque 1"><path d="M16,32.6a3.5,3.5,0,1,0-3.42-3.5A3.47,3.47,0,0,0,16,32.6m0-9.32a5.82,5.82,0,1,1-5.71,5.82A5.78,5.78,0,0,1,16,23.28"/><path d="M2.28,25.13l.81.82a1.17,1.17,0,0,1,.34.83v1.16H5.78A10.36,10.36,0,0,1,16,18.63a10.36,10.36,0,0,1,10.22,9.31H42.33a10.26,10.26,0,0,1,20.44,0h2.35V26.78a1.21,1.21,0,0,1,.33-.83l.81-.82V23.77l-.81-.83a1.15,1.15,0,0,1-.33-.77,14.85,14.85,0,0,0-.3-2.38h-2a1.17,1.17,0,0,1,0-2.33h1.23A10.53,10.53,0,0,0,61.28,14h-19a1.15,1.15,0,0,1-1.14-1.16V2.33H3.43V17.46H4.57a1.17,1.17,0,0,1,0,2.33H3.43v2.33a1.15,1.15,0,0,1-.34.82l-.81.83ZM53.1,2.33H43.41v9.31H59.5ZM.33,22.46l.81-.82V1.16A1.15,1.15,0,0,1,2.28,0H53.69a1.14,1.14,0,0,1,.94.5L62.54,12a12.56,12.56,0,0,1,4.84,9.6l.83.85a1.15,1.15,0,0,1,.34.82v2.33a1.13,1.13,0,0,1-.34.82l-.81.83V29.1a1.15,1.15,0,0,1-1.14,1.17H61.69a1.15,1.15,0,0,1-1.14-1.17,8,8,0,1,0-16,0,1.15,1.15,0,0,1-1.14,1.17H25.13A1.15,1.15,0,0,1,24,29.1,8.08,8.08,0,0,0,16,21,8.07,8.07,0,0,0,8,29.1a1.15,1.15,0,0,1-1.15,1.17H2.28A1.15,1.15,0,0,1,1.14,29.1V27.26l-.81-.83A1.17,1.17,0,0,1,0,25.61V23.28a1.18,1.18,0,0,1,.33-.82"/><path d="M52.55,32.6a3.5,3.5,0,1,0-3.43-3.5,3.47,3.47,0,0,0,3.43,3.5m0-9.32a5.82,5.82,0,1,1-5.71,5.82,5.77,5.77,0,0,1,5.71-5.82"/></g></g></svg>