<svg xmlns="http://www.w3.org/2000/svg" viewBox="0 0 37.25 40.6"><title>weightPDL</title><g id="Calque_2" data-name="Calque 2"><g id="Calque_1-2" data-name="Calque 1"><polygon points="24.21 22.91 15.37 18.64 13.57 19.52 22.4 23.78 24.21 22.91"/><path d="M24.91,22.57l2.56-1.24-8.84-4.27-2.56,1.23,8.79,4.25Z"/><polygon points="22.72 27.54 24.41 26.72 24.41 23.49 22.72 24.31 22.72 27.54"/><path d="M37.22,38.21l-4.31-24a2,2,0,0,0-2-1.67H23.74a7.3,7.3,0,1,0-10.23,0H6.34a2,2,0,0,0-2,1.67L0,38.21a2.07,2.07,0,0,0,.44,1.66A2.05,2.05,0,0,0,2,40.6H35.22a2,2,0,0,0,2-2.39ZM18.63,4.06a3.24,3.24,0,1,1-3.24,3.23A3.23,3.23,0,0,1,18.63,4.06Zm9.86,28.48a.31.31,0,0,1-.17.27l-9.56,4.62a.31.31,0,0,1-.13,0,.32.32,0,0,1-.14,0L8.94,32.81a.3.3,0,0,1-.18-.27V21.33a.31.31,0,0,1,.18-.28l9.55-4.61a.32.32,0,0,1,.27,0l9.56,4.61a.32.32,0,0,1,.17.28Z"/><path d="M25,26.92a.31.31,0,0,1-.17.27l-2.31,1.12a.31.31,0,0,1-.13,0,.34.34,0,0,1-.17-.05.31.31,0,0,1-.14-.26v-3.7h0l-9.26-4.47L9.78,21.33l6.67,3.22a.31.31,0,0,1-.13.59.28.28,0,0,1-.13,0L9.38,21.82V32.34l8.94,4.32V26.14l-.82-.4a.31.31,0,0,1-.14-.41.31.31,0,0,1,.41-.14l.86.41,2.17-1.05a.31.31,0,0,1,.41.15.31.31,0,0,1-.14.41l-2.14,1V36.66l8.94-4.32V21.82L25,23.2Zm-13,4.64a.32.32,0,0,1-.28.17.35.35,0,0,1-.14,0L10.25,31a.31.31,0,1,1,.27-.55l1.4.68A.3.3,0,0,1,12.07,31.56Zm1.29-.84a.32.32,0,0,1-.28.17.35.35,0,0,1-.14,0l-2.69-1.3a.31.31,0,0,1-.14-.41.3.3,0,0,1,.41-.14l2.69,1.3A.3.3,0,0,1,13.36,30.72Z"/></g></g></svg>