<svg xmlns="http://www.w3.org/2000/svg" viewBox="0 0 37.25 40.6"><title>weight</title><g id="Calque_2" data-name="Calque 2"><g id="Calque_1-2" data-name="Calque 1"><path d="M37.22,38.21l-4.31-24a2,2,0,0,0-2-1.67H23.74a7.3,7.3,0,1,0-10.23,0H6.34a2,2,0,0,0-2,1.67L0,38.21a2.07,2.07,0,0,0,.44,1.66A2.05,2.05,0,0,0,2,40.6H35.22a2,2,0,0,0,2-2.39ZM18.63,4.06a3.24,3.24,0,1,1-3.24,3.23A3.23,3.23,0,0,1,18.63,4.06ZM18.1,31.44a.62.62,0,0,1-.54.31h-.95a.6.6,0,0,1-.53-.3L13.71,27.4,12.19,29v1.87a.94.94,0,0,1-1.87,0v-7.4a.94.94,0,0,1,1.87,0V26.6l3.6-3.92a.64.64,0,0,1,.45-.19h.82a.6.6,0,0,1,.44,1L15,26.1l3.07,4.72A.62.62,0,0,1,18.1,31.44Zm9.21-1.24a.6.6,0,0,1-.23.48,5.87,5.87,0,0,1-1.47.8,6.2,6.2,0,0,1-2.26.43,5.05,5.05,0,0,1-2.54-.61,3.9,3.9,0,0,1-1.62-1.74,5.69,5.69,0,0,1-.54-2.47,5.36,5.36,0,0,1,.6-2.57A4.13,4.13,0,0,1,21,22.79a4.74,4.74,0,0,1,2.22-.46,4.41,4.41,0,0,1,2.69.72,3.27,3.27,0,0,1,.71.73A1,1,0,0,1,26,25.27h0a.93.93,0,0,1-.95-.42,2.05,2.05,0,0,0-.49-.53,2.25,2.25,0,0,0-1.35-.39,2.52,2.52,0,0,0-1.95.78,3.21,3.21,0,0,0-.73,2.3,3.64,3.64,0,0,0,.74,2.48,2.45,2.45,0,0,0,1.92.82,3.34,3.34,0,0,0,1.18-.23,3.9,3.9,0,0,0,1-.56V28.35H24.06a.78.78,0,0,1,0-1.56H26.7a.6.6,0,0,1,.61.6V30.2Z"/></g></g></svg>