<svg xmlns="http://www.w3.org/2000/svg" viewBox="0 0 334.88 334.88"><defs><style>.cls-1{fill:#fff;}.cls-2{fill:#cc4b4d;}.cls-3{fill:#cc4a4d;}</style></defs><g id="Calque_2" data-name="Calque 2"><g id="Calque_1-2" data-name="Calque 1"><circle class="cls-1" cx="167.44" cy="167.44" r="167.44"/><path class="cls-2" d="M214.09,74.63,207.28,89l-46,96.8a7.92,7.92,0,0,1-6.16,4.44,7.67,7.67,0,0,1-2.24-.05,7.88,7.88,0,0,1-6.57-6.81L130.93,59.61a114.75,114.75,0,0,1,15.67-1.88,118.56,118.56,0,0,1,53.47,9.64A115.73,115.73,0,0,1,214.09,74.63Z"/><path class="cls-3" d="M151.22,187.92a1.34,1.34,0,0,1-.28,0l-.22,0A2.75,2.75,0,0,0,151.22,187.92Z"/><path d="M75.87,261.12a7.89,7.89,0,0,1-5.58-13.47l23.87-23.87a7.89,7.89,0,0,1,11.16,11.16L81.45,258.81A7.87,7.87,0,0,1,75.87,261.12Z"/><path d="M231.65,261.12a7.87,7.87,0,0,1-5.58-2.31l-23.88-23.87a7.89,7.89,0,0,1,11.16-11.16l23.87,23.87a7.89,7.89,0,0,1-5.57,13.47Z"/><path d="M153.44,108.74a7.89,7.89,0,0,1-7.89-7.89V67.09a7.89,7.89,0,0,1,15.78,0v33.76A7.89,7.89,0,0,1,153.44,108.74Z"/><path d="M262.34,166.35H228.58a7.89,7.89,0,0,1,0-15.78h33.76a7.89,7.89,0,1,1,0,15.78Z"/><path d="M86.61,166.35H52.85a7.89,7.89,0,0,1,0-15.78H86.61a7.89,7.89,0,0,1,0,15.78Z"/><path d="M156.61,191.47a7.9,7.9,0,0,1-9.76-9.93L171.91,73.92A7.89,7.89,0,1,1,187,78.63L161.92,186.25A7.91,7.91,0,0,1,156.61,191.47Z"/><path d="M231.14,262.36a7.89,7.89,0,0,1-5.58-13.47,102.87,102.87,0,1,0-145.47,0,7.89,7.89,0,0,1-11.16,11.16A118.64,118.64,0,0,1,236.71,92.26a118.62,118.62,0,0,1,0,167.79A7.84,7.84,0,0,1,231.14,262.36Z"/><path class="cls-1" d="M304.7,212.47H174.38a15,15,0,0,1-13-22.47L226.56,77.14a15,15,0,0,1,25.95,0L317.67,190a15,15,0,0,1-13,22.47Z"/><path class="cls-3" d="M304.7,212.47H174.38a15,15,0,0,1-13-22.47L226.56,77.14a15,15,0,0,1,25.95,0L317.67,190a15,15,0,0,1-13,22.47ZM239.54,82.57a2,2,0,0,0-1.78,1h0L172.6,196.46a2.05,2.05,0,0,0,1.78,3.08H304.7a2,2,0,0,0,1.78-1,2,2,0,0,0,0-2.06L241.32,83.6A2,2,0,0,0,239.54,82.57Z"/><path class="cls-3" d="M239.54,165.32a6.47,6.47,0,0,1-6.47-6.46V110.5a6.47,6.47,0,0,1,12.93,0v48.36A6.46,6.46,0,0,1,239.54,165.32Z"/><circle class="cls-3" cx="239.54" cy="179.84" r="8.85"/></g></g></svg>