<svg xmlns="http://www.w3.org/2000/svg" viewBox="0 0 39.09 46.9"><defs><style>.cls-1{fill:#fff;}</style></defs><g id="Calque_2" data-name="Calque 2"><g id="Calque_1-2" data-name="Calque 1"><path class="cls-1" d="M2.7,39.08,5.17,35a18.57,18.57,0,0,0,2.65-9.55v-4.9a11.73,11.73,0,1,1,23.45,0v4.9A18.56,18.56,0,0,0,33.91,35l2.47,4.11ZM39,39.56,35.59,34a16.61,16.61,0,0,1-2.37-8.55v-4.9a13.68,13.68,0,1,0-27.35,0v4.9A16.71,16.71,0,0,1,3.5,34L.14,39.56a1,1,0,0,0,0,1A1,1,0,0,0,1,41H38.11A1,1,0,0,0,39,39.56"/><path class="cls-1" d="M19.54,0a3.92,3.92,0,0,0-3.91,3.91V7.82a1,1,0,0,0,2,0V3.91a2,2,0,1,1,3.91,0V7.82a1,1,0,0,0,1.95,0V3.91A3.91,3.91,0,0,0,19.54,0"/><path class="cls-1" d="M23.77,39.57a1,1,0,0,0-1.69,1,2.86,2.86,0,0,1,.4,1.46,2.93,2.93,0,0,1-5.86,0A2.85,2.85,0,0,1,17,40.56a1,1,0,1,0-1.69-1,4.89,4.89,0,1,0,8.45,0"/></g></g></svg>