<svg xmlns="http://www.w3.org/2000/svg" viewBox="0 0 334.88 334.88"><defs><style>.cls-1{fill:#fff;}.cls-2{fill:#cc4b4d;}.cls-3{fill:#cc4a4d;}</style></defs><g id="Calque_2" data-name="Calque 2"><g id="Calque_1-2" data-name="Calque 1"><circle class="cls-1" cx="167.44" cy="167.44" r="167.44"/><path d="M94.61,248.6A22,22,0,0,1,79,242.14L34.8,197.92a15,15,0,0,1-4.33-8.08,14.51,14.51,0,0,1,14.29-17A14.36,14.36,0,0,1,55,177.14l35.77,35.77a0,0,0,0,0,.07,0l12.4-12.4h.07l5.28,5.29a0,0,0,0,1,0,.07L90.84,223.61a0,0,0,0,1-.07,0L49.7,182.54a6.62,6.62,0,0,0-2.55-1.67,7,7,0,0,0-8.91,8.91,6.62,6.62,0,0,0,1.67,2.54l44.42,44.43a14.59,14.59,0,0,0,20.56,0l17.29-17.29a0,0,0,0,1,.07,0l5.28,5.28a0,0,0,0,1,0,.07l-17.32,17.33a21.92,21.92,0,0,1-15.6,6.46Z"/><path class="cls-2" d="M144.47,241a14.4,14.4,0,0,1-10.25-4.25L57,159.53A14.49,14.49,0,0,1,77.47,139l76.95,77a15,15,0,0,1,4.34,8.08A14.52,14.52,0,0,1,144.47,241Z"/><path d="M160.73,162.75a6.84,6.84,0,0,1,3.22.81l46.47,24.78a14.87,14.87,0,0,1,7.89,13.14v.77a14.86,14.86,0,0,1-14.85,14.85A14.69,14.69,0,0,1,193,212.75l-38.11-38.1a7.48,7.48,0,0,1-2.12-3.68,6.84,6.84,0,0,1,6.68-8.22h1.31m0-5h-1.31a11.84,11.84,0,0,0-11.59,14.17,12.39,12.39,0,0,0,3.5,6.27l38.1,38.1a19.85,19.85,0,0,0,33.88-14v-.77a19.9,19.9,0,0,0-10.53-17.55l-46.47-24.78a11.84,11.84,0,0,0-5.58-1.4Z"/><path d="M165.28,115.15l4.05-4.05a21.61,21.61,0,0,1,15.29-6.34h4.57a.05.05,0,0,1,.05,0v16.11a0,0,0,0,0,0,0l6,10.23a.05.05,0,0,1,0,.08H159a11.32,11.32,0,0,1-10.71-7.75s0-.07,0-.07a28.91,28.91,0,0,0,17-8.29Zm17.5,129.2L65.19,126.76a15.57,15.57,0,0,1-3.49-5.09,14.6,14.6,0,0,1,.91-13.19s0,0,.08,0L200.55,246.33a.05.05,0,0,1,0,.08A14.88,14.88,0,0,1,182.78,244.35Zm59.45-45A14.52,14.52,0,0,1,238,209.65l-31.66,31.67a0,0,0,0,1-.07,0L68,103.12s0-.07,0-.08A14.74,14.74,0,0,1,75.5,101h1a14.87,14.87,0,0,1,5.28,1l52.64,19.87a29.67,29.67,0,0,0,6,1.53,0,0,0,0,1,0,0A18.94,18.94,0,0,0,159,138.83h40.78l0,0L228.7,188a.05.05,0,0,0,0,0h13.44a.05.05,0,0,1,0,.05Zm-45.42-88.72V97.24a0,0,0,0,0-.05,0H184.63A29.23,29.23,0,0,0,164,105.74l-4,4.05A22,22,0,0,1,137,114.72L84.4,94.86a22.29,22.29,0,0,0-8-1.45h-.22c-12.65,0-23.52,10.35-23.25,23a22.34,22.34,0,0,0,6.59,15.43L177.43,249.71a22.05,22.05,0,0,0,31.19,0L243.34,215a21.91,21.91,0,0,0,6.46-15.6V180.51a.05.05,0,0,0-.05,0h-9.62a0,0,0,0,1,0-.08l-8.39-2.31s-.07,0-.08,0l-34.76-59Z"/><path class="cls-1" d="M302.17,216.27H176.66a14.44,14.44,0,0,1-12.5-21.65L226.92,85.93a14.43,14.43,0,0,1,25,0l62.75,108.7a14.43,14.43,0,0,1-12.49,21.64Z"/><path class="cls-3" d="M302.17,216.27H176.66a14.44,14.44,0,0,1-12.5-21.65L226.92,85.93a14.43,14.43,0,0,1,25,0l62.75,108.7a14.43,14.43,0,0,1-12.49,21.64ZM239.41,91.16a1.92,1.92,0,0,0-1.71,1h0l-62.76,108.7a2,2,0,0,0,1.72,3H302.17a2,2,0,0,0,1.71-3L241.13,92.15A1.93,1.93,0,0,0,239.41,91.16Z"/><path class="cls-3" d="M239.41,170.86a6.23,6.23,0,0,1-6.22-6.23V118.06a6.23,6.23,0,0,1,12.45,0v46.57A6.23,6.23,0,0,1,239.41,170.86Z"/><circle class="cls-3" cx="239.41" cy="184.84" r="8.52"/></g></g></svg>