<svg xmlns="http://www.w3.org/2000/svg" viewBox="0 0 54.63 52.22"><defs><style>.cls-1{fill:none;stroke:#fff;stroke-miterlimit:10;stroke-width:0.25px;}.cls-2{fill:#fff;}</style></defs><title>depositETA</title><g id="Calque_2" data-name="Calque 2"><g id="Calque_1-2" data-name="Calque 1"><path class="cls-1" d="M54.51,16.67a16.25,16.25,0,1,1-32.49,0,16.25,16.25,0,1,1,32.49,0Z"/><path class="cls-2" d="M38.26.13A16.09,16.09,0,0,0,26,5.87L23.83,4.59a.78.78,0,0,0-.77,0L.4,17.31a.83.83,0,0,0-.29.3A.64.64,0,0,0,0,17.8.76.76,0,0,0,0,18V51.42a.79.79,0,0,0,.78.8H4.69a.79.79,0,0,0,.78-.8V21.24H22.66A16.92,16.92,0,0,0,24.25,25H9.92a.7.7,0,0,0-.69.72v8.54h0V42.8h0v8.54a.7.7,0,0,0,.69.71H35.09a.7.7,0,0,0,.7-.71V42.8h0V34.26a.7.7,0,0,0-.7-.71H27.4V29a16,16,0,0,0,10.86,4.26,16.33,16.33,0,0,0,3.15-.32V51.43a.81.81,0,0,0,.06.31.79.79,0,0,0,.72.48H46.1a.79.79,0,0,0,.72-.48,1.07,1.07,0,0,0,.06-.31V30.67a16.59,16.59,0,0,0,7.63-14A16.4,16.4,0,0,0,38.26.13ZM17.61,50.63h-7V43.51h7Zm0-8.54h-7V35h7Zm0-8.54h-7V26.43h7ZM27.4,35h7v7.12h-7Zm0,8.54h7v7.12h-7ZM22.3,19.64H4.69a.78.78,0,0,0-.56.24.81.81,0,0,0-.22.56V50.63H1.56V18.48L23.43,6.2,25,7.14a16.63,16.63,0,0,0-3,9.53A16.16,16.16,0,0,0,22.3,19.64Zm3.7,31H19V43.51h7Zm0-8.54H19V35h7Zm0-8.54H19V26.43h6.17c.26.36.54.71.82,1.05ZM45.31,50.63H43V32.5a15.92,15.92,0,0,0,2.34-.95ZM38.26,31.94a15.13,15.13,0,0,1-15-15.27,15,15,0,1,1,30,0A15.14,15.14,0,0,1,38.26,31.94Z"/><ellipse class="cls-1" cx="38.26" cy="16.67" rx="15" ry="15.27"/><path class="cls-2" d="M38.26,29.55A12.79,12.79,0,0,1,25.61,16.67a12.65,12.65,0,1,1,25.3,0A12.78,12.78,0,0,1,38.26,29.55m0-26.69A13.7,13.7,0,0,0,24.71,16.67a13.56,13.56,0,1,0,27.11,0A13.7,13.7,0,0,0,38.26,2.86"/><path class="cls-1" d="M38.26,29.55A12.79,12.79,0,0,1,25.61,16.67a12.65,12.65,0,1,1,25.3,0A12.78,12.78,0,0,1,38.26,29.55Zm0-26.69A13.7,13.7,0,0,0,24.71,16.67a13.56,13.56,0,1,0,27.11,0A13.7,13.7,0,0,0,38.26,2.86Z"/><path class="cls-2" d="M38.26,17.53a.92.92,0,1,1,.91-.92.91.91,0,0,1-.91.92m-.45-2.69a1.82,1.82,0,0,0-1.29,1.31v.92a1.81,1.81,0,0,0,1.74,1.38,1.84,1.84,0,0,0,.45-3.61Z"/><path class="cls-1" d="M38.26,17.53a.92.92,0,1,1,.91-.92A.91.91,0,0,1,38.26,17.53Zm-.45-2.69a1.82,1.82,0,0,0-1.29,1.31v.92a1.81,1.81,0,0,0,1.74,1.38,1.84,1.84,0,0,0,.45-3.61Z"/><path class="cls-2" d="M38.26,7.41A.47.47,0,0,0,38.72,7V6.49A.46.46,0,0,0,38.26,6a.45.45,0,0,0-.45.46V7a.46.46,0,0,0,.45.46"/><path class="cls-1" d="M38.26,7.41A.47.47,0,0,0,38.72,7V6.49A.46.46,0,0,0,38.26,6a.45.45,0,0,0-.45.46V7A.46.46,0,0,0,38.26,7.41Z"/><path class="cls-2" d="M38.26,25.81a.46.46,0,0,0-.45.46v.46a.45.45,0,0,0,.45.46.46.46,0,0,0,.46-.46v-.46a.47.47,0,0,0-.46-.46"/><path class="cls-1" d="M38.26,25.81a.46.46,0,0,0-.45.46v.46a.45.45,0,0,0,.45.46.46.46,0,0,0,.46-.46v-.46A.47.47,0,0,0,38.26,25.81Z"/><path class="cls-2" d="M48.2,16.15h-.45a.46.46,0,0,0,0,.92h.45a.46.46,0,0,0,0-.92"/><path class="cls-1" d="M48.2,16.15h-.45a.46.46,0,0,0,0,.92h.45a.46.46,0,0,0,0-.92Z"/><path class="cls-2" d="M28.78,16.15h-.45a.46.46,0,1,0,0,.92h.45a.46.46,0,0,0,0-.92"/><path class="cls-1" d="M28.78,16.15h-.45a.46.46,0,1,0,0,.92h.45a.46.46,0,0,0,0-.92Z"/><path class="cls-2" d="M45.52,9.67l0-.11a.36.36,0,0,0-.07-.1.05.05,0,0,0,0-.05h0a.4.4,0,0,0-.15-.1.33.33,0,0,0-.17,0l-2.75,0a.47.47,0,1,0,0,.93l1.62,0L39,15.17a.47.47,0,0,0,0,.66.46.46,0,0,0,.65,0l5-5,0,1.7a.46.46,0,1,0,.91,0l0-2.8s0,0,0-.06"/><path class="cls-1" d="M45.52,9.67l0-.11a.36.36,0,0,0-.07-.1.05.05,0,0,0,0-.05h0a.4.4,0,0,0-.15-.1.33.33,0,0,0-.17,0l-2.75,0a.47.47,0,1,0,0,.93l1.62,0L39,15.17a.47.47,0,0,0,0,.66.46.46,0,0,0,.65,0l5-5,0,1.7a.46.46,0,1,0,.91,0l0-2.8S45.52,9.69,45.52,9.67Z"/><path class="cls-2" d="M38.26,17.53a.92.92,0,1,1,.91-.92.91.91,0,0,1-.91.92m0-2.78a1.86,1.86,0,1,0,1.83,1.86,1.84,1.84,0,0,0-1.83-1.86"/><path class="cls-1" d="M38.26,17.53a.92.92,0,1,1,.91-.92A.91.91,0,0,1,38.26,17.53Zm0-2.78a1.86,1.86,0,1,0,1.83,1.86A1.84,1.84,0,0,0,38.26,14.75Z"/></g></g></svg>