<svg xmlns="http://www.w3.org/2000/svg" viewBox="0 0 56.89 39.54"><defs><style>.cls-1{fill:#fff;}</style></defs><title>distanceGap</title><g id="Calque_2" data-name="Calque 2"><g id="Calque_1-2" data-name="Calque 1"><path class="cls-1" d="M3.82,23.69,9.16,29a1.36,1.36,0,0,0,1.92-1.92l-3-3,10.57,0a1.37,1.37,0,1,0,0-2.73l-10.57,0,3.6-3.49a1.37,1.37,0,0,0,0-1.93,1.36,1.36,0,0,0-1.93,0L3.82,21.76A1.37,1.37,0,0,0,3.82,23.69Z"/><path class="cls-1" d="M0,38.43a1.15,1.15,0,0,0,1.18,1.11,1.15,1.15,0,0,0,1.18-1.11V6.49A1.14,1.14,0,0,0,1.18,5.38,1.14,1.14,0,0,0,0,6.49Z"/><path class="cls-1" d="M53.07,23.69,47.74,29a1.36,1.36,0,0,1-1.93-1.92l3-3-10.57,0a1.37,1.37,0,0,1,0-2.73l10.57,0-3.6-3.49a1.37,1.37,0,0,1,0-1.93,1.41,1.41,0,0,1,1-.4,1.36,1.36,0,0,1,1,.4l5.93,5.82A1.37,1.37,0,0,1,53.07,23.69Z"/><path class="cls-1" d="M56.89,38.43a1.18,1.18,0,0,1-2.35,0V6.49a1.18,1.18,0,0,1,2.35,0Z"/><path class="cls-1" d="M40.22.07a1,1,0,0,0-1.1.26L35,6.93,30.89.33a1,1,0,0,0-1.1-.26,1,1,0,0,0-.64.93V15.87a1,1,0,1,0,2,0V3.61L34.26,9.1a1,1,0,0,0,1.49,0l3.12-5.49V15.87a1,1,0,0,0,2,0V1A1,1,0,0,0,40.22.07Z"/><path class="cls-1" d="M25.15.36a1,1,0,0,0-1.34.19l-5.87,6.3V1.12a1,1,0,0,0-1.91,0V15.74a1,1,0,1,0,1.91,0V10l5.87,6.3a1,1,0,0,0,1.34.19,1,1,0,0,0,.19-1.34l-6.2-6.74,6.2-6.73A1,1,0,0,0,25.15.36Z"/></g></g></svg>