<svg xmlns="http://www.w3.org/2000/svg" viewBox="0 0 40.84 26.46"><defs><style>.cls-1,.cls-2{fill:#fff;}.cls-2{fill-rule:evenodd;}</style></defs><title>distance</title><g id="Calque_2" data-name="Calque 2"><g id="Calque_1-2" data-name="Calque 1"><path class="cls-1" d="M5.1,0A5.11,5.11,0,0,0,0,5.1,5,5,0,0,0,.43,7.15v0l4.2,8.42a.53.53,0,0,0,.46.28.52.52,0,0,0,.46-.28l4.2-8.42v0A5,5,0,0,0,10.2,5.1,5.11,5.11,0,0,0,5.1,0ZM8.84,6.73,5.1,14.21,1.36,6.73A4.13,4.13,0,0,1,1,5.1a4.08,4.08,0,0,1,8.15,0A4.14,4.14,0,0,1,8.84,6.73Z"/><path class="cls-1" d="M5.1,2.33A2.77,2.77,0,1,0,7.87,5.1,2.77,2.77,0,0,0,5.1,2.33Zm0,4.51A1.74,1.74,0,1,1,6.84,5.1,1.74,1.74,0,0,1,5.1,6.84Z"/><path class="cls-1" d="M5.1,26.46A4.16,4.16,0,1,1,9.26,22.3,4.17,4.17,0,0,1,5.1,26.46Zm0-6.41A2.25,2.25,0,1,0,7.35,22.3,2.25,2.25,0,0,0,5.1,20.05Z"/><path class="cls-1" d="M32.31,23.26h-8a1,1,0,1,1,0-1.92h8a1,1,0,0,1,0,1.92Zm-15.82,0h-8a1,1,0,1,1,0-1.92h8a1,1,0,0,1,0,1.92Z"/><path class="cls-2" d="M20.42,23.26a1,1,0,1,0-1-1A1,1,0,0,0,20.42,23.26Z"/><path class="cls-1" d="M35.74,26.46A4.16,4.16,0,1,1,39.9,22.3,4.16,4.16,0,0,1,35.74,26.46Zm0-6.41A2.25,2.25,0,1,0,38,22.3,2.25,2.25,0,0,0,35.74,20.05Z"/><path class="cls-1" d="M27,8.67a.51.51,0,0,0-.56.14l-2.07,3.33L22.31,8.81a.5.5,0,0,0-.88.33v7.5a.5.5,0,0,0,.5.51.51.51,0,0,0,.51-.51V10.46L24,13.23a.5.5,0,0,0,.38.17.48.48,0,0,0,.37-.17l1.57-2.77v6.18a.51.51,0,0,0,.51.51.5.5,0,0,0,.5-.51V9.14A.51.51,0,0,0,27,8.67Z"/><path class="cls-1" d="M19.41,8.82a.48.48,0,0,0-.67.09l-3,3.18V9.2a.48.48,0,0,0-1,0v7.38a.48.48,0,1,0,1,0V13.69l3,3.18a.46.46,0,0,0,.38.19.5.5,0,0,0,.29-.09.49.49,0,0,0,.1-.68l-3.13-3.4L19.51,9.5A.49.49,0,0,0,19.41,8.82Z"/><path class="cls-1" d="M35.74.32a5.12,5.12,0,0,0-4.68,7.15l0,0,4.2,8.42a.51.51,0,0,0,.91,0L40.4,7.49v0a5.16,5.16,0,0,0,.43-2A5.11,5.11,0,0,0,35.74.32ZM39.47,7l-3.73,7.49L32,7a3.92,3.92,0,0,1-.34-1.62,4.08,4.08,0,1,1,8.15,0A3.92,3.92,0,0,1,39.47,7Z"/><path class="cls-1" d="M35.74,2.65A2.77,2.77,0,1,0,38.5,5.42,2.77,2.77,0,0,0,35.74,2.65Zm0,4.51a1.75,1.75,0,1,1,1.74-1.74A1.74,1.74,0,0,1,35.74,7.16Z"/></g></g></svg>