<svg xmlns="http://www.w3.org/2000/svg" viewBox="0 0 51.59 36.14"><defs><style>.cls-1{fill:#fff;}</style></defs><title>drivingDuration</title><g id="Calque_2" data-name="Calque 2"><g id="Calque_1-2" data-name="Calque 1"><path class="cls-1" d="M-1865.44,8.91l-1.8-8.77a3.67,3.67,0,0,0-3.46-2.95h-4.52V-4.39A1.55,1.55,0,0,0-1876.74-6h-20.92c0,.21,0,.41,0,.62s0,.64,0,1h20.94v17a4.82,4.82,0,0,0-1.47,2.76H-1889a4.63,4.63,0,0,0-4.49-3.95,4.52,4.52,0,0,0-3.8,2.12,4.49,4.49,0,0,0-3.79-2.12,4.62,4.62,0,0,0-4.49,3.95h-1.58V4.15a9.54,9.54,0,0,1-1.52-.13V15.37a1.55,1.55,0,0,0,1.52,1.58h1.58a4.62,4.62,0,0,0,4.49,3.95,4.49,4.49,0,0,0,3.79-2.12,4.52,4.52,0,0,0,3.8,2.12A4.63,4.63,0,0,0-1889,17h10.77a4.62,4.62,0,0,0,4.49,3.95,4.63,4.63,0,0,0,4.49-3.95h3a.77.77,0,0,0,.75-.79V9.08A.91.91,0,0,0-1865.44,8.91Zm-35.62,10.41a3.11,3.11,0,0,1-3-3.16,3.11,3.11,0,0,1,3-3.16,3.1,3.1,0,0,1,3,3.16A3.1,3.1,0,0,1-1901.06,19.32Zm7.59,0a3.1,3.1,0,0,1-3-3.16,3.1,3.1,0,0,1,3-3.16,3.1,3.1,0,0,1,3,3.16A3.1,3.1,0,0,1-1893.47,19.32Zm25-17.41,1.31,6.37h-5.11a.79.79,0,0,1-.78-.81V1.91Zm-5.29,17.41a3.11,3.11,0,0,1-3-3.16,3.11,3.11,0,0,1,3-3.16,3.1,3.1,0,0,1,3,3.16A3.1,3.1,0,0,1-1873.72,19.32Zm6.78-8.67h-.74a.77.77,0,0,0-.76.79.78.78,0,0,0,.76.79h.74v3.14h-2.29a4.62,4.62,0,0,0-4.49-3.95,4.38,4.38,0,0,0-1.5.26V-1.23h4.52a2.15,2.15,0,0,1,1.94,1.56h-5a.77.77,0,0,0-.75.79V7.46a2.35,2.35,0,0,0,2.1,2.38.58.58,0,0,0,.19,0h5.29Z" transform="translate(1917.02 15.24)"/><path class="cls-1" d="M-1907.13,3.87a9.23,9.23,0,0,1-9.23-9.22,9.24,9.24,0,0,1,9.23-9.23,9.24,9.24,0,0,1,9.22,9.23,9.23,9.23,0,0,1-9.22,9.22m0-19.11A9.91,9.91,0,0,0-1917-5.35a9.9,9.9,0,0,0,9.89,9.88,9.89,9.89,0,0,0,9.88-9.88,9.9,9.9,0,0,0-9.88-9.89" transform="translate(1917.02 15.24)"/><path class="cls-1" d="M-1907.13-4.73a.66.66,0,0,1-.66-.66.66.66,0,0,1,.66-.66.67.67,0,0,1,.66.66.67.67,0,0,1-.66.66m.33-1.93V-10a.33.33,0,0,0-.33-.33.33.33,0,0,0-.33.33v3.34a1.32,1.32,0,0,0-.94.94h-2.36a.33.33,0,0,0-.33.33.33.33,0,0,0,.33.33h2.36a1.3,1.3,0,0,0,1.27,1,1.32,1.32,0,0,0,1.31-1.32,1.32,1.32,0,0,0-1-1.27" transform="translate(1917.02 15.24)"/><path class="cls-1" d="M-1907.13-12a.33.33,0,0,0,.33-.33v-.33a.33.33,0,0,0-.33-.33.33.33,0,0,0-.33.33v.33a.33.33,0,0,0,.33.33" transform="translate(1917.02 15.24)"/><path class="cls-1" d="M-1907.13,1.2a.33.33,0,0,0-.33.33v.33a.33.33,0,0,0,.33.33.33.33,0,0,0,.33-.33V1.53a.33.33,0,0,0-.33-.33" transform="translate(1917.02 15.24)"/><path class="cls-1" d="M-1899.88-5.72h-.33a.33.33,0,0,0-.33.33.33.33,0,0,0,.33.33h.33a.32.32,0,0,0,.32-.33.32.32,0,0,0-.32-.33" transform="translate(1917.02 15.24)"/><path class="cls-1" d="M-1914-5.72h-.33a.33.33,0,0,0-.33.33.33.33,0,0,0,.33.33h.33a.33.33,0,0,0,.33-.33.33.33,0,0,0-.33-.33" transform="translate(1917.02 15.24)"/><path class="cls-1" d="M-1902.24-10.75l-.23.23a.33.33,0,0,0,0,.47.34.34,0,0,0,.23.1.34.34,0,0,0,.23-.1l.24-.23a.35.35,0,0,0,0-.47.33.33,0,0,0-.47,0" transform="translate(1917.02 15.24)"/><path class="cls-1" d="M-1912.26-.73l-.23.23a.33.33,0,0,0,0,.47.34.34,0,0,0,.23.1A.33.33,0,0,0-1912,0l.24-.23a.33.33,0,0,0,0-.47.33.33,0,0,0-.47,0" transform="translate(1917.02 15.24)"/><path class="cls-1" d="M-1902-.73a.32.32,0,0,0-.46,0,.33.33,0,0,0,0,.47l.23.23a.34.34,0,0,0,.23.1.37.37,0,0,0,.24-.1.35.35,0,0,0,0-.47Z" transform="translate(1917.02 15.24)"/><path class="cls-1" d="M-1912-10.75a.32.32,0,0,0-.46,0,.33.33,0,0,0,0,.47l.23.23a.37.37,0,0,0,.23.1.37.37,0,0,0,.24-.1.33.33,0,0,0,0-.47Z" transform="translate(1917.02 15.24)"/></g></g></svg>