<svg xmlns="http://www.w3.org/2000/svg" viewBox="0 0 52.46 42.46"><defs><style>.cls-1{fill:#fff;}</style></defs><title>driver</title><g id="Calque_2" data-name="Calque 2"><g id="Calque_1-2" data-name="Calque 1"><path class="cls-1" d="M4.19,26.24v10A1.74,1.74,0,0,0,5.88,38H7.65a5.18,5.18,0,0,0,5,4.46,5,5,0,0,0,4.24-2.4,5,5,0,0,0,4.24,2.4,5.17,5.17,0,0,0,5-4.46h12a5,5,0,0,0,10,0h3.4a.87.87,0,0,0,.85-.89v-8a.65.65,0,0,0,0-.19l-2-9.89a4.12,4.12,0,0,0-3.87-3.34h-5V13.92a1.75,1.75,0,0,0-1.7-1.79H20.05a6.78,6.78,0,0,1-.72,1.79h20.5V33.1a5.43,5.43,0,0,0-1.65,3.12h-12a5.18,5.18,0,0,0-5-4.47,5,5,0,0,0-4.24,2.4,5,5,0,0,0-4.24-2.4,5.19,5.19,0,0,0-5,4.47H5.88v-10m6.78,14.45a3.57,3.57,0,0,1,0-7.14,3.57,3.57,0,0,1,0,7.14Zm8.48,0a3.57,3.57,0,1,1,3.39-3.57A3.49,3.49,0,0,1,21.14,40.68ZM49.1,21l1.47,7.2H45l-.17,0a.89.89,0,0,1-.87-.91V21ZM43.2,40.68a3.57,3.57,0,1,1,3.39-3.57A3.49,3.49,0,0,1,43.2,40.68Zm7.57-9.79h-.83a.89.89,0,0,0,0,1.78h.83v3.55H48.21a5.18,5.18,0,0,0-5-4.47,4.85,4.85,0,0,0-1.67.3V17.48h5a2.39,2.39,0,0,1,2.17,1.76H43.15a.87.87,0,0,0-.85.89v7.16A2.66,2.66,0,0,0,44.65,30l.21,0h5.91Z"/><path class="cls-1" d="M22.07,17.48H37.22a.9.9,0,0,0,0-1.79H19.61A6.48,6.48,0,0,0,22.07,17.48Z"/><path class="cls-1" d="M24.46,23.42H.84V22a1.48,1.48,0,0,1,.8-1.34A18.38,18.38,0,0,1,8,18.23l2.63,3.71a.34.34,0,0,0,.28.17H11a0,0,0,0,1,0,0,.42.42,0,0,0,.34-.26l1.31-3,.56,1.25L14,21.86a.36.36,0,0,0,.33.26h.05a.5.5,0,0,0,.33-.18l2.67-3.75a20.25,20.25,0,0,1,6.32,2.41,1.64,1.64,0,0,1,.8,1.39ZM12,18.27l-1.13,2.59L8.56,17.62a.08.08,0,0,1,0,0l-.47-.64.17-.77.17.19A6.15,6.15,0,0,0,12,18.27M6.72,8.06a2.39,2.39,0,0,0,1.1,0,25.43,25.43,0,0,1,4.77-.44,26.41,26.41,0,0,1,4.84.44,1.18,1.18,0,0,0,.3,0,2.69,2.69,0,0,0,.8-.08v2.17A7.91,7.91,0,0,1,17,15h0l-.06,0a7,7,0,0,1-.73.86,5.28,5.28,0,0,1-3.51,1.57h-.13a4.64,4.64,0,0,1-2.13-.64,6.76,6.76,0,0,1-2-1.79l-.05,0h0a7.91,7.91,0,0,1-1.58-4.77Zm4-7.21h3.76a4.91,4.91,0,0,1,4.87,4.6l-1.76-.3a28.19,28.19,0,0,0-10,0l-1.76.3A4.91,4.91,0,0,1,10.75.85m8.1,6.08,0,0-.13,0a1.39,1.39,0,0,1-.58.27,1.55,1.55,0,0,1-.48,0,26.07,26.07,0,0,0-9-.16l-1,.16H7.48A1.58,1.58,0,0,1,6.54,7,1.25,1.25,0,0,1,6,6.29L7.84,6A26.14,26.14,0,0,1,17.5,6l1.8.34a1.78,1.78,0,0,1-.45.64m-1.77,9.24.17.77-.44.6-.07.08-2.32,3.24-1.14-2.59a6,6,0,0,0,3.26-1.56l.54-.54m7,3.75a20.89,20.89,0,0,0-6.16-2.39l.18-.25a.34.34,0,0,0,.08-.34l-.4-1.61a8.84,8.84,0,0,0,1.58-5.11V7.68l.08-.06a2.42,2.42,0,0,0,.85-1.83A5.76,5.76,0,0,0,14.56,0H10.75A5.81,5.81,0,0,0,5,5.75a2.35,2.35,0,0,0,.84,1.83l0,0v2.61a9.2,9.2,0,0,0,1.65,5.13l-.39,1.59a.58.58,0,0,0,.08.34l.18.25a20.81,20.81,0,0,0-6.14,2.39A2.28,2.28,0,0,0,0,22v1.83a.42.42,0,0,0,.42.43H24.88a.42.42,0,0,0,.42-.43V22A2.47,2.47,0,0,0,24,19.92"/></g></g></svg>