<svg xmlns="http://www.w3.org/2000/svg" viewBox="0 0 37.89 37.89"><defs><style>.cls-1{fill:#fff;}</style></defs><title>duration</title><g id="Calque_2" data-name="Calque 2"><g id="Calque_1-2" data-name="Calque 1"><path class="cls-1" d="M19,0A18.95,18.95,0,1,0,37.89,19,19,19,0,0,0,19,0Zm0,36.63A17.69,17.69,0,1,1,36.63,19,17.71,17.71,0,0,1,19,36.63Z"/><path class="cls-1" d="M19.58,16.43V10a.63.63,0,0,0-1.26,0v6.4a2.53,2.53,0,0,0-1.81,1.81H12a.63.63,0,1,0,0,1.26h4.51a2.52,2.52,0,1,0,3.07-3.07ZM19,20.13a1.26,1.26,0,1,1,1.26-1.26A1.26,1.26,0,0,1,19,20.13Z"/><path class="cls-1" d="M19,6.24a.63.63,0,0,0,.63-.63V5a.63.63,0,1,0-1.26,0v.63A.63.63,0,0,0,19,6.24Z"/><path class="cls-1" d="M19,31.5a.63.63,0,0,0-.63.63v.64a.63.63,0,0,0,1.26,0v-.64A.63.63,0,0,0,19,31.5Z"/><path class="cls-1" d="M32.84,18.24h-.63a.63.63,0,1,0,0,1.26h.63a.63.63,0,1,0,0-1.26Z"/><path class="cls-1" d="M5.68,18.24H5.05a.63.63,0,0,0,0,1.26h.63a.63.63,0,1,0,0-1.26Z"/><path class="cls-1" d="M28.33,8.6l-.45.45a.63.63,0,0,0,.89.89l.45-.45a.63.63,0,0,0-.89-.89Z"/><path class="cls-1" d="M9.12,27.8l-.44.45a.62.62,0,0,0,0,.89.59.59,0,0,0,.44.19.61.61,0,0,0,.45-.19L10,28.7a.64.64,0,1,0-.9-.9Z"/><path class="cls-1" d="M28.77,27.8a.63.63,0,0,0-.89.9l.45.44a.59.59,0,0,0,.44.19.61.61,0,0,0,.45-.19.62.62,0,0,0,0-.89Z"/><path class="cls-1" d="M9.57,8.6a.63.63,0,0,0-.89.89l.44.45a.65.65,0,0,0,.9,0,.64.64,0,0,0,0-.89Z"/></g></g></svg>