<svg xmlns="http://www.w3.org/2000/svg" viewBox="0 0 45.89 34.16"><defs><style>.cls-1{fill:#fff;}</style></defs><title>gap</title><g id="Calque_2" data-name="Calque 2"><g id="Calque_1-2" data-name="Calque 1"><path class="cls-1" d="M3.82,18.31,9.16,23.6a1.36,1.36,0,1,0,1.92-1.93l-3-3,10.57,0a1.37,1.37,0,1,0,0-2.73L8.08,16l3.6-3.49a1.37,1.37,0,0,0,0-1.93,1.36,1.36,0,0,0-1.93,0L3.82,16.38A1.37,1.37,0,0,0,3.82,18.31Z"/><path class="cls-1" d="M0,33.05a1.15,1.15,0,0,0,1.18,1.11,1.15,1.15,0,0,0,1.18-1.11V1.11A1.15,1.15,0,0,0,1.18,0,1.15,1.15,0,0,0,0,1.11Z"/><path class="cls-1" d="M42.07,18.31,36.74,23.6a1.36,1.36,0,0,1-1.93-1.93l3-3-10.57,0a1.37,1.37,0,0,1,0-2.73l10.57,0-3.6-3.49a1.37,1.37,0,0,1,0-1.93,1.41,1.41,0,0,1,1-.4,1.36,1.36,0,0,1,1,.4l5.93,5.82A1.37,1.37,0,0,1,42.07,18.31Z"/><path class="cls-1" d="M45.89,33.05a1.18,1.18,0,0,1-2.35,0V1.11a1.18,1.18,0,0,1,2.35,0Z"/></g></g></svg>