<svg xmlns="http://www.w3.org/2000/svg" viewBox="0 0 45.13 40.37"><defs><style>.cls-1{fill:#fff;}</style></defs><title>nextETA</title><g id="Calque_2" data-name="Calque 2"><g id="Calque_1-2" data-name="Calque 1"><path class="cls-1" d="M45.11,27.85,43.23,18.7a3.85,3.85,0,0,0-3.62-3.09H34.9a12.24,12.24,0,0,1-1.58,4.33V31.71a5,5,0,0,0-1.54,2.88H20.53a4.82,4.82,0,0,0-4.69-4.12,4.71,4.71,0,0,0-4,2.22,4.7,4.7,0,0,0-4-2.22,4.81,4.81,0,0,0-4.68,4.12H1.58V14h8.9c0-.12,0-.24,0-.35,0-.44,0-.88.07-1.3H1.58A1.62,1.62,0,0,0,0,14V34.59a1.62,1.62,0,0,0,1.58,1.65H3.24a4.81,4.81,0,0,0,4.68,4.13,4.7,4.7,0,0,0,4-2.22,4.71,4.71,0,0,0,4,2.22,4.82,4.82,0,0,0,4.69-4.13H31.78a4.72,4.72,0,0,0,9.37,0h3.18a.81.81,0,0,0,.8-.82V28A1.11,1.11,0,0,0,45.11,27.85ZM7.92,38.72a3.3,3.3,0,0,1,0-6.6,3.3,3.3,0,0,1,0,6.6Zm7.92,0A3.3,3.3,0,1,1,19,35.42,3.25,3.25,0,0,1,15.84,38.72ZM42,20.54l1.36,6.66H38.18l-.16,0a.83.83,0,0,1-.81-.84v-5.8ZM36.47,38.72a3.3,3.3,0,1,1,3.16-3.3A3.24,3.24,0,0,1,36.47,38.72Zm7.07-9h-.77a.82.82,0,0,0,0,1.64h.77v3.28H41.15a4.72,4.72,0,0,0-6.25-3.85V17.26h4.71a2.25,2.25,0,0,1,2,1.63H36.42a.8.8,0,0,0-.79.82v6.63a2.44,2.44,0,0,0,2.19,2.48.64.64,0,0,0,.2,0h5.52Z"/><path class="cls-1" d="M22.4,12.14a1.48,1.48,0,0,0-1.06,1.06v.74a1.48,1.48,0,1,0,1.8-1.8Zm.37,2.17a.74.74,0,1,1,.74-.74A.74.74,0,0,1,22.77,14.31Z"/><path class="cls-1" d="M22.77,6.16a.37.37,0,0,0,.37-.37V5.41A.37.37,0,0,0,22.77,5a.38.38,0,0,0-.37.37v.38A.38.38,0,0,0,22.77,6.16Z"/><path class="cls-1" d="M22.77,21a.37.37,0,0,0-.37.37v.37a.38.38,0,0,0,.37.37.37.37,0,0,0,.37-.37v-.37A.36.36,0,0,0,22.77,21Z"/><path class="cls-1" d="M30.93,13.2h-.37a.37.37,0,0,0-.37.37.36.36,0,0,0,.37.37h.37a.37.37,0,0,0,.37-.37A.38.38,0,0,0,30.93,13.2Z"/><path class="cls-1" d="M15,13.2h-.37a.38.38,0,0,0-.37.37.37.37,0,0,0,.37.37H15a.36.36,0,0,0,.37-.37A.37.37,0,0,0,15,13.2Z"/><path class="cls-1" d="M28.72,8a.29.29,0,0,0,0-.09.22.22,0,0,0-.05-.08l0,0h0a.32.32,0,0,0-.12-.08l-.15,0-2.26,0a.38.38,0,0,0-.37.38.38.38,0,0,0,.38.37l1.34,0-4.05,4a.39.39,0,0,0,0,.53.38.38,0,0,0,.54,0l4.06-4,0,1.37a.38.38,0,0,0,.38.37.38.38,0,0,0,.37-.38l0-2.26A.09.09,0,0,0,28.72,8Z"/><path class="cls-1" d="M22.77,12.07a1.5,1.5,0,1,0,1.5,1.5A1.5,1.5,0,0,0,22.77,12.07Zm0,2.24a.74.74,0,1,1,.74-.74A.74.74,0,0,1,22.77,14.31Z"/><path class="cls-1" d="M35.35,12.8a.8.8,0,0,0-.8.8A12,12,0,1,1,28.28,3.05l-1,1a.8.8,0,0,0,.57,1.36h3.81a.8.8,0,0,0,.8-.8V.8A.79.79,0,0,0,32,.06a.8.8,0,0,0-.86.17L29.45,1.88A13.6,13.6,0,1,0,36.14,13.6.79.79,0,0,0,35.35,12.8Z"/></g></g></svg>