<svg xmlns="http://www.w3.org/2000/svg" viewBox="0 0 75.74 40.16"><defs><style>.cls-1{fill:#fff;}</style></defs><title>PL</title><g id="Calque_2" data-name="Calque 2"><g id="Calque_1-2" data-name="Calque 1"><path class="cls-1" d="M74.72,19.79l-1.5-1.49-3-9a1.11,1.11,0,0,0-.34-2.17H59.14V2.3A2.3,2.3,0,0,0,56.84,0H2.3A2.3,2.3,0,0,0,0,2.3V28.38a2.3,2.3,0,0,0,2.3,2.3H3.56v2.44a2.3,2.3,0,0,0,2.29,2.3H8.41A5.85,5.85,0,0,0,18.9,37.73a5.84,5.84,0,0,0,10.48-2.31H57a5.85,5.85,0,0,0,11.6-1.11v-.08h4.82a2.3,2.3,0,0,0,2.3-2.29V22.25A3.49,3.49,0,0,0,74.72,19.79ZM8.41,33.2H5.85a.07.07,0,0,1-.07-.08V30.68H9.57A5.83,5.83,0,0,0,8.41,33.2Zm5.74,4.74a3.63,3.63,0,0,1,0-7.26h0a3.63,3.63,0,0,1,0,7.26Zm9.49,0a3.63,3.63,0,0,1,0-7.26h0a3.63,3.63,0,0,1,0,7.26ZM57,33.2H29.38a5.72,5.72,0,0,0-1.16-2.52H49.73a1.11,1.11,0,0,0,0-2.22H2.3a.08.08,0,0,1-.08-.08V2.3a.07.07,0,0,1,.08-.08H56.84a.08.08,0,0,1,.08.08V28.46H54.47a1.11,1.11,0,0,0,0,2.22h3.72A5.73,5.73,0,0,0,57,33.2ZM71.11,19H64a.07.07,0,0,1-.07-.07V14.08h5.6Zm-8.34,19a3.63,3.63,0,0,1,0-7.26h0a3.63,3.63,0,0,1,0,7.26Zm10.75-6a.09.09,0,0,1-.08.08H68.15a5.86,5.86,0,0,0-5.38-3.56H59.14v-19h0a.08.08,0,0,1,.07-.08H67.9l.84,2.53h-6A1.11,1.11,0,0,0,61.66,13V18.9A2.3,2.3,0,0,0,64,21.19h9l.17.17a1.24,1.24,0,0,1,.37.89V24.9H72.26a1.11,1.11,0,1,0,0,2.22h1.26Z"/><path class="cls-1" d="M53.28,23.72H5.85a1.11,1.11,0,1,0,0,2.21H53.28a1.11,1.11,0,1,0,0-2.21Z"/></g></g></svg>