<svg xmlns="http://www.w3.org/2000/svg" viewBox="0 0 37.25 40.6"><defs><style>.cls-1{fill:#fff;}</style></defs><title>totalWeight</title><g id="Calque_2" data-name="Calque 2"><g id="Calque_1-2" data-name="Calque 1"><path class="cls-1" d="M24.51,20.91H7.14v11.3h.91A2.63,2.63,0,0,1,10.61,30a2.59,2.59,0,0,1,2.17,1.21A2.58,2.58,0,0,1,15,30a2.63,2.63,0,0,1,2.56,2.26h6.16a2.75,2.75,0,0,1,.84-1.58Zm-1.33,1.81H8.44a.45.45,0,0,1,0-.9H23.18a.45.45,0,0,1,0,.9Z"/><path class="cls-1" d="M15,30.85a1.81,1.81,0,1,0,1.73,1.81A1.78,1.78,0,0,0,15,30.85Z"/><path class="cls-1" d="M10.61,30.85a1.81,1.81,0,1,0,1.74,1.81A1.77,1.77,0,0,0,10.61,30.85Z"/><path class="cls-1" d="M26.64,27.69a.46.46,0,0,0,.45.46H30l-.75-3.65H26.64Z"/><path class="cls-1" d="M27,29.05a1.35,1.35,0,0,1-1.2-1.36V24.06a.44.44,0,0,1,.43-.45h2.86A1.22,1.22,0,0,0,28,22.72H25.38V30.1a2.47,2.47,0,0,1,.86-.15,2.64,2.64,0,0,1,2.56,2.26h1.31v-1.8h-.42a.45.45,0,0,1,0-.9h.42v-.45H27Z"/><path class="cls-1" d="M26.24,30.85A1.81,1.81,0,1,0,28,32.66,1.78,1.78,0,0,0,26.24,30.85Z"/><path class="cls-1" d="M37.22,38.21l-4.31-24a2,2,0,0,0-2-1.67H23.74a7.3,7.3,0,1,0-10.23,0H6.34a2,2,0,0,0-2,1.67L0,38.21a2.07,2.07,0,0,0,.44,1.66A2.05,2.05,0,0,0,2,40.6H35.22a2,2,0,0,0,2-2.39ZM18.63,4.06a3.24,3.24,0,1,1-3.24,3.23A3.23,3.23,0,0,1,18.63,4.06ZM31,32.66a.45.45,0,0,1-.44.45H28.8a2.59,2.59,0,0,1-5.13,0H17.51A2.63,2.63,0,0,1,15,35.37a2.58,2.58,0,0,1-2.17-1.21,2.59,2.59,0,0,1-2.17,1.21,2.63,2.63,0,0,1-2.56-2.26H7.14a.88.88,0,0,1-.87-.9V20.91a.89.89,0,0,1,.87-.9H24.51a.89.89,0,0,1,.87.9v.91H28a2.09,2.09,0,0,1,2,1.69l1,5s0,.06,0,.09Z"/></g></g></svg>