<svg xmlns="http://www.w3.org/2000/svg" viewBox="0 0 54.27 49.75"><defs><style>.cls-1{fill:#fff;}</style></defs><g id="Calque_2" data-name="Calque 2"><g id="Calque_1-2" data-name="Calque 1"><path class="cls-1" d="M47.28,12.69a5.36,5.36,0,0,1,0,10.72H30.17a7,7,0,1,0,0,14H47.28a5.36,5.36,0,0,1,0,10.72H14.68a.82.82,0,1,0,0,1.63h32.6a7,7,0,0,0,0-14H30.17a5.36,5.36,0,0,1,0-10.72H47.28a7,7,0,0,0,0-14h-11a.82.82,0,1,0,0,1.64Z"/><path class="cls-1" d="M32.15,0a4.84,4.84,0,0,0-4.83,4.84c0,4,4.35,7.85,4.54,8a.46.46,0,0,0,.29.11.48.48,0,0,0,.3-.11c.18-.16,4.54-4,4.54-8A4.84,4.84,0,0,0,32.15,0Zm0,11.9c-1-.93-3.93-4.06-3.93-7.06a3.94,3.94,0,1,1,7.87,0C36.09,7.84,33.12,11,32.15,11.9Z"/><path class="cls-1" d="M32.15,2.58a2.26,2.26,0,1,0,2.24,2.26A2.25,2.25,0,0,0,32.15,2.58Zm0,3.61A1.36,1.36,0,1,1,33.5,4.84,1.35,1.35,0,0,1,32.15,6.19Z"/><path class="cls-1" d="M10.15,22.51A10.16,10.16,0,0,0,0,32.66C0,41,9.14,49.14,9.52,49.48a.93.93,0,0,0,1.25,0c.39-.34,9.52-8.48,9.52-16.82A10.16,10.16,0,0,0,10.15,22.51Zm0,25.88C8.13,46.43,1,39,1,32.66c0-4.56,4.61-9.17,9.17-9.17s9.16,4.61,9.16,9.17C19.31,39,12.17,46.43,10.15,48.39Z"/><path class="cls-1" d="M16.63,29.68l-6.39-3.09a.28.28,0,0,0-.18,0l-6.4,3.09a.22.22,0,0,0-.12.19v7.5a.2.2,0,0,0,.12.18l6.4,3.09.09,0,.09,0,6.39-3.09a.2.2,0,0,0,.12-.18v-7.5A.22.22,0,0,0,16.63,29.68ZM10.15,27l5.92,2.86-1.72.83,0,0L8.43,27.83ZM8,28.07l5.91,2.85-1.21.59L6.76,28.65ZM14,31.31v2.17L12.89,34V31.86Zm2.32,5.93-6,2.89v-7l1.43-.69a.23.23,0,0,0,.1-.28.22.22,0,0,0-.28-.1l-1.45.71-.58-.28a.2.2,0,0,0-.27.1.2.2,0,0,0,.09.27l.55.27v7L4,37.24v-7l4.56,2.2.09,0a.22.22,0,0,0,.19-.12.22.22,0,0,0-.1-.28L4.22,29.87l2.05-1,6.2,3h0v2.48a.21.21,0,0,0,.09.18.23.23,0,0,0,.11,0l.09,0,1.55-.75a.2.2,0,0,0,.11-.18V31.12l1.91-.92v7Z"/><path class="cls-1" d="M5.66,36.44,4.72,36a.21.21,0,1,0-.18.38l.94.45.09,0a.19.19,0,0,0,.18-.12A.2.2,0,0,0,5.66,36.44Z"/><path class="cls-1" d="M6.52,35.87,4.72,35a.21.21,0,0,0-.28.09.23.23,0,0,0,.1.28l1.8.87.09,0a.22.22,0,0,0,.19-.12A.22.22,0,0,0,6.52,35.87Z"/></g></g></svg>