<svg xmlns="http://www.w3.org/2000/svg" viewBox="0 0 62.72 34.41"><defs><style>.cls-1{fill:#fff;}</style></defs><title>VUL</title><g id="Calque_2" data-name="Calque 2"><g id="Calque_1-2" data-name="Calque 1"><path class="cls-1" d="M14.16,32.33a3.13,3.13,0,1,0-3.07-3.13,3.11,3.11,0,0,0,3.07,3.13m0-8.35A5.22,5.22,0,1,1,9,29.2,5.17,5.17,0,0,1,14.16,24"/><path class="cls-1" d="M49.35,15.19H34.25a1.32,1.32,0,0,1-1.31-1.34V2.67h-29V15.84H5.24a1.34,1.34,0,0,1,0,2.67H3.93v2.67a1.37,1.37,0,0,1-.38.95l-.93.94v1.57l.93.94a1.37,1.37,0,0,1,.38,1v1.33H5.79a8.45,8.45,0,0,1,8.37-7.33c6.06,0,8.37,4.39,8.37,7.33H38.14c0-2.94,3.69-7.49,8.74-7.49,4.41,0,7.91,4.55,7.91,7.49h4V26.53a1.34,1.34,0,0,1,.39-1l.92-.94V23.07l-.92-.94a1.33,1.33,0,0,1-.38-.88,17.82,17.82,0,0,0-.34-2.74ZM40,6H35.56v6.5H47.31ZM.38,21.58l.93-.95V1.33A1.33,1.33,0,0,1,2.62,0H35.56V3.35h5.09a1.28,1.28,0,0,1,1.07.57l9.08,9C53.47,15.2,61,14.77,61.37,20.6l1,1a1.33,1.33,0,0,1,.39.94v2.67a1.34,1.34,0,0,1-.39.95l-.92.94V29.2a1.32,1.32,0,0,1-1.32,1.33H53.18c-.73,0-1-.59-1-1.33,0-3.1-2-6.17-5.25-6.17A6,6,0,0,0,40.8,29.2c0,.74.07,1.33-.65,1.33H21.29A1.32,1.32,0,0,1,20,29.2c0-1.92-.76-6-5.82-6s-5.82,4.08-5.82,6A1.32,1.32,0,0,1,7,30.53H2.62A1.32,1.32,0,0,1,1.31,29.2V27.08l-.93-.94A1.37,1.37,0,0,1,0,25.19V22.52a1.37,1.37,0,0,1,.38-.94"/><path class="cls-1" d="M46.66,32.3a3.11,3.11,0,1,0-3-3.1,3.08,3.08,0,0,0,3,3.1m0-8.28a5.18,5.18,0,1,1-5.08,5.18A5.13,5.13,0,0,1,46.66,24"/></g></g></svg>