<svg xmlns="http://www.w3.org/2000/svg" viewBox="0 0 53.42 53.44"><defs><style>.cls-1{fill:#c8c8c8;}</style></defs><title>dispatch</title><g id="Calque_2" data-name="Calque 2"><g id="Calque_1-2" data-name="Calque 1"><path class="cls-1" d="M37.93,20.23,26.8,14.85a.42.42,0,0,0-.31,0L15.37,20.23a.35.35,0,0,0-.21.32v13a.35.35,0,0,0,.21.32l11.12,5.37a.29.29,0,0,0,.16,0,.28.28,0,0,0,.15,0l11.13-5.37a.36.36,0,0,0,.2-.32v-13A.36.36,0,0,0,37.93,20.23ZM26.65,15.58l10.29,5L34,22l-.06,0L23.67,17Zm-3.79,1.84,10.28,5-2.1,1-10.28-5Zm10.52,5.64v3.76l-2,.95V24Zm4,10.31L27,38.39V26.14L29.49,25a.35.35,0,0,0,.16-.48.35.35,0,0,0-.47-.17l-2.53,1.22-1-.48a.36.36,0,0,0-.48.17.37.37,0,0,0,.17.48l.95.45V38.39l-10.41-5V21.12L23.81,25A.4.4,0,0,0,24,25a.36.36,0,0,0,.16-.68l-7.77-3.75,3.56-1.72L30.69,24h0v4.31a.35.35,0,0,0,.17.3.3.3,0,0,0,.19.05.4.4,0,0,0,.15,0l2.69-1.3a.36.36,0,0,0,.2-.32V22.72l3.31-1.6V33.37Z"/><path class="cls-1" d="M18.84,32l-1.63-.78a.36.36,0,1,0-.31.64l1.63.79a.42.42,0,0,0,.16,0,.36.36,0,0,0,.15-.69Z"/><path class="cls-1" d="M20.34,31l-3.13-1.52a.36.36,0,1,0-.31.65L20,31.64a.32.32,0,0,0,.16,0,.36.36,0,0,0,.32-.21A.35.35,0,0,0,20.34,31Z"/><path class="cls-1" d="M48.16,26.78,46,24.67a.42.42,0,0,0-.59.59l1.4,1.4H41.33a.42.42,0,1,0,0,.84h5.51l-1.4,1.38a.41.41,0,0,0,0,.59.4.4,0,0,0,.59,0l2.13-2.09A.43.43,0,0,0,48.16,26.78Z"/><path class="cls-1" d="M5.14,27.36l2.12,2.11a.42.42,0,0,0,.59-.59l-1.4-1.4H12a.42.42,0,1,0,0-.84H6.45l1.4-1.38a.41.41,0,0,0,0-.59.39.39,0,0,0-.29-.13.39.39,0,0,0-.3.13L5.14,26.76A.42.42,0,0,0,5.14,27.36Z"/><path class="cls-1" d="M26.93,48.58l2.12-2.12a.42.42,0,1,0-.6-.6l-1.39,1.4v-5.5a.43.43,0,0,0-.85,0v5.5l-1.37-1.4a.43.43,0,0,0-.6,0,.44.44,0,0,0,0,.6l2.1,2.12A.42.42,0,0,0,26.93,48.58Z"/><path class="cls-1" d="M26.36,5.56,24.24,7.68a.42.42,0,0,0,.6.6l1.4-1.4,0,5.5a.43.43,0,0,0,.85,0V6.88l1.37,1.4a.43.43,0,0,0,.6,0,.43.43,0,0,0,0-.6L27,5.56A.42.42,0,0,0,26.36,5.56Z"/><path class="cls-1" d="M37.33,37.16a.42.42,0,0,0-.6,0,.42.42,0,0,0,0,.59l2.16,2.16a.42.42,0,0,0,.6,0,.43.43,0,0,0,0-.6Z"/><path class="cls-1" d="M14.4,14.23a.42.42,0,0,0-.6,0,.43.43,0,0,0,0,.6L16,17a.42.42,0,0,0,.6,0,.42.42,0,0,0,0-.59Z"/><path class="cls-1" d="M16.56,37.75a.42.42,0,0,0,0-.59.42.42,0,0,0-.6,0L13.8,39.31a.43.43,0,0,0,0,.6.42.42,0,0,0,.6,0Z"/><path class="cls-1" d="M39.49,14.83a.43.43,0,0,0,0-.6.42.42,0,0,0-.6,0l-2.16,2.16a.42.42,0,0,0,0,.59.42.42,0,0,0,.6,0Z"/><path id="Contour_Fine_tuning" data-name="Contour Fine tuning" class="cls-1" d="M26.72,53.44H6.66a6.36,6.36,0,0,1-2.79-.55,6.51,6.51,0,0,1-3.86-6Q0,26.73,0,6.58a6.56,6.56,0,0,1,3.93-6A6.65,6.65,0,0,1,6.54,0H34.11c4.27,0,8.55,0,12.83,0a6.28,6.28,0,0,1,5.9,3.81,6.22,6.22,0,0,1,.58,2.76q0,12.93,0,25.86c0,4.84,0,9.69,0,14.53a6.31,6.31,0,0,1-3.09,5.51,6,6,0,0,1-3.23.94H26.72ZM1.06,26.72V46.81a7.27,7.27,0,0,0,.07,1,5.42,5.42,0,0,0,5.34,4.53H46.93a5.12,5.12,0,0,0,.67,0,5.3,5.3,0,0,0,3.69-2.16,5.39,5.39,0,0,0,1.07-3.33V6.46a5.46,5.46,0,0,0-5.53-5.4H6.57c-.22,0-.43,0-.64,0A5.31,5.31,0,0,0,2.16,3.23a5.2,5.2,0,0,0-1.1,3.24Z"/></g></g></svg>