<svg xmlns="http://www.w3.org/2000/svg" viewBox="0 0 53.42 53.44"><defs><style>.cls-1{fill:#c8c8c8;}</style></defs><title>fineTuning</title><g id="Calque_2" data-name="Calque 2"><g id="Calque_1-2" data-name="Calque 1"><path class="cls-1" d="M39.82,29.93a6.81,6.81,0,0,1,4-.47,7.93,7.93,0,0,1,2,.7l.37.15V8.77a4.73,4.73,0,0,0,0-.75A3.63,3.63,0,0,0,39,8.55q0,10.76,0,21.53c0,.07,0,.13,0,.23Zm.82-23a2.46,2.46,0,0,1,2.65-.79,2.48,2.48,0,0,1,1.84,2.06,2.85,2.85,0,0,1,0,.51v19.7c0,.1,0,.19,0,.33a8.18,8.18,0,0,0-2.56-.43,8,8,0,0,0-2.55.42c0-.08,0-.13,0-.19a1.2,1.2,0,0,1,0-.19V8.73A2.58,2.58,0,0,1,40.64,6.9Z"/><path class="cls-1" d="M30.67,25.7c0-.12,0-.24,0-.39l-.3.12-.64.29a6.71,6.71,0,0,1-3.73.46,7.79,7.79,0,0,1-2-.62l-.59-.27c0,.14,0,.23,0,.33q0,9.71,0,19.41a3.74,3.74,0,0,0,.06.75,3.61,3.61,0,0,0,4,3,3.54,3.54,0,0,0,3.07-2.55,3.72,3.72,0,0,0,.16-1.28V25.7Zm-3.12,22a2.58,2.58,0,0,1-3.08-2.27,5.24,5.24,0,0,1,0-.56q0-8.76,0-17.5c0-.14,0-.27,0-.44a8.91,8.91,0,0,0,2.57.42,9,9,0,0,0,2.55-.42c0,.13,0,.22,0,.3,0,6,0,11.94,0,17.91A2.62,2.62,0,0,1,27.55,47.68Z"/><path class="cls-1" d="M7.86,27.2l.61-.27a6.89,6.89,0,0,1,2.44-.68,7,7,0,0,1,3.57.67c.19.1.39.18.64.29V8.7a5.68,5.68,0,0,0,0-.72,3.64,3.64,0,0,0-7.23.69q0,9.12,0,18.23C7.84,27,7.85,27.07,7.86,27.2ZM11.59,6A2.59,2.59,0,0,1,14,8.32c0,.18,0,.36,0,.54V25.15c0,.13,0,.26,0,.45a8.28,8.28,0,0,0-2.57-.42,8.15,8.15,0,0,0-2.56.41c0-.12,0-.21,0-.3q0-8.34,0-16.69A2.61,2.61,0,0,1,11.59,6Z"/><path class="cls-1" d="M11.47,28.29a5,5,0,1,0,5,5A4.95,4.95,0,0,0,11.47,28.29Zm0,8.87a3.91,3.91,0,1,1,3.91-3.88A3.88,3.88,0,0,1,11.47,37.16Z"/><path class="cls-1" d="M27,14.28a5,5,0,1,0,5,5A5,5,0,0,0,27,14.28Zm0,8.88a3.91,3.91,0,1,1,3.91-3.91A3.91,3.91,0,0,1,27,23.16Z"/><path class="cls-1" d="M42.57,41.33a5,5,0,1,0-5-5A5,5,0,0,0,42.57,41.33Zm0-8.88a3.92,3.92,0,1,1-3.92,3.91A3.92,3.92,0,0,1,42.6,32.45Z"/><path class="cls-1" d="M14.26,39.68a6.89,6.89,0,0,1-3,.59,7,7,0,0,1-2.79-.71l-.58-.25c0,.14,0,.24,0,.34v5.42a3.57,3.57,0,0,0,0,.56,3.64,3.64,0,0,0,7.25-.43c0-1.89,0-3.77,0-5.66,0-.07,0-.13,0-.23Zm-.2,5.38a2.51,2.51,0,0,1-1.31,2.33A2.57,2.57,0,0,1,8.9,45.21c0-1.35,0-2.69,0-4,0-.08,0-.15,0-.27a7.88,7.88,0,0,0,5.12,0c0,.15,0,.25,0,.34C14.06,42.52,14.07,43.79,14.06,45.06Z"/><path class="cls-1" d="M23.62,13.1l.66-.29a6.74,6.74,0,0,1,3.91-.48,8.27,8.27,0,0,1,2.15.73l.31.13c0-.12,0-.2,0-.28,0-1.42,0-2.84,0-4.26a4.9,4.9,0,0,0-.06-.77,3.64,3.64,0,0,0-7.21.73q0,2.16,0,4.32c0,.08,0,.15,0,.25Zm.83-4.45a2.53,2.53,0,0,1,1.31-2.31A2.57,2.57,0,0,1,29.6,8.51c0,.94,0,1.88,0,2.82,0,.07,0,.14,0,.25a9.29,9.29,0,0,0-2.54-.41,8.6,8.6,0,0,0-2.58.42c0-.14,0-.22,0-.31C24.44,10.4,24.44,9.53,24.45,8.65Z"/><path class="cls-1" d="M45.25,42.84a6.75,6.75,0,0,1-3.94.42,8.31,8.31,0,0,1-2-.69L39,42.42a1.1,1.1,0,0,0,0,.16c0,.91,0,1.81,0,2.71a3.09,3.09,0,0,0,.08.61,3.63,3.63,0,0,0,7.19-.65c0-.87,0-1.74,0-2.61,0-.06,0-.13,0-.22Zm-.17,3a2.58,2.58,0,0,1-5-.12A6.6,6.6,0,0,1,40,44a8,8,0,0,0,5.08,0l.06.07A6.12,6.12,0,0,1,45.08,45.81Z"/><path id="Contour_Fine_tuning" data-name="Contour Fine tuning" class="cls-1" d="M26.72,53.44H6.66a6.36,6.36,0,0,1-2.79-.55,6.51,6.51,0,0,1-3.86-6Q0,26.73,0,6.58a6.56,6.56,0,0,1,3.93-6A6.65,6.65,0,0,1,6.54,0H34.11c4.27,0,8.55,0,12.83,0a6.28,6.28,0,0,1,5.9,3.81,6.22,6.22,0,0,1,.58,2.76q0,12.93,0,25.86c0,4.84,0,9.69,0,14.53a6.31,6.31,0,0,1-3.09,5.51,6,6,0,0,1-3.23.94H26.72ZM1.06,26.72V46.81a7.27,7.27,0,0,0,.07,1,5.42,5.42,0,0,0,5.34,4.53H46.93a5.12,5.12,0,0,0,.67,0,5.3,5.3,0,0,0,3.69-2.16,5.39,5.39,0,0,0,1.07-3.33V6.46a5.46,5.46,0,0,0-5.53-5.4H6.57c-.22,0-.43,0-.64,0A5.31,5.31,0,0,0,2.16,3.23a5.2,5.2,0,0,0-1.1,3.24Z"/></g></g></svg>