<svg xmlns="http://www.w3.org/2000/svg" viewBox="0 0 53.42 53.44"><defs><style>.cls-1{fill:#c8c8c8;}</style></defs><title>georef</title><g id="Calque_2" data-name="Calque 2"><g id="Calque_1-2" data-name="Calque 1"><path class="cls-1" d="M26.71,14.14a5.19,5.19,0,0,1,5.4,4.95A5.19,5.19,0,0,1,26.71,24a5.19,5.19,0,0,1-5.39-4.95,5.19,5.19,0,0,1,5.39-4.95m0,11.14a6.49,6.49,0,0,0,6.74-6.19,6.48,6.48,0,0,0-6.74-6.18A6.48,6.48,0,0,0,20,19.09a6.49,6.49,0,0,0,6.74,6.19"/><path class="cls-1" d="M16.77,15a9.45,9.45,0,0,1,2.3-3,10.93,10.93,0,0,1,3.44-2,12.16,12.16,0,0,1,8.41,0,10.88,10.88,0,0,1,3.43,2,9.63,9.63,0,0,1,2.31,3,8.39,8.39,0,0,1,.84,3.67,8.24,8.24,0,0,1-.16,1.65,8.67,8.67,0,0,1-1.18,2.8l-9.45,14-9.44-14a8.38,8.38,0,0,1-1.18-2.81,8.25,8.25,0,0,1-.17-1.65A8.4,8.4,0,0,1,16.77,15m-.66,8.77,10,14.85a.71.71,0,0,0,1.14,0l10-14.87a9.57,9.57,0,0,0,1.34-3.2,9.16,9.16,0,0,0,.19-1.88,9.5,9.5,0,0,0-1-4.17,10.64,10.64,0,0,0-2.61-3.4,12.38,12.38,0,0,0-3.86-2.29,13.74,13.74,0,0,0-9.42,0,12.38,12.38,0,0,0-3.86,2.29,10.79,10.79,0,0,0-2.61,3.4,9.5,9.5,0,0,0-1,4.17,9.16,9.16,0,0,0,.19,1.88,9.66,9.66,0,0,0,1.35,3.22"/><path class="cls-1" d="M46.86,44.16,40.11,33a.7.7,0,0,0-.59-.32H32.43a.62.62,0,1,0,0,1.24h6.7l6,9.9H8.3l6-9.9H21a.62.62,0,1,0,0-1.24H13.9a.7.7,0,0,0-.59.32L6.56,44.16a.58.58,0,0,0,0,.61.69.69,0,0,0,.58.31H46.27a.69.69,0,0,0,.58-.31.58.58,0,0,0,0-.61"/><path id="Contour_Fine_tuning" data-name="Contour Fine tuning" class="cls-1" d="M26.72,53.44H6.66a6.36,6.36,0,0,1-2.79-.55,6.51,6.51,0,0,1-3.86-6Q0,26.73,0,6.58a6.56,6.56,0,0,1,3.93-6A6.65,6.65,0,0,1,6.54,0H34.11c4.27,0,8.55,0,12.83,0a6.28,6.28,0,0,1,5.9,3.81,6.22,6.22,0,0,1,.58,2.76q0,12.93,0,25.86c0,4.84,0,9.69,0,14.53a6.31,6.31,0,0,1-3.09,5.51,6,6,0,0,1-3.23.94H26.72ZM1.06,26.72V46.81a7.27,7.27,0,0,0,.07,1,5.42,5.42,0,0,0,5.34,4.53H46.93a5.12,5.12,0,0,0,.67,0,5.3,5.3,0,0,0,3.69-2.16,5.39,5.39,0,0,0,1.07-3.33V6.46a5.46,5.46,0,0,0-5.53-5.4H6.57c-.22,0-.43,0-.64,0A5.31,5.31,0,0,0,2.16,3.23a5.2,5.2,0,0,0-1.1,3.24Z"/></g></g></svg>