<svg xmlns="http://www.w3.org/2000/svg" viewBox="0 0 53.42 53.44"><defs><style>.cls-1{fill:#c8c8c8;}</style></defs><title>manageVehicle</title><g id="Calque_2" data-name="Calque 2"><g id="Calque_1-2" data-name="Calque 1"><path class="cls-1" d="M38,22.94H19.79a4.79,4.79,0,0,1-.72,1.24H38a.6.6,0,0,0,.6-.62A.61.61,0,0,0,38,22.94Z"/><path class="cls-1" d="M48.78,32.17l-1.43-6.9a2.9,2.9,0,0,0-2.75-2.33H41V21.7a1.23,1.23,0,0,0-1.21-1.24H26.47V21.7H39.82V35.08a3.77,3.77,0,0,0-1.17,2.17H30.11a3.65,3.65,0,0,0-3.56-3.11,3.61,3.61,0,0,0-3,1.67,3.58,3.58,0,0,0-3-1.67A3.67,3.67,0,0,0,17,37.25H15.72V31.83h-1.2v5.42a1.22,1.22,0,0,0,1.2,1.24H17a3.66,3.66,0,0,0,3.57,3.12,3.56,3.56,0,0,0,3-1.68,3.59,3.59,0,0,0,3,1.68,3.65,3.65,0,0,0,3.56-3.12h8.54a3.59,3.59,0,0,0,7.12,0h2.42a.61.61,0,0,0,.6-.62V32.3A.53.53,0,0,0,48.78,32.17ZM20.54,40.36a2.49,2.49,0,1,1,2.4-2.49A2.45,2.45,0,0,1,20.54,40.36Zm6,0A2.49,2.49,0,1,1,29,37.87,2.45,2.45,0,0,1,26.55,40.36Zm20.89-8.68H43.52l-.13,0a.62.62,0,0,1-.61-.63V26.66h3.63Zm-5.23,8.68a2.49,2.49,0,1,1,2.41-2.49A2.45,2.45,0,0,1,42.21,40.36Zm5.38-6.82H47a.61.61,0,0,0-.6.62.61.61,0,0,0,.6.62h.59v2.47H45.77a3.65,3.65,0,0,0-3.56-3.11,3.57,3.57,0,0,0-1.18.21V24.19H44.6a1.7,1.7,0,0,1,1.54,1.22h-4a.61.61,0,0,0-.6.62v5a1.85,1.85,0,0,0,1.66,1.87l.15,0h4.2Z"/><path class="cls-1" d="M26.07,18.69H23.94a8.92,8.92,0,0,0-.76-1.8l1.51-1.48a.44.44,0,0,0,.12-.28.4.4,0,0,0-.12-.28l-2.84-2.8a.4.4,0,0,0-.56,0l-1.51,1.49A8.3,8.3,0,0,0,18,12.79v-2.1a.39.39,0,0,0-.4-.39h-4a.39.39,0,0,0-.4.39v2.1a8.73,8.73,0,0,0-1.82.75l-1.5-1.49a.43.43,0,0,0-.28-.11.44.44,0,0,0-.29.11l-2.83,2.8a.39.39,0,0,0,0,.56l1.5,1.48a8.35,8.35,0,0,0-.75,1.8H5.05a.4.4,0,0,0-.4.39v4a.4.4,0,0,0,.4.4H7.18a8.49,8.49,0,0,0,.75,1.79l-1.5,1.49a.38.38,0,0,0,0,.55l2.83,2.8a.4.4,0,0,0,.29.12.39.39,0,0,0,.28-.12l1.5-1.48a9.27,9.27,0,0,0,1.82.74v2.1a.4.4,0,0,0,.4.4h3.17a.4.4,0,0,0,.32-.17.36.36,0,0,0,.05-.36l0-5a.37.37,0,0,0-.07-.4.43.43,0,0,0-.39-.12,4.94,4.94,0,0,1-1.14.14,4.82,4.82,0,1,1,4.88-4.82,5.19,5.19,0,0,1-.05.68.38.38,0,0,0,.16.37c.1.08.2.05.41,0l5.1,0a.4.4,0,0,0,.35-.06.4.4,0,0,0,.16-.32V19.08a.4.4,0,0,0-.4-.39M16.16,31H14V29a.39.39,0,0,0-.3-.38,7.94,7.94,0,0,1-2.17-.89.41.41,0,0,0-.49,0L9.55,29.24,7.27,27l1.45-1.43a.39.39,0,0,0,.06-.48A7.6,7.6,0,0,1,7.88,23a.41.41,0,0,0-.39-.3h-2V19.48h2a.42.42,0,0,0,.39-.3A7.66,7.66,0,0,1,8.78,17a.39.39,0,0,0-.06-.48L7.27,15.13l2.28-2.24L11,14.31a.41.41,0,0,0,.49.06,7.94,7.94,0,0,1,2.17-.89.39.39,0,0,0,.3-.38v-2h3.21v2a.39.39,0,0,0,.31.38,7.94,7.94,0,0,1,2.17.89.41.41,0,0,0,.49-.06l1.44-1.42,2.27,2.24L22.4,16.55a.39.39,0,0,0-.06.48,7.66,7.66,0,0,1,.9,2.15.42.42,0,0,0,.39.3h2v1.75l-4.53-.05v-.12a5.68,5.68,0,1,0-5.68,5.61c.22,0,.43,0,.65,0Z"/><path class="cls-1" d="M19.08,19.12a.41.41,0,0,0-.54-.16.39.39,0,0,0-.16.54,3.23,3.23,0,0,1,.4,1.56,3.32,3.32,0,1,1-1.28-2.58.42.42,0,0,0,.57-.07.4.4,0,0,0-.07-.55,4,4,0,1,0,1.08,1.26"/><path id="Contour_Fine_tuning" data-name="Contour Fine tuning" class="cls-1" d="M26.72,53.44H6.66a6.36,6.36,0,0,1-2.79-.55,6.51,6.51,0,0,1-3.86-6Q0,26.73,0,6.58a6.56,6.56,0,0,1,3.93-6A6.65,6.65,0,0,1,6.54,0H34.11c4.27,0,8.55,0,12.83,0a6.28,6.28,0,0,1,5.9,3.81,6.22,6.22,0,0,1,.58,2.76q0,12.93,0,25.86c0,4.84,0,9.69,0,14.53a6.31,6.31,0,0,1-3.09,5.51,6,6,0,0,1-3.23.94H26.72ZM1.06,26.72V46.81a7.27,7.27,0,0,0,.07,1,5.42,5.42,0,0,0,5.34,4.53H46.93a5.12,5.12,0,0,0,.67,0,5.3,5.3,0,0,0,3.69-2.16,5.39,5.39,0,0,0,1.07-3.33V6.46a5.46,5.46,0,0,0-5.53-5.4H6.57c-.22,0-.43,0-.64,0A5.31,5.31,0,0,0,2.16,3.23a5.2,5.2,0,0,0-1.1,3.24Z"/></g></g></svg>