<svg xmlns="http://www.w3.org/2000/svg" viewBox="0 0 53.42 53.44"><defs><style>.cls-1{fill:#c8c8c8;}</style></defs><title>searchTour</title><g id="Calque_2" data-name="Calque 2"><g id="Calque_1-2" data-name="Calque 1"><path class="cls-1" d="M26.11,8.68A3.14,3.14,0,0,0,23,11.81c0,2.58,2.83,5.09,3,5.2a.26.26,0,0,0,.19.07A.28.28,0,0,0,26.3,17c.12-.11,2.94-2.62,2.94-5.2A3.13,3.13,0,0,0,26.11,8.68Zm0,7.71c-.63-.6-2.56-2.63-2.56-4.58a2.56,2.56,0,0,1,5.11,0C28.66,13.76,26.73,15.79,26.11,16.39Z"/><path class="cls-1" d="M26.11,10.35a1.46,1.46,0,1,0,1.45,1.46A1.46,1.46,0,0,0,26.11,10.35Zm0,2.34a.88.88,0,1,1,.87-.88A.87.87,0,0,1,26.11,12.69Z"/><path class="cls-1" d="M11.84,23.27a6.59,6.59,0,0,0-6.58,6.58c0,5.41,5.92,10.69,6.17,10.91a.63.63,0,0,0,.41.15.62.62,0,0,0,.4-.15c.25-.22,6.18-5.5,6.18-10.91A6.59,6.59,0,0,0,11.84,23.27Zm0,16.78c-1.31-1.27-5.94-6.11-5.94-10.2a6.41,6.41,0,0,1,5.94-5.94,6.42,6.42,0,0,1,5.94,5.94C17.78,33.94,13.15,38.78,11.84,40.05Z"/><path class="cls-1" d="M16,27.92l-4.14-2a.13.13,0,0,0-.12,0l-4.15,2a.12.12,0,0,0-.07.12V32.9a.14.14,0,0,0,.07.13l4.15,2h.12L16,33a.14.14,0,0,0,.08-.13V28A.13.13,0,0,0,16,27.92Zm-4.2-1.73L15.68,28l-1.12.54h0l-3.81-1.85Zm-1.42.69,3.84,1.85-.79.38L9.64,27.26ZM14.35,29v1.4l-.73.36V29.33Zm1.5,3.84L12,34.69V30.13l.93-.45a.13.13,0,1,0-.12-.24l-.94.46-.37-.18a.12.12,0,0,0-.18.06.13.13,0,0,0,.06.18l.35.17v4.56L7.82,32.82V28.26l3,1.42h.06a.13.13,0,0,0,.12-.07.14.14,0,0,0-.07-.18L8,28l1.33-.64,4,1.94h0V31a.11.11,0,0,0,.06.11.1.1,0,0,0,.07,0h.06l1-.48a.14.14,0,0,0,.08-.12V28.85l1.23-.59v4.56Z"/><path class="cls-1" d="M8.93,32.3,8.32,32a.13.13,0,0,0-.18.06.14.14,0,0,0,.06.18l.61.29.06,0A.13.13,0,0,0,9,32.48.14.14,0,0,0,8.93,32.3Z"/><path class="cls-1" d="M9.49,31.94l-1.17-.57a.14.14,0,0,0-.18.07.13.13,0,0,0,.06.17l1.17.57h.06a.14.14,0,0,0,.12-.07A.14.14,0,0,0,9.49,31.94Z"/><path class="cls-1" d="M30.68,39.88H14.78a.53.53,0,0,0-.53.53.53.53,0,0,0,.53.53H32A8.27,8.27,0,0,1,30.68,39.88Z"/><path class="cls-1" d="M24.82,32.93h3.76a7.76,7.76,0,0,1,.32-1.07H24.82a3.48,3.48,0,1,1,0-6.95H35.91a4.54,4.54,0,1,0,0-9.07H28.78a.53.53,0,1,0,0,1.06h7.13a3.48,3.48,0,1,1,0,7H24.82a4.54,4.54,0,0,0,0,9.08Z"/><path class="cls-1" d="M40.54,34.19a.39.39,0,0,0-.39.39.39.39,0,0,0,.78,0,.39.39,0,0,0-.39-.39"/><path class="cls-1" d="M47.43,45.63a.8.8,0,0,1-.55.22.82.82,0,0,1-.56-.22L42.85,42.2A10.4,10.4,0,0,0,44,41.11l3.47,3.43a.74.74,0,0,1,.23.54.76.76,0,0,1-.23.55m-6.24-5.07a8.17,8.17,0,0,0,1.1-1.1l1.11,1.1a10.29,10.29,0,0,1-1.1,1.09Zm-.82-.35h0a6.93,6.93,0,1,1,2.92-5.63,6.87,6.87,0,0,1-1.34,4.07,7.26,7.26,0,0,1-1.57,1.56M48,44l-5.22-5.15a7.61,7.61,0,0,0,1.3-4.26A7.79,7.79,0,1,0,40.55,41L42,42.45h0l3.78,3.72a1.55,1.55,0,0,0,1.11.46,1.53,1.53,0,0,0,1.1-.46,1.49,1.49,0,0,0,.46-1.09A1.5,1.5,0,0,0,48,44"/><path class="cls-1" d="M36.24,40a5.41,5.41,0,1,1,5.47-5.41A5.45,5.45,0,0,1,36.24,40m0-11.59a6.18,6.18,0,1,0,6.26,6.18,6.23,6.23,0,0,0-6.26-6.18"/><path class="cls-1" d="M40.62,32.92a4.72,4.72,0,0,0-4.38-3,.39.39,0,0,0,0,.78,3.93,3.93,0,0,1,3.65,2.48.4.4,0,0,0,.37.25l.14,0a.38.38,0,0,0,.22-.5"/><path id="Contour_Fine_tuning" data-name="Contour Fine tuning" class="cls-1" d="M26.72,53.44H6.66a6.36,6.36,0,0,1-2.79-.55,6.51,6.51,0,0,1-3.86-6Q0,26.73,0,6.58a6.56,6.56,0,0,1,3.93-6A6.65,6.65,0,0,1,6.54,0H34.11c4.27,0,8.55,0,12.83,0a6.28,6.28,0,0,1,5.9,3.81,6.22,6.22,0,0,1,.58,2.76q0,12.93,0,25.86c0,4.84,0,9.69,0,14.53a6.31,6.31,0,0,1-3.09,5.51,6,6,0,0,1-3.23.94H26.72ZM1.06,26.72V46.81a7.27,7.27,0,0,0,.07,1,5.42,5.42,0,0,0,5.34,4.53H46.93a5.12,5.12,0,0,0,.67,0,5.3,5.3,0,0,0,3.69-2.16,5.39,5.39,0,0,0,1.07-3.33V6.46a5.46,5.46,0,0,0-5.53-5.4H6.57c-.22,0-.43,0-.64,0A5.31,5.31,0,0,0,2.16,3.23a5.2,5.2,0,0,0-1.1,3.24Z"/></g></g></svg>