<?xml version="1.0" encoding="utf-8"?>
<!-- Generator: Adobe Illustrator 24.0.2, SVG Export Plug-In . SVG Version: 6.00 Build 0)  -->
<svg version="1.1" id="Calque_1" xmlns="http://www.w3.org/2000/svg" xmlns:xlink="http://www.w3.org/1999/xlink" x="0px" y="0px"
	 viewBox="0 0 57.7 57.7" style="enable-background:new 0 0 57.7 57.7;" xml:space="preserve">
<style type="text/css">
	.st0{fill:#FFFFFF;}
</style>
<title>DATA</title>
<g id="Calque_2_1_">
	<g id="Calque_1-2">
		<path class="st0" d="M14.3,11.6c-1.8,0-3.3,1.5-3.2,3.3c0,1.8,1.5,3.3,3.3,3.2c1.8,0,3.2-1.5,3.2-3.3
			C17.6,13.1,16.1,11.6,14.3,11.6C14.3,11.6,14.3,11.6,14.3,11.6 M14.3,16.7c-1,0-1.8-0.8-1.8-1.8c0-1,0.8-1.8,1.8-1.8
			c1,0,1.8,0.8,1.8,1.8C16.1,15.9,15.3,16.7,14.3,16.7C14.3,16.7,14.3,16.7,14.3,16.7"/>
		<path class="st0" d="M43.3,13.1c0.4,0,0.7,0.3,0.7,0.7s-0.3,0.7-0.7,0.7s-0.7-0.3-0.7-0.7v0C42.6,13.4,42.9,13.1,43.3,13.1"/>
		<path class="st0" d="M40.4,13.1c0.4,0,0.8,0.2,0.8,0.6c0,0.4-0.2,0.8-0.6,0.8c-0.1,0-0.1,0-0.2,0c-0.4,0-0.8-0.2-0.8-0.6
			c0-0.4,0.2-0.8,0.6-0.8C40.3,13.1,40.3,13.1,40.4,13.1"/>
		<path class="st0" d="M44.8,15.3c0.4,0,0.7,0.3,0.7,0.7c0,0.4-0.3,0.7-0.7,0.7S44,16.4,44,16l0,0C44.1,15.6,44.4,15.3,44.8,15.3"/>
		<path class="st0" d="M41.8,15.3c0.4,0,0.7,0.3,0.7,0.7c0,0.4-0.3,0.7-0.7,0.7c0,0,0,0,0,0c-0.4,0-0.7-0.3-0.7-0.7
			C41.1,15.6,41.4,15.3,41.8,15.3"/>
		<path class="st0" d="M37.4,13.1c0.4,0,0.7,0.3,0.7,0.7c0,0.4-0.3,0.7-0.7,0.7c-0.4,0-0.7-0.3-0.7-0.7C36.7,13.4,37,13.1,37.4,13.1
			C37.4,13.1,37.4,13.1,37.4,13.1"/>
		<path class="st0" d="M38.9,15.3c0.4,0,0.7,0.3,0.7,0.7c0,0.4-0.3,0.7-0.7,0.7c-0.4,0-0.7-0.3-0.7-0.7
			C38.2,15.6,38.5,15.3,38.9,15.3"/>
		<path class="st0" d="M34.5,13.1c0.4,0,0.7,0.3,0.7,0.7c0,0.4-0.3,0.7-0.7,0.7c-0.4,0-0.7-0.3-0.7-0.7
			C33.7,13.4,34.1,13.1,34.5,13.1C34.5,13.1,34.5,13.1,34.5,13.1"/>
		<path class="st0" d="M36,15.3c0.4,0,0.7,0.3,0.7,0.7c0,0.4-0.3,0.7-0.7,0.7c-0.4,0-0.7-0.3-0.7-0.7C35.3,15.6,35.6,15.3,36,15.3
			C36,15.3,36,15.3,36,15.3"/>
		<path class="st0" d="M31.5,13.1c0.4,0,0.7,0.3,0.7,0.7s-0.3,0.7-0.7,0.7c-0.4,0-0.7-0.3-0.7-0.7v0C30.8,13.4,31.1,13.1,31.5,13.1"
			/>
		<path class="st0" d="M33,15.3c0.4,0,0.7,0.3,0.7,0.7c0,0.4-0.3,0.7-0.7,0.7s-0.7-0.3-0.7-0.7l0,0C32.3,15.6,32.6,15.3,33,15.3"/>
		<path class="st0" d="M50.7,19.2v-8.6c0-1.9-1.5-3.4-3.4-3.4c0,0,0,0,0,0H9.9c-1.9,0-3.4,1.5-3.4,3.3c0,0,0,0,0,0v8.6
			c0,1,0.5,2,1.3,2.6c-0.8,0.6-1.3,1.6-1.3,2.6V33c0,1,0.5,2,1.3,2.6c-0.8,0.6-1.3,1.6-1.3,2.6v8.6c0,1.9,1.5,3.4,3.4,3.3
			c0,0,0,0,0,0h37.4c1.9,0,3.4-1.5,3.4-3.3c0,0,0,0,0,0v-8.6c0-1-0.5-2-1.3-2.6c0.8-0.6,1.3-1.6,1.3-2.7v-8.5c0-1-0.5-2-1.3-2.6
			C50.2,21.2,50.7,20.2,50.7,19.2 M49.2,38.3v8.6c0,1.1-0.9,1.9-1.9,1.9c0,0,0,0,0,0H9.9c-1.1,0-1.9-0.8-1.9-1.9c0,0,0,0,0,0v-8.6
			c0-1.1,0.9-1.9,1.9-1.9h37.4C48.3,36.4,49.2,37.2,49.2,38.3 M49.2,24.5V33c0,1.1-0.9,1.9-1.9,1.9c0,0,0,0,0,0H9.9
			C8.9,34.9,8,34.1,8,33c0,0,0,0,0,0v-8.5c0-1.1,0.9-1.9,1.9-1.9c0,0,0,0,0,0h37.4C48.3,22.6,49.2,23.4,49.2,24.5
			C49.2,24.5,49.2,24.5,49.2,24.5 M9.9,21.1c-1.1,0-1.9-0.8-1.9-1.9v-8.6c0-1.1,0.9-1.9,1.9-1.9c0,0,0,0,0,0h37.4
			c1.1,0,1.9,0.8,1.9,1.9c0,0,0,0,0,0v8.6c0,1.1-0.9,1.9-1.9,1.9c0,0,0,0,0,0H9.9z"/>
		<path class="st0" d="M14.3,32c1.8,0,3.3-1.5,3.2-3.3c0-1.8-1.5-3.3-3.3-3.2c-1.8,0-3.3,1.5-3.2,3.3C11,30.5,12.4,32,14.3,32
			 M14.3,26.9c1,0,1.8,0.8,1.8,1.8c0,1-0.8,1.8-1.8,1.8c-1,0-1.8-0.8-1.8-1.8C12.4,27.7,13.2,26.9,14.3,26.9
			C14.2,26.9,14.2,26.9,14.3,26.9"/>
		<path class="st0" d="M43.3,26.9c0.4,0,0.7,0.3,0.7,0.7s-0.3,0.7-0.7,0.7c-0.4,0-0.7-0.3-0.7-0.7c0,0,0,0,0,0
			C42.6,27.3,42.9,26.9,43.3,26.9"/>
		<path class="st0" d="M40.4,26.9c0.4,0,0.7,0.3,0.7,0.7s-0.3,0.7-0.7,0.7c-0.4,0-0.7-0.3-0.7-0.7c0,0,0,0,0,0
			C39.6,27.3,40,26.9,40.4,26.9C40.4,26.9,40.4,26.9,40.4,26.9"/>
		<path class="st0" d="M44.8,29.1c0.4,0,0.7,0.3,0.7,0.7s-0.3,0.7-0.7,0.7c-0.4,0-0.7-0.3-0.7-0.7c0,0,0,0,0,0
			C44,29.4,44.4,29.1,44.8,29.1"/>
		<path class="st0" d="M41.8,29.1c0.4,0,0.8,0.2,0.8,0.6c0,0.4-0.2,0.8-0.6,0.8c-0.1,0-0.1,0-0.2,0c-0.4,0-0.8-0.2-0.8-0.6
			c0-0.4,0.2-0.8,0.6-0.8C41.7,29.1,41.8,29.1,41.8,29.1"/>
		<path class="st0" d="M37.4,26.9c0.4,0,0.7,0.3,0.7,0.7c0,0.4-0.3,0.7-0.7,0.7c-0.4,0-0.7-0.3-0.7-0.7C36.7,27.2,37,26.9,37.4,26.9
			C37.4,26.9,37.4,26.9,37.4,26.9"/>
		<path class="st0" d="M38.9,29.1c0.4,0,0.7,0.3,0.7,0.7s-0.3,0.7-0.7,0.7c-0.4,0-0.7-0.3-0.7-0.7C38.2,29.4,38.5,29.1,38.9,29.1
			C38.9,29.1,38.9,29.1,38.9,29.1"/>
		<path class="st0" d="M34.5,26.9c0.4,0,0.7,0.3,0.7,0.7c0,0.4-0.3,0.7-0.7,0.7c-0.4,0-0.7-0.3-0.7-0.7
			C33.8,27.2,34.1,26.9,34.5,26.9C34.5,26.9,34.5,26.9,34.5,26.9"/>
		<path class="st0" d="M36,29.1c0.4,0,0.7,0.3,0.7,0.7s-0.3,0.7-0.7,0.7c-0.4,0-0.7-0.3-0.7-0.7C35.3,29.4,35.6,29.1,36,29.1
			C36,29.1,36,29.1,36,29.1"/>
		<path class="st0" d="M31.5,26.9c0.4,0,0.7,0.3,0.7,0.7s-0.3,0.7-0.7,0.7c-0.4,0-0.7-0.3-0.7-0.7c0,0,0,0,0,0
			C30.8,27.3,31.1,26.9,31.5,26.9"/>
		<path class="st0" d="M33,29.1c0.4,0,0.7,0.3,0.7,0.7s-0.3,0.7-0.7,0.7c-0.4,0-0.7-0.3-0.7-0.7c0,0,0,0,0,0
			C32.3,29.4,32.6,29.1,33,29.1"/>
		<path class="st0" d="M14.3,45.8c1.8,0,3.3-1.5,3.2-3.3c0-1.8-1.5-3.3-3.3-3.2c-1.8,0-3.2,1.5-3.3,3.3C11,44.4,12.4,45.9,14.3,45.8
			 M14.3,40.8c1,0,1.8,0.8,1.8,1.8c0,1-0.8,1.8-1.8,1.8c-1,0-1.8-0.8-1.8-1.8C12.4,41.6,13.2,40.7,14.3,40.8"/>
		<path class="st0" d="M43.3,40.8c0.4,0,0.7,0.3,0.7,0.7s-0.3,0.7-0.7,0.7s-0.7-0.3-0.7-0.7l0,0C42.6,41.1,42.9,40.8,43.3,40.8"/>
		<path class="st0" d="M40.4,40.8c0.4,0,0.7,0.3,0.7,0.7c0,0.4-0.3,0.7-0.7,0.7c0,0,0,0,0,0c-0.4,0-0.7-0.3-0.7-0.7
			C39.6,41.1,40,40.8,40.4,40.8"/>
		<path class="st0" d="M44.8,42.9c0.4,0,0.7,0.3,0.7,0.7s-0.3,0.7-0.7,0.7S44,44.1,44,43.7c0,0,0,0,0,0
			C44.1,43.3,44.4,42.9,44.8,42.9"/>
		<path class="st0" d="M41.8,42.9c0.4,0,0.7,0.3,0.7,0.7s-0.3,0.7-0.7,0.7s-0.7-0.3-0.7-0.7c0,0,0,0,0,0
			C41.1,43.3,41.4,42.9,41.8,42.9C41.8,42.9,41.8,42.9,41.8,42.9"/>
		<path class="st0" d="M37.4,40.8c0.4,0,0.7,0.3,0.7,0.7s-0.3,0.7-0.7,0.7c-0.4,0-0.7-0.3-0.7-0.7C36.7,41.1,37,40.7,37.4,40.8
			C37.4,40.7,37.4,40.7,37.4,40.8"/>
		<path class="st0" d="M38.9,42.9c0.4,0,0.7,0.3,0.7,0.7c0,0.4-0.3,0.7-0.7,0.7c-0.4,0-0.7-0.3-0.7-0.7
			C38.2,43.3,38.5,42.9,38.9,42.9C38.9,42.9,38.9,42.9,38.9,42.9"/>
		<path class="st0" d="M34.5,40.8c0.4,0,0.7,0.3,0.7,0.7s-0.3,0.7-0.7,0.7c-0.4,0-0.7-0.3-0.7-0.7C33.7,41.1,34.1,40.7,34.5,40.8
			C34.5,40.7,34.5,40.7,34.5,40.8"/>
		<path class="st0" d="M36,42.9c0.4,0,0.7,0.3,0.7,0.7c0,0.4-0.3,0.7-0.7,0.7c-0.4,0-0.7-0.3-0.7-0.7C35.3,43.3,35.6,42.9,36,42.9
			C36,42.9,36,42.9,36,42.9"/>
		<path class="st0" d="M31.5,40.8c0.4,0,0.7,0.3,0.7,0.7s-0.3,0.7-0.7,0.7c-0.4,0-0.7-0.3-0.7-0.7l0,0
			C30.8,41.1,31.1,40.8,31.5,40.8"/>
		<path class="st0" d="M33,42.9c0.4,0,0.7,0.3,0.7,0.7s-0.3,0.7-0.7,0.7s-0.7-0.3-0.7-0.7c0,0,0,0,0,0C32.3,43.3,32.6,42.9,33,42.9"
			/>
		<path class="st0" d="M1.1,28.8c0,7.2,0,14.5,0,21.7c0,0.4,0,0.7,0.1,1.1c0.5,2.8,2.9,4.9,5.8,4.9h43.7c3.2,0,5.9-2.6,5.9-5.9
			c0,0,0-0.1,0-0.1V7c0-3.2-2.7-5.9-5.9-5.8c0,0,0,0-0.1,0H7.1c-0.2,0-0.5,0-0.7,0c-1.6,0.2-3.1,1-4.1,2.3C1.5,4.5,1.1,5.7,1.1,7
			V28.8 M28.8,57.7H7.2c-1,0-2.1-0.2-3-0.6c-2.2-1-3.8-3-4.1-5.5C0,51.3,0,51,0,50.6c0-14.5,0-29,0-43.5c0-2.8,1.7-5.4,4.2-6.5
			C5.1,0.2,6.1,0,7.1,0h29.8c4.6,0,9.2,0,13.8,0c2.8,0,5.3,1.6,6.3,4.1c0.4,0.9,0.6,2,0.6,3V35c0,5.2,0,10.5,0,15.7
			c0,2.4-1.2,4.7-3.3,6c-1,0.7-2.3,1-3.5,1L28.8,57.7"/>
	</g>
</g>
</svg>
