<?xml version="1.0" encoding="utf-8"?>
<!-- Generator: Adobe Illustrator 24.0.2, SVG Export Plug-In . SVG Version: 6.00 Build 0)  -->
<svg version="1.1" id="Calque_1" xmlns="http://www.w3.org/2000/svg" xmlns:xlink="http://www.w3.org/1999/xlink" x="0px" y="0px"
	 viewBox="0 0 57.7 57.7" style="enable-background:new 0 0 57.7 57.7;" xml:space="preserve">
<style type="text/css">
	.st0{fill:#FFFFFF;}
</style>
<title>DISPATCH</title>
<g id="Calque_2_1_">
	<g id="Calque_1-2">
		<path class="st0" d="M40.4,36l-11.2,5.4V28.2l2.7-1.3c0.2-0.1,0.3-0.3,0.2-0.5c0,0,0,0,0,0c-0.1-0.2-0.3-0.3-0.5-0.2c0,0,0,0,0,0
			l-2.7,1.3L27.7,27c-0.2-0.1-0.4,0-0.5,0.2c-0.1,0.2,0,0.4,0.2,0.5l1,0.5v13.2L17.1,36V22.8l8.6,4.1c0.1,0,0.1,0,0.2,0
			c0.2,0,0.4-0.2,0.4-0.4c0-0.1-0.1-0.3-0.2-0.3l-8.4-4l3.8-1.8L33.1,26l0,0v4.7c0,0.1,0.1,0.3,0.2,0.3c0.1,0,0.1,0.1,0.2,0.1
			c0.1,0,0.1,0,0.2,0l2.9-1.4c0.1-0.1,0.2-0.2,0.2-0.3v-4.7l3.6-1.7L40.4,36z M36,24.9V29l-2.1,1v-4L36,24.9z M24.7,18.8l11.1,5.4
			l-2.3,1.1l-11.1-5.3L24.7,18.8z M28.8,16.8l11.1,5.4l-3.2,1.6h-0.1l-11-5.3L28.8,16.8z M40.9,21.8l-12-5.8c-0.1-0.1-0.2-0.1-0.3,0
			l-12,5.8c-0.1,0.1-0.2,0.2-0.2,0.3v14.1c0,0.1,0.1,0.3,0.2,0.3l12,5.8c0.1,0.1,0.2,0.1,0.3,0l12-5.8c0.1-0.1,0.2-0.2,0.2-0.3V22.2
			C41.2,22,41.1,21.9,40.9,21.8"/>
		<path class="st0" d="M20.3,34.5l-1.8-0.8c-0.2-0.1-0.4,0-0.5,0.2s0,0.4,0.2,0.5l0,0l1.8,0.9c0.1,0,0.1,0,0.2,0
			c0.1,0,0.3-0.1,0.3-0.2C20.6,34.8,20.5,34.6,20.3,34.5C20.4,34.5,20.3,34.5,20.3,34.5"/>
		<path class="st0" d="M22,33.5l-3.4-1.6c-0.2-0.1-0.4,0-0.5,0.2c-0.1,0.2,0,0.4,0.2,0.5c0,0,0,0,0,0l3.4,1.7c0.1,0,0.1,0,0.2,0
			c0.2,0,0.3-0.1,0.3-0.2C22.2,33.8,22.2,33.5,22,33.5C22,33.4,22,33.4,22,33.5"/>
		<path class="st0" d="M52,28.9l-2.3-2.3c-0.2-0.2-0.5-0.2-0.6,0s-0.2,0.5,0,0.6l1.5,1.5h-5.9c-0.3,0-0.5,0.1-0.5,0.4
			s0.1,0.5,0.4,0.5c0,0,0.1,0,0.1,0h5.9L49,31.2c-0.2,0.2-0.2,0.5,0,0.7c0.1,0.1,0.2,0.1,0.3,0.1c0.1,0,0.2,0,0.3-0.1l2.3-2.3
			C52.2,29.4,52.2,29.1,52,28.9C52,28.9,52,28.9,52,28.9"/>
		<path class="st0" d="M5.5,29.5l2.3,2.3C8,32,8.3,32,8.5,31.8c0,0,0,0,0,0c0.2-0.2,0.2-0.5,0-0.7L7,29.7h5.9c0.3,0,0.5-0.1,0.5-0.4
			s-0.1-0.5-0.4-0.5c0,0-0.1,0-0.1,0H7l1.5-1.5c0.2-0.2,0.2-0.5,0-0.6c0,0,0,0,0,0c-0.2-0.2-0.5-0.2-0.6,0l-2.3,2.3
			C5.4,29.1,5.4,29.3,5.5,29.5C5.5,29.5,5.5,29.5,5.5,29.5"/>
		<path class="st0" d="M29.1,52.4l2.3-2.3c0.2-0.2,0.2-0.5,0-0.6s-0.5-0.2-0.6,0l0,0L29.2,51v-5.9c0-0.3-0.1-0.5-0.4-0.5
			s-0.5,0.1-0.5,0.4c0,0,0,0.1,0,0.1V51l-1.5-1.5c-0.2-0.2-0.5-0.2-0.7,0c-0.2,0.2-0.2,0.5,0,0.6l2.3,2.3
			C28.6,52.6,28.9,52.6,29.1,52.4C29.1,52.4,29.1,52.4,29.1,52.4"/>
		<path class="st0" d="M28.5,6l-2.3,2.3c-0.2,0.2-0.2,0.5,0,0.6c0,0,0,0,0,0c0.2,0.2,0.5,0.2,0.7,0l1.5-1.5v5.9
			c0,0.3,0.3,0.4,0.5,0.4c0.2,0,0.4-0.2,0.4-0.4V7.4l1.5,1.5c0.2,0.2,0.5,0.2,0.6,0c0,0,0,0,0,0c0.1-0.1,0.1-0.2,0.1-0.3
			c0-0.1,0-0.2-0.1-0.3L29.1,6C28.9,5.8,28.6,5.8,28.5,6"/>
		<path class="st0" d="M40.3,40.1c-0.2-0.2-0.5-0.2-0.6,0c-0.2,0.2-0.2,0.4,0,0.6l2.3,2.3c0.2,0.2,0.5,0.2,0.6,0s0.2-0.5,0-0.7
			c0,0,0,0,0,0L40.3,40.1z"/>
		<path class="st0" d="M15.5,15.4c-0.2-0.2-0.5-0.2-0.7,0c-0.2,0.2-0.2,0.5,0,0.7l2.3,2.3c0.2,0.2,0.5,0.2,0.7,0
			c0.2-0.2,0.2-0.5,0-0.6L15.5,15.4z"/>
		<path class="st0" d="M17.9,40.8c0.2-0.2,0.2-0.5,0-0.7s-0.5-0.2-0.7,0c0,0,0,0,0,0l-2.3,2.3c-0.2,0.2-0.2,0.5,0,0.7s0.5,0.2,0.7,0
			c0,0,0,0,0,0L17.9,40.8z"/>
		<path class="st0" d="M42.6,16c0.2-0.2,0.2-0.5,0-0.6c-0.2-0.2-0.5-0.2-0.6,0c0,0,0,0,0,0l-2.3,2.3c-0.2,0.2-0.2,0.5,0,0.6
			s0.5,0.2,0.6,0L42.6,16z"/>
		<path class="st0" d="M1.2,28.8v21.7c0,0.4,0,0.7,0.1,1.1c0.5,2.8,2.9,4.9,5.8,4.9h43.7c0.2,0,0.5,0,0.7-0.1c1.6-0.2,3.1-1,4-2.3
			c0.8-1,1.2-2.3,1.1-3.6V7.2c0-0.1,0-0.1,0-0.2c0-3.2-2.7-5.9-5.9-5.8c0,0,0,0-0.1,0H7.1c-0.2,0-0.5,0-0.7,0
			c-1.6,0.2-3.1,1-4.1,2.3C1.6,4.5,1.1,5.7,1.1,7L1.2,28.8 M28.8,57.7c-7.2,0-14.4,0-21.6,0c-1,0-2.1-0.2-3-0.6
			c-2.2-1-3.8-3-4.1-5.5C0,51.3,0,51,0,50.6c0-14.5,0-29,0-43.5c-0.1-3.9,3-7,6.9-7.1C7,0,7,0,7.1,0.1h29.8c4.6,0,9.2,0,13.9,0
			C53.5,0,56,1.6,57,4.2c0.4,0.9,0.7,2,0.6,3V35c0,5.2,0,10.5,0,15.7c0.1,2.5-1.2,4.8-3.3,6c-1,0.7-2.2,1-3.5,1L28.8,57.7L28.8,57.7
			z"/>
	</g>
</g>
</svg>
