<?xml version="1.0" encoding="utf-8"?>
<!-- Generator: Adobe Illustrator 24.0.2, SVG Export Plug-In . SVG Version: 6.00 Build 0)  -->
<svg version="1.1" id="Calque_1" xmlns="http://www.w3.org/2000/svg" xmlns:xlink="http://www.w3.org/1999/xlink" x="0px" y="0px"
	 viewBox="0 0 57.7 57.7" style="enable-background:new 0 0 57.7 57.7;" xml:space="preserve">
<style type="text/css">
	.st0{fill:#FFFFFF;}
</style>
<title>END-CONTRACT</title>
<g id="Calque_2_1_">
	<g id="Calque_1-2">
		<path class="st0" d="M39.4,40.9c-0.6,0.6-1.2,1.3-1.6,2l-0.5-1.2c-0.2-0.5-0.7-0.9-1.2-0.9c-0.6,0-1.1,0.2-1.4,0.7L34.4,42
			l-0.3-2.9c-0.1-0.8-0.7-1.4-1.5-1.4c-0.6,0-1.1,0.4-1.3,1l-1.8,5.4c-0.1,0.4,0.1,0.8,0.5,0.9c0.1,0,0.1,0.1,0.2,0.1
			c0.3,0,0.6-0.2,0.7-0.5l1.8-5.4l0.3,3c0.1,0.6,0.5,1.1,1.1,1.3c0.6,0.2,1.3-0.1,1.6-0.7l0.3-0.4l0.5,1.1c0.2,0.5,0.6,0.8,1.1,0.9
			c0.5,0.1,1-0.1,1.4-0.5c0.6-0.7,1.2-1.4,1.7-2.2c0.1-0.2,0.1-0.8-0.1-1S39.6,40.8,39.4,40.9"/>
		<path class="st0" d="M44.1,48.8c0,0.4-0.3,0.7-0.7,0.7H14.3c-0.4,0-0.7-0.3-0.7-0.7V9.4c0-0.4,0.3-0.7,0.7-0.7h10.4L22.7,13l4.6,9
			l-3.4,13h1.3l6.6-13.4L29.2,13l1.9-4.3h12.3c0.4,0,0.7,0.3,0.7,0.7V48.8z M29.5,8.8l-1.9,4.1l2.5,8.8L26.9,29l1.9-7.2L24.3,13
			l2-4.3l0.5-1.5H14.3c-1.2,0-2.2,1-2.2,2.2c0,0,0,0,0,0v39.4c0,1.2,1,2.2,2.2,2.2c0,0,0,0,0,0h29.1c1.2,0,2.2-1,2.2-2.2l0,0V9.4
			l0,0c0-1.2-1-2.2-2.2-2.2l0,0H30L29.5,8.8z"/>
		<path class="st0" d="M16.8,15.8c0,0.6,0.5,0.7,1.1,0.7h6.6l-0.8-1.5h-5.8C17.3,15.1,16.8,15.2,16.8,15.8"/>
		<path class="st0" d="M39.6,16.5c0.6,0,1.1-0.1,1.1-0.7s-0.5-0.7-1.1-0.7h-9.8l0.4,1.5H39.6z"/>
		<path class="st0" d="M35.2,20.9c0.6,0,1.1-0.1,1.1-0.7s-0.5-0.7-1.1-0.7h-4.1l0.4,1.5H35.2z"/>
		<path class="st0" d="M17.9,19.4c-0.6,0-1.1,0.1-1.1,0.7s0.5,0.7,1.1,0.7h8.8L26,19.4H17.9z"/>
		<path class="st0" d="M17.9,23.8c-0.6,0-1.1,0.1-1.1,0.7s0.5,0.7,1.1,0.7h8.6l0.3-1.5H17.9z"/>
		<path class="st0" d="M35.2,25.3c0.6,0,1.1-0.1,1.1-0.7s-0.5-0.7-1.1-0.7h-4.6l-0.8,1.5H35.2z"/>
		<path class="st0" d="M35.2,29.7c0.6,0,1.1-0.1,1.1-0.7s-0.5-0.7-1.1-0.7h-6.9l-0.8,1.5H35.2z"/>
		<path class="st0" d="M17.9,28.2c-0.6,0-1.1,0.1-1.1,0.7s0.5,0.7,1.1,0.7h7.6l0.3-1.5H17.9z"/>
		<path class="st0" d="M1.1,28.8c0,7.2,0,14.5,0,21.7c0,0.4,0,0.7,0.1,1.1c0.5,2.8,2.9,4.9,5.8,4.9h43.7c3.2,0,5.9-2.6,5.9-5.9
			c0,0,0-0.1,0-0.1V7c0-3.2-2.7-5.9-5.9-5.8c0,0,0,0-0.1,0H7.1c-0.2,0-0.5,0-0.7,0c-1.6,0.2-3.1,1-4.1,2.3C1.5,4.5,1.1,5.7,1.1,7
			V28.8 M28.8,57.7H7.2c-1,0-2.1-0.2-3-0.6c-2.2-1-3.8-3-4.1-5.5C0,51.3,0,51,0,50.6c0-14.5,0-29,0-43.5c0-2.8,1.7-5.4,4.2-6.5
			C5.1,0.2,6.1,0,7.1,0h29.8c4.6,0,9.2,0,13.8,0c2.8,0,5.3,1.6,6.3,4.1c0.4,0.9,0.6,2,0.6,3V35c0,5.2,0,10.5,0,15.7
			c0,2.4-1.2,4.7-3.3,6c-1,0.7-2.3,1-3.5,1L28.8,57.7L28.8,57.7z"/>
	</g>
</g>
</svg>
