<?xml version="1.0" encoding="utf-8"?>
<!-- Generator: Adobe Illustrator 24.0.2, SVG Export Plug-In . SVG Version: 6.00 Build 0)  -->
<svg version="1.1" id="Calque_1" xmlns="http://www.w3.org/2000/svg" xmlns:xlink="http://www.w3.org/1999/xlink" x="0px" y="0px"
	 viewBox="0 0 57.7 57.7" style="enable-background:new 0 0 57.7 57.7;" xml:space="preserve">
<style type="text/css">
	.st0{fill:#FFFFFF;}
</style>
<title>FINE-TUNING</title>
<g id="Calque_2_1_">
	<g id="Calque_1-2">
		<path class="st0" d="M48.7,49.5c-0.4,1.5-1.9,2.4-3.4,2c-1-0.3-1.8-1.1-2-2.1c-0.1-0.6-0.1-1.2-0.1-1.8c1.8,0.6,3.7,0.6,5.5,0
			c0,0,0,0.1,0,0.1C48.8,48.2,48.8,48.8,48.7,49.5 M48.8,46.2c-1.3,0.6-2.8,0.7-4.3,0.5c-0.7-0.1-1.5-0.4-2.1-0.7l-0.4-0.2
			c0,0.1,0,0.1-0.1,0.2c0,1,0,2,0,2.9c0,0.2,0,0.4,0.1,0.7c0.4,2.1,2.5,3.5,4.6,3.1c1.8-0.4,3.1-1.9,3.1-3.8c0-0.9,0-1.9,0-2.8
			c0-0.1,0-0.1,0-0.2L48.8,46.2"/>
		<path class="st0" d="M43.9,7.4c1-1.2,2.7-1.3,3.9-0.3c0.5,0.4,0.8,1,0.9,1.7c0,0.2,0,0.4,0,0.5v21.3c0,0.1,0,0.2,0,0.4
			c-0.9-0.3-1.8-0.4-2.7-0.5c-0.9,0-1.9,0.2-2.8,0.5c0-0.1,0-0.1,0-0.2c0-0.1,0-0.1,0-0.2c0-7.1,0-14.1,0-21.1
			C43.2,8.7,43.5,8,43.9,7.4 M43,32.3c1.4-0.6,2.9-0.8,4.3-0.5c0.8,0.2,1.5,0.4,2.2,0.8l0.4,0.2V9.5c0-0.3,0-0.5,0-0.8
			c-0.3-2.1-2.3-3.6-4.4-3.3c-1.9,0.3-3.4,1.9-3.4,3.9v23.2c0,0.1,0,0.1,0,0.3L43,32.3"/>
		<path class="st0" d="M29.7,51.5c-1.5,0.3-3-0.7-3.3-2.2c0-0.1,0-0.2,0-0.3c0-0.2,0-0.4,0-0.6V29.5c0-0.1,0-0.3,0-0.5
			c0.9,0.3,1.8,0.4,2.8,0.5c0.9,0,1.9-0.2,2.8-0.5c0,0.1,0,0.2,0,0.3c0,6.5,0,12.9,0,19.3C31.9,50,31,51.2,29.7,51.5 M33.1,27.8
			c0-0.1,0-0.3,0-0.4l-0.3,0.1l-0.7,0.3c-1.3,0.5-2.6,0.7-4,0.5c-0.7-0.1-1.5-0.3-2.1-0.7l-0.6-0.3c0,0.1,0,0.3,0,0.4v21
			c0,0.3,0,0.5,0.1,0.8c0.3,2.1,2.2,3.5,4.3,3.2c1.6-0.2,2.9-1.2,3.3-2.8c0.1-0.4,0.2-0.9,0.2-1.4L33.1,27.8"/>
		<path class="st0" d="M12.5,6.5C13.9,6.5,15,7.6,15.1,9c0,0.2,0,0.4,0,0.6v17.6c0,0.1,0,0.3,0,0.5c-0.9-0.3-1.8-0.4-2.8-0.5
			c-0.9,0-1.9,0.2-2.8,0.5c0-0.1,0-0.2,0-0.3c0-6,0-12,0-18C9.6,7.7,10.9,6.5,12.5,6.5C12.5,6.5,12.5,6.5,12.5,6.5 M8.5,29.4
			l0.7-0.3c2-1,4.4-1,6.5,0l0.7,0.3v-20c0-0.3,0-0.5-0.1-0.8c-0.4-2.1-2.4-3.6-4.5-3.2c-0.2,0-0.3,0.1-0.5,0.1
			C9.6,6,8.5,7.6,8.5,9.4c0,6.6,0,13.1,0,19.7C8.5,29.1,8.5,29.2,8.5,29.4"/>
		<path class="st0" d="M12.4,40.1c-2.3,0-4.2-1.9-4.2-4.2c0-2.3,1.9-4.2,4.2-4.2c2.3,0,4.2,1.9,4.2,4.2c0,0,0,0,0,0
			C16.6,38.2,14.7,40.1,12.4,40.1C12.4,40.1,12.4,40.1,12.4,40.1 M12.4,30.5c-3,0-5.4,2.4-5.4,5.4c0,3,2.4,5.4,5.4,5.4
			s5.4-2.4,5.4-5.4c0,0,0,0,0,0C17.7,32.9,15.4,30.5,12.4,30.5C12.4,30.5,12.4,30.5,12.4,30.5"/>
		<path class="st0" d="M29.2,25c-2.3,0-4.2-1.9-4.2-4.2s1.9-4.2,4.2-4.2c2.3,0,4.2,1.9,4.2,4.2C33.4,23.1,31.5,25,29.2,25
			 M29.2,15.4c-3,0-5.4,2.4-5.4,5.4c0,3,2.4,5.4,5.4,5.4c3,0,5.4-2.4,5.4-5.3C34.5,17.8,32.1,15.4,29.2,15.4
			C29.2,15.4,29.2,15.4,29.2,15.4"/>
		<path class="st0" d="M46,35c2.3,0,4.2,1.9,4.2,4.2c0,2.3-1.9,4.2-4.2,4.2c-2.3,0-4.2-1.9-4.2-4.2c0,0,0,0,0,0
			C41.8,36.9,43.7,35,46,35 M46,44.6c3,0,5.4-2.4,5.4-5.3c0-3-2.4-5.4-5.3-5.4c-3,0-5.4,2.4-5.4,5.3c0,0,0,0,0,0
			C40.6,42.2,43,44.6,46,44.6C46,44.6,46,44.6,46,44.6"/>
		<path class="st0" d="M15.2,48.6c0.1,1.5-1,2.9-2.6,3s-2.9-1-3-2.6c0-0.1,0-0.2,0-0.3c0-1.5,0-2.9,0-4.3c0-0.1,0-0.2,0-0.3
			c1.8,0.6,3.7,0.6,5.5,0c0,0.2,0,0.3,0,0.4L15.2,48.6 M15.3,42.8c-1,0.5-2.1,0.7-3.3,0.6c-1,0-2.1-0.3-3-0.8l-0.6-0.3
			c0,0.2,0,0.3,0,0.4c0,2,0,3.9,0,5.8c0,0.2,0,0.4,0,0.6c0.3,2.2,2.2,3.7,4.4,3.4c2-0.2,3.4-1.9,3.4-3.9c0-2,0-4.1,0-6.1
			c0-0.1,0-0.1,0-0.3L15.3,42.8"/>
		<path class="st0" d="M26.4,9.3c0-1.5,1.2-2.8,2.7-2.9c1.5,0,2.8,1.2,2.9,2.7l0,0c0,1,0,2,0,3c0,0.1,0,0.1,0,0.3
			c-0.9-0.3-1.8-0.4-2.7-0.4c-0.9,0-1.9,0.2-2.8,0.4c0-0.1,0-0.2,0-0.3C26.5,11.2,26.5,10.2,26.4,9.3 M25.6,14.1l0.7-0.3
			c1.3-0.6,2.8-0.8,4.2-0.5c0.8,0.2,1.6,0.4,2.3,0.8l0.3,0.1c0-0.1,0-0.2,0-0.3c0-1.5,0-3.1,0-4.6c0-0.3-0.1-0.5-0.2-0.8
			c-0.4-2.1-2.5-3.5-4.6-3.1c-1.9,0.4-3.2,2-3.2,3.9V14c0,0.1,0,0.2,0,0.3l0.2-0.1"/>
		<path class="st0" d="M1.1,28.8c0,7.2,0,14.5,0,21.7c0,0.4,0,0.7,0.1,1.1c0.5,2.8,2.9,4.9,5.8,4.9h43.7c3.2,0,5.9-2.6,5.9-5.9
			c0,0,0-0.1,0-0.1V7c0-3.2-2.7-5.9-5.9-5.8c0,0,0,0-0.1,0H7.1c-0.2,0-0.5,0-0.7,0c-1.6,0.2-3.1,1-4.1,2.3C1.5,4.5,1.1,5.7,1.1,7
			V28.8 M28.8,57.7H7.2c-1,0-2.1-0.2-3-0.6c-2.2-1-3.8-3-4.1-5.5C0,51.3,0,51,0,50.6c0-14.5,0-29,0-43.5c0-2.8,1.7-5.4,4.2-6.5
			C5.1,0.2,6.1,0,7.1,0h29.8c4.6,0,9.2,0,13.8,0c2.8,0,5.3,1.6,6.3,4.1c0.4,0.9,0.6,2,0.6,3V35c0,5.2,0,10.5,0,15.7
			c0,2.4-1.2,4.7-3.3,6c-1,0.7-2.3,1-3.5,1L28.8,57.7"/>
	</g>
</g>
</svg>
