<?xml version="1.0" encoding="utf-8"?>
<!-- Generator: Adobe Illustrator 24.0.2, SVG Export Plug-In . SVG Version: 6.00 Build 0)  -->
<svg version="1.1" id="Calque_1" xmlns="http://www.w3.org/2000/svg" xmlns:xlink="http://www.w3.org/1999/xlink" x="0px" y="0px"
	 viewBox="0 0 57.7 57.7" style="enable-background:new 0 0 57.7 57.7;" xml:space="preserve">
<style type="text/css">
	.st0{fill:#FFFFFF;}
</style>
<title>GEOREF</title>
<g id="Calque_2_1_">
	<g id="Calque_1-2">
		<path class="st0" d="M28.8,27.3c4,0,7.3-3,7.3-6.7s-3.3-6.7-7.3-6.7s-7.3,3-7.3,6.7S24.8,27.3,28.8,27.3 M28.8,15.3
			c3.1-0.1,5.7,2.3,5.8,5.3c-0.1,3.1-2.7,5.5-5.8,5.4c-3.1,0.1-5.7-2.3-5.8-5.4c0,0,0,0,0,0C23.1,17.5,25.7,15.1,28.8,15.3"/>
		<path class="st0" d="M17.4,25.6l10.8,16c0.1,0.2,0.4,0.3,0.6,0.3c0.2,0,0.5-0.1,0.6-0.3l10.8-16c0.7-1.1,1.2-2.2,1.5-3.5
			c0.1-0.7,0.2-1.3,0.2-2c0-1.6-0.3-3.1-1-4.5c-0.7-1.4-1.7-2.7-2.9-3.7c-1.2-1.1-2.6-1.9-4.2-2.5c-3.3-1.2-6.9-1.2-10.2,0
			c-1.5,0.6-2.9,1.4-4.2,2.5c-1.2,1-2.1,2.3-2.8,3.7c-0.7,1.4-1,2.9-1,4.5c0,0.7,0.1,1.3,0.2,2C16.2,23.4,16.7,24.6,17.4,25.6
			 M18.1,16.2c0.6-1.2,1.4-2.3,2.5-3.2c1.1-1,2.3-1.7,3.7-2.2c2.9-1.1,6.1-1.1,9.1,0c1.4,0.5,2.6,1.2,3.7,2.2c1,0.9,1.9,2,2.5,3.2
			c0.6,1.2,0.9,2.6,0.9,4c0,0.6-0.1,1.2-0.2,1.8c-0.2,1.1-0.7,2.1-1.3,3L28.8,40L18.6,25c-0.6-0.9-1-1.9-1.3-3
			C17,20.1,17.2,18,18.1,16.2"/>
		<path class="st0" d="M50.6,47.7l-7.3-12c-0.1-0.2-0.4-0.4-0.6-0.3H35c-0.4,0-0.7,0.3-0.7,0.7c0,0.4,0.3,0.7,0.7,0.7h7.2l6.5,10.7
			H9l6.5-10.7h7.2c0.4,0,0.7-0.3,0.7-0.7c0-0.4-0.3-0.7-0.7-0.7H15c-0.3,0-0.5,0.1-0.6,0.3l-7.3,12c-0.1,0.2-0.1,0.5,0,0.7
			c0.1,0.2,0.4,0.3,0.6,0.3h42.2c0.3,0,0.5-0.1,0.6-0.3C50.7,48.1,50.7,47.9,50.6,47.7"/>
		<path class="st0" d="M1.1,28.8v21.7c0,0.4,0,0.7,0.1,1.1c0.5,2.8,2.9,4.9,5.8,4.9h43.7c3.2,0,5.9-2.6,5.9-5.9c0,0,0-0.1,0-0.1V7
			c0-3.2-2.7-5.9-5.9-5.8c0,0,0,0-0.1,0H7.1c-0.2,0-0.5,0-0.7,0c-1.6,0.2-3.1,1-4.1,2.3C1.5,4.5,1.1,5.7,1.1,7V28.8 M28.8,57.7H7.2
			c-1,0-2.1-0.2-3-0.6c-2.2-1-3.8-3-4.1-5.5C0,51.3,0,51,0,50.6c0-14.5,0-29,0-43.5c0-2.8,1.7-5.4,4.2-6.5C5.1,0.2,6.1,0,7.1,0h29.8
			c4.6,0,9.2,0,13.8,0c2.8,0,5.2,1.6,6.3,4.1c0.4,0.9,0.6,2,0.6,3V35c0,5.2,0,10.5,0,15.7c0,2.4-1.2,4.7-3.3,6c-1,0.7-2.3,1-3.5,1
			L28.8,57.7L28.8,57.7z"/>
	</g>
</g>
</svg>
