<svg xmlns="http://www.w3.org/2000/svg" viewBox="0 0 57.67 57.69"><defs><style>.cls-1{fill:#fff;}</style></defs><title>HOME_ACTIVE</title><g id="Calque_2" data-name="Calque 2"><g id="Calque_1-2" data-name="Calque 1"><path class="cls-1" d="M50.1,26a.76.76,0,0,0,0-.16h0a.71.71,0,0,0,0-.2s0-.05,0-.07a.57.57,0,0,0-.08-.13l-.08-.1v0l-21.07-19-21.06,19a.7.7,0,0,0,0,1,.76.76,0,0,0,1,0L28.83,8.31l10.49,9.44,4.2,3.78,4,3.61H45.7a.71.71,0,0,0-.71.71V46.49H34.71V29.4H23V46.49H12.68V27.61h0a.73.73,0,0,0-1.45.05V47.91H24.43V30.83h8.81V47.91H46.46V26.57h2.95a.71.71,0,0,0,.67-.48s0-.05,0-.08"/><path class="cls-1" d="M1.15,28.84q0,10.85,0,21.69a7,7,0,0,0,.07,1.12A5.85,5.85,0,0,0,7,56.54H50.66a5.86,5.86,0,0,0,5.86-6V7a5.88,5.88,0,0,0-6-5.82H7.09c-.23,0-.46,0-.69,0A5.73,5.73,0,0,0,2.33,3.48,5.63,5.63,0,0,0,1.15,7V28.84M28.84,57.68H7.19a7.07,7.07,0,0,1-3-.59A6.9,6.9,0,0,1,.07,51.63a7.34,7.34,0,0,1-.06-1Q0,28.84,0,7.1A7.09,7.09,0,0,1,4.24.57,7.17,7.17,0,0,1,7.06,0H36.82c4.61,0,9.23,0,13.85,0A6.77,6.77,0,0,1,57,4.13a6.79,6.79,0,0,1,.62,3V35c0,5.23,0,10.45,0,15.68a6.8,6.8,0,0,1-3.33,5.95,6.61,6.61,0,0,1-3.49,1h-22"/></g></g></svg>