<?xml version="1.0" encoding="utf-8"?>
<!-- Generator: Adobe Illustrator 24.0.2, SVG Export Plug-In . SVG Version: 6.00 Build 0)  -->
<svg version="1.1" id="Calque_1" xmlns="http://www.w3.org/2000/svg" xmlns:xlink="http://www.w3.org/1999/xlink" x="0px" y="0px"
	 viewBox="0 0 57.7 57.7" style="enable-background:new 0 0 57.7 57.7;" xml:space="preserve">
<style type="text/css">
	.st0{fill:#FFFFFF;}
</style>
<title>KPI</title>
<g id="Calque_2_1_">
	<g id="Calque_1-2">
		<rect x="8.4" y="48.5" class="st0" width="40.6" height="1.3"/>
		<path class="st0" d="M17.9,39.8h-4.7c-0.4,0-0.7,0.3-0.7,0.7v6.1c0,0.4,0.3,0.7,0.7,0.7h4.7c0.4,0,0.7-0.3,0.7-0.7c0,0,0,0,0,0
			v-6.1C18.5,40.1,18.2,39.8,17.9,39.8L17.9,39.8 M17.2,45.8h-3.4v-4.7h3.4V45.8z"/>
		<path class="st0" d="M26.3,36.4h-4.7c-0.4,0-0.7,0.3-0.7,0.7c0,0,0,0,0,0v9.5c0,0.4,0.3,0.7,0.7,0.7c0,0,0,0,0,0h4.7
			c0.4,0,0.7-0.3,0.7-0.7v-9.5C27,36.7,26.7,36.4,26.3,36.4 M25.6,45.9h-3.4v-8.1h3.4V45.9z"/>
		<path class="st0" d="M34.7,31.7H30c-0.4,0-0.7,0.3-0.7,0.7l0,0v14.2c0,0.4,0.3,0.7,0.7,0.7h4.7c0.4,0,0.7-0.3,0.7-0.7c0,0,0,0,0,0
			V32.3C35.4,32,35.1,31.7,34.7,31.7C34.7,31.7,34.7,31.7,34.7,31.7 M34.1,45.8h-3.4V33h3.4L34.1,45.8z"/>
		<path class="st0" d="M43.3,22.2h-4.8c-0.4,0-0.7,0.3-0.7,0.7v23.6c0,0.4,0.3,0.7,0.7,0.7h4.8c0.4,0,0.7-0.3,0.7-0.7V22.9
			C43.9,22.5,43.6,22.2,43.3,22.2 M42.6,45.8h-3.4V23.6h3.4V45.8z"/>
		<path class="st0" d="M44.3,14.3c0-0.1,0-0.1,0-0.2c0-0.1,0-0.1-0.1-0.2V14l0,0c0-0.1-0.1-0.1-0.2-0.2c-0.1,0-0.1-0.1-0.2-0.1
			L40,13c-0.4,0-0.7,0.2-0.7,0.5c0,0.3,0.2,0.6,0.5,0.7l2.2,0.4L12,35c-0.3,0.1-0.5,0.5-0.4,0.8c0.1,0.3,0.5,0.5,0.8,0.4
			c0.1,0,0.2-0.1,0.3-0.2l30.1-20.3L42.4,18c-0.1,0.3,0.2,0.7,0.5,0.8c0.4,0.1,0.7-0.2,0.8-0.5l0.7-3.8L44.3,14.3"/>
		<rect x="8.4" y="9.3" class="st0" width="1.4" height="40.6"/>
		<path class="st0" d="M1.1,28.8c0,7.2,0,14.5,0,21.7c0,0.4,0,0.7,0.1,1.1c0.5,2.8,2.9,4.9,5.8,4.9h43.7c3.2,0,5.9-2.6,5.9-5.9
			c0,0,0-0.1,0-0.1V7c0-3.2-2.7-5.9-5.9-5.8c0,0,0,0-0.1,0H7.1c-0.2,0-0.5,0-0.7,0c-1.6,0.2-3.1,1-4.1,2.3C1.5,4.5,1.1,5.7,1.1,7
			V28.8 M28.8,57.7H7.2c-1,0-2.1-0.2-3-0.6c-2.2-1-3.8-3-4.1-5.5C0,51.3,0,51,0,50.6c0-14.5,0-29,0-43.5c0-2.8,1.7-5.4,4.2-6.5
			C5.1,0.2,6.1,0,7.1,0h29.8c4.6,0,9.2,0,13.8,0c2.8,0,5.3,1.6,6.3,4.1c0.4,0.9,0.6,2,0.6,3V35c0,5.2,0,10.5,0,15.7
			c0,2.4-1.2,4.7-3.3,6c-1,0.7-2.3,1-3.5,1L28.8,57.7L28.8,57.7z"/>
	</g>
</g>
</svg>
