<?xml version="1.0" encoding="utf-8"?>
<!-- Generator: Adobe Illustrator 24.0.2, SVG Export Plug-In . SVG Version: 6.00 Build 0)  -->
<svg version="1.1" id="Calque_1" xmlns="http://www.w3.org/2000/svg" xmlns:xlink="http://www.w3.org/1999/xlink" x="0px" y="0px"
	 viewBox="0 0 57.7 57.7" style="enable-background:new 0 0 57.7 57.7;" xml:space="preserve">
<style type="text/css">
	.st0{fill:#FFFFFF;}
</style>
<title>NEW-CLIENT</title>
<g id="Calque_2_1_">
	<g id="Calque_1-2">
		<path class="st0" d="M37.8,30.7l-6.5-4c-0.1,0-0.2-0.1-0.3-0.1l-2-0.4l-2.8,1.1L22,29.2c-0.8,0.4-1.7,0-2-0.8s0-1.7,0.8-2l0,0
			l6.6-3l7.8,0.7h0.1c0.2,0,0.3-0.1,0.5-0.2l0.7-0.6l9.4,9.3l-1.8,1.9l-3.5-2.1L37.8,30.7z M39.7,33.5l5.2,3.2
			c0.7,0.5,0.9,1.4,0.5,2.1c-0.4,0.7-1.4,1-2.1,0.5c0,0,0,0,0,0l-5.6-3.4c-0.3-0.2-0.8-0.1-1,0.2c0,0,0,0,0,0
			c-0.2,0.3-0.1,0.8,0.2,1c0,0,0,0,0,0l4.3,2.6c0.7,0.5,0.9,1.4,0.4,2.2c-0.4,0.7-1.3,0.9-2,0.5L35.7,40c-0.3-0.2-0.8-0.1-1,0.2
			c-0.2,0.3-0.1,0.8,0.2,1c0,0,0,0,0,0l2.6,1.6c0.7,0.5,0.9,1.5,0.4,2.2c-0.4,0.6-1.3,0.8-2,0.5L33.7,44c-0.3-0.2-0.7,0-0.9,0.3
			c-0.2,0.3-0.1,0.8,0.2,1c0,0,0,0,0,0l1,0.6c0.7,0.5,0.9,1.4,0.5,2.1c0,0,0,0,0,0c-0.5,0.7-1.4,1-2.1,0.5L32,48.3l0.3-0.5
			c0.4-0.7,0.6-1.5,0.4-2.3c-0.2-0.8-0.7-1.4-1.3-1.8c-0.5-0.3-1.1-0.4-1.7-0.4c0.1-0.5,0.1-0.9,0-1.4c-0.2-0.8-0.7-1.4-1.4-1.8
			c-0.5-0.3-1.1-0.4-1.7-0.4c0.4-1.6-0.6-3.2-2.1-3.6c-0.3-0.1-0.6-0.1-0.9-0.1c0.4-1.6-0.5-3.2-2.1-3.6c-1.3-0.3-2.6,0.2-3.3,1.3
			l-2.9,4.7l-3-1.7l4.4-11.2l2.4,0.4c-1,1.3-0.7,3.2,0.7,4.2c0.8,0.6,1.9,0.7,2.8,0.4l4.1-1.9l2-1l1.9,0.3l6.3,4L39.7,33.5z
			 M31.1,47l-1.5,2.5c-0.4,0.7-1.4,1-2.1,0.5c-0.7-0.4-1-1.4-0.5-2.1l1.6-2.6c0.4-0.7,1.4-0.9,2.1-0.5C31.3,45.3,31.5,46.3,31.1,47
			 M25.7,47.1c-0.4,0.7-1.4,0.9-2.1,0.5c0,0,0,0,0,0c-0.7-0.5-1-1.4-0.5-2.1l2.4-3.8c0.5-0.7,1.4-0.9,2.1-0.5c0.7,0.5,1,1.4,0.5,2.2
			L25.7,47.1z M21.9,44.8c-0.4,0.7-1.4,0.9-2.1,0.5c0,0,0,0,0,0c-0.7-0.5-1-1.4-0.5-2.1l3.1-5.2c0.5-0.7,1.4-0.9,2.1-0.5
			c0.7,0.5,1,1.4,0.5,2.2L21.9,44.8z M18,42.4c-0.4,0.7-1.4,1-2.1,0.5s-1-1.4-0.5-2.1l0,0l3.9-6.4c0.4-0.7,1.4-1,2.1-0.5
			c0.8,0.4,1,1.4,0.6,2.2L18,42.4z M52.6,30.9c-0.3-0.3-0.7-0.3-1,0c0,0,0,0,0,0l-2.9,2.7l-13-12.9L49.3,7.8c0.3-0.3,0.3-0.7,0-1
			s-0.7-0.3-1,0L34.2,20.1c-0.3,0.3-0.3,0.7,0,1l1.2,1.1L35,22.6l-7.7-0.7c-0.1,0-0.2,0-0.4,0.1l-6.1,2.8h-0.1l-3.5-0.6l0.3-0.7
			c0.1-0.4,0-0.8-0.4-0.9L5.8,18c-0.4-0.1-0.8,0-0.9,0.4c-0.1,0.4,0,0.8,0.4,0.9c0,0,0,0,0,0l10.6,4.2l-6.3,16l-3.9-1.4
			C5.4,38,5,38.2,4.9,38.6C4.8,39,5,39.4,5.3,39.5l0,0l4.5,1.6c0.4,0.1,0.7-0.1,0.9-0.4l1-2.7l2.7,1.5L14.2,40
			c-0.8,1.4-0.3,3.3,1.1,4.1c0.7,0.4,1.5,0.5,2.3,0.3c0.2,1.6,1.8,2.7,3.4,2.5c0.2,0,0.3-0.1,0.5-0.1c0.1,0.9,0.6,1.6,1.4,2.1
			c0.7,0.4,1.6,0.6,2.5,0.3c0.1,0.9,0.6,1.6,1.4,2.1c1.1,0.7,2.5,0.6,3.4-0.2c0.2-0.2,0.5-0.4,0.6-0.7l0.5-0.8l0.4,0.3
			c1.1,0.6,2.5,0.5,3.4-0.3c0.2-0.2,0.5-0.4,0.6-0.7c0.3-0.5,0.5-1.1,0.5-1.7c0.2,0.1,0.5,0.1,0.7,0.1c1.7,0,3-1.3,3-3
			c0,0,0-0.1,0-0.1C40,44,40.2,44,40.5,44c1,0,2-0.5,2.5-1.4c0.3-0.5,0.5-1.1,0.4-1.7c0.2,0.1,0.5,0.1,0.7,0.1
			c1.7-0.1,2.9-1.5,2.8-3.1c0-0.9-0.5-1.8-1.3-2.3l-0.5-0.3l1.6-1.7l1.5,1.5c0.3,0.3,0.7,0.3,1,0c0,0,0,0,0,0l3.3-3.1
			C52.9,31.6,52.9,31.1,52.6,30.9"/>
		<path class="st0" d="M1.1,28.8c0,7.2,0,14.5,0,21.7c0,0.4,0,0.7,0.1,1.1c0.5,2.8,2.9,4.9,5.8,4.9h43.7c3.2,0,5.9-2.6,5.9-5.9
			c0,0,0-0.1,0-0.1V7c0-3.2-2.7-5.9-5.9-5.8c0,0,0,0-0.1,0H7.1c-0.2,0-0.5,0-0.7,0c-1.6,0.2-3.1,1-4.1,2.3C1.5,4.5,1.1,5.7,1.1,7
			V28.8 M28.8,57.7H7.2c-1,0-2.1-0.2-3-0.6c-2.2-1-3.8-3-4.1-5.5C0,51.3,0,51,0,50.6c0-14.5,0-29,0-43.5c0-2.8,1.7-5.4,4.2-6.5
			C5.1,0.2,6.1,0,7.1,0h29.8c4.6,0,9.2,0,13.8,0c2.8,0,5.3,1.6,6.3,4.1c0.4,0.9,0.6,2,0.6,3V35c0,5.2,0,10.5,0,15.7
			c0,2.4-1.2,4.7-3.3,6c-1,0.7-2.3,1-3.5,1L28.8,57.7"/>
	</g>
</g>
</svg>
