<?xml version="1.0" encoding="utf-8"?>
<!-- Generator: Adobe Illustrator 24.0.2, SVG Export Plug-In . SVG Version: 6.00 Build 0)  -->
<svg version="1.1" id="Calque_1" xmlns="http://www.w3.org/2000/svg" xmlns:xlink="http://www.w3.org/1999/xlink" x="0px" y="0px"
	 viewBox="0 0 57.7 57.7" style="enable-background:new 0 0 57.7 57.7;" xml:space="preserve">
<style type="text/css">
	.st0{fill:#FFFFFF;}
</style>
<title>PARAMS</title>
<g id="Calque_2_1_">
	<g id="Calque_1-2">
		<path class="st0" d="M51.8,37.2h-2c-0.2-0.5-0.4-1.1-0.7-1.5l1.4-1.4c0.1-0.1,0.2-0.3,0.2-0.5c0-0.2-0.1-0.4-0.2-0.5l-3-3
			c-0.3-0.3-0.7-0.3-1,0l-1.4,1.4c-0.5-0.3-1-0.5-1.6-0.6v-2c0-0.4-0.3-0.7-0.7-0.7h-4.4c-0.4,0-0.7,0.3-0.7,0.7v2
			c-0.5,0.2-1.1,0.4-1.6,0.6l-1.4-1.4c-0.1-0.1-0.3-0.2-0.5-0.2c-0.2,0-0.4,0.1-0.5,0.2l-3,3c-0.1,0.1-0.2,0.3-0.2,0.5
			c0,0.2,0.1,0.4,0.2,0.5l1.4,1.4c-0.3,0.5-0.5,1-0.7,1.5h-2c-0.4,0-0.7,0.3-0.7,0.7c0,0,0,0,0,0v4.2c0,0.4,0.3,0.7,0.7,0.7h2
			c0.2,0.5,0.4,1.1,0.7,1.5l-1.4,1.4c-0.3,0.3-0.3,0.7,0,1l3,3c0.1,0.1,0.3,0.2,0.5,0.2c0.2,0,0.4-0.1,0.5-0.2l1.4-1.4
			c0.5,0.3,1,0.5,1.6,0.7v2c0,0.4,0.3,0.7,0.7,0.7h4.3c0.4,0,0.7-0.3,0.7-0.7v-2c0.5-0.2,1.1-0.4,1.6-0.7l1.4,1.4
			C46.6,50,46.8,50,47,50c0.2,0,0.4-0.1,0.5-0.2l3-3c0.1-0.1,0.2-0.3,0.2-0.5c0-0.2-0.1-0.4-0.2-0.5l-1.4-1.4c0.3-0.5,0.5-1,0.7-1.5
			h2c0.4,0,0.7-0.3,0.7-0.7v-4.2C52.5,37.5,52.2,37.2,51.8,37.2 M51,41.4h-1.9c-0.3,0-0.6,0.2-0.7,0.5c-0.2,0.8-0.5,1.5-0.9,2.2
			c-0.2,0.3-0.1,0.7,0.1,0.9l1.3,1.3l-2,2l-1.3-1.3c-0.2-0.2-0.6-0.3-0.9-0.1c-0.7,0.4-1.4,0.7-2.2,0.9c-0.3,0.1-0.6,0.4-0.6,0.7
			v1.8h-2.8v-1.8c0-0.3-0.2-0.6-0.6-0.7c-0.8-0.2-1.5-0.5-2.2-0.9c-0.3-0.2-0.7-0.1-0.9,0.1l-1.3,1.3l-2-2l1.3-1.3
			c0.2-0.2,0.3-0.6,0.1-0.9c-0.4-0.7-0.7-1.4-0.9-2.2c-0.1-0.3-0.4-0.6-0.7-0.5h-1.8v-2.8H32c0.3,0,0.6-0.2,0.7-0.5
			c0.2-0.8,0.5-1.5,0.9-2.2c0.2-0.3,0.1-0.7-0.1-0.9l-1.3-1.3l2-2l1.3,1.3c0.2,0.2,0.6,0.3,0.9,0.1c0.7-0.4,1.4-0.7,2.2-0.9
			c0.3-0.1,0.6-0.4,0.6-0.7v-1.8H42v1.8c0,0.3,0.2,0.6,0.6,0.7c0.8,0.2,1.5,0.5,2.2,0.9c0.3,0.2,0.7,0.1,0.9-0.1l1.3-1.3l2,2
			L47.7,35c-0.2,0.2-0.3,0.6-0.1,0.9c0.4,0.7,0.7,1.4,0.9,2.2c0.1,0.3,0.4,0.6,0.7,0.5h1.8L51,41.4z"/>
		<path class="st0" d="M40.5,33.7c-3.5,0-6.3,2.8-6.3,6.3c0,3.5,2.9,6.3,6.3,6.3c3.5,0,6.3-2.8,6.3-6.3C46.8,36.5,44,33.7,40.5,33.7
			 M40.5,44.8c-2.7,0-4.9-2.2-4.9-4.8c0-2.7,2.2-4.8,4.9-4.8c2.7,0,4.9,2.2,4.9,4.8v0C45.4,42.7,43.2,44.8,40.5,44.8
			C40.5,44.8,40.5,44.8,40.5,44.8"/>
		<path class="st0" d="M44.4,21.4h-3.9c-0.3-1.2-0.8-2.3-1.4-3.3l2.8-2.8c0.1-0.1,0.2-0.3,0.2-0.5c0-0.2-0.1-0.4-0.2-0.5l-5.2-5.2
			c-0.3-0.3-0.7-0.3-1,0l-2.8,2.8c-1.1-0.6-2.2-1-3.3-1.4V6.6c0-0.4-0.3-0.7-0.7-0.7h-7.4c-0.4,0-0.7,0.3-0.7,0.7v3.9
			c-1.2,0.3-2.3,0.8-3.3,1.4l-2.8-2.8c-0.1-0.1-0.3-0.2-0.5-0.2c-0.2,0-0.4,0.1-0.5,0.2l-5.2,5.2c-0.3,0.3-0.3,0.7,0,1l2.8,2.8
			c-0.6,1-1.1,2.2-1.4,3.3h-4c-0.4,0-0.7,0.3-0.7,0.7v7.3c0,0.4,0.3,0.7,0.7,0.7h3.9c0.3,1.2,0.8,2.3,1.4,3.3l-2.8,2.8
			c-0.3,0.3-0.3,0.7,0,1l5.2,5.2c0.1,0.1,0.3,0.2,0.5,0.2c0.2,0,0.4-0.1,0.5-0.2l2.8-2.8c1.1,0.6,2.2,1,3.3,1.4v3.9
			c0,0.4,0.3,0.7,0.7,0.7h5.8c0.2,0,0.5-0.1,0.6-0.3c0.1-0.2,0.2-0.4,0.1-0.7c-0.6-1.5-0.9-3.1-0.9-4.7c0-1.6,0.3-3.1,0.8-4.6
			c0.1-0.3,0-0.5-0.1-0.7c-0.2-0.2-0.5-0.3-0.7-0.2c-0.7,0.2-1.4,0.2-2.1,0.2c-4.9,0-9-3.9-9-8.9c0,0,0,0,0,0c0-4.9,4.1-8.9,9-8.9
			c4.9,0,9,4,9,8.9c0,0.4,0,0.8-0.1,1.3c0,0.3,0.1,0.5,0.3,0.7c0.2,0.1,0.4,0.2,0.7,0.1c1.8-0.8,3.8-1.3,5.8-1.3
			c1.2,0,2.4,0.2,3.6,0.5c0.2,0.1,0.5,0,0.6-0.1c0.2-0.1,0.3-0.4,0.3-0.6v-4.2C45.1,21.7,44.7,21.4,44.4,21.4 M43.6,25.4
			c-1-0.2-2-0.3-3-0.3c-1.8,0-3.6,0.3-5.3,0.9c0-0.1,0-0.1,0-0.2c0-5.7-4.7-10.4-10.4-10.4c-5.7,0-10.4,4.6-10.4,10.4
			c0,5.7,4.7,10.4,10.4,10.4c0.4,0,0.8,0,1.2-0.1c-0.3,1.3-0.5,2.6-0.5,3.9c0,1.4,0.2,2.9,0.6,4.3h-4.1v-3.7c0-0.3-0.2-0.6-0.6-0.7
			c-1.4-0.3-2.8-0.9-4-1.7c-0.3-0.2-0.7-0.1-0.9,0.1L14,40.9l-4.2-4.1l2.7-2.6c0.2-0.2,0.3-0.6,0.1-0.9c-0.8-1.2-1.3-2.6-1.7-4
			c-0.1-0.3-0.4-0.6-0.7-0.5H6.5v-5.9h3.7c0.3,0,0.6-0.2,0.7-0.5c0.3-1.4,0.9-2.8,1.7-4c0.2-0.3,0.1-0.7-0.1-0.9l-2.7-2.6l4.2-4.2
			l2.7,2.6c0.2,0.2,0.6,0.3,0.9,0.1c1.2-0.7,2.6-1.3,4-1.6c0.3-0.1,0.6-0.4,0.6-0.7V7.3H28V11c0,0.3,0.2,0.6,0.6,0.7
			c1.4,0.3,2.8,0.9,4,1.6c0.3,0.2,0.7,0.1,0.9-0.1l2.6-2.6l4.2,4.2l-2.6,2.6c-0.2,0.2-0.3,0.6-0.1,0.9c0.8,1.2,1.3,2.6,1.7,4
			c0.1,0.3,0.4,0.6,0.7,0.5h3.7L43.6,25.4z"/>
		<path class="st0" d="M31.5,22.2c-0.2-0.4-0.6-0.5-1-0.3c0,0,0,0,0,0c-0.4,0.2-0.5,0.6-0.3,1c0,0,0,0,0,0c0.5,0.9,0.7,1.9,0.7,2.9
			c0,3.4-2.7,6.1-6.1,6.1c0,0,0,0,0,0c-3.4,0-6.1-2.7-6.1-6.1c0-3.4,2.7-6.1,6.1-6.1c1.4,0,2.7,0.5,3.8,1.3c0.3,0.2,0.8,0.2,1-0.1
			c0.2-0.3,0.2-0.8-0.1-1c-1.3-1-3-1.6-4.7-1.6c-4.1,0-7.5,3.4-7.5,7.5c0,4.2,3.4,7.5,7.6,7.5c4.2,0,7.6-3.4,7.6-7.5
			C32.5,24.5,32.1,23.3,31.5,22.2"/>
		<path class="st0" d="M40.5,36.5c-1.9,0-3.5,1.6-3.5,3.5c0,1.9,1.6,3.5,3.5,3.5c1.9,0,3.5-1.6,3.5-3.5l0,0
			C44,38.1,42.4,36.5,40.5,36.5C40.5,36.5,40.5,36.5,40.5,36.5 M40.5,42c-1.1,0-2-0.9-2-2s0.9-2,2-2c1.1,0,2,0.9,2,2
			S41.6,42,40.5,42"/>
		<path class="st0" d="M1.1,28.9v21.7c0,0.4,0,0.7,0.1,1.1c0.5,2.8,2.9,4.9,5.8,4.9h43.7c0.2,0,0.5,0,0.7,0c1.6-0.2,3.1-1,4-2.3
			c0.8-1,1.2-2.3,1.2-3.6V7.2c0-0.1,0-0.1,0-0.2c0-1.7-0.7-3.3-2-4.3c-1.1-1-2.5-1.5-4-1.5H7.1c-0.2,0-0.5,0-0.7,0
			c-1.6,0.2-3.1,1-4.1,2.3C1.6,4.4,1.1,5.7,1.2,7L1.1,28.9 M28.8,57.7H7.2c-1,0-2.1-0.2-3-0.6c-2.2-1-3.8-3-4.1-5.5
			c0-0.3-0.1-0.7-0.1-1c0-14.5,0-29,0-43.5c0-2.8,1.6-5.4,4.2-6.5C5.2,0.2,6.1,0,7.1,0h29.7c4.6,0,9.2,0,13.8,0
			c2.8-0.1,5.3,1.6,6.4,4.1c0.4,0.9,0.7,2,0.6,3V35c0,5.2,0,10.5,0,15.7c0.1,2.5-1.2,4.8-3.3,6c-1,0.7-2.2,1-3.5,1L28.8,57.7
			L28.8,57.7z"/>
	</g>
</g>
</svg>
