<?xml version="1.0" encoding="utf-8"?>
<!-- Generator: Adobe Illustrator 24.0.2, SVG Export Plug-In . SVG Version: 6.00 Build 0)  -->
<svg version="1.1" id="Calque_1" xmlns="http://www.w3.org/2000/svg" xmlns:xlink="http://www.w3.org/1999/xlink" x="0px" y="0px"
	 viewBox="0 0 57.7 57.7" style="enable-background:new 0 0 57.7 57.7;" xml:space="preserve">
<style type="text/css">
	.st0{fill:#FFFFFF;}
	.st1{fill:#01A4A6;}
</style>
<title>TOURS</title>
<g id="Calque_2_1_">
	<g id="Calque_1-2">
		<path class="st0" d="M38.8,18.3c2.1,0,3.8,1.7,3.8,3.8s-1.7,3.8-3.8,3.8h-12c-2.7-0.1-5,2-5.1,4.7c-0.1,2.7,2,5,4.7,5.1
			c0.1,0,0.3,0,0.4,0h12c2.1,0,3.8,1.7,3.8,3.8S40.8,43,38.8,43H16c-0.3,0-0.5,0.3-0.5,0.7c0,0.3,0.2,0.5,0.5,0.5h22.8
			c2.7-0.1,4.8-2.4,4.7-5.1c-0.1-2.5-2.1-4.6-4.7-4.7h-12c-2.1-0.1-3.7-1.9-3.6-3.9c0.1-1.9,1.6-3.5,3.6-3.6h12
			c2.7-0.1,4.8-2.4,4.7-5.1c-0.1-2.5-2.1-4.6-4.7-4.7h-7.7c-0.3,0-0.5,0.3-0.5,0.7c0,0.3,0.2,0.5,0.5,0.5L38.8,18.3z"/>
		<path class="st0" d="M28.2,17.7c-0.7-0.6-2.8-2.8-2.8-4.9c0-1.5,1.2-2.8,2.8-2.8s2.8,1.2,2.8,2.8C30.9,14.9,28.9,17,28.2,17.7
			 M28.2,9.4c-1.9,0-3.4,1.5-3.4,3.4c0,2.8,3,5.5,3.2,5.6c0.1,0,0.1,0.1,0.2,0.1c0.1,0,0.2,0,0.2-0.1c0.1-0.1,3.2-2.8,3.2-5.6
			C31.6,10.9,30.1,9.4,28.2,9.4C28.2,9.4,28.2,9.4,28.2,9.4"/>
		<path class="st0" d="M28.2,13.7c-0.6,0-1-0.4-1.1-0.9c0-0.6,0.4-1,0.9-1.1c0.6,0,1,0.4,1.1,0.9c0,0,0,0.1,0,0.1
			C29.1,13.3,28.7,13.7,28.2,13.7 M28.2,11.2c-0.9,0-1.6,0.7-1.6,1.6c0,0.9,0.7,1.6,1.6,1.6s1.6-0.7,1.6-1.6c0,0,0,0,0,0
			C29.8,11.9,29.1,11.2,28.2,11.2C28.2,11.2,28.2,11.2,28.2,11.2"/>
		<path class="st0" d="M12.8,43.2c-1.4-1.4-6.4-6.6-6.4-11c0.2-3.4,3-6.2,6.4-6.4c3.4,0.2,6.2,3,6.4,6.4
			C19.2,36.6,14.2,41.9,12.8,43.2 M12.8,25.1c-3.9,0-7.1,3.2-7.1,7.1c0,5.8,6.4,11.5,6.7,11.8c0.1,0.1,0.3,0.2,0.4,0.2
			c0.2,0,0.3-0.1,0.4-0.2c0.3-0.2,6.7-5.9,6.7-11.8C19.9,28.3,16.7,25.1,12.8,25.1"/>
		<path class="st0" d="M17.1,35.4l-4.2,2v-4.9l1-0.5c0.1,0,0.1-0.1,0.1-0.2c0-0.1-0.1-0.1-0.2-0.1c0,0,0,0,0,0l-1,0.5l-0.4-0.2
			c-0.1,0-0.2,0-0.2,0.1c0,0.1,0,0.2,0.1,0.2l0.4,0.2v4.9l-4.2-2v-5l3.2,1.5h0.1c0.1,0,0.1,0,0.1-0.1c0-0.1,0-0.2-0.1-0.2l-3.1-1.5
			l1.4-0.7l4.3,2.1l0,0v1.7c0,0.1,0,0.1,0.1,0.1h0.1h0.1l1.1-0.5c0,0,0.1-0.1,0.1-0.1v-1.7l1.3-0.6V35.4z M15.5,31.3v1.5l-0.8,0.4
			v-1.5L15.5,31.3z M11.3,29l4.1,2l-0.9,0.4l-4.1-2L11.3,29z M12.8,28.3l4.1,2l-1.2,0.6l0,0l-4.1-2L12.8,28.3z M17.3,30.1L12.8,28
			c0,0-0.1,0-0.1,0l-4.5,2.1c-0.1,0-0.1,0.1-0.1,0.1v5.2c0,0.1,0,0.1,0.1,0.1l4.5,2.2h0.1l4.5-2.2c0,0,0.1-0.1,0.1-0.1v-5.2
			C17.4,30.2,17.4,30.2,17.3,30.1"/>
		<path class="st0" d="M9.6,34.9L9,34.5c-0.1,0-0.2,0-0.2,0.1c0,0.1,0,0.2,0.1,0.2c0,0,0,0,0,0l0.7,0.3h0.1c0.1,0,0.1,0,0.2-0.1
			C9.8,34.9,9.7,34.9,9.6,34.9"/>
		<path class="st0" d="M10.2,34.5L9,33.9c-0.1,0-0.2,0-0.2,0.1c0,0,0,0,0,0c0,0.1,0,0.2,0.1,0.2c0,0,0,0,0,0l1.3,0.6h0.1
			c0.1,0,0.1,0,0.1-0.1C10.4,34.6,10.3,34.5,10.2,34.5"/>
		<path class="st1" d="M39.1,45.5c4.5-0.1,8.2-3.9,8.1-8.4c-0.1-4.5-3.9-8.2-8.4-8.1c-4.5,0.1-8.1,3.8-8.1,8.2
			C30.7,41.8,34.5,45.5,39.1,45.5C39.1,45.5,39.1,45.5,39.1,45.5"/>
		<path class="st0" d="M43.8,36.9c-0.2,0-0.4,0.2-0.4,0.4c0,0.2,0.2,0.4,0.4,0.4c0.2,0,0.4-0.2,0.4-0.4C44.2,37.1,44,36.9,43.8,36.9
			"/>
		<path class="st0" d="M51.8,47.5l-5.6-5.6c0.9-1.4,1.4-3,1.4-4.6c0-4.6-3.7-8.4-8.4-8.4c-4.6,0-8.4,3.7-8.4,8.4
			c0,4.6,3.7,8.4,8.4,8.4c1.6,0,3.3-0.5,4.6-1.4l1.6,1.5l0,0l4.1,4c0.3,0.3,0.7,0.5,1.2,0.5c0.4,0,0.9-0.2,1.2-0.5
			C52.4,49.2,52.5,48.2,51.8,47.5C51.8,47.5,51.8,47.5,51.8,47.5 M43.6,43.4L43.6,43.4c-3.4,2.4-8,1.6-10.4-1.8s-1.6-8,1.8-10.4
			s8-1.6,10.4,1.8c0.9,1.3,1.4,2.8,1.4,4.4c0,1.6-0.5,3.1-1.5,4.4C44.8,42.4,44.2,42.9,43.6,43.4 M44.5,43.8
			c0.4-0.4,0.8-0.7,1.2-1.2l1.2,1.2c-0.4,0.4-0.8,0.8-1.2,1.2L44.5,43.8z M51.2,49.3c-0.2,0.2-0.4,0.3-0.6,0.3
			c-0.2,0-0.4-0.1-0.6-0.3l-3.8-3.7c0.4-0.4,0.8-0.8,1.2-1.2l3.8,3.7c0.2,0.2,0.2,0.4,0.3,0.6C51.5,48.9,51.4,49.1,51.2,49.3"/>
		<path class="st0" d="M39.1,30.7c-3.7,0-6.6,3.1-6.6,6.7c0,3.7,3.1,6.6,6.7,6.6c3.7,0,6.6-3,6.6-6.7C45.8,33.6,42.8,30.6,39.1,30.7
			 M39.1,43.2c-3.2,0-5.8-2.7-5.8-5.9c0-3.2,2.7-5.8,5.9-5.8c3.2,0,5.8,2.6,5.8,5.8C45,40.6,42.3,43.2,39.1,43.2"/>
		<path class="st0" d="M43.8,35.5c-0.4-0.9-1-1.7-1.8-2.3c-0.9-0.6-1.9-0.9-2.9-0.9c-0.2,0-0.4,0.2-0.4,0.4c0,0.2,0.2,0.4,0.4,0.4
			c1.8,0,3.4,1,4,2.7c0.1,0.2,0.2,0.3,0.4,0.3h0.2C43.8,36,44,35.8,43.8,35.5"/>
		<path class="st0" d="M1.1,28.8v21.7c0,0.4,0,0.7,0.1,1.1c0.5,2.8,2.9,4.9,5.8,4.9h43.7c3.2,0,5.9-2.6,5.9-5.9c0,0,0-0.1,0-0.1V7
			c0-3.2-2.7-5.9-5.9-5.8c0,0,0,0-0.1,0H7.1c-0.2,0-0.5,0-0.7,0c-1.6,0.2-3.1,1-4.1,2.3C1.5,4.5,1.1,5.7,1.1,7V28.8 M28.8,57.7H7.2
			c-1,0-2.1-0.2-3-0.6c-2.2-1-3.8-3-4.1-5.5C0,51.3,0,51,0,50.6c0-14.5,0-29,0-43.5c0-2.8,1.7-5.4,4.2-6.5C5.1,0.2,6.1,0,7.1,0h29.8
			c4.6,0,9.2,0,13.8,0c2.8,0,5.3,1.6,6.3,4.1c0.4,0.9,0.6,2,0.6,3V35c0,5.2,0,10.5,0,15.7c0,2.4-1.2,4.7-3.3,6c-1,0.7-2.3,1-3.5,1
			L28.8,57.7"/>
	</g>
</g>
</svg>
