<?xml version="1.0" encoding="utf-8"?>
<!-- Generator: Adobe Illustrator 24.0.2, SVG Export Plug-In . SVG Version: 6.00 Build 0)  -->
<svg version="1.1" id="Calque_1" xmlns="http://www.w3.org/2000/svg" xmlns:xlink="http://www.w3.org/1999/xlink" x="0px" y="0px"
	 viewBox="0 0 57.7 57.7" style="enable-background:new 0 0 57.7 57.7;" xml:space="preserve">
<style type="text/css">
	.st0{fill:#FFFFFF;}
	.st1{fill:#01A4A6;}
</style>
<title>VEHICLE</title>
<g id="Calque_2_1_">
	<g id="Calque_1-2">
		<path class="st0" d="M49.4,40.2c-0.3-1.9-1.9-3.3-3.8-3.4c-0.4,0-0.9,0.1-1.3,0.2v-11h3.9c0.8,0,1.4,0.6,1.7,1.3h-4.3
			c-0.4,0-0.7,0.3-0.7,0.7c0,0,0,0,0,0v5.4c0,1,0.8,1.9,1.8,2h0.2h4.5v0.7h-0.6c-0.4,0-0.7,0.3-0.7,0.7c0,0.4,0.3,0.7,0.7,0.7h0.6
			v2.7L49.4,40.2z M45.6,43.6c-1.5,0.1-2.7-1.1-2.8-2.6s1.1-2.7,2.6-2.8s2.7,1.1,2.8,2.6c0,0,0,0.1,0,0.1
			C48.2,42.3,47,43.5,45.6,43.6 M28.7,43.6c-1.5,0-2.7-1.1-2.8-2.6s1.1-2.7,2.6-2.8s2.7,1.1,2.8,2.6c0,0,0,0.1,0,0.1
			C31.3,42.3,30.1,43.5,28.7,43.6 M22.2,43.6c-1.5,0.1-2.7-1.1-2.8-2.6c-0.1-1.5,1.1-2.7,2.6-2.8s2.7,1.1,2.8,2.6c0,0,0,0.1,0,0.1
			C24.8,42.3,23.6,43.5,22.2,43.6 M17,23.4h26v14.4c-0.7,0.6-1.1,1.4-1.3,2.3h-9.2c-0.3-1.9-1.9-3.3-3.8-3.4c-1.3,0-2.5,0.7-3.3,1.8
			c-0.7-1.1-1.9-1.8-3.2-1.8c-1.9,0-3.5,1.5-3.9,3.4H17V23.4z M51.2,34.2h-4.4c-0.4,0-0.7-0.3-0.7-0.7c0,0,0,0,0,0v-4.7h3.9
			L51.2,34.2z M52.6,34.7l-1.5-7.4c-0.3-1.4-1.5-2.5-3-2.5h-3.8v-1.3c0-0.7-0.6-1.3-1.3-1.4H17c-0.7,0-1.3,0.6-1.3,1.4v16.8
			c0,0.7,0.6,1.3,1.3,1.3c0,0,0,0,0,0h1.4c0.3,1.9,1.9,3.3,3.9,3.4c1.3,0,2.5-0.7,3.2-1.8c0.7,1.1,1.9,1.8,3.3,1.8
			c1.9,0,3.6-1.4,3.8-3.4h9.2c0.3,2.1,2.2,3.6,4.3,3.4c1.8-0.2,3.1-1.6,3.4-3.4H52c0.4,0,0.7-0.3,0.7-0.7c0,0,0,0,0,0v-6
			C52.7,34.8,52.7,34.8,52.6,34.7"/>
		<path class="st0" d="M18.9,26.1H41c0.4,0,0.7-0.3,0.7-0.7s-0.3-0.7-0.7-0.7H18.9c-0.4,0-0.7,0.3-0.7,0.7S18.5,26.1,18.9,26.1"/>
		<path class="st1" d="M28.1,20.2h-2.3c-0.2-0.7-0.5-1.3-0.8-1.9l1.6-1.6c0.2-0.2,0.2-0.4,0-0.6c0,0,0,0,0,0l-3.1-3
			c-0.2-0.1-0.4-0.2-0.6,0l-1.6,1.6c-0.6-0.3-1.3-0.6-2-0.8v-2.3c0-0.2-0.2-0.4-0.4-0.4c0,0,0,0,0,0h-4.3c-0.2,0-0.4,0.2-0.4,0.4
			c0,0,0,0,0,0v2.3c-0.7,0.2-1.4,0.5-2,0.8L10.6,13c-0.1-0.1-0.2-0.1-0.3-0.1c-0.1,0-0.2,0-0.3,0.1l-3.1,3c-0.2,0.2-0.2,0.4,0,0.6
			c0,0,0,0,0,0l1.6,1.6c-0.3,0.6-0.6,1.3-0.8,1.9H5.4c-0.2,0-0.4,0.2-0.5,0.4c0,0,0,0,0,0.1v4.3c0,0.2,0.2,0.4,0.4,0.4l0,0h2.3
			c0.2,0.7,0.5,1.3,0.8,1.9l-1.6,1.6c-0.2,0.2-0.2,0.4,0,0.6c0,0,0,0,0,0l3.1,3c0.1,0.1,0.2,0.1,0.3,0.1c0.1,0,0.2,0,0.3-0.1
			l1.6-1.6c0.6,0.3,1.3,0.6,2,0.8v2.3c0,0.2,0.2,0.4,0.4,0.4c0,0,0,0,0,0H18c0.1,0,0.3-0.1,0.4-0.2c0.1-0.1,0.1-0.3,0-0.4v-9.9
			l4.1,0.1H28c0.1,0,0.3,0,0.4-0.1c0.1-0.1,0.2-0.2,0.2-0.3v-2.9C28.6,20.4,28.4,20.2,28.1,20.2L28.1,20.2"/>
		<path class="st1" d="M21.3,20.3c-0.4-0.6-0.8-1.2-1.4-1.6c-2.3-1.8-5.5-1.3-7.3,0.9s-1.3,5.5,0.9,7.3s5.5,1.3,7.3-0.9
			C22.1,24.3,22.3,22.1,21.3,20.3"/>
		<path class="st0" d="M17.4,33.5h-2.4v-2.2c0-0.2-0.1-0.4-0.3-0.4c-0.8-0.2-1.6-0.5-2.3-1c-0.2-0.1-0.4-0.1-0.5,0.1l-1.6,1.6
			l-2.5-2.4l1.6-1.5c0.1-0.1,0.2-0.4,0.1-0.5c-0.4-0.7-0.8-1.5-1-2.3c-0.1-0.2-0.2-0.3-0.4-0.3H5.9V21h2.2c0.2,0,0.4-0.1,0.4-0.3
			c0.2-0.8,0.6-1.6,1-2.3c0.1-0.2,0.1-0.4-0.1-0.5l-1.6-1.5l2.5-2.4l1.6,1.5c0.1,0.1,0.4,0.2,0.5,0.1c0.7-0.4,1.5-0.8,2.3-1
			c0.2,0,0.3-0.2,0.3-0.4V12h3.5v2.2c0,0.2,0.1,0.4,0.3,0.4c0.8,0.2,1.6,0.6,2.4,1c0.2,0.1,0.4,0.1,0.5-0.1l1.5-1.5l2.5,2.4
			l-1.6,1.5c-0.1,0.1-0.2,0.4-0.1,0.5c0.4,0.7,0.8,1.5,1,2.3c0,0.2,0.2,0.3,0.4,0.3h2.2V23l-4.9-0.1v-0.1c0.1-3.4-2.6-6.2-6-6.3
			s-6.2,2.6-6.3,6c-0.1,3.4,2.6,6.2,6,6.3c0,0,0.1,0,0.1,0c0.2,0,0.5,0,0.7,0L17.4,33.5z M28.1,20.2h-2.3c-0.2-0.7-0.5-1.3-0.8-1.9
			l1.6-1.6c0.2-0.2,0.2-0.4,0-0.6c0,0,0,0,0,0l-3.1-3c-0.2-0.2-0.4-0.2-0.6,0l-1.6,1.6c-0.6-0.3-1.3-0.6-2-0.8v-2.3
			c0-0.2-0.2-0.4-0.4-0.4c0,0,0,0,0,0h-4.3c-0.2,0-0.4,0.2-0.4,0.4c0,0,0,0,0,0v2.3c-0.7,0.2-1.4,0.5-2,0.8L10.6,13
			c-0.1-0.1-0.2-0.1-0.3-0.1c-0.1,0-0.2,0-0.3,0.1l-3.1,3c-0.2,0.2-0.2,0.4,0,0.6c0,0,0,0,0,0l1.6,1.6c-0.3,0.6-0.6,1.3-0.8,1.9H5.4
			c-0.2,0-0.4,0.2-0.5,0.4c0,0,0,0,0,0.1v4.3c0,0.2,0.2,0.4,0.4,0.4l0,0h2.3c0.2,0.7,0.5,1.3,0.8,1.9l-1.6,1.6
			c-0.2,0.2-0.2,0.4,0,0.6c0,0,0,0,0,0l3.1,3c0.1,0.1,0.2,0.1,0.3,0.1c0.1,0,0.2,0,0.3-0.1l1.6-1.6c0.6,0.3,1.3,0.6,2,0.8v2.3
			c0,0.2,0.2,0.4,0.4,0.4c0,0,0,0,0,0H18c0.1,0,0.3-0.1,0.4-0.2c0.1-0.1,0.1-0.3,0-0.4v-5.4c0-0.1,0-0.3-0.1-0.4
			c-0.1-0.1-0.3-0.2-0.4-0.1c-0.4,0.1-0.8,0.1-1.2,0.1c-2.9-0.1-5.1-2.4-5.1-5.3s2.4-5.1,5.3-5.1c2.8,0.1,5.1,2.4,5.1,5.2
			c0,0.2,0,0.5-0.1,0.7c0,0.2,0,0.3,0.2,0.4c0.1,0.1,0.2,0,0.4,0h5.5c0.1,0,0.3,0,0.4-0.1c0.1-0.1,0.2-0.2,0.2-0.3v-2.9
			C28.6,20.4,28.4,20.2,28.1,20.2L28.1,20.2"/>
		<path class="st0" d="M20.6,20.6c-0.1-0.2-0.4-0.3-0.6-0.2c-0.2,0.1-0.3,0.4-0.2,0.6c0,0,0,0,0,0c0.3,0.5,0.4,1.1,0.4,1.7
			c0,2-1.5,3.6-3.5,3.7s-3.6-1.5-3.7-3.5s1.5-3.6,3.5-3.7c0.8,0,1.6,0.2,2.3,0.8c0.2,0.1,0.5,0.1,0.6-0.1c0.1-0.2,0.1-0.4-0.1-0.6
			c0,0,0,0,0,0c-1.9-1.5-4.7-1.1-6.1,0.8s-1.1,4.7,0.8,6.1c1.9,1.5,4.7,1.1,6.1-0.8c0.6-0.8,0.9-1.7,0.9-2.7
			C21.1,22,20.9,21.3,20.6,20.6"/>
		<path class="st0" d="M1.1,28.8v21.7c0,0.4,0,0.7,0.1,1.1c0.5,2.8,2.9,4.9,5.8,4.9h43.7c3.2,0,5.9-2.6,5.9-5.9c0,0,0-0.1,0-0.1V7
			c0-3.2-2.7-5.9-5.9-5.8c0,0,0,0-0.1,0H7.1c-0.2,0-0.5,0-0.7,0c-1.6,0.2-3.1,1-4.1,2.3C1.5,4.5,1.1,5.7,1.1,7V28.8 M28.8,57.7H7.2
			c-1,0-2.1-0.2-3-0.6c-2.2-1-3.8-3-4.1-5.5C0,51.3,0,51,0,50.6c0-14.5,0-29,0-43.5c0-2.8,1.7-5.4,4.2-6.5C5.1,0.2,6.1,0,7.1,0h29.8
			c4.6,0,9.2,0,13.8,0c2.8,0,5.3,1.6,6.3,4.1c0.4,0.9,0.6,2,0.6,3V35c0,5.2,0,10.5,0,15.7c0,2.4-1.2,4.7-3.3,6c-1,0.7-2.3,1-3.5,1
			L28.8,57.7L28.8,57.7z"/>
	</g>
</g>
</svg>
