<svg xmlns="http://www.w3.org/2000/svg" viewBox="0 0 53.42 53.44"><defs><style>.cls-1{fill:#fff;}</style></defs><title>database_2</title><g id="Calque_2" data-name="Calque 2"><g id="Calque_1-2" data-name="Calque 1"><path class="cls-1" d="M13.21,15.51a1.69,1.69,0,1,1,1.7-1.69,1.71,1.71,0,0,1-1.7,1.69m0-4.72a3,3,0,1,0,3.06,3,3,3,0,0,0-3.06-3"/><path class="cls-1" d="M40.13,12.13a.69.69,0,0,1,.68.68.69.69,0,0,1-1.37,0,.69.69,0,0,1,.69-.68"/><path class="cls-1" d="M37.4,12.13a.68.68,0,0,1,.68.68.68.68,0,0,1-1.36,0,.68.68,0,0,1,.68-.68"/><path class="cls-1" d="M41.49,14.16a.68.68,0,0,1,.68.67.68.68,0,1,1-1.36,0,.67.67,0,0,1,.68-.67"/><path class="cls-1" d="M38.76,14.16a.67.67,0,0,1,.68.67.68.68,0,1,1-.68-.67"/><path class="cls-1" d="M34.67,12.13a.68.68,0,0,1,.68.68.68.68,0,0,1-1.36,0,.69.69,0,0,1,.68-.68"/><path class="cls-1" d="M36,14.16a.68.68,0,0,1,.68.67.69.69,0,1,1-.68-.67"/><path class="cls-1" d="M32,12.13a.69.69,0,0,1,.68.68.68.68,0,1,1-.68-.68"/><path class="cls-1" d="M33.31,14.16a.67.67,0,0,1,.68.67.68.68,0,0,1-1.36,0,.67.67,0,0,1,.68-.67"/><path class="cls-1" d="M29.22,12.13a.68.68,0,0,1,.68.68.68.68,0,0,1-1.36,0,.68.68,0,0,1,.68-.68"/><path class="cls-1" d="M30.58,14.16a.68.68,0,0,1,.69.67.69.69,0,0,1-1.37,0,.68.68,0,0,1,.68-.67"/><path class="cls-1" d="M9.19,19.55a1.77,1.77,0,0,1-1.78-1.76V9.85A1.77,1.77,0,0,1,9.19,8.09H43.8a1.77,1.77,0,0,1,1.78,1.76v7.94a1.77,1.77,0,0,1-1.78,1.76Zm36.39,3.11V30.6a1.77,1.77,0,0,1-1.78,1.76H9.19A1.77,1.77,0,0,1,7.41,30.6V22.66A1.77,1.77,0,0,1,9.19,20.9H43.8a1.77,1.77,0,0,1,1.78,1.76m0,12.81v7.94a1.77,1.77,0,0,1-1.78,1.76H9.19a1.77,1.77,0,0,1-1.78-1.76V35.47a1.77,1.77,0,0,1,1.78-1.76H43.8a1.77,1.77,0,0,1,1.78,1.76m1.36-17.68V9.85A3.13,3.13,0,0,0,43.8,6.74H9.19A3.13,3.13,0,0,0,6.05,9.85v7.94a3.08,3.08,0,0,0,1.21,2.43,3.1,3.1,0,0,0-1.21,2.44V30.6A3.08,3.08,0,0,0,7.26,33a3.1,3.1,0,0,0-1.21,2.44v7.94a3.13,3.13,0,0,0,3.14,3.11H43.8a3.13,3.13,0,0,0,3.14-3.11V35.47A3.1,3.1,0,0,0,45.73,33a3.06,3.06,0,0,0,1.21-2.43V22.66a3.1,3.1,0,0,0-1.21-2.44,3.06,3.06,0,0,0,1.21-2.43"/><path class="cls-1" d="M13.21,24.94a1.69,1.69,0,1,1-1.71,1.69,1.7,1.7,0,0,1,1.71-1.69m0,4.72a3,3,0,1,0-3.07-3,3,3,0,0,0,3.07,3"/><path class="cls-1" d="M40.13,24.94a.69.69,0,0,1,.68.68.69.69,0,0,1-1.37,0,.69.69,0,0,1,.69-.68"/><path class="cls-1" d="M37.4,24.94a.68.68,0,0,1,.68.68.68.68,0,0,1-1.36,0,.68.68,0,0,1,.68-.68"/><path class="cls-1" d="M41.49,27a.67.67,0,1,1-.68.67.68.68,0,0,1,.68-.67"/><path class="cls-1" d="M38.76,27a.67.67,0,1,1-.68.67.67.67,0,0,1,.68-.67"/><path class="cls-1" d="M34.67,24.94a.68.68,0,0,1,.68.68.68.68,0,0,1-1.36,0,.69.69,0,0,1,.68-.68"/><path class="cls-1" d="M36,27a.67.67,0,1,1-.69.67A.68.68,0,0,1,36,27"/><path class="cls-1" d="M32,24.94a.69.69,0,0,1,.68.68.68.68,0,1,1-.68-.68"/><path class="cls-1" d="M33.31,27a.67.67,0,1,1-.68.67.67.67,0,0,1,.68-.67"/><path class="cls-1" d="M29.22,24.94a.68.68,0,0,1,.68.68.68.68,0,0,1-1.36,0,.68.68,0,0,1,.68-.68"/><path class="cls-1" d="M30.58,27a.67.67,0,1,1-.68.67.68.68,0,0,1,.68-.67"/><path class="cls-1" d="M13.21,37.75a1.69,1.69,0,1,1-1.71,1.69,1.7,1.7,0,0,1,1.71-1.69m0,4.72a3,3,0,1,0-3.07-3,3,3,0,0,0,3.07,3"/><path class="cls-1" d="M40.13,37.75a.68.68,0,1,1-.69.68.68.68,0,0,1,.69-.68"/><path class="cls-1" d="M37.4,37.75a.68.68,0,1,1-.68.68.67.67,0,0,1,.68-.68"/><path class="cls-1" d="M41.49,39.78a.67.67,0,1,1-.68.67.68.68,0,0,1,.68-.67"/><path class="cls-1" d="M38.76,39.78a.67.67,0,1,1-.68.67.67.67,0,0,1,.68-.67"/><path class="cls-1" d="M34.67,37.75a.68.68,0,1,1-.68.68.67.67,0,0,1,.68-.68"/><path class="cls-1" d="M36,39.78a.67.67,0,1,1-.69.67.68.68,0,0,1,.69-.67"/><path class="cls-1" d="M32,37.75a.68.68,0,1,1,0,1.35.68.68,0,1,1,0-1.35"/><path class="cls-1" d="M33.31,39.78a.67.67,0,1,1-.68.67.67.67,0,0,1,.68-.67"/><path class="cls-1" d="M29.22,37.75a.68.68,0,1,1-.68.68.67.67,0,0,1,.68-.68"/><path class="cls-1" d="M30.58,39.78a.67.67,0,1,1-.68.67.68.68,0,0,1,.68-.67"/><path id="Contour_Fine_tuning" data-name="Contour Fine tuning" class="cls-1" d="M26.72,53.44H6.66a6.36,6.36,0,0,1-2.79-.55,6.51,6.51,0,0,1-3.86-6Q0,26.73,0,6.58a6.56,6.56,0,0,1,3.93-6A6.65,6.65,0,0,1,6.54,0H34.11c4.27,0,8.55,0,12.83,0a6.28,6.28,0,0,1,5.9,3.81,6.22,6.22,0,0,1,.58,2.76q0,12.93,0,25.86c0,4.84,0,9.69,0,14.53a6.31,6.31,0,0,1-3.09,5.51,6,6,0,0,1-3.23.94H26.72ZM1.06,26.72V46.81a7.27,7.27,0,0,0,.07,1,5.42,5.42,0,0,0,5.34,4.53H46.93a5.12,5.12,0,0,0,.67,0,5.3,5.3,0,0,0,3.69-2.16,5.39,5.39,0,0,0,1.07-3.33V6.46a5.46,5.46,0,0,0-5.53-5.4H6.57c-.22,0-.43,0-.64,0A5.31,5.31,0,0,0,2.16,3.23a5.2,5.2,0,0,0-1.1,3.24Z"/></g></g></svg>