<svg xmlns="http://www.w3.org/2000/svg" viewBox="0 0 53.42 53.44"><defs><style>.cls-1{fill:#fff;}</style></defs><title>home_2</title><g id="Calque_2" data-name="Calque 2"><g id="Calque_1-2" data-name="Calque 1"><path class="cls-1" d="M46.41,24.09a.58.58,0,0,0,0-.14v0a.58.58,0,0,0,0-.18s0,0,0-.06-.05-.08-.07-.12l-.08-.1h0L26.71,5.89,7.2,23.46a.64.64,0,0,0,0,.93.71.71,0,0,0,1,0L26.71,7.69l9.72,8.75,3.89,3.5L44,23.29H42.34a.65.65,0,0,0-.66.66h0V43.07H32.15V27.24H21.27V43.07H11.74V25.58h0a.68.68,0,0,0-1.35.05v0h0V44.39H22.63V28.56h8.16V44.39H43V24.62h2.74a.68.68,0,0,0,.62-.45S46.4,24.12,46.41,24.09Z"/><path id="Contour_Fine_tuning" data-name="Contour Fine tuning" class="cls-1" d="M26.72,53.44H6.66a6.36,6.36,0,0,1-2.79-.55,6.51,6.51,0,0,1-3.86-6Q0,26.73,0,6.58a6.56,6.56,0,0,1,3.93-6A6.65,6.65,0,0,1,6.54,0H34.11c4.27,0,8.55,0,12.83,0a6.28,6.28,0,0,1,5.9,3.81,6.22,6.22,0,0,1,.58,2.76q0,12.93,0,25.86c0,4.84,0,9.69,0,14.53a6.31,6.31,0,0,1-3.09,5.51,6,6,0,0,1-3.23.94H26.72ZM1.06,26.72V46.81a7.27,7.27,0,0,0,.07,1,5.42,5.42,0,0,0,5.34,4.53H46.93a5.12,5.12,0,0,0,.67,0,5.3,5.3,0,0,0,3.69-2.16,5.39,5.39,0,0,0,1.07-3.33V6.46a5.46,5.46,0,0,0-5.53-5.4H6.57c-.22,0-.43,0-.64,0A5.31,5.31,0,0,0,2.16,3.23a5.2,5.2,0,0,0-1.1,3.24Z"/></g></g></svg>