<svg xmlns="http://www.w3.org/2000/svg" viewBox="0 0 39.48 51.94"><defs><style>.cls-1{fill:#c8c8c8;}.cls-2{fill:#fff;}</style></defs><title>excel</title><g id="Calque_2" data-name="Calque 2"><g id="Calque_1-2" data-name="Calque 1"><path class="cls-1" d="M24.4,26.63h4.53V28.2H24.4Zm-3.59,0h2.7V28.2h-2.7Zm-3.68-3a.47.47,0,0,1-.38.71.44.44,0,0,1-.39-.22l-1.87-3.06-1.87,3.06a.45.45,0,0,1-.84-.24.55.55,0,0,1,.07-.25L14,20.22l-2.11-3.44a.46.46,0,0,1,.12-.63.44.44,0,0,1,.63.12l0,0,1.87,3.06,1.87-3.06a.45.45,0,0,1,.62-.17.46.46,0,0,1,.16.63v0L15,20.22Zm6.38-7.13h-2.7V15h2.7Zm5.42,0H24.4V15h4.53ZM24.4,24.3h4.53v1.57H24.4Zm-3.59,0h2.7v1.57h-2.7Zm2.7-5.44h-2.7V17.29h2.7Zm5.42,0H24.4V17.29h4.53Zm-4.53.77h4.53V21.2H24.4Zm0,2.33h4.53v1.57H24.4Zm-3.59,0h2.7v1.57h-2.7Zm0-2.33h2.7V21.2h-2.7Zm9,1.92s0,0,0-.06V19.33a.5.5,0,0,0,0-.12s0,0,0-.05V17a.37.37,0,0,0,0-.12s0,0,0-.05V14.57s-.18-.39-.43-.38H20.81V10.08a.49.49,0,0,0-.17-.36.45.45,0,0,0-.39-.09L8.51,12.39a.46.46,0,0,0-.35.46V28.52a.46.46,0,0,0,.38.46l11.75,1.84a.45.45,0,0,0,.51-.39s0,0,0-.07V29h8.57c.25,0,.43-.39.43-.39V26.34a.5.5,0,0,0,0-.12s0,0,0-.06V24a.5.5,0,0,0,0-.12s0,0,0-.05V21.67a.5.5,0,0,0,0-.12"/><path class="cls-1" d="M1.76,34.92V2.62c0-.19,0-.83.4-.83H27.25a1.34,1.34,0,0,0-.05.35v10.4H37.39a2,2,0,0,0,.34,0V34.92Zm.4,15.23a.48.48,0,0,1-.17,0,.39.39,0,0,1-.23-.37v-13h36v13a.42.42,0,0,1-.23.37.61.61,0,0,1-.18,0Zm34.2-39.4H29V3.19Zm2.64.16-.68-.69-8.85-9L28.79.49A1.66,1.66,0,0,0,27.62,0H2.16C1.12,0,0,.82,0,2.62V50.15a2,2,0,0,0,1.61,1.71l.13,0a2,2,0,0,0,.42,0H37.32a2,2,0,0,0,.42,0l.13,0a2,2,0,0,0,1.61-1.71V12.52A2.11,2.11,0,0,0,39,10.91"/><polygon class="cls-1" points="13.65 39.4 12 42.98 11.88 42.98 10.36 39.4 8.69 39.4 11.06 44.01 8.83 48.36 10.41 48.36 12 44.77 12.13 44.77 13.6 48.36 15.19 48.36 12.96 44.01 15.33 39.4 13.65 39.4"/><polygon class="cls-1" points="18.6 39.4 17.55 39.4 17.55 48.36 22.81 48.36 22.81 47.28 18.6 47.28 18.6 39.4"/><path class="cls-1" d="M28.36,43.94a4.48,4.48,0,0,0-.9-.52c-.32-.15-.61-.29-.88-.45a2.66,2.66,0,0,1-.69-.52,1.15,1.15,0,0,1-.27-.79,1,1,0,0,1,.09-.41,1.44,1.44,0,0,1,.27-.39,1.82,1.82,0,0,1,.38-.29,1.53,1.53,0,0,1,.46-.14,5.66,5.66,0,0,1,.7,0,2,2,0,0,1,.45.09,1.29,1.29,0,0,1,.26.12l.16.1.07-.12.14-.28.18-.36c.07-.12.12-.24.17-.34a2.31,2.31,0,0,0-.91-.34,6.11,6.11,0,0,0-1.11-.1,2.93,2.93,0,0,0-1,.17,2.56,2.56,0,0,0-.85.49,2.28,2.28,0,0,0-.58.79,2.44,2.44,0,0,0-.22,1.07,2,2,0,0,0,.28,1.1,2.77,2.77,0,0,0,.69.76,5.26,5.26,0,0,0,.9.57c.32.16.62.31.9.47a2.89,2.89,0,0,1,.68.54,1,1,0,0,1,.28.71,1.31,1.31,0,0,1-.39,1,1.63,1.63,0,0,1-1.12.35,3.37,3.37,0,0,1-.52-.05,4,4,0,0,1-.55-.13l-.53-.17a2.2,2.2,0,0,1-.43-.19l-.25,1a1.89,1.89,0,0,0,.49.32,3.41,3.41,0,0,0,.59.2,4.44,4.44,0,0,0,.62.1l.59,0a3.43,3.43,0,0,0,1.2-.2,2.76,2.76,0,0,0,.89-.56,2.48,2.48,0,0,0,.76-1.76,2.31,2.31,0,0,0-.28-1.18,2.66,2.66,0,0,0-.69-.76"/><polygon class="cls-2" points="0.8 0.98 0.8 35.65 38.56 35.65 38.56 11.72 27.72 0.98 0.8 0.98"/><rect class="cls-2" x="0.8" y="36" width="37.24" height="14.78"/><path class="cls-1" d="M24.4,26.63h4.53V28.2H24.4Zm-3.59,0h2.7V28.2h-2.7Zm-3.68-3a.47.47,0,0,1-.38.71.44.44,0,0,1-.39-.22l-1.87-3.06-1.87,3.06a.45.45,0,0,1-.84-.24.55.55,0,0,1,.07-.25L14,20.22l-2.11-3.44a.46.46,0,0,1,.12-.63.44.44,0,0,1,.63.12l0,0,1.87,3.06,1.87-3.06a.45.45,0,0,1,.62-.17.46.46,0,0,1,.16.63v0L15,20.22Zm6.38-7.13h-2.7V15h2.7Zm5.42,0H24.4V15h4.53ZM24.4,24.3h4.53v1.57H24.4Zm-3.59,0h2.7v1.57h-2.7Zm2.7-5.44h-2.7V17.29h2.7Zm5.42,0H24.4V17.29h4.53Zm-4.53.77h4.53V21.2H24.4Zm0,2.33h4.53v1.57H24.4Zm-3.59,0h2.7v1.57h-2.7Zm0-2.33h2.7V21.2h-2.7Zm9,1.92s0,0,0-.06V19.33a.5.5,0,0,0,0-.12s0,0,0-.05V17a.37.37,0,0,0,0-.12s0,0,0-.05V14.57s-.18-.39-.43-.38H20.81V10.08a.49.49,0,0,0-.17-.36.45.45,0,0,0-.39-.09L8.51,12.39a.46.46,0,0,0-.35.46V28.52a.46.46,0,0,0,.38.46l11.75,1.84a.45.45,0,0,0,.51-.39s0,0,0-.07V29h8.57c.25,0,.43-.39.43-.39V26.34a.5.5,0,0,0,0-.12s0,0,0-.06V24a.5.5,0,0,0,0-.12s0,0,0-.05V21.67a.5.5,0,0,0,0-.12"/><path class="cls-1" d="M1.75,34.92V2.62c0-.19,0-.83.41-.83H27.25a1.34,1.34,0,0,0-.05.35v10.4H37.39a2,2,0,0,0,.34,0V34.92Zm.41,15.23a.48.48,0,0,1-.17,0,.4.4,0,0,1-.24-.37v-13h36v13a.41.41,0,0,1-.23.37.53.53,0,0,1-.18,0Zm34.2-39.4H29V3.19Zm2.64.16-.67-.69-8.86-9L28.79.49A1.65,1.65,0,0,0,27.63,0H2.16C1.12,0,0,.82,0,2.62V50.15a2,2,0,0,0,1.61,1.71l.13,0a2,2,0,0,0,.42,0H37.32a2,2,0,0,0,.42,0,.5.5,0,0,0,.13,0,2,2,0,0,0,1.61-1.71V12.52A2.11,2.11,0,0,0,39,10.91"/><polygon class="cls-1" points="13.65 39.4 12 42.98 11.88 42.98 10.36 39.4 8.69 39.4 11.06 44.01 8.83 48.36 10.41 48.36 12 44.77 12.13 44.77 13.61 48.36 15.19 48.36 12.96 44.01 15.33 39.4 13.65 39.4"/><polygon class="cls-1" points="18.6 39.4 17.55 39.4 17.55 48.36 22.81 48.36 22.81 47.28 18.6 47.28 18.6 39.4"/><path class="cls-1" d="M28.36,43.94a4.48,4.48,0,0,0-.9-.52c-.32-.15-.61-.29-.88-.45a2.66,2.66,0,0,1-.69-.52,1.15,1.15,0,0,1-.27-.79,1,1,0,0,1,.09-.41,1.44,1.44,0,0,1,.27-.39,1.82,1.82,0,0,1,.38-.29,1.53,1.53,0,0,1,.46-.14,5.82,5.82,0,0,1,.71,0,2,2,0,0,1,.44.09,1.29,1.29,0,0,1,.26.12l.16.1.07-.12.15-.28.18-.36c.06-.12.12-.24.16-.34a2.31,2.31,0,0,0-.91-.34,6.05,6.05,0,0,0-1.11-.11,2.94,2.94,0,0,0-1,.18,2.56,2.56,0,0,0-.85.49,2.28,2.28,0,0,0-.58.79,2.44,2.44,0,0,0-.22,1.07,2,2,0,0,0,.28,1.1,2.77,2.77,0,0,0,.69.76,5.26,5.26,0,0,0,.9.57c.32.16.62.31.9.47a3.18,3.18,0,0,1,.69.54,1,1,0,0,1,.27.71,1.31,1.31,0,0,1-.39,1,1.63,1.63,0,0,1-1.12.35,3.37,3.37,0,0,1-.52-.05,4,4,0,0,1-.55-.13l-.53-.17a2.2,2.2,0,0,1-.43-.19l-.25,1a1.89,1.89,0,0,0,.49.32,3.72,3.72,0,0,0,.59.2,4.69,4.69,0,0,0,.62.1l.59,0a3.43,3.43,0,0,0,1.2-.2,2.76,2.76,0,0,0,.89-.56,2.48,2.48,0,0,0,.76-1.76,2.22,2.22,0,0,0-.28-1.18,2.66,2.66,0,0,0-.69-.76"/></g></g></svg>