<svg xmlns="http://www.w3.org/2000/svg" viewBox="0 0 53.42 53.44"><title>endContract_1</title><g id="Calque_2" data-name="Calque 2"><g id="Calque_1-2" data-name="Calque 1"><path d="M36.47,37.91A12.29,12.29,0,0,0,35,39.77l-.42-1.06a1.35,1.35,0,0,0-2.41-.19l-.24.41-.23-2.7A1.35,1.35,0,0,0,29,35.92l-1.66,5a.68.68,0,0,0,.43.85.47.47,0,0,0,.21.06.69.69,0,0,0,.64-.46l1.65-5,.24,2.74a1.35,1.35,0,0,0,2.5.58l.25-.41.42,1.06a1.35,1.35,0,0,0,2.3.34,12.2,12.2,0,0,0,1.58-2c.09-.21.09-.79-.09-.93S36.68,37.76,36.47,37.91Z"/><path d="M27.31,8.07l-1.72,3.81L27.9,20,25,26.89l1.77-6.69-4.18-8.12,1.8-4,.46-1.35H13.22a2,2,0,0,0-2,2V45.17a2,2,0,0,0,2,2h27a2,2,0,0,0,2-2V8.74h0a2,2,0,0,0-2-2H27.84Zm13.57,37.1a.68.68,0,0,1-.68.68h-27a.68.68,0,0,1-.67-.68V8.74a.67.67,0,0,1,.67-.67h9.59l-1.8,4,4.22,8.29-3.15,12h1.17L29.37,20,27,12l1.8-4H40.2a.67.67,0,0,1,.68.67Z"/><path d="M15.55,14.64c0,.56.45.68,1,.68h6.11L22,14H16.56C16,14,15.55,14.08,15.55,14.64Z"/><path d="M36.67,15.32c.56,0,1-.12,1-.68s-.45-.69-1-.69H27.59l.4,1.37Z"/><path d="M32.61,19.38c.56,0,1-.12,1-.69s-.46-.68-1-.68H28.79l.4,1.37Z"/><path d="M16.56,18c-.56,0-1,.12-1,.68s.45.69,1,.69h8.18L24,18Z"/><path d="M16.56,22.07c-.56,0-1,.12-1,.68s.45.69,1,.69h8l.32-1.37Z"/><path d="M32.61,23.44c.56,0,1-.13,1-.69s-.46-.68-1-.68H28.32l-.7,1.37Z"/><path d="M32.61,27.49c.56,0,1-.12,1-.68s-.46-.68-1-.68H26.25l-.7,1.36Z"/><path d="M16.56,26.13c-.56,0-1,.12-1,.68s.45.68,1,.68h7l.32-1.36Z"/><path id="Contour_Fine_tuning" data-name="Contour Fine tuning" d="M26.72,53.44H6.66a6.36,6.36,0,0,1-2.79-.55,6.51,6.51,0,0,1-3.86-6Q0,26.73,0,6.58a6.56,6.56,0,0,1,3.93-6A6.65,6.65,0,0,1,6.54,0H34.11c4.27,0,8.55,0,12.83,0a6.28,6.28,0,0,1,5.9,3.81,6.22,6.22,0,0,1,.58,2.76q0,12.93,0,25.86c0,4.84,0,9.69,0,14.53a6.31,6.31,0,0,1-3.09,5.51,6,6,0,0,1-3.23.94H26.72ZM1.06,26.72V46.81a7.27,7.27,0,0,0,.07,1,5.42,5.42,0,0,0,5.34,4.53H46.93a5.12,5.12,0,0,0,.67,0,5.3,5.3,0,0,0,3.69-2.16,5.39,5.39,0,0,0,1.07-3.33V6.46a5.46,5.46,0,0,0-5.53-5.4H6.57c-.22,0-.43,0-.64,0A5.31,5.31,0,0,0,2.16,3.23a5.2,5.2,0,0,0-1.1,3.24Z"/></g></g></svg>