<svg xmlns="http://www.w3.org/2000/svg" viewBox="0 0 53.42 53.44"><title>KPI_1</title><g id="Calque_2" data-name="Calque 2"><g id="Calque_1-2" data-name="Calque 1"><rect x="7.73" y="44.98" width="37.65" height="1.25"/><path d="M15.92,42.48H12.78V38.1h3.14Zm.63-5.63H12.16a.63.63,0,0,0-.63.62V43.1a.63.63,0,0,0,.63.63h4.39a.63.63,0,0,0,.63-.63V37.47a.63.63,0,0,0-.63-.62"/><path d="M23.74,42.48H20.6V35h3.14Zm.62-8.76H20a.63.63,0,0,0-.63.62V43.1a.63.63,0,0,0,.63.63h4.39A.63.63,0,0,0,25,43.1V34.34a.63.63,0,0,0-.63-.62"/><path d="M31.55,42.48H28.41V30.59h3.14Zm.63-13.14H27.79a.63.63,0,0,0-.63.62V43.1a.63.63,0,0,0,.63.63h4.39a.63.63,0,0,0,.62-.63V30a.62.62,0,0,0-.62-.62"/><path d="M39.43,42.48H36.3V21.83h3.13Zm.63-21.9H35.67a.63.63,0,0,0-.63.62V43.1a.63.63,0,0,0,.63.63h4.39a.63.63,0,0,0,.63-.63V21.2a.63.63,0,0,0-.63-.62"/><path d="M41.06,13.29a.76.76,0,0,0,0-.15A.47.47,0,0,0,41,13s0,0,0-.06h0a.65.65,0,0,0-.16-.17.58.58,0,0,0-.22-.08l-3.51-.63a.58.58,0,0,0-.68.48.59.59,0,0,0,.48.69l2.06.37L11.12,32.39a.6.6,0,0,0,.67,1L39.64,14.54l-.37,2.12a.59.59,0,0,0,.48.69.58.58,0,0,0,.68-.48l.63-3.51Z"/><rect x="7.73" y="8.58" width="1.25" height="37.65"/><path id="Contour_Fine_tuning" data-name="Contour Fine tuning" d="M26.72,53.44H6.66a6.36,6.36,0,0,1-2.79-.55,6.51,6.51,0,0,1-3.86-6Q0,26.73,0,6.58a6.56,6.56,0,0,1,3.93-6A6.65,6.65,0,0,1,6.54,0H34.11c4.27,0,8.55,0,12.83,0a6.28,6.28,0,0,1,5.9,3.81,6.22,6.22,0,0,1,.58,2.76q0,12.93,0,25.86c0,4.84,0,9.69,0,14.53a6.31,6.31,0,0,1-3.09,5.51,6,6,0,0,1-3.23.94H26.72ZM1.06,26.72V46.81a7.27,7.27,0,0,0,.07,1,5.42,5.42,0,0,0,5.34,4.53H46.93a5.12,5.12,0,0,0,.67,0,5.3,5.3,0,0,0,3.69-2.16,5.39,5.39,0,0,0,1.07-3.33V6.46a5.46,5.46,0,0,0-5.53-5.4H6.57c-.22,0-.43,0-.64,0A5.31,5.31,0,0,0,2.16,3.23a5.2,5.2,0,0,0-1.1,3.24Z"/></g></g></svg>