<svg xmlns="http://www.w3.org/2000/svg" viewBox="0 0 53.42 53.44"><title>newClient_1</title><g id="Calque_2" data-name="Calque 2"><g id="Calque_1-2" data-name="Calque 1"><path d="M48.73,28.63a.66.66,0,0,0-.92,0l-2.64,2.47L33.06,19.13,45.72,7.26a.65.65,0,0,0-.89-1L31.68,18.64a.66.66,0,0,0,0,.94l1.07,1.06-.34.3-7.16-.62a.59.59,0,0,0-.32.06L19.25,23H19.2l-3.26-.58.26-.67a.65.65,0,0,0-.37-.84L5.41,16.69a.65.65,0,1,0-.48,1.21l9.82,3.93L9,36.62,5.39,35.35a.65.65,0,0,0-.83.4.64.64,0,0,0,.39.83l4.17,1.48a.67.67,0,0,0,.83-.38l1-2.47,2.54,1.42-.28.45a2.73,2.73,0,0,0,3.17,4,2.73,2.73,0,0,0,3.55,2.19,2.73,2.73,0,0,0,3.55,2.19,2.75,2.75,0,0,0,1.26,1.92,2.77,2.77,0,0,0,3.2-.23,2.81,2.81,0,0,0,.57-.67l.44-.72.37.23a2.77,2.77,0,0,0,3.19-.23,2.6,2.6,0,0,0,.57-.67,2.64,2.64,0,0,0,.4-1.6,2.72,2.72,0,0,0,.63.08,2.73,2.73,0,0,0,2.74-2.9,2.72,2.72,0,0,0,.63.08,2.75,2.75,0,0,0,2.74-2.91,2.7,2.7,0,0,0,3-1.22,2.75,2.75,0,0,0-.89-3.77l-.45-.27,1.5-1.57,1.4,1.39a.66.66,0,0,0,.9,0l3.1-2.9A.66.66,0,0,0,48.73,28.63Zm-32,10.64a1.44,1.44,0,0,1-2,.47,1.43,1.43,0,0,1-.46-2l3.65-5.92a1.43,1.43,0,0,1,1.94-.48,1.49,1.49,0,0,1,.47,2Zm3.54,2.19A1.43,1.43,0,0,1,17.82,40l2.92-4.73a1.45,1.45,0,0,1,2-.49,1.49,1.49,0,0,1,.47,2Zm3.55,2.19a1.36,1.36,0,0,1-.89.64,1.42,1.42,0,0,1-1.08-.17,1.45,1.45,0,0,1-.47-2l2.19-3.55a1.44,1.44,0,0,1,2-.48,1.48,1.48,0,0,1,.47,2Zm5-.13-1.44,2.32a1.43,1.43,0,0,1-2.44-1.5L26.38,42a1.44,1.44,0,0,1,1.95-.48A1.49,1.49,0,0,1,28.8,43.52Zm8-12.47L41.56,34a1.44,1.44,0,0,1-1.5,2.45L34.9,33.27a.65.65,0,0,0-.89.22.64.64,0,0,0,.21.89l4,2.45a1.43,1.43,0,0,1-1.5,2.44l-3.61-2.21a.64.64,0,0,0-.89.21.65.65,0,0,0,.21.9l2.42,1.48a1.43,1.43,0,0,1-1.5,2.44l-2.15-1.31a.65.65,0,0,0-.62,1.14l.9.56a1.42,1.42,0,0,1,.47,2,1.45,1.45,0,0,1-2,.47l-.36-.22.3-.5a2.8,2.8,0,0,0,.34-2.15A2.7,2.7,0,0,0,29,40.37,2.66,2.66,0,0,0,27.43,40a2.81,2.81,0,0,0,0-1.32,2.68,2.68,0,0,0-2.81-2,2.71,2.71,0,0,0-2.82-3.38,2.78,2.78,0,0,0-1.25-3,2.75,2.75,0,0,0-3.72.92l-2.69,4.35L11.39,34l4.06-10.38,2.21.39a2.74,2.74,0,0,0,2.13,4.46,2.65,2.65,0,0,0,1.13-.25l3.82-1.74,1.83-.9,1.79.32,5.93,3.64ZM35,28.42l-6-3.71a.62.62,0,0,0-.24-.08l-1.89-.34-2.6,1L20.38,27a1.43,1.43,0,1,1-1.19-2.6l6.11-2.78,7.26.62h.06a.62.62,0,0,0,.43-.16l.62-.55,8.7,8.59-1.71,1.78-3.23-2Z"/><path id="Contour_Fine_tuning" data-name="Contour Fine tuning" d="M26.72,53.44H6.66a6.36,6.36,0,0,1-2.79-.55,6.51,6.51,0,0,1-3.86-6Q0,26.73,0,6.58a6.56,6.56,0,0,1,3.93-6A6.65,6.65,0,0,1,6.54,0H34.11c4.27,0,8.55,0,12.83,0a6.28,6.28,0,0,1,5.9,3.81,6.22,6.22,0,0,1,.58,2.76q0,12.93,0,25.86c0,4.84,0,9.69,0,14.53a6.31,6.31,0,0,1-3.09,5.51,6,6,0,0,1-3.23.94H26.72ZM1.06,26.72V46.81a7.27,7.27,0,0,0,.07,1,5.42,5.42,0,0,0,5.34,4.53H46.93a5.12,5.12,0,0,0,.67,0,5.3,5.3,0,0,0,3.69-2.16,5.39,5.39,0,0,0,1.07-3.33V6.46a5.46,5.46,0,0,0-5.53-5.4H6.57c-.22,0-.43,0-.64,0A5.31,5.31,0,0,0,2.16,3.23a5.2,5.2,0,0,0-1.1,3.24Z"/></g></g></svg>