<svg xmlns="http://www.w3.org/2000/svg" viewBox="0 0 53.42 53.44"><title>params_1</title><g id="Calque_2" data-name="Calque 2"><g id="Calque_1-2" data-name="Calque 1"><path d="M47.27,38.34H45.55a.68.68,0,0,0-.66.51,7.23,7.23,0,0,1-.85,2,.68.68,0,0,0,.1.83l1.22,1.2-1.83,1.82-1.21-1.21a.69.69,0,0,0-.84-.1,7.29,7.29,0,0,1-2.06.85.68.68,0,0,0-.51.66v1.71H36.32V45a.68.68,0,0,0-.51-.66,7.29,7.29,0,0,1-2.06-.85.68.68,0,0,0-.83.1L31.7,44.75l-1.82-1.82,1.21-1.2a.68.68,0,0,0,.1-.83,7.11,7.11,0,0,1-.85-2,.68.68,0,0,0-.66-.51H28V35.77h1.72a.68.68,0,0,0,.66-.51,7.11,7.11,0,0,1,.85-2,.68.68,0,0,0-.1-.83l-1.21-1.2,1.82-1.82,1.22,1.2a.68.68,0,0,0,.83.11,7.29,7.29,0,0,1,2.06-.85.68.68,0,0,0,.51-.66v-1.7h2.59v1.7a.68.68,0,0,0,.51.66,7.17,7.17,0,0,1,2.06.85.7.7,0,0,0,.84-.11l1.21-1.2,1.83,1.82-1.22,1.2a.68.68,0,0,0-.1.83,7.11,7.11,0,0,1,.85,2,.68.68,0,0,0,.66.51h1.72ZM48,34.42H46.07a9.11,9.11,0,0,0-.6-1.44l1.33-1.33a.66.66,0,0,0,0-.95L44,27.92a.69.69,0,0,0-1,0l-1.33,1.33a8.69,8.69,0,0,0-1.45-.6V26.78a.69.69,0,0,0-.68-.68h-4a.69.69,0,0,0-.68.68v1.87a8.69,8.69,0,0,0-1.45.6l-1.33-1.33a.69.69,0,0,0-.48-.19.71.71,0,0,0-.48.19L28.43,30.7a.66.66,0,0,0,0,.95L29.76,33a9.11,9.11,0,0,0-.6,1.44H27.28a.67.67,0,0,0-.68.67V39a.67.67,0,0,0,.68.67h1.88a9.11,9.11,0,0,0,.6,1.44l-1.33,1.33a.68.68,0,0,0,0,.95l2.79,2.78a.71.71,0,0,0,.48.19.69.69,0,0,0,.48-.19l1.33-1.33a8.69,8.69,0,0,0,1.45.6v1.87a.68.68,0,0,0,.68.68h4a.68.68,0,0,0,.68-.68V45.46a8.69,8.69,0,0,0,1.45-.6l1.33,1.33a.7.7,0,0,0,1,0l2.79-2.78a.66.66,0,0,0,0-.95l-1.33-1.33a9.11,9.11,0,0,0,.6-1.44H48a.67.67,0,0,0,.68-.67V35.09a.67.67,0,0,0-.68-.67"/><path d="M37.52,41.54A4.49,4.49,0,1,1,42,37.06a4.5,4.5,0,0,1-4.51,4.48m0-10.32a5.84,5.84,0,1,0,5.87,5.84,5.87,5.87,0,0,0-5.87-5.84"/><path d="M40.44,23.49a14.82,14.82,0,0,0-2.82-.28,13.74,13.74,0,0,0-4.89.88v-.2a9.66,9.66,0,1,0-9.66,9.6,10,10,0,0,0,1.1-.06A13.9,13.9,0,0,0,24.26,41H20.5V37.54a.68.68,0,0,0-.51-.66,13.31,13.31,0,0,1-3.7-1.52.68.68,0,0,0-.83.1L13,37.9,9.14,34.06l2.45-2.44a.67.67,0,0,0,.11-.83,13.17,13.17,0,0,1-1.54-3.67.67.67,0,0,0-.66-.52H6V21.17H9.5a.67.67,0,0,0,.66-.51A13.24,13.24,0,0,1,11.7,17a.67.67,0,0,0-.11-.83L9.14,13.72,13,9.87l2.45,2.44a.68.68,0,0,0,.83.1A13.31,13.31,0,0,1,20,10.89a.68.68,0,0,0,.51-.66V6.79H26v3.44a.68.68,0,0,0,.51.66,13.19,13.19,0,0,1,3.7,1.52.7.7,0,0,0,.84-.1l2.45-2.44,3.86,3.85-2.45,2.43a.68.68,0,0,0-.1.83,13.21,13.21,0,0,1,1.53,3.68.68.68,0,0,0,.66.51h3.47Zm.68-3.67H37.49a14.61,14.61,0,0,0-1.28-3.08l2.56-2.55a.66.66,0,0,0,0-.95L34,8.44a.67.67,0,0,0-1,0L30.42,11a14.69,14.69,0,0,0-3.09-1.28V6.11a.69.69,0,0,0-.68-.68H19.82a.69.69,0,0,0-.68.68v3.6A14.92,14.92,0,0,0,16.05,11L13.49,8.44a.67.67,0,0,0-.48-.2.66.66,0,0,0-.48.2L7.7,13.24a.66.66,0,0,0,0,.95l2.56,2.55A14.61,14.61,0,0,0,9,19.82H5.36a.67.67,0,0,0-.68.67v6.79a.67.67,0,0,0,.68.67H9A14.61,14.61,0,0,0,10.26,31L7.7,33.58a.67.67,0,0,0,0,1l4.83,4.79a.66.66,0,0,0,.48.2.67.67,0,0,0,.48-.2l2.56-2.54a15.7,15.7,0,0,0,3.09,1.27v3.6a.68.68,0,0,0,.68.68h5.39a.66.66,0,0,0,.55-.29.66.66,0,0,0,.08-.62,12.51,12.51,0,0,1-.79-4.37,12.29,12.29,0,0,1,.75-4.26.65.65,0,0,0-.13-.68.68.68,0,0,0-.67-.21,8.24,8.24,0,1,1,6.37-8,9.17,9.17,0,0,1-.08,1.16.67.67,0,0,0,.27.64.69.69,0,0,0,.69.07,12.43,12.43,0,0,1,5.37-1.2,12.83,12.83,0,0,1,3.32.44.66.66,0,0,0,.59-.11.68.68,0,0,0,.27-.54V20.49a.68.68,0,0,0-.68-.67"/><path d="M29.23,20.56a.68.68,0,0,0-1.2.65,5.49,5.49,0,0,1,.68,2.67,5.64,5.64,0,1,1-2.16-4.43.68.68,0,0,0,.84-1.06,6.94,6.94,0,1,0,1.84,2.17"/><path d="M37.52,38.93a1.88,1.88,0,1,1,1.89-1.88,1.88,1.88,0,0,1-1.89,1.88m0-5.1a3.23,3.23,0,1,0,3.25,3.22,3.24,3.24,0,0,0-3.25-3.22"/><path id="Contour_Fine_tuning" data-name="Contour Fine tuning" d="M26.72,53.44H6.66a6.36,6.36,0,0,1-2.79-.55,6.51,6.51,0,0,1-3.86-6Q0,26.73,0,6.58a6.56,6.56,0,0,1,3.93-6A6.65,6.65,0,0,1,6.54,0H34.11c4.27,0,8.55,0,12.83,0a6.28,6.28,0,0,1,5.9,3.81,6.22,6.22,0,0,1,.58,2.76q0,12.93,0,25.86c0,4.84,0,9.69,0,14.53a6.31,6.31,0,0,1-3.09,5.51,6,6,0,0,1-3.23.94H26.72ZM1.06,26.72V46.81a7.27,7.27,0,0,0,.07,1,5.42,5.42,0,0,0,5.34,4.53H46.93a5.12,5.12,0,0,0,.67,0,5.3,5.3,0,0,0,3.69-2.16,5.39,5.39,0,0,0,1.07-3.33V6.46a5.46,5.46,0,0,0-5.53-5.4H6.57c-.22,0-.43,0-.64,0A5.31,5.31,0,0,0,2.16,3.23a5.2,5.2,0,0,0-1.1,3.24Z"/></g></g></svg>