<svg xmlns="http://www.w3.org/2000/svg" viewBox="0 0 77.37 77.37"><g id="Calque_2" data-name="Calque 2"><g id="Calque_1-2" data-name="Calque 1"><path d="M6.45,74.79V66.33L21.88,52.08l4.29,4.28a1.29,1.29,0,0,0,1.82,0l12-12L46.8,51.2a1.32,1.32,0,0,0,1,.38,1.3,1.3,0,0,0,.94-.52L72,20.11l-2.06-1.54L47.57,48.33l-6.69-6.69a1.29,1.29,0,0,0-1.82,0l-12,12-4.25-4.24a1.28,1.28,0,0,0-1.78,0L6.45,62.82V48.48l15.36-8.27,4.49,3.37a1.29,1.29,0,0,0,1.81-.26,1.59,1.59,0,0,0,.13-.22l10.88-23,7.75,6.64a1.28,1.28,0,0,0,1.46.15L71.54,14l-1.25-2.25L47.87,24.23l-8.35-7.16a1.3,1.3,0,0,0-1.82.14,1.75,1.75,0,0,0-.18.29L26.59,40.57l-3.9-2.92a1.28,1.28,0,0,0-1.38-.1l-14.86,8V0H3.87V2.58H0V5.16H3.87V20.63H0v2.58H3.87V38.68H0v2.58H3.87V56.74H0v2.57H3.87V76.08a1.29,1.29,0,0,0,1.29,1.29H77.37V74.79Z"/></g></g></svg>