<svg xmlns="http://www.w3.org/2000/svg" viewBox="0 0 32.41 42.5"><defs><style>.cls-1{fill:#e84155;}</style></defs><title>delete</title><g id="Calque_2" data-name="Calque 2"><g id="Calque_1-2" data-name="Calque 1"><path class="cls-1" d="M9.31,3.86a2.18,2.18,0,0,1,2.26-2.19h9.27A2.18,2.18,0,0,1,23.1,3.86V6.27h1.67V3.86A3.85,3.85,0,0,0,20.84,0H11.57A3.85,3.85,0,0,0,7.64,3.86V6.27H9.31Z"/><path class="cls-1" d="M9.21,16.94a.84.84,0,1,1,1.67,0V36.67a.84.84,0,1,1-1.67,0Zm6.16,0a.85.85,0,0,1,.84-.84.84.84,0,0,1,.83.84V36.67a.84.84,0,0,1-.83.84.85.85,0,0,1-.84-.84Zm6.16,0a.84.84,0,1,1,1.67,0V36.67a.84.84,0,1,1-1.67,0ZM6.33,42.5H26.08a3.56,3.56,0,0,0,3.39-3.76V13H3V38.74A3.55,3.55,0,0,0,6.33,42.5"/><path class="cls-1" d="M2.09,11.28H30.32a2.09,2.09,0,0,0,0-4.18H2.09a2.09,2.09,0,0,0,0,4.18"/></g></g></svg>