<svg xmlns="http://www.w3.org/2000/svg" viewBox="0 0 23.23 23.11"><title>edit</title><g id="Calque_2" data-name="Calque 2"><g id="Calque_1-2" data-name="Calque 1"><path d="M21.44,14.51a.58.58,0,0,0-.58.58v5.13A1.73,1.73,0,0,1,19.13,22H2.89a1.73,1.73,0,0,1-1.73-1.74V5.14A1.73,1.73,0,0,1,2.89,3.41H8A.58.58,0,0,0,8,2.25H2.89A2.9,2.9,0,0,0,0,5.14V20.22a2.89,2.89,0,0,0,2.89,2.89H19.13A2.89,2.89,0,0,0,22,20.22V15.09a.58.58,0,0,0-.58-.58"/><path d="M21.65,4.3,21,4.92,18.31,2.19l.62-.61a1.45,1.45,0,0,1,2,0l.68.68a1.43,1.43,0,0,1,0,2M8.5,12.55l2.18,2.18-3,.83Zm.55-1.09L17.5,3l2.72,2.73-8.45,8.45ZM21.79.76a2.61,2.61,0,0,0-3.68,0L7.79,11.08a.57.57,0,0,0-.15.26l-1.36,4.9a.58.58,0,0,0,.15.56A.56.56,0,0,0,7,17l4.9-1.35a.61.61,0,0,0,.26-.15L22.47,5.12a2.6,2.6,0,0,0,0-3.68Z"/></g></g></svg>