<svg xmlns="http://www.w3.org/2000/svg" viewBox="0 0 607.26 188.1"><defs><style>.cls-1{fill:#435363;}.cls-2{fill:#00afaa;}.cls-3{fill:#d9272e;}</style></defs><title>Fichier 374</title><g id="Calque_2" data-name="Calque 2"><g id="Calque_1-2" data-name="Calque 1"><path class="cls-1" d="M376.14,135.35s35.94-73-40.8-73c-67.32,0-89.29,59.12-93.24,73.5-7.69,28.34,6,51.63,41.41,51.63H337l7.09-24.4-49.81-.1s-36,1.32-21.77-27.64ZM331.59,84.84c31.59,0,19.85,25.71,19.85,25.71H283.51s14.58-25.71,48.08-25.71"/><polygon class="cls-1" points="401.75 187.69 370.98 187.69 430.1 0.61 460.77 0.61 401.75 187.69"/><polygon class="cls-1" points="452.67 187.69 421.9 187.69 460.16 67.22 490.94 67.22 452.67 187.69"/><polygon class="cls-1" points="499.24 39.28 468.57 39.28 478.59 6.07 509.36 6.07 499.24 39.28"/><path class="cls-1" d="M467.86,188.1h66.81c5.57,0,43.94-.41,53.45-39.59,8.1-33.51-27.73-34.32-33.2-34.32H535.48c-3.44,0-19.84.91-11.13-12.35a24,24,0,0,1,20-10.83c4,0,54.77-.2,54.77-.2l8.1-23.39-57.81-.2S513.92,65.4,498,94.76c-16.4,30.47,9.82,42.72,28.54,42.72h24.71c3,0,12.55,1.11,9,11.34-3,8.8-13.57,14.07-20.25,14.27-4,.2-63.68,0-63.68,0Z"/><path class="cls-2" d="M92.48,130.19h-.21a11.51,11.51,0,0,1-8.6-3.75,12.14,12.14,0,0,1-2.94-7.89,13.32,13.32,0,0,1,3.75-9.22c2.43-2.53,23.38-23.48,34.42-34.52-4.25-4-7.39-7-8.1-7.79-4.25-4.25-11.34-3.95-10.63-3.85H6.33c-7,0-7.9,8-4.16,11.74,2.94,2.94,31.69,31.79,39.39,39.49,6.78,6.78,6.17,11.13,6.17,11.13s.61,4.36-6.17,11.24c-7.7,7.69-36.45,36.55-39.39,39.48C-1.57,180-.56,188,6.33,188h93.94s6.48.11,10.53-3.84c3.14-3.14,49.71-47.38,49.71-47.38a16.78,16.78,0,0,0,4.45-6.58Z"/><path class="cls-3" d="M137.54,62.46s.61,4.36-6.17,11.14c-7.7,7.69-36.45,36.54-39.38,39.48-3.75,3.75-2.74,11.74,4.25,11.74h93.94s6.48.1,10.53-3.84c3.14-3.14,49.71-47.38,49.71-47.38s5.26-4.35,5.26-10.94v-.4c0-6.68-5.26-10.93-5.26-10.93S203.85,7.09,200.71,4c-4-4-10.53-3.95-10.53-3.95H96.24c-7,0-7.9,8-4.25,11.74,2.93,2.94,31.68,31.79,39.38,39.49,6.78,6.78,6.17,11.23,6.17,11.23"/></g></g></svg>