<svg xmlns="http://www.w3.org/2000/svg" viewBox="0 0 280.34 203.62"><defs><style>.cls-1{fill:#00afa9;}.cls-2{fill:#d9272e;}</style></defs><title>Fichier 378</title><g id="Calque_2" data-name="Calque 2"><g id="Calque_1-2" data-name="Calque 1"><path class="cls-1" d="M96.86,143.07h-.21a12.06,12.06,0,0,1-9-3.92,12.77,12.77,0,0,1-3.08-8.27,13.86,13.86,0,0,1,3.93-9.65C91,118.58,113,96.63,124.54,85.07c-4.46-4.24-7.74-7.32-8.49-8.17-4.45-4.45-11.87-4.13-11.13-4H6.63c-7.32,0-8.28,8.38-4.35,12.3,3.07,3.08,33.19,33.3,41.25,41.36,7.1,7.1,6.46,11.66,6.46,11.66s.64,4.56-6.46,11.77C35.47,158,5.35,188.24,2.28,191.32c-3.93,3.92-2.86,12.3,4.35,12.3H105s6.78.1,11-4c3.29-3.29,52.07-49.63,52.07-49.63a17.5,17.5,0,0,0,4.66-6.89Z"/><path class="cls-2" d="M154.24,66.67s.65,4.65-6.59,11.89c-8.21,8.21-38.9,39-42,42.14-4,4-2.92,12.53,4.54,12.53H210.43s6.92.11,11.24-4.1c3.35-3.35,53.05-50.57,53.05-50.57s5.62-4.65,5.62-11.67v-.44c0-7.13-5.62-11.67-5.62-11.67S225,7.56,221.67,4.21C217.46-.11,210.43,0,210.43,0H110.16c-7.46,0-8.43,8.54-4.54,12.53,3.13,3.14,33.82,33.93,42,42.15,7.24,7.24,6.59,12,6.59,12"/></g></g></svg>