<svg xmlns="http://www.w3.org/2000/svg" viewBox="0 0 29.46 29.05"><defs><style>.cls-1{stroke:#000;stroke-miterlimit:10;}</style></defs><title>Fichier 379</title><g id="Calque_2" data-name="Calque 2"><g id="Calque_1-2" data-name="Calque 1"><path class="cls-1" d="M21.35,12.67a.48.48,0,0,0,.47-.48V7.26a1.13,1.13,0,0,0-.26-.87L21.2,6,16.41,1.14,16.05.77A.9.9,0,0,0,15.42.5H1.67C1.1.5.5.94.5,1.91V27.58a1.11,1.11,0,0,0,.87.93l.07,0,.23,0h19l.22,0,.07,0a1.11,1.11,0,0,0,.87-.93V21.93a.47.47,0,1,0-.94,0v5.43a.24.24,0,0,1-.13.2l-.09,0h-19l-.1,0a.23.23,0,0,1-.12-.2V1.91c0-.1,0-.44.22-.44H15.22a.58.58,0,0,0,0,.19V7.27h5.5l.18,0v4.95A.48.48,0,0,0,21.35,12.67ZM16.14,6.3V2.22l4,4.08Z"/><path d="M17.25,22.93a1.37,1.37,0,0,0,0-2l-2.49-2.49H28.07a1.39,1.39,0,0,0,0-2.78H14.76l2.49-2.48a1.39,1.39,0,1,0-2-2l-4.86,4.86a1.4,1.4,0,0,0-.41,1,1.38,1.38,0,0,0,.41,1l4.86,4.86a1.37,1.37,0,0,0,2,0"/></g></g></svg>