<svg xmlns="http://www.w3.org/2000/svg" viewBox="0 0 62.14 62.14"><defs><style>.cls-1,.cls-2{stroke:#000;stroke-miterlimit:10;}.cls-2{stroke-width:0.5px;}</style></defs><g id="Calque_2" data-name="Calque 2"><g id="Calque_1-2" data-name="Calque 1"><path class="cls-1" d="M45.59,43.28l5.22,16.45H27l-2.5-1.54Zm14.14-10V59.73H52.81c-2-6.14-3.91-12.34-5.58-17.62ZM16.15,27,37.08,46.94,22.68,57.1l-8-4.91a1,1,0,0,0-1,0C9.94,54.37,6.16,56.78,2.41,59V46.23ZM23.3,17l2.94,1.56a.87.87,0,0,0,.44.11h5.89A44.88,44.88,0,0,0,37.19,27a80.23,80.23,0,0,0,5.9,7.61.94.94,0,0,0,1.42,0A80.23,80.23,0,0,0,50.41,27,44.6,44.6,0,0,0,55,18.65h4.69V31L38.67,45.82,17.27,25.43Zm-9.09-4.79,7.38,3.9L2.41,42.94V18.28ZM43.8,9.47a3.28,3.28,0,1,1-3.28,3.27A3.26,3.26,0,0,1,43.8,9.47m0-1.91A5.19,5.19,0,1,0,49,12.74,5.2,5.2,0,0,0,43.8,7.56m0-5.15A10.48,10.48,0,0,1,54.49,12.69c0,3.78-2.76,9-5.66,13.19a81.45,81.45,0,0,1-5,6.58,76,76,0,0,1-5-6.58c-1.09-1.59-5.66-8.23-5.66-13.19A10.48,10.48,0,0,1,43.8,2.41M31.2,12.69a14,14,0,0,0,.68,4h-5L14.66,10.27a1,1,0,0,0-.89,0L1,16.85a.94.94,0,0,0-.52.84v43a1,1,0,0,0,1.43.84c4.1-2.38,8.22-5,12.27-7.39l12,7.37a.9.9,0,0,0,.5.14h34a1,1,0,0,0,1-1v-43a1,1,0,0,0-1-1h-5a14,14,0,0,0,.68-4,12.61,12.61,0,0,0-25.2,0"/><path class="cls-2" d="M45.59,43.28l5.22,16.45H27l-2.5-1.54Zm14.14-10V59.73H52.81c-2-6.14-3.91-12.34-5.58-17.62ZM16.15,27,37.08,46.94,22.68,57.1l-8-4.91a1,1,0,0,0-1,0C9.94,54.37,6.16,56.78,2.41,59V46.23ZM23.3,17l2.94,1.56a.87.87,0,0,0,.44.11h5.89A44.88,44.88,0,0,0,37.19,27a80.23,80.23,0,0,0,5.9,7.61.94.94,0,0,0,1.42,0A80.23,80.23,0,0,0,50.41,27,44.6,44.6,0,0,0,55,18.65h4.69V31L38.67,45.82,17.27,25.43Zm-9.09-4.79,7.38,3.9L2.41,42.94V18.28ZM43.8,9.47a3.28,3.28,0,1,1-3.28,3.27A3.26,3.26,0,0,1,43.8,9.47Zm0-1.91A5.19,5.19,0,1,0,49,12.74,5.2,5.2,0,0,0,43.8,7.56Zm0-5.15A10.48,10.48,0,0,1,54.49,12.69c0,3.78-2.76,9-5.66,13.19a81.45,81.45,0,0,1-5,6.58,76,76,0,0,1-5-6.58c-1.09-1.59-5.66-8.23-5.66-13.19A10.48,10.48,0,0,1,43.8,2.41ZM31.2,12.69a14,14,0,0,0,.68,4h-5L14.66,10.27a1,1,0,0,0-.89,0L1,16.85a.94.94,0,0,0-.52.84v43a1,1,0,0,0,1.43.84c4.1-2.38,8.22-5,12.27-7.39l12,7.37a.9.9,0,0,0,.5.14h34a1,1,0,0,0,1-1v-43a1,1,0,0,0-1-1h-5a14,14,0,0,0,.68-4,12.61,12.61,0,0,0-25.2,0Z"/></g></g></svg>