<svg xmlns="http://www.w3.org/2000/svg" viewBox="0 0 39.48 49.98"><defs><style>.cls-1{fill:#fff;}.cls-2{fill:#cc4a4d;}</style></defs><title>Fichier 389</title><g id="Calque_2" data-name="Calque 2"><g id="Calque_1-2" data-name="Calque 1"><polygon class="cls-1" points="1.04 0.85 1.04 34.35 38.96 34.35 38.96 11.23 28.07 0.85 1.04 0.85"/><rect class="cls-2" x="1.04" y="34.69" width="37.41" height="14.29"/><path d="M1.75,33.61V2.52c0-.19,0-.8.41-.8H27.25a1.27,1.27,0,0,0-.05.34v10H37.39a1.33,1.33,0,0,0,.34-.05v21.6Zm.41,14.64a.47.47,0,0,1-.17,0,.4.4,0,0,1-.24-.36V35.33h36V47.85a.4.4,0,0,1-.23.36.58.58,0,0,1-.18,0Zm34.2-37.91H29V3.07ZM39,10.5l-.68-.66-8.85-8.7L28.79.47A1.68,1.68,0,0,0,27.63,0H2.16A2.25,2.25,0,0,0,0,2.52V48.25A2,2,0,0,0,1.61,49.9l.13,0a3,3,0,0,0,.42,0H37.32a3,3,0,0,0,.42,0l.13,0a2,2,0,0,0,1.61-1.65V12A2,2,0,0,0,39,10.5"/><path class="cls-1" d="M12.84,41.28a1.45,1.45,0,0,1-.35.56,1.23,1.23,0,0,1-.47.29,1.64,1.64,0,0,1-.53.09H10.17V38.78h1.08a1.88,1.88,0,0,1,.89.17,1.3,1.3,0,0,1,.52.42,1.35,1.35,0,0,1,.25.53,2.41,2.41,0,0,1,.06.49,2.54,2.54,0,0,1-.13.89m.68-2.71a2.81,2.81,0,0,0-.92-.49,3.43,3.43,0,0,0-1-.17H8.77v8.62h1.41V43.08h1.34a3.72,3.72,0,0,0,1.19-.18,2.63,2.63,0,0,0,.91-.53,2.31,2.31,0,0,0,.6-.84,2.82,2.82,0,0,0,.21-1.11,2.14,2.14,0,0,0-.25-1.05,2.69,2.69,0,0,0-.66-.8"/><path class="cls-1" d="M20.91,44.71a2.52,2.52,0,0,1-2.21,1H17.2V38.78h.88a4.82,4.82,0,0,1,1.76.27,2.9,2.9,0,0,1,1.08.73,2.4,2.4,0,0,1,.53,1,4.25,4.25,0,0,1,.14,1.12,4.88,4.88,0,0,1-.68,2.8m.87-5.53a4,4,0,0,0-1.4-.92,5.09,5.09,0,0,0-1.94-.35H15.79v8.62h3.32a4.25,4.25,0,0,0,.52,0,3.66,3.66,0,0,0,.76-.19,3.9,3.9,0,0,0,.86-.44,2.92,2.92,0,0,0,.81-.8,4.6,4.6,0,0,0,.58-1.26A6,6,0,0,0,22.88,42a4.07,4.07,0,0,0-.28-1.5,3.77,3.77,0,0,0-.82-1.3"/><polygon class="cls-1" points="25.45 46.53 26.5 46.53 26.5 42.39 29.83 42.39 29.83 41.36 26.5 41.36 26.5 38.95 30.71 38.95 30.71 37.91 25.45 37.91 25.45 46.53"/><path class="cls-2" d="M28.67,21.37a1.34,1.34,0,0,1-1.06.38c-.47,0-.65-.27-1.36-.81a11.86,11.86,0,0,1,1.59-.1,1.83,1.83,0,0,1,1,.17,1.23,1.23,0,0,1-.2.36m-11.32.41a58.91,58.91,0,0,0,2.34-6.51A29.73,29.73,0,0,0,23.05,20a43.91,43.91,0,0,0-5.7,1.74M19.16,8s.92,1,.09,2.78A2.05,2.05,0,0,1,19.16,8M12,27.73c-.41-.31-.39-.52-.38-.6.05-.48.82-1.33,2.69-2.37-1.42,2.58-2.18,2.92-2.31,3m15.7-8.34a16.81,16.81,0,0,0-3,.31,27.55,27.55,0,0,1-4.47-6.52c1.18-4.85.59-5.53.33-5.86s-.66-.9-1.1-.9a4.23,4.23,0,0,0-.9.15,1.65,1.65,0,0,0-1,1C17,9,17.82,11.47,18.7,13.34a57.39,57.39,0,0,1-3.33,9.26c-3.32,1.5-5.09,3-5.25,4.37a2.05,2.05,0,0,0,1,1.93,1.44,1.44,0,0,0,.85.28c.77,0,1.54-.58,2.44-1.82a24.15,24.15,0,0,0,2.09-3.66,42.47,42.47,0,0,1,7.75-2.43c1.38,1.31,2.62,2,3.69,2a2.35,2.35,0,0,0,1.95-1,1.71,1.71,0,0,0,.34-1.86c-.34-.64-1.17-1-2.54-1"/></g></g></svg>